<svg xmlns="http://www.w3.org/2000/svg" id="Layer_1" x="0" y="0" viewBox="0 0 300 80" xml:space="preserve">
  <style>
    .st1{fill:#d23b32}.st2{fill:#61391b}
  </style>
  <linearGradient id="SVGID_1_" gradientUnits="userSpaceOnUse" x1="55.37" y1="-165.864" x2="253.1" y2="-165.864" gradientTransform="matrix(1 0 0 -1 -6.26 -144.41)">
    <stop offset="0" stop-color="#fde851"/>
    <stop offset="1" stop-color="#ea4b41"/>
  </linearGradient>
  <path d="M49.1 36.9L181 6s-17.7 8.8-14.9 17.3c2.9 8.5 80.7 13.6 80.7 13.6H49.1z" fill="url(#SVGID_1_)" stroke="#996828" stroke-miterlimit="10"/>
  <path class="st1" d="M197.4 22.3H189l-2.5 4.6H182L193.9 6h4.8l3.4 20.9H198l-.6-4.6zm-.6-3.5l-1.2-8.4-5.1 8.4h6.3zM220.1 19.4l4.4.7c-.9 2.3-2.1 4.1-3.8 5.4-1.7 1.3-3.8 1.9-6 1.9-2.6 0-4.6-.8-6-2.3s-2.2-3.8-2.2-6.7c0-2.3.5-4.5 1.5-6.5 1.7-3.7 5.5-6.1 9.7-6.1 2.3 0 4.1.6 5.5 1.8s2.2 2.9 2.5 5l-4.2.4c-.2-1.2-.7-2.1-1.3-2.6-.7-.5-1.5-.8-2.6-.8-1.2 0-2.4.4-3.4 1.1-1 .7-1.9 1.9-2.5 3.4-.6 1.5-.9 3-.9 4.6 0 1.7.4 3 1.2 3.9.7.9 1.9 1.4 3 1.4s2.2-.4 3.1-1.1c.8-1.1 1.5-2.1 2-3.5zM225.9 26.9L230.3 6h4.3l-4.4 20.9h-4.3zM234.9 20.1l4.1-.2c.1 1.3.3 2.2.7 2.6.6.7 1.8 1.1 3.5 1.1 1.4 0 2.4-.3 3.1-.8.6-.4.9-1.1.9-1.8 0-.6-.3-1.2-.8-1.6-.4-.3-1.4-.8-3-1.5-1.2-.5-2.4-1.1-3.6-1.8-.7-.5-1.3-1.1-1.8-1.8-.4-.8-.7-1.7-.6-2.6 0-1.7.7-3.3 1.9-4.4 1.3-1.2 3.1-1.7 5.6-1.7 2.5 0 4.4.6 5.7 1.7s2.1 2.7 2.2 4.6l-4.2.2c0-.9-.4-1.7-1-2.3-.6-.5-1.5-.8-2.8-.8-1.2 0-2.1.2-2.6.6-.5.4-.8 1-.8 1.6 0 .6.2 1.1.7 1.5.5.4 1.5.9 3.1 1.6 2.4 1 4 1.9 4.6 2.5 1 1 1.5 2.3 1.5 3.7 0 1.8-.7 3.4-2.2 4.7-1.5 1.3-3.5 2-6.1 2-1.6 0-3.2-.3-4.7-.9-1.3-.6-2.3-1.4-2.8-2.5-.4-1.1-.7-2.4-.6-3.7z"/>
  <path class="st2" d="M64.3 43.7s-.3 1.8-.5 3.6l-1.1 7.1H60L62.3 40h2.9l5.1 10.5s.2-1.7.5-3.4l1.1-7.1h2.6l-2.3 14.4h-2.7l-5.2-10.7zM79.5 54.6c-2.7 0-4.5-1.7-4.5-4.5 0-3.6 2.9-6.1 6.2-6.1 2.7 0 4.5 1.8 4.5 4.5 0 3.6-2.9 6.1-6.2 6.1zm3.5-5.9c0-1.4-.7-2.5-2.1-2.5-1.9 0-3.1 1.7-3.1 3.7 0 1.4.7 2.5 2.1 2.5 1.8-.1 3.1-1.8 3.1-3.7zM94.3 44.2l-.6 2.3h-.1c-.3-.1-.7-.1-1-.1-1.8 0-2.3 1.5-2.5 3l-.8 5h-2.6L88 46c.1-.6.2-1.2.1-1.8h2.6c0 .5 0 1.1-.1 1.6.6-1.1 1.6-1.8 2.7-1.8.4 0 .7.1 1 .2zM99.6 52.1l-.2 2.1c-.7.2-1.4.3-2 .3-2 0-2.7-1-2.3-3.6l.7-4.7h-1.5l.3-2.1h1.5l.2-1.1c.1-.6.1-1.2.1-1.8H99c0 .8 0 1.6-.2 2.4l-.1.5h2.2l-.3 2.1h-2.2l-.7 4.1c-.3 1.5-.1 1.9.8 1.9.5.1.8.1 1.1-.1zM111.1 48.3l-.6 3.8c-.1.7-.2 1.5-.1 2.2h-2.7c-.1-.9 0-1.4.2-2.6l.4-2.8c.2-1.5.2-2.7-1.3-2.7s-2.2 1-2.4 2.6l-.9 5.6H101l2-12.6c.1-.6.2-1.2.1-1.8h2.6c.1.5 0 1 0 1.5l-.7 4.3h.1c.7-1.1 1.9-1.7 3.2-1.7 2.8-.1 3.1 1.8 2.8 4.2zM115.1 50.1c0 1.6 1.1 2.3 2.3 2.3 1.2 0 2.3-.4 3.3-1l.8 1.4c-1.4 1.1-3.1 1.7-4.8 1.7-2.6 0-4.3-1.7-4.3-4.3 0-3.6 3-6.3 6.5-6.3 2.4 0 3.6 1.3 3.6 2.7 0 2-1.9 3.6-4.7 3.6-.9.1-1.8 0-2.7-.1zm.3-1.7c.4 0 .8.1 1.1.1 2.5 0 3.6-.5 3.6-1.5 0-.6-.6-1.1-1.4-1.1-1.5 0-2.9 1-3.3 2.5zM129.1 44c1.4 0 2.3.5 2.8 1.6l.2-1.2h2.6l-1.2 7.8c-.2.7-.2 1.4-.1 2.2h-2.5c-.1-.5-.1-1.1 0-1.6-.8 1.2-2.2 1.8-3.6 1.8-2.5 0-3.9-1.9-3.9-4.4 0-3.4 2.4-6.2 5.7-6.2zm.1 2c-1.9 0-3.1 1.8-3.1 3.7 0 1.5.8 2.6 2.2 2.6 1.7 0 3.1-1.5 3.1-3.7 0-1.3-.8-2.5-2.2-2.6zM136 47.6c0-2.2 2-3.6 4-3.6 1.7 0 2.6.5 3.4 1.1l-1.4 1.8c-.6-.5-1.3-.8-2.1-.9-.9 0-1.4.4-1.4.9 0 .4.3.8 1.5 1.2l.3.1c1.9.6 2.5 1.3 2.5 2.5 0 2.2-1.8 3.8-4.4 3.8-1.5 0-3.1-.6-3.7-1.6l1.3-1.8c1 .9 1.9 1.4 2.7 1.4 1.1 0 1.5-.5 1.5-1.1 0-.4-.3-.7-1.4-1.1-1.8-.6-2.8-1.2-2.8-2.7zM149.4 52.1l-.2 2.1c-.7.2-1.4.3-2 .3-2 0-2.7-1-2.3-3.6l.7-4.7h-1.5l.3-2.1h1.5l.2-1.1c.1-.6.1-1.2.1-1.8h2.6c0 .8 0 1.6-.2 2.4l-.1.5h2.2l-.3 2.1h-2.2l-.7 4.1c-.3 1.5-.1 1.9.8 1.9.5.1.8.1 1.1-.1zM159.9 48.5h-1.2l-.9 5.9H155l2.3-14.4h4.5c2.6 0 4.4 1.3 4.4 3.6 0 2.8-1.5 4-3.7 4.7l2.7 6.2h-3.1l-2.2-6zm3.6-4.7c0-1.3-.9-1.8-2.4-1.8h-1.4l-.7 4.3h1.3c1.9 0 3.2-.7 3.2-2.5zM169.3 50.1c0 1.6 1.1 2.3 2.3 2.3 1.2 0 2.3-.4 3.3-1l.8 1.4c-1.4 1.1-3.1 1.7-4.8 1.7-2.6 0-4.3-1.7-4.3-4.3 0-3.6 3-6.3 6.5-6.3 2.4 0 3.6 1.3 3.6 2.7 0 2-1.9 3.6-4.7 3.6-.9.1-1.8 0-2.7-.1zm.2-1.7c.4 0 .8.1 1.1.1 2.5 0 3.6-.5 3.6-1.5 0-.6-.6-1.1-1.4-1.1-1.5 0-2.8 1-3.3 2.5zM183.2 44c1.4 0 2.3.5 2.8 1.6h.1c.1-.5.2-.9.4-1.4h2.7c-.3.7-.5 1.4-.6 2.2l-.9 5.9c-.4 2.2-1 3.5-2 4.4-1.3 1.2-3 1.8-4.7 1.8-1.6 0-3.1-.5-4.3-1.5l1.3-2c.6.5 2 1.2 3.3 1.2 2.3 0 3.3-1.2 3.6-3.3l.1-.6c-.8 1.1-2.1 1.7-3.5 1.7-2.3 0-4-1.4-4-3.9 0-3.3 2.4-6.1 5.7-6.1zm.2 2.1c-1.9 0-3.1 1.6-3.1 3.5 0 1.5.9 2.3 2.3 2.3 1.7 0 3-1.2 3-3.1 0-1.5-.8-2.7-2.2-2.7zM190.3 51.7l.9-5.7c.1-.6.2-1.2.1-1.8h2.6c.1.8 0 1.6-.2 2.4l-.9 5.6c-.2.7-.2 1.5-.1 2.2h-2.6c0-1 0-1.5.2-2.7zm2.8-9.1c-.8 0-1.4-.5-1.4-1.3 0-1 .8-1.7 1.8-1.7.8 0 1.4.6 1.4 1.3.1 1-.7 1.7-1.8 1.7zM199.6 54.6c-2.7 0-4.5-1.7-4.5-4.5 0-3.6 2.9-6.1 6.2-6.1 2.7 0 4.5 1.8 4.5 4.5 0 3.6-2.8 6.1-6.2 6.1zm3.5-5.9c0-1.4-.7-2.5-2.1-2.5-1.9 0-3.1 1.7-3.1 3.7 0 1.4.7 2.5 2.1 2.5 1.8-.1 3.1-1.8 3.1-3.7zM216.8 48.3l-.6 3.8c-.2.7-.2 1.5-.1 2.2h-2.7c-.1-.9 0-1.4.2-2.6l.4-2.8c.2-1.5.2-2.7-1.3-2.7s-2.2 1-2.4 2.6l-.9 5.6h-2.7l1.3-8.3c.1-.6.2-1.2.1-1.8h2.6v1.5h.1c.7-1.1 1.9-1.7 3.2-1.7 2.8-.1 3.2 1.8 2.8 4.2zM223.9 44c1.4 0 2.3.5 2.8 1.6l.2-1.2h2.6l-1.2 7.8c-.2.7-.2 1.4-.1 2.2h-2.5c-.1-.5-.1-1.1 0-1.6-.8 1.1-2.2 1.8-3.6 1.8-2.5 0-3.9-1.9-3.9-4.4-.1-3.4 2.3-6.2 5.7-6.2zm.1 2c-1.9 0-3.1 1.8-3.1 3.7 0 1.5.8 2.6 2.2 2.6 1.7 0 3.1-1.5 3.1-3.7 0-1.3-.8-2.5-2.2-2.6zM230.8 51.7l1.6-10c.1-.6.2-1.2.1-1.8h2.6c0 .8 0 1.6-.2 2.4l-1.6 9.9c-.2.7-.2 1.5-.1 2.2h-2.6c-.1-1-.1-1.5.2-2.7zM86.8 79.7c-3.6 0-6.1-2.4-6.1-6.3 0-5.2 4-8.6 8.5-8.6 2.7 0 4.1 1.2 4.5 1.8l-1.3 2.2c-.3-.6-1.7-1.7-3.7-1.7-2.7 0-5.3 2.1-5.3 6 0 2.6 1.4 4.2 3.8 4.2 1.6 0 3.1-.6 4.2-1.8l.6 2c-1.3 1.5-3.2 2.2-5.2 2.2zM93.7 76.8l1.6-10c.1-.6.2-1.2.1-1.8H98c0 .8 0 1.6-.2 2.4l-1.6 9.9c-.2.7-.2 1.5-.1 2.2h-2.6c0-.9 0-1.4.2-2.7zM98.9 76.8l.9-5.7c.1-.6.2-1.2.1-1.8h2.6c.1.8 0 1.6-.2 2.4l-.9 5.6c-.2.7-.2 1.5-.1 2.2h-2.6c-.1-.9 0-1.4.2-2.7zm2.8-9.1c-.8 0-1.4-.5-1.4-1.3 0-1 .8-1.7 1.8-1.7.8 0 1.4.6 1.4 1.3 0 1-.8 1.7-1.8 1.7zM119.3 73.3l-.6 3.9c-.1.7-.3 1.5-.1 2.2h-2.7c-.1-.9 0-1.4.2-2.6l.5-3c.2-1.2.1-2.4-1.1-2.4s-2.1 1.2-2.3 2.9l-.8 5.2h-2.6l.9-5.7c.2-1.4 0-2.4-1.2-2.4-1.3 0-2 1.3-2.3 2.9l-.8 5.2h-2.7l1.3-8.3c.1-.6.2-1.2.1-1.8h2.6v1.5h.1c.7-1 1.9-1.7 3.2-1.7 1.4 0 2.2.6 2.4 1.9.8-1.2 2.1-1.9 3.5-1.9 2.4-.1 2.8 1.8 2.4 4.1zM126.3 69.1c1.4 0 2.3.5 2.8 1.6l.2-1.2h2.6l-1.2 7.8c-.2.7-.2 1.4-.1 2.2h-2.5c-.1-.5-.1-1.1 0-1.6-.8 1.1-2.2 1.8-3.6 1.8-2.5 0-3.9-1.9-3.9-4.4 0-3.3 2.4-6.2 5.7-6.2zm.2 2.1c-1.9 0-3.1 1.8-3.1 3.7 0 1.5.8 2.6 2.2 2.6 1.7 0 3.1-1.5 3.1-3.7 0-1.4-.8-2.6-2.2-2.6zM138.2 77.3l-.2 2.1c-.7.2-1.4.3-2 .3-2 0-2.7-1-2.3-3.6l.7-4.7H133l.3-2.1h1.5l.2-1.1c.1-.6.1-1.2.1-1.8h2.6c0 .8 0 1.6-.2 2.4l-.1.5h2.2l-.3 2.1H137l-.7 4.1c-.3 1.5-.1 1.9.8 1.9.4 0 .8 0 1.1-.1zM142.3 75.3c0 1.6 1.1 2.3 2.3 2.3 1.2 0 2.3-.4 3.3-1l.8 1.4c-1.4 1.1-3.1 1.7-4.8 1.7-2.6 0-4.3-1.7-4.3-4.3 0-3.6 3-6.3 6.5-6.3 2.4 0 3.6 1.3 3.6 2.7 0 2-1.9 3.6-4.7 3.6-.9 0-1.8 0-2.7-.1zm.2-1.8c.4 0 .8.1 1.1.1 2.5 0 3.6-.5 3.6-1.5 0-.6-.6-1.1-1.4-1.1-1.5 0-2.8 1-3.3 2.5zM161.3 79.7c-3.6 0-6.1-2.4-6.1-6.3 0-5.2 4-8.6 8.5-8.6 2.7 0 4.1 1.2 4.5 1.8l-1.3 2.2c-.3-.6-1.7-1.7-3.7-1.7-2.7 0-5.3 2.1-5.3 6 0 2.6 1.4 4.2 3.8 4.2 1.6 0 3.1-.6 4.2-1.8l.6 2c-1.3 1.5-3.2 2.2-5.2 2.2zM170.3 75.3c0 1.6 1.1 2.3 2.3 2.3 1.2 0 2.3-.4 3.3-1l.8 1.4c-1.4 1.1-3.1 1.7-4.8 1.7-2.6 0-4.3-1.7-4.3-4.3 0-3.6 3-6.3 6.5-6.3 2.4 0 3.6 1.3 3.6 2.7 0 2-1.9 3.6-4.7 3.6-.9 0-1.8 0-2.7-.1zm.3-1.8c.4 0 .8.1 1.1.1 2.5 0 3.6-.5 3.6-1.5 0-.6-.6-1.1-1.4-1.1-1.6 0-2.9 1-3.3 2.5zM188.7 73.4l-.6 3.8c-.2.7-.2 1.5-.1 2.2h-2.7c-.1-.9 0-1.4.2-2.6l.4-2.8c.2-1.5.2-2.7-1.3-2.7s-2.2 1-2.4 2.6l-.9 5.6h-2.7l1.3-8.3c.1-.6.2-1.2.1-1.8h2.6v1.5h.1c.7-1.1 1.9-1.7 3.2-1.7 2.8-.1 3.1 1.8 2.8 4.2zM195.4 77.3l-.2 2.1c-.7.2-1.4.3-2 .3-2 0-2.7-1-2.3-3.6l.7-4.7h-1.5l.3-2.1h1.5l.2-1.1c.1-.6.1-1.2.1-1.8h2.6c0 .8 0 1.6-.2 2.4l-.1.5h2.2l-.3 2.1h-2.2l-.6 4.1c-.3 1.5-.1 1.9.8 1.9.3 0 .7 0 1-.1zM199.5 75.3c0 1.6 1.1 2.3 2.3 2.3 1.2 0 2.3-.4 3.3-1l.8 1.4c-1.4 1.1-3.1 1.7-4.8 1.7-2.6 0-4.3-1.7-4.3-4.3 0-3.6 3-6.3 6.5-6.3 2.4 0 3.6 1.3 3.6 2.7 0 2-1.9 3.6-4.7 3.6-.9 0-1.8 0-2.7-.1zm.2-1.8c.4 0 .8.1 1.1.1 2.5 0 3.6-.5 3.6-1.5 0-.6-.6-1.1-1.4-1.1-1.5 0-2.9 1-3.3 2.5zM215.4 69.3l-.6 2.3h-.1c-.3-.1-.7-.1-1-.1-1.8 0-2.3 1.5-2.5 3l-.8 5h-2.6l1.3-8.3c.1-.6.2-1.2.1-1.8h2.6c0 .5 0 1.1-.1 1.6.6-1.1 1.6-1.8 2.7-1.8.4-.1.7 0 1 .1zM48.8.3H52c1.8 0 3.1.8 3.1 2.7 0 2.3-2 3.7-4.2 3.7h-1.3l-.7 4.1h-2L48.8.3zm4.3 2.9c0-1-.7-1.4-1.6-1.4h-1L50 5h1c1.1.1 2.1-.6 2.1-1.8zM58.3 10.9c-1.9 0-3.3-1.3-3.3-3.2 0-2.6 2.1-4.4 4.5-4.4 1.9 0 3.3 1.3 3.3 3.2 0 2.7-2.1 4.4-4.5 4.4zm2.4-4.2c0-1-.5-1.8-1.5-1.8-1.4 0-2.2 1.2-2.2 2.7 0 1 .5 1.8 1.5 1.8 1.3-.1 2.3-1.3 2.2-2.7zM64.7 10.8l-1.1-7.3h1.9l.6 5.2 2.4-5.2h1.6l.9 5.1 2.2-5.1h1.9l-3.5 7.3h-1.8l-.9-5-2.3 5h-1.9zM76.7 7.7c0 1.1.8 1.7 1.6 1.7s1.7-.3 2.4-.7l.6 1c-1 .8-2.2 1.2-3.5 1.2-1.9 0-3.1-1.2-3.1-3.1 0-2.5 2.1-4.6 4.7-4.5 1.7 0 2.6.9 2.6 2 0 1.4-1.3 2.6-3.4 2.6-.6-.1-1.3-.1-1.9-.2zm.2-1.2h.8c1.8 0 2.6-.3 2.6-1.1 0-.5-.4-.8-1-.8-1.1.1-2.1.8-2.4 1.9zM88.2 3.4l-.4 1.7h-.1c-.2-.1-.5-.1-.7-.1-1.3 0-1.6 1.1-1.8 2.1l-.6 3.6h-1.9l1-6c.1-.4.1-.9.1-1.3h1.9c0 .4 0 .8-.1 1.2.4-.8 1.2-1.3 1.9-1.3.3 0 .5 0 .7.1zM90 7.7c0 1.1.8 1.7 1.6 1.7s1.7-.3 2.4-.7l.6 1c-1 .8-2.2 1.2-3.5 1.2-1.9 0-3.1-1.2-3.1-3.1 0-2.5 2.1-4.6 4.7-4.5 1.7 0 2.6.9 2.6 2 0 1.4-1.3 2.6-3.4 2.6-.6-.1-1.3-.1-1.9-.2zm.2-1.2h.8c1.8 0 2.6-.3 2.6-1.1 0-.5-.4-.8-1-.8-1.1.1-2.1.8-2.4 1.9zM100.1 3.3c1 0 1.7.4 2 1.2l.4-2.8c.1-.4.1-.9.1-1.3h1.9c0 .6 0 1.1-.1 1.7l-1.1 7.2c-.1.5-.1 1-.1 1.6h-1.8c-.1-.4-.1-.8 0-1.2-.6.8-1.6 1.3-2.6 1.3C97 10.9 96 9.6 96 7.8c0-2.5 1.7-4.5 4.1-4.5zm.1 1.5c-1.3 0-2.3 1.3-2.3 2.7 0 1.1.6 1.9 1.6 1.9 1.3 0 2.3-1.1 2.3-2.7 0-1.1-.6-1.9-1.6-1.9zM109.5 10.8h-1.8c.2-.4.3-.9.4-1.3l1.1-7.2c.1-.6.2-1.3.4-1.9h1.9c-.2.5-.3 1-.4 1.6l-.3 1.7c0 .3-.1.6-.2.9.6-.7 1.5-1.2 2.5-1.2 1.8 0 2.8 1.4 2.8 3.2 0 2.4-1.7 4.5-4.1 4.5-1 0-1.7-.4-2.1-1.2.1.2-.1.5-.2.9zm2.4-1.4c1.3 0 2.3-1.3 2.3-2.7 0-1.1-.6-1.9-1.6-1.9-1.3 0-2.3 1.1-2.3 2.7 0 1 .5 1.9 1.6 1.9zM116.8 3.4h2l1 5.2 2.6-5.2h2l-4.6 8.3c-.7 1.3-1.4 1.9-2.4 1.9-.6 0-1.1-.1-1.6-.3l.6-1.5c.3.1.5.2.8.2.4 0 .7-.2.9-.5l.4-.8-1.7-7.3z"/>
</svg>
