<svg xmlns="http://www.w3.org/2000/svg" id="Layer_1" x="0" y="0" viewBox="0 0 356.6 80" xml:space="preserve">
  <style>
    .st0{fill:#b32025}
  </style>
  <path class="st0" d="M39.9 0C17.9 0 0 17.9 0 39.9S17.9 80 39.9 80s39.9-18.1 39.9-40.1S61.9 0 39.9 0zm0 75.5c-19.6 0-35.6-15.9-35.6-35.6s16-35.5 35.6-35.5S75.4 20.3 75.5 40c0 19.5-16 35.5-35.6 35.5z"/>
  <path class="st0" d="M15.7 46.6c0 18.1 22.6 27.9 23.5 28.3l.6.2.7-.4C41.6 74.3 64 64.2 64 47V14.4H15.7v32.2zm3.5.1v-9.8h19.6v2.5c-.5-.1-1.6-.4-2.8-.2-.6 0-1.3.2-2 .2-1.1 0-2 .2-2.9.2h-5v22h4.3c1.7 0 2.8-.2 3.9-.2 1-.2 1.9-.2 3.3-.2.2 0 .4.2.6.4.1.1.2.3.4.5V71c-5.2-2.7-19.4-11.3-19.4-24.3zM38.8 59c-.3-.1-.7-.2-1.1-.2-1.5 0-2.4 0-3.4.2-1.1 0-2.2.2-3.7.2h-1.5v-17h2.4c.8 0 1.9 0 3-.2.6 0 1.3-.2 2-.2 1.1-.2 2.2 0 2.2 0s.1 0 .1.1V59zm2.6-17c.1 0 .2-.1.3-.1 0 0 1.1-.2 2.2 0 .6 0 1.3.2 2 .2 1.1 0 2.2.2 3 .2h2.4v17h-1.5c-1.5 0-2.6-.2-3.7-.2-1.1-.2-2.2-.2-3.5-.2-.4 0-.8.1-1.1.2V42zm0 0v-.1.1c0-.1 0-.1 0 0zm0 29.1v-9c.2-.1.4-.2.6-.4.2-.4.2-.4.6-.4 1.3 0 2.2.2 3.3.2 1.1 0 2.2.2 3.9.2h4.3v-22h-5c-.9 0-1.8 0-2.9-.2-.6 0-1.3-.2-2-.2-1.2 0-2.5.2-2.9.2V37H61v10.4c0 12.2-14.4 20.9-19.6 23.7zM61 34H19.2V17.9H61V34z"/>
  <path class="st0" d="M25.1 30.5c1.5 1.1 4.1 2.6 4.1 2.6l.4.2.6-.2c.2 0 2.6-1.5 4.3-2.6 1.3-.9 2-1.8 2-2.9v-9.2H22.9v9.2c.3.9.9 2 2.2 2.9zm8.1-1.8c-1.1.7-2.8 1.8-3.7 2.2-.9-.5-2.4-1.6-3.5-2.2-.7-.4-1.1-1.1-1.1-1.3v-2.8h9.4v3c0 .5-.7.9-1.1 1.1zm-8.3-8.2v.2h9.4v2h-9.4c-.1-.8-.1-1.5 0-2.2zM46.4 30.5c1.5 1.1 4.1 2.6 4.1 2.6l.4.2.6-.2c.2 0 2.6-1.5 4.3-2.6 1.3-.9 2-1.8 2-2.9v-9.2H44.2v9.2c.3.9.9 2 2.2 2.9zm8.2-1.8c-1.1.7-2.8 1.8-3.7 2.2-.9-.5-2.4-1.6-3.5-2.2-.7-.4-1.1-1.1-1.1-1.3V27l4.6-3.3 4.8 3.1v.7c-.1.6-.7 1-1.1 1.2zm-8.3-8.2v.2h9.4v3.9l-4.8-3.3-4.6 3.2c-.1-1.2-.1-2.7 0-4zM30.5 44.7h5.7v2h-5.7zM30.5 49.2h5.7v2h-5.7zM30.5 53.9h5.7v2h-5.7zM43.2 44.7h5.7v2h-5.7zM43.2 49.2h5.7v2h-5.7zM43.2 53.9h5.7v2h-5.7zM100.7 31.8c.8-.8 1.8-1.4 2.9-1.8 1.1-.4 2.4-.6 4-.6 2.1 0 3.7.3 4.8.8 1.1.5 1.7 1.3 1.8 2.4v2h1c.1-1.2.2-2.3.4-3.3.1-.6.3-1.2.6-1.8-.3 0-1-.2-2.3-.6-1.2-.3-2.3-.6-3.1-.7-.8-.1-1.8-.2-2.8-.2-4.3 0-7.6 1.2-10.1 3.5s-3.7 5.2-3.7 8.8c0 1.4.2 2.7.6 3.8.4 1.2.9 2.3 1.6 3.2.7 1 1.6 1.9 2.7 2.7s2.4 1.4 3.9 1.9c1.5.4 3.1.6 4.8.6 1.4 0 2.8-.2 4-.4 1.2-.3 2.5-.8 3.8-1.4l.6-1.5-.3-.4c-.9.6-1.8 1.1-2.6 1.4-1.3.4-2.7.6-4.2.6-3.4 0-6.1-1-8.1-3.1-2.1-2.1-3.1-4.7-3.1-8.1 0-1.9.3-3.5.8-4.8.5-1.2 1.1-2.2 2-3zM126 36.1c-2.5 0-4.5.8-6.1 2.3-1.6 1.6-2.4 3.6-2.4 6.1 0 1.4.2 2.7.8 3.9.3.7.7 1.4 1.3 2 .6.6 1.3 1.2 2.2 1.6s2 .6 3.3.6c1.7 0 3.2-.4 4.5-1.1 1.4-.8 2.4-1.8 3.2-3.1s1.1-2.8 1.1-4.4c0-2.3-.7-4.2-2.2-5.7-1.5-1.5-3.4-2.2-5.7-2.2zm3.4 13.8c-.9 1-1.9 1.5-3.2 1.5-1 0-1.9-.3-2.8-1s-1.5-1.7-2-3.1-.7-2.8-.7-4.1c0-2.1.4-3.6 1.3-4.6.8-1 1.9-1.5 3.3-1.5 1 0 1.9.3 2.6.8.8.5 1.4 1.4 2 2.7.5 1.3.8 2.8.8 4.5 0 2.2-.5 3.8-1.3 4.8zM144.7 36.1c-.5 0-.9.1-1.3.3-.4.2-.8.4-1.1.7-.2.2-.5.5-.9 1.1-.4.6-.9 1.1-1.4 1.7 0-1.4 0-2.5.1-3.1v-.3c0-.1 0-.2-.1-.2 0 0-.1-.1-.2-.1s-.2 0-.4.2c-1 .5-2.7.9-4.9 1.2v.9c1.3 0 2 0 2.2.1.2.1.3.2.4.3.1.1.1.5.1 1.2V45c0 .1 0 1.7-.1 4.6 0 .5-.1.9-.2 1.2 0 .1-.1.2-.2.3-.1.1-.2.1-.4.2-.1 0-.8 0-2 .1v.9c1.3-.1 2.7-.1 4.1-.1 1.4 0 3 0 5 .1v-.9c-1.4-.1-2.4-.2-2.7-.3-.2 0-.3-.1-.4-.2-.1-.1-.1-.2-.2-.4 0-.2-.1-.6-.1-1.3 0-1.9-.1-3.3-.1-4v-1.7c0-1.4.3-2.5.9-3.2.6-.7 1.3-1 2.2-1 .5 0 .9.1 1.3.4.3.2.6.6.9 1.2h.7c0-1.1.1-2.4.3-3.9l-.1-.2c-.5-.6-1-.7-1.4-.7zM164.1 50.9c-.1-.1-.2-.4-.3-.7-.1-.5-.1-1.5-.1-2.9v-2.9c0-2.3 0-3.7-.1-4.2-.1-.8-.4-1.5-.8-2.1-.4-.6-1-1-1.8-1.4-.8-.4-1.7-.6-2.5-.6s-1.7.2-2.6.5l-3.1 2.6c0-1.3.1-2.1.1-2.5v-.3c0-.1 0-.2-.1-.2 0 0-.1-.1-.2-.1s-.2 0-.4.2c-1 .5-2.7.9-4.9 1.2v.9c1.3 0 2 0 2.2.1.2.1.3.2.4.3.1.1.1.5.2 1.2v4.9c-.1 3-.1 4.6-.1 4.8 0 .6-.1 1-.2 1.2l-.3.3c-.1.1-.3.1-.5.1h-1.6v.9c2.1-.1 3.6-.1 4.5-.1 1.1 0 2.3 0 3.7.1v-.9h-1.8c-.2 0-.3-.1-.4-.2-.1-.1-.2-.2-.2-.3-.1-.2-.2-.7-.2-1.2 0-.2 0-1.8-.1-4.7v-2c0-1.2.2-2.1.4-2.6.3-.5.8-1 1.5-1.4s1.4-.6 2.3-.6c.9 0 1.7.2 2.4.7s1.1 1 1.3 1.8c.1.5.2 1.7.2 3.4V47c0 .7-.1 2.5-.2 5.2 1.4-.1 2.5-.1 3.1-.1.7 0 1.6 0 2.7.1v-.9h-1.8c-.4-.2-.5-.3-.7-.4zM177.9 36.9c-1-.6-2.1-.8-3.4-.8-1 0-2 .2-2.8.6-.7.3-1.3.6-2 1.1-.7.5-1.2.9-1.5 1.2-.4.5-.8 1.2-1.2 2.3-.4 1-.5 2.2-.5 3.4 0 1.6.3 3 1 4.3.6 1.2 1.6 2.1 2.7 2.7 1.2.6 2.5.9 4 .9.7 0 1.4-.1 2.1-.2s1.3-.4 1.8-.6c.4-.2.9-.5 1.7-.9l.5-1.2-.3-.3c-1 .6-1.8 1-2.5 1.2-.7.2-1.3.3-2 .3-1 0-2-.2-2.9-.7-.9-.5-1.7-1.2-2.2-2.2-.5-1-.8-2.3-.8-3.8h5.3c1.2 0 2.4 0 3.6-.1.6 0 1.3-.1 2.1-.3 0-.4.1-.8.1-1.1 0-1.2-.2-2.3-.7-3.3-.4-1.2-1.1-1.9-2.1-2.5zm-.2 5.9c-.5 0-1.4.1-2.9.1-.6 0-1.8 0-3.4-.1-.9 0-1.4-.1-1.8-.1 0-1.9.4-3.3 1.2-4.2.8-.9 1.8-1.3 3-1.3s2.1.4 2.8 1.2c.7.8 1.1 2.1 1.1 3.8v.6zM187.3 50.9c-.1-.1-.2-.2-.2-.3-.1-.2-.2-.6-.2-1.2 0-.2 0-1.8-.1-4.7V33.5c0-1.4 0-3.1.1-5.1v-.6-.3c0-.1 0-.2-.1-.2 0 0-.1-.1-.2-.1s-.2 0-.3.1c-1 .5-2.7.8-5.2 1.2v1c1.4 0 2.1 0 2.3.1.1 0 .2.1.3.2.1.2.1.9.2 2.2.1 2 .1 3.9.1 5.7v6.9c-.1 3-.1 4.6-.1 4.8 0 .6-.1 1-.2 1.2l-.3.3c-.1.1-.3.1-.6.1h-1.6v1c1.8-.1 3.2-.1 4.3-.1 1.1 0 2.5 0 4 .1v-1h-1.9c0 .1-.2 0-.3-.1zM197.2 50.9c-.1-.1-.2-.2-.2-.3-.1-.2-.2-.6-.2-1.2 0-.2 0-1.8-.1-4.7V33.5c0-1.4 0-3.1.1-5.1v-.6-.3c0-.1 0-.2-.1-.2s-.1-.1-.2-.1-.2 0-.3.1c-1 .5-2.7.8-5.2 1.2v1c1.4 0 2.1 0 2.3.1.1 0 .2.1.3.2.1.2.1.9.2 2.2.1 2 .1 3.9.1 5.7v6.9c-.1 3-.1 4.6-.1 4.8 0 .6-.1 1-.2 1.2l-.3.3c-.1.1-.3.1-.6.1h-1.6v1c1.8-.1 3.2-.1 4.3-.1 1.1 0 2.5 0 4 .1v-1h-1.9c-.1.1-.2 0-.3-.1zM232.6 28.5c-2 .1-3.4.1-4.1.1-.8 0-2.2 0-4-.1v1.1c1.3 0 2.1.1 2.4.2.3.1.5.2.6.4.1.2.2.8.2 1.9 0 1.4.1 2.9.1 4.4v5.1c0 1.4 0 2.7-.2 3.6-.1.9-.3 1.7-.5 2.2-.2.5-.6 1-1.1 1.5-.5.4-1.2.8-2.2 1.1s-2.1.4-3.3.4c-1.1 0-2-.1-2.9-.3-.9-.2-1.5-.5-2.1-.9-.7-.5-1.1-1.1-1.4-1.9s-.4-2.3-.4-4.7v-6.1c0-2.9 0-4.5.1-4.7 0-.8.1-1.4.3-1.6.1-.2.3-.3.6-.4.3-.1 1.1-.2 2.4-.2v-1.1c-1.5.1-3.1.1-4.7.1-1.5 0-3.2 0-5-.1v1.1c1.3 0 2.1.1 2.4.2.3.1.5.2.6.4.1.2.2.8.2 1.9v11.7c0 2.1.2 3.7.5 4.6.2.7.7 1.4 1.3 2 .6.7 1.6 1.2 2.9 1.6 1.2.4 2.7.6 4.4.6 1.4 0 2.8-.2 4-.5 1.2-.3 2.2-.8 2.9-1.4 1-.8 1.7-1.8 2.1-2.9.4-1.1.6-3 .6-5.7v-5.6c0-2.9 0-4.5.1-4.7 0-.8.1-1.4.2-1.6.1-.2.3-.3.6-.4.3-.1 1.1-.2 2.4-.2v-1.1zM247.9 50.9c-.1-.1-.2-.4-.3-.7-.1-.5-.1-1.5-.1-2.9v-2.9c0-2.3 0-3.7-.1-4.2-.1-.8-.4-1.5-.8-2.1-.4-.6-1-1-1.8-1.4-.8-.4-1.7-.6-2.5-.6s-1.7.2-2.6.5l-3.1 2.6c0-1.3.1-2.1.1-2.5v-.3c0-.1 0-.2-.1-.2 0 0-.1-.1-.2-.1s-.2 0-.4.2c-1 .5-2.7.9-4.9 1.2v.9c1.3 0 2 0 2.2.1.2.1.3.2.4.3.1.1.1.5.2 1.2v4.9c-.1 3-.1 4.6-.1 4.8 0 .6-.1 1-.2 1.2l-.3.3c-.1.1-.3.1-.5.1h-1.6v.9c2.1-.1 3.6-.1 4.5-.1 1.1 0 2.3 0 3.7.1v-.9h-1.8c-.2 0-.3-.1-.4-.2-.1-.1-.2-.2-.2-.3-.1-.2-.2-.7-.2-1.2 0-.2 0-1.8-.1-4.7v-2c0-1.2.2-2.1.4-2.6s.8-1 1.5-1.4c.7-.4 1.4-.6 2.3-.6.9 0 1.7.2 2.4.7s1.1 1 1.3 1.8c.1.5.2 1.7.2 3.4V47c0 .7-.1 2.5-.2 5.2 1.4-.1 2.5-.1 3.1-.1.7 0 1.6 0 2.7.1v-.9h-1.8c-.3-.2-.5-.3-.7-.4zM254.8 32.5c.5 0 .9-.2 1.3-.6.4-.4.6-.8.6-1.3s-.2-1-.5-1.3c-.4-.4-.8-.6-1.3-.6s-1 .2-1.3.6c-.4.4-.6.8-.6 1.3s.2.9.6 1.3c.2.4.7.6 1.2.6zM256.9 51c-.1-.1-.2-.2-.2-.3-.1-.2-.2-.6-.2-1.2 0-.2 0-1.8-.1-4.7v-3c0-1.2 0-3.1.1-5.4l-.4-.3c-1.4.7-3.3 1.2-5.4 1.4v.9c1.3 0 2.1 0 2.2.1.2.1.3.2.4.4.1.3.2 1.3.2 2.9v2.9c-.1 3-.1 4.6-.1 4.8 0 .6-.1 1-.2 1.2l-.3.3c-.1.1-.3.1-.5.1h-1.6v.9c2-.1 3.5-.1 4.3-.1 1 0 2.3 0 4 .1v-.9h-1.9c-.1 0-.2-.1-.3-.1zM270.2 36.5v1c1.2 0 1.9.1 2.1.3.1.1.2.2.2.4 0 .1 0 .3-.1.5-.2.7-.5 1.7-1.1 3-.9 2.3-1.4 3.5-1.5 3.7l-1.7 3.8c-.2-.4-.6-1.3-1.1-2.6l-.5-1.1-2-5c-.4-1.1-.7-1.8-.7-2.1 0-.2.1-.4.3-.5.2-.1.9-.2 2.1-.2v-1c-1.6.1-2.9.1-3.8.1-.8 0-2.2 0-4-.1v1c.7 0 1.1 0 1.2.1.2 0 .4.2.5.3.2.2.3.5.6 1l3.4 7.9 1.4 3.2c.2.4.5 1.1.9 2.3h1.7c1.6-3.9 2.6-6.1 2.9-6.8l1.6-3.4c1-2.1 1.6-3.3 1.8-3.6.2-.4.4-.7.7-.8.2-.1.7-.2 1.4-.2v-1c-1.7.1-2.8.1-3.2.1-.4-.2-1.5-.2-3.1-.3zM288.2 36.9c-1-.6-2.1-.8-3.4-.8-1 0-2 .2-2.8.6-.7.3-1.3.6-2 1.1-.7.5-1.2.9-1.5 1.2-.4.5-.8 1.2-1.2 2.3-.4 1-.5 2.2-.5 3.4 0 1.6.3 3 1 4.3.6 1.2 1.6 2.1 2.7 2.7 1.2.6 2.5.9 4 .9.7 0 1.4-.1 2.1-.2.7-.2 1.3-.4 1.8-.6.4-.2.9-.5 1.7-.9l.5-1.2-.3-.3c-1 .6-1.8 1-2.5 1.2-.7.2-1.3.3-2 .3-1 0-2-.2-2.9-.7-.9-.5-1.7-1.2-2.2-2.2-.5-1-.8-2.3-.8-3.8h5.3c1.2 0 2.4 0 3.6-.1.6 0 1.3-.1 2.1-.3 0-.4.1-.8.1-1.1 0-1.2-.2-2.3-.7-3.3-.4-1.2-1.1-1.9-2.1-2.5zm-.2 5.9c-.5 0-1.4.1-2.9.1-.6 0-1.8 0-3.4-.1-.9 0-1.4-.1-1.8-.1 0-1.9.4-3.3 1.2-4.2.8-.9 1.8-1.3 3-1.3s2.1.4 2.8 1.2c.7.8 1.1 2.1 1.1 3.8v.6zM302.8 36.1c-.5 0-.9.1-1.3.3-.4.2-.8.4-1.1.7-.2.2-.5.5-.9 1.1-.4.6-.9 1.1-1.4 1.7 0-1.4 0-2.5.1-3.1v-.3c0-.1 0-.2-.1-.2 0 0-.1-.1-.2-.1s-.2 0-.4.2c-1 .5-2.7.9-4.9 1.2v.9c1.3 0 2 0 2.2.1.2.1.3.2.4.3.1.1.1.5.1 1.2V45c0 .1 0 1.7-.1 4.6 0 .5-.1.9-.2 1.2 0 .1-.1.2-.2.3-.1.1-.2.1-.4.2-.1 0-.8 0-2 .1v.9c1.3-.1 2.7-.1 4.1-.1 1.4 0 3 0 5 .1v-.9c-1.4-.1-2.4-.2-2.7-.3-.2 0-.3-.1-.4-.2-.1-.1-.1-.2-.2-.4 0-.2-.1-.6-.1-1.3 0-1.9-.1-3.3-.1-4v-1.7c0-1.4.3-2.5.9-3.2.6-.7 1.3-1 2.2-1 .5 0 .9.1 1.3.4.3.2.6.6.9 1.2h.7c0-1.1.1-2.4.3-3.9l-.1-.2c-.5-.6-.9-.7-1.4-.7zM315.3 43.9c-.5-.2-1.5-.6-2.9-.9l-2.7-.7c-.5-.2-.9-.3-1.2-.5-.3-.2-.5-.4-.7-.8-.2-.3-.3-.7-.3-1.1 0-.8.3-1.4.9-2 .6-.6 1.4-.9 2.3-.9.7 0 1.3.1 1.7.3.5.2.8.4 1.2.6.3.2.5.4.6.6s.2.4.3.7.1.8.2 1.6h.9c0-1.3.1-2.5.2-3.7-.6-.3-1.3-.5-2.2-.7-.9-.2-1.7-.3-2.4-.3-1.2 0-2.2.2-3.2.7-1 .5-1.7 1-2.2 1.8s-.7 1.5-.7 2.4c0 .6.1 1.2.3 1.7.2.5.5.9.9 1.3s.8.6 1.5.8c.4.1 1.3.4 2.7.7 1.4.3 2.3.6 2.7.8.4.2.8.5 1 .8.2.4.3.8.3 1.2 0 1-.4 1.9-1.1 2.5-.7.6-1.7.9-2.8.9-.7 0-1.2 0-1.5-.1s-.7-.1-1-.3c-.3-.1-.6-.3-.9-.6-.3-.2-.5-.6-.6-.9s-.2-.7-.3-1.1c0-.4-.1-.9-.1-1.5h-1c0 1.4 0 2.4-.1 2.8 0 .4-.1.9-.2 1.4v.3c0 .1 0 .1.1.2s.5.2 1.4.4c1.6.3 2.9.4 3.8.4 2.1 0 3.7-.6 5-1.7s1.9-2.4 1.9-3.9c0-.8-.2-1.4-.5-1.9-.4-.7-.8-1.1-1.3-1.3zM322.9 32.5c.5 0 .9-.2 1.3-.6.4-.4.6-.8.6-1.3s-.2-1-.5-1.3c-.4-.4-.8-.6-1.3-.6s-1 .2-1.3.6c-.4.4-.6.8-.6 1.3s.2.9.6 1.3c.2.4.7.6 1.2.6zM325 51c-.1-.1-.2-.2-.2-.3-.1-.2-.2-.6-.2-1.2 0-.2 0-1.8-.1-4.7v-3c0-1.2 0-3.1.1-5.4l-.4-.3c-1.4.7-3.3 1.2-5.4 1.4v.9c1.3 0 2.1 0 2.2.1.2.1.3.2.4.4.1.3.2 1.3.2 2.9v2.9c-.1 3-.1 4.6-.1 4.8 0 .6-.1 1-.2 1.2l-.3.3c-.1.1-.3.1-.5.1h-1.6v.9c2-.1 3.5-.1 4.3-.1 1 0 2.3 0 4 .1v-.9h-1.9c-.1 0-.2-.1-.3-.1zM333.2 38.9h4.3l.4-1.5-.1-.1c-.3 0-.7 0-1.3.1h-3.3c.1-3.1.3-5.2.4-6.1l-.4-.3c-.7.4-1.7.9-2.8 1.3.1.7.1 2.4.1 5-.6.3-1.5.7-2.6 1.1v.7c.7 0 1.3-.1 1.9-.1h.7v7.5c0 .9 0 1.7-.1 2.5 0 .8.2 1.4.4 1.7.2.4.4.7.7.9.3.2.6.4 1 .6.4.1.8.2 1.4.2.5 0 .9 0 1.3-.1.4 0 .8-.2 1.2-.3.5-.4 1-.9 1.5-1.3l-.2-.6c-.4.2-.8.2-1.1.3s-.6.1-1.1.1c-.6-.1-1-.2-1.3-.3-.2-.1-.4-.3-.6-.6-.2-.2-.3-.5-.3-.8 0-.3-.1-1.3 0-2.9l-.1-7zM353.6 36.6c-1 0-2.1 0-3.4-.1v1c1.2.1 1.8.2 2 .3s.3.3.3.5c0 .1 0 .3-.1.5-.1.5-.6 1.9-1.5 4-.9 2.2-1.5 3.6-1.8 4.4l-.9 2c-.4-1-1-2.2-1.6-3.8l-1-2.6c-.4-1-.8-2.1-1.2-3.5-.2-.6-.3-.9-.3-1.1 0-.3.1-.5.4-.6.2-.1.8-.1 2-.2v-.9c-1.2.1-2.5.1-3.8.1-1.3 0-2.7 0-4.1-.1v.9c.8.1 1.3.2 1.5.3.2.1.4.4.6.8.5 1 1.1 2.5 1.9 4.5l2.6 6.5c.5 1.2.9 2.4 1.3 3.3-.5 1.2-1 2.4-1.6 3.6-.4.8-.7 1.3-1 1.7s-.6.6-.9.7c-.3.2-.7.2-1 .2s-.6 0-.8-.1c-.2 0-.3-.1-.5-.2s-.3-.2-.5-.4h-.4l-.8 2.6c.4.2.7.3 1 .4.3.1.6.1 1 .1.8 0 1.4-.2 2.1-.5.6-.3 1.2-.8 1.6-1.4.4-.6 1-1.7 1.6-3.1l3.8-8.9c1.7-3.7 2.9-6.2 3.5-7.5.6-1.3 1.1-2 1.4-2.2.3-.2.7-.3 1.3-.4l.2-1c-.9.2-1.9.2-2.9.2z"/>
</svg>
