<?xml version="1.0" encoding="UTF-8"?> <!-- Generator: Adobe Illustrator 24.0.2, SVG Export Plug-In . SVG Version: 6.00 Build 0) --> <svg xmlns="http://www.w3.org/2000/svg" xmlns:xlink="http://www.w3.org/1999/xlink" id="Layer_1" x="0px" y="0px" viewBox="0 0 60 60" style="enable-background:new 0 0 60 60;" xml:space="preserve"> <style type="text/css"> .st0{fill:#B31B1B;} </style> <g> <path class="st0" d="M22.8,46c3.4,2.7,6.7,4.2,7,4.2l0.2,0.1l0.2-0.1c0.1,0,3.4-1.5,6.9-4.2c4.6-3.5,7-7.6,7-11.8v-19H15.8v18.6 C15.8,38.1,18.2,42.3,22.8,46z M29.4,40.1c-0.1,0-0.3-0.1-0.5-0.1l0,0c-0.8,0-1.2,0-1.7,0.1c-0.5,0-1.1,0.1-1.9,0.1 c-0.3,0-0.8,0-1,0v-8.9h0.1c0.3,0,0.8,0,1.3,0c0.4,0,1,0,1.5-0.1c0.3,0,0.6,0,1-0.1c0.6,0,1.1,0,1.1,0h0.1 C29.4,31.2,29.4,40.1,29.4,40.1z M42.9,34.2c0,7.7-9.5,13-12.3,14.4v-7.1l0.1-0.1c0.1-0.1,0.2-0.2,0.5-0.2c0.6,0,1.2,0,1.7,0.1 c0.5,0,1.1,0.1,1.9,0.1s1.5,0,1.5,0h0.4v-2.6h1.1v-1.4h-1.1v-2.6h1.1v-1.4h-1.1v-2.9h-0.5c-0.2,0-0.4,0-0.6,0c-0.3,0-0.8,0-1.3,0 c-0.4,0-0.9,0-1.4-0.1c-0.3,0-0.6,0-1-0.1c-0.8-0.1-1.4,0-1.5,0l0,0v-2.8h12.3L42.9,34.2z M30.5,40.2v-8.9c0,0,0.1,0,0.2-0.1 c0,0,0.5-0.1,1.2,0c0.3,0,0.8,0,1,0.1c0.5,0,1.1,0.1,1.5,0.1s0.9,0,1.2,0c0.1,0,0.2,0,0.2,0v8.9c-0.2,0-0.6,0-1,0 c-0.9,0-1.4,0-1.9-0.1c-0.5-0.1-1.1-0.1-1.7-0.1C30.9,40.1,30.8,40.1,30.5,40.2z M17.1,16.6h25.7v9.6H17.1V16.6z M17.1,27.5h12.2 v2.7c-0.2,0-0.8-0.1-1.4,0c-0.3,0-0.8,0-1,0.1c-0.5,0-1,0.1-1.4,0.1c-0.5,0-0.9,0-1.3,0c-0.2,0-0.4,0-0.6,0h-0.5V33H22v1.3h1.2v2.6 H22v1.4h1.2v2.9h0.4c0,0,0.8,0,1.5,0c0.9,0,1.5,0,1.9-0.1c0.5,0,1-0.1,1.7-0.1c0.2,0,0.3,0.1,0.4,0.2l0,0v7.1 c-2.7-1.2-12-6.4-12-14.4V27.5z"></path> <path class="st0" d="M27.9,17.5h-7.2V18c0,1.6,0,4.2,0,4.3c0,0.5,0.4,1.1,1.1,1.5c0.9,0.6,2.1,1.4,2.2,1.4l0.2,0.1l0.2-0.1 c0,0,1.5-0.9,2.4-1.4c1-0.6,1.1-1.3,1.1-1.5c0-0.1,0-2.5,0-4.3C27.9,18,27.9,17.5,27.9,17.5z M21.7,18.5h5.1c0,0.4,0,0.9,0,1.3 h-5.1C21.7,19.4,21.7,19,21.7,18.5z M26.9,22.3c0,0.2-0.3,0.5-0.6,0.8c-0.6,0.4-1.6,1-2,1.2c-0.4-0.2-1.3-0.8-1.9-1.2 c-0.4-0.2-0.6-0.5-0.6-0.8c0,0,0-0.6,0-1.5h5.1C26.9,21.6,26.9,22.2,26.9,22.3z"></path> <path class="st0" d="M40.1,17.4h-7.3v0.5c0,1.9,0,4.3,0,4.5c0,0.5,0.4,1.1,1.1,1.5c0.9,0.6,2.2,1.4,2.2,1.4l0.2,0.1l0.2-0.1 c0,0,1.5-0.9,2.4-1.4c1.1-0.8,1.1-1.3,1.1-1.5c0-0.1,0-2.5,0-4.4L40.1,17.4z M39.1,22.2c0,0.2-0.3,0.5-0.6,0.8 c-0.6,0.4-1.6,1-2,1.2c-0.4-0.2-1.3-0.9-1.9-1.2c-0.2-0.1-0.6-0.4-0.6-0.8c0,0,0-0.1,0-0.2l2.5-1.8l2.8,1.8 C39.1,22.1,39.1,22.2,39.1,22.2z M36.3,18.9l-2.5,1.8c0-0.8,0-1.6,0-2.4h5.4c0,0.9,0,1.7,0,2.5L36.3,18.9z"></path> <path class="st0" d="M31.8,33.3h0.5c0.3,0,0.6,0,0.9,0h1.5v-1h-1.5c-0.2,0-0.4,0-0.8,0h-0.5c-0.1,0-0.2,0-0.3,0v1 C31.6,33.2,31.7,33.2,31.8,33.3z"></path> <path class="st0" d="M33.2,35.1c-0.2,0-0.4,0-0.8,0c-0.1,0-0.3,0-0.5,0c-0.2,0-0.2,0-0.3,0v1c0,0,0.1,0,0.2,0c0.2,0,0.3,0,0.5,0 c0.3,0,0.5,0,0.9,0s0.8,0,1.1,0h0.4v-1h-0.4C34,35.1,33.4,35.1,33.2,35.1z"></path> <path class="st0" d="M33.2,37.9c-0.2,0-0.4,0-0.8,0c-0.1,0-0.3,0-0.5,0c-0.2,0-0.2,0-0.3,0v1c0,0,0.1,0,0.2,0c0.2,0,0.3,0,0.5,0 c0.3,0,0.6,0,0.9,0h0.4c0.4,0,0.9,0,1.1,0v-1c-0.1,0-0.6,0-1.1,0H33.2z"></path> <path class="st0" d="M26.8,33.3c0.2,0,0.5,0,0.9,0c0.1,0,0.3,0,0.5,0c0.1,0,0.1,0,0.2,0v-1c-0.1,0-0.2,0-0.3,0c-0.2,0-0.3,0-0.5,0 c-0.3,0-0.5,0-0.8,0h-1.5v1H26.8z"></path> <path class="st0" d="M27.5,35c-0.3,0-0.5,0-0.8,0h-1.5v1h1.5c0.2,0,0.5,0,0.9,0h0.4c0.1,0,0.1,0,0.2,0v-1c-0.1,0-0.2,0-0.3,0H27.5z "></path> <path class="st0" d="M27.5,37.8c-0.3,0-0.5,0-0.9,0c-0.4,0-1.2,0-1.4,0v1c0.2,0,1,0,1.5,0c0.2,0,0.5,0,0.9,0h0.5c0,0,0.1,0,0.2,0 v-1c-0.1,0-0.2,0-0.3,0H27.5z"></path> <path class="st0" d="M4.4,30.1c1.3,0,2-0.9,2.1-2.2c0-0.2,0-0.6,0-1v-0.1H5.5L5.6,27c0,0.1,0.1,0.5,0.1,0.9c0,0.8-0.6,1.2-1.4,1.1 c-0.9,0-1.3-0.5-1.3-1.3c0-0.2,0-0.5,0.2-0.8l0.2-0.1l-1-0.1v0.1c-0.2,0.2-0.3,0.6-0.3,0.9c-0.1,1.5,0.7,2.5,2.1,2.5 C4.3,30.1,4.4,30.1,4.4,30.1z"></path> <path class="st0" d="M4.6,25.2c0.3,0.1,0.5,0.1,0.9,0.1c1,0,1.7-0.5,1.9-1.5c0.1-0.6,0.1-1.1-0.1-1.6c-0.3-0.5-0.9-0.9-1.5-1.1 C5.6,21,5.3,21,5,21c-1,0-1.7,0.5-1.9,1.5C2.7,23.8,3.2,24.9,4.6,25.2z M4,22.8c0.1-0.5,0.6-0.6,1-0.6c0.1,0,0.3,0,0.5,0.1 c0.4,0.2,0.8,0.3,1,0.6c0.1,0.2,0.1,0.4,0,0.6c-0.1,0.5-0.6,0.6-1,0.6c-0.2,0-0.3,0-0.5-0.1C4.3,24,3.8,23.5,4,22.8z"></path> <path class="st0" d="M9,19.6l-1.5-0.9v-0.1c0.1-0.2,0.2-0.2,0.4-0.2l1.5,0.2l0.5-1.1L8,17.4c-0.1,0-0.2,0-0.3,0 c0-0.4-0.2-0.9-0.6-1c-0.2-0.1-0.4-0.1-0.6-0.1c-0.7,0-1.1,0.8-1.4,1.4l-0.5,1l3.9,2L9,19.6z M6.7,18.2L6.7,18.2L5.9,18v-0.1 c0.1-0.3,0.3-0.6,0.6-0.4c0.1,0,0.1,0.1,0.2,0.2C6.9,17.8,6.8,18.1,6.7,18.2z"></path> <polygon class="st0" points="11.4,15.8 9.3,14.1 12.2,14.8 13,13.8 9.7,11 8.9,11.9 10.9,13.5 8.2,12.9 7.3,13.8 10.7,16.6 "></polygon> <polygon class="st0" points="16.2,11 15.7,10.4 14.4,11.4 13.8,10.7 14.9,9.8 14.4,9.1 13.2,10 12.9,9.4 14,8.5 13.4,7.7 11.4,9.3 14,12.8 "></polygon> <polygon class="st0" points="19.8,8.9 19.3,8.1 18,8.9 16.3,5.9 15.3,6.4 17.5,10.2 "></polygon> <polygon class="st0" points="23.5,7.5 23.2,6.6 21.7,7.2 20.6,4 19.5,4.3 20.9,8.4 "></polygon> <path class="st0" d="M27.9,6.8c0.1,0,0.1,0,0.2,0c0.6,0,1.1-0.2,1.3-0.5c0.2-0.3,0.3-0.8,0.3-1.3l-0.2-2.7h-1.1l0.2,2.5 c0,0.9-0.3,1-0.6,1.1c0,0,0,0-0.1,0c-0.2,0-0.6-0.1-0.8-1l-0.2-2.5l-1.1,0.1L26,5.1C26.3,6.2,26.8,6.8,27.9,6.8z"></path> <polygon class="st0" points="32.8,4.2 33.8,6.9 34.9,7.1 35.6,2.8 34.5,2.6 34.1,5.1 33.2,2.5 32,2.4 31.4,6.6 32.5,6.8 "></polygon> <polygon class="st0" points="38.8,3.8 37.7,3.3 36.4,7.5 37.5,7.8 "></polygon> <polygon class="st0" points="44.3,6.1 43.3,5.7 41.2,7.8 41.6,4.8 40.6,4.3 39.9,8.9 41,9.3 "></polygon> <polygon class="st0" points="45.3,12.4 45.9,11.7 44.7,10.7 45.2,10 46.3,10.8 46.9,10.1 45.8,9.2 46.2,8.7 47.4,9.6 48,8.9 45.9,7.3 43.2,10.7 "></polygon> <path class="st0" d="M47.1,14.1l1.3-1.1v0.1c0.1,0.2,0.1,0.2,0,0.5L47.8,15l0.9,0.9l0.9-1.7c0,0,0.1-0.2,0.1-0.3 c0.3,0.1,0.9,0.1,1.2-0.2c1-0.9,0.2-1.7-0.3-2.4l-0.8-0.9l-3.3,2.9L47.1,14.1z M49.7,11.9L49.7,11.9c0.2,0.3,0.3,0.5,0.3,0.6 c0,0.1,0,0.1-0.1,0.2c0,0.1-0.1,0.1-0.2,0.1c-0.2,0-0.4-0.2-0.5-0.3v-0.1L49.7,11.9z"></path> <path class="st0" d="M51.2,17.7c-0.2,0.1-0.5-0.1-0.6-0.3c-0.1-0.2-0.2-0.5-0.2-0.9v-0.2l-1,0.4v0.2c0.1,0.3,0.1,0.5,0.3,0.9 c0.3,0.6,0.9,0.9,1.3,0.9c0.2,0,0.4,0,0.8-0.2c0.8-0.4,0.6-1.2,0.5-1.7c0-0.3-0.1-0.6,0-0.8c0.1,0,0.1,0,0.2,0 c0.2,0,0.3,0.2,0.4,0.2c0.1,0.2,0.2,0.4,0.2,0.8v0.2l0.9-0.4v-0.1c0-0.3-0.2-0.6-0.4-1c-0.4-0.9-1.3-1.1-1.9-0.6 c-0.8,0.4-0.6,1.2-0.5,1.7C51.3,17.4,51.4,17.6,51.2,17.7z"></path> <rect x="51.3" y="19.7" transform="matrix(0.9259 -0.3777 0.3777 0.9259 -3.695 21.6932)" class="st0" width="4.3" height="1.1"></rect> <polygon class="st0" points="55.7,23 52.4,23.9 52.7,25 56,24.1 56.3,25.2 57.2,25 56.4,21.6 55.5,22 "></polygon> <polygon class="st0" points="53.3,28.3 53.3,29.4 55,29.2 57.6,30.8 57.6,29.5 56,28.7 57.5,27.8 57.4,26.5 54.9,28.3 "></polygon> <polygon class="st0" points="5.3,38.2 6.2,38 5.8,36.6 6.5,36.5 6.9,37.9 7.8,37.6 7.1,35.1 2.9,36.4 3.2,37.5 4.9,37 "></polygon> <path class="st0" d="M9.1,41.9c0.1-0.5,0.1-1.1-0.1-1.6c-0.4-0.9-1-1.2-1.8-1.2c-0.3,0-0.7,0.1-1.2,0.3c-0.6,0.2-1.1,0.6-1.2,1.3 c-0.1,0.5-0.1,1.1,0.1,1.6c0.4,0.8,1,1.2,1.8,1.2c0.3,0,0.7-0.1,1.2-0.3C8.6,42.9,9,42.4,9.1,41.9z M7.4,42.1 c-0.2,0.1-0.5,0.2-0.9,0.2c-0.4,0-0.6-0.1-0.9-0.5c-0.1-0.2-0.1-0.4,0-0.6c0.1-0.3,0.4-0.6,0.9-0.9c0.2-0.1,0.5-0.2,0.8-0.2 c0.4,0,0.6,0.1,0.9,0.5c0.1,0.2,0.1,0.4,0,0.6C8.2,41.7,7.8,41.9,7.4,42.1z"></path> <path class="st0" d="M12.2,45.2l-1.9,1.6c-0.5,0.4-0.9,0.4-1.2,0.1C9,46.8,9,46.6,9,46.5c0-0.2,0.2-0.4,0.5-0.8l1.9-1.6l-0.8-0.9 L8.6,45c-0.4,0.3-0.8,0.8-0.8,1.2c0,0.4,0.1,0.9,0.5,1.3c0.4,0.5,0.9,0.9,1.4,0.9c0.3,0,0.8-0.1,1.1-0.4l2.1-1.7L12.2,45.2z"></path> <polygon class="st0" points="15.9,48.8 14.3,50.8 14.9,48 13.9,47.1 11.2,50.6 12,51.2 13.6,49.2 13,52.1 13.9,52.8 16.7,49.5 "></polygon> <path class="st0" d="M19.1,50.8L18,50.2l-1.9,3.9l1.1,0.5c0.5,0.2,1,0.4,1.5,0.4c0.8,0,1.4-0.4,1.7-1.2 C21,52.6,20.6,51.6,19.1,50.8z M19.3,53.4c-0.2,0.4-0.6,0.8-1.1,0.8c-0.2,0-0.3,0-0.5-0.1l-0.2-0.1l1.1-2.2l0.2,0.1 c0.3,0.1,0.5,0.4,0.6,0.6C19.5,52.7,19.4,53,19.3,53.4z"></path> <polygon class="st0" points="21.5,56.6 24.1,57.3 24.3,56.4 22.8,55.9 23,55.2 24.4,55.5 24.6,54.6 23.3,54.2 23.4,53.6 25,54 25.2,53 22.6,52.4 "></polygon> <path class="st0" d="M27.9,53.4h-1.3l-0.2,4.3h1.3c0.1,0,0.2,0,0.3,0c1.5,0,2.3-0.8,2.4-2c0-0.6-0.1-1.2-0.4-1.6 C29.4,53.7,28.8,53.5,27.9,53.4z M27.9,56.8h-0.3l0.1-2.5H28c0.6,0,1.2,0.5,1.1,1.3C29,56.5,28.4,56.8,27.9,56.8z"></path> <path class="st0" d="M34.1,53l-0.8,4.6l1.2-0.2l0.1-1l1.4-0.3l0.5,0.9l1.2-0.2l-2.6-3.9L34.1,53z M34.8,55.5l0.1-1.2l0.6,1 L34.8,55.5z"></path> <polygon class="st0" points="38.3,55.3 38.6,56.4 39.7,55.9 39.2,55 "></polygon> <path class="st0" d="M40.3,50.9l-1.1,0.6l2,3.9l1.1-0.6c1.5-0.9,1.8-1.8,1.2-3.1C42.9,50.4,41.8,50.1,40.3,50.9z M42.1,53.9 L41.8,54l-1.2-2.1l0.2-0.1c0.1-0.1,0.3-0.1,0.5-0.1c0.4,0,0.9,0.2,1.1,0.6C43,52.9,42.5,53.6,42.1,53.9z"></path> <polygon class="st0" points="44.4,52.3 45,53.2 45.9,52.5 45.3,51.6 "></polygon> <polygon class="st0" points="46.1,46.7 45.9,48.4 46.8,48.5 46.9,47.9 49.1,49.9 49.8,49.2 46.7,46.1 "></polygon> <path class="st0" d="M52,44.5c-0.3-0.2-0.8-0.3-1.2-0.1c0-0.4-0.2-0.9-0.5-1c-0.5-0.4-1.3-0.1-1.8,0.5c-0.5,0.8-0.4,1.4,0.1,1.8 c0.3,0.2,0.8,0.2,1.1,0.1c0,0.4,0.1,0.9,0.4,1.1c0.3,0.2,0.6,0.2,0.9,0.2c0.4,0,0.9-0.2,1.3-0.8c0.3-0.4,0.4-0.9,0.4-1.2 C52.5,45,52.3,44.7,52,44.5z M49.9,44.8c-0.1,0.1-0.3,0.2-0.4,0.2c0,0-0.1,0-0.2,0c-0.2-0.1-0.1-0.4,0-0.5c0-0.1,0.1-0.1,0.2-0.1 c0,0,0.1,0,0.2,0.1C49.9,44.4,49.9,44.6,49.9,44.8z M51.4,46c-0.1,0.2-0.4,0.2-0.6,0.1c-0.1-0.1-0.2-0.3-0.2-0.6 c0.3-0.2,0.5-0.2,0.8-0.1c0.1,0,0.1,0.1,0.1,0.2C51.5,45.8,51.5,45.9,51.4,46z"></path> <path class="st0" d="M54,40.2c-0.8-0.3-1.5-0.1-1.8,0.5c-0.1,0.2-0.1,0.4-0.1,0.6c-0.2-0.2-0.5-0.5-0.3-1c0.1-0.2,0.2-0.3,0.4-0.5 l0.1-0.1l-0.9-0.5l0,0.1c-0.2,0.2-0.4,0.4-0.5,0.8c-0.2,0.4-0.2,0.9-0.1,1.3c0.2,0.8,1,1.2,1.5,1.5c0.5,0.2,0.9,0.3,1.3,0.3 c0.5,0,1-0.2,1.3-0.9C55.2,41.5,54.9,40.7,54,40.2z M54,41.8c0,0.1-0.2,0.2-0.3,0.2c-0.1,0-0.2,0-0.3-0.1c-0.2-0.1-0.3-0.2-0.4-0.3 c0-0.1,0-0.1,0-0.2c0-0.1,0.1-0.2,0.3-0.2c0.1,0,0.2,0,0.4,0.1c0.2,0.1,0.3,0.2,0.3,0.3C54,41.7,54,41.8,54,41.8z"></path> <path class="st0" d="M55.5,35.8c-0.9-0.2-1.6,0.1-1.8,1c0,0.1,0,0.1,0,0.2l-0.5-0.1l0.4-1.5l-0.9-0.2L52,37.5l2.5,0.8V38 c0-0.2,0-0.4,0.1-0.8c0-0.2,0.3-0.8,0.8-0.6c0.5,0.1,0.4,0.8,0.3,0.9c-0.1,0.3-0.2,0.5-0.4,0.8l-0.1,0.1l1,0.3v-0.1 c0.1-0.3,0.3-0.6,0.4-0.9c0.1-0.5,0.1-1,0-1.4C56.3,36.2,55.9,35.9,55.5,35.8z"></path> <path class="st0" d="M7.9,30c0,12.1,9.9,22,21.9,22s22-9.9,22-22S41.9,8.1,29.9,8.1C17.8,8,7.9,17.9,7.9,30z M29.9,8.8 C41.6,8.8,51,18.3,51,29.9C51,41.6,41.5,51,29.9,51C18.2,51.1,8.8,41.6,8.8,30C8.7,18.3,18.2,8.8,29.9,8.8z"></path> <path class="st0" d="M29.9,0c-16.6,0-30,13.4-30,30c0,16.5,13.4,30,30,30c16.5,0,30-13.4,30-30S46.4,0,29.9,0z M29.9,59.1 C13.8,59.1,0.8,46.1,0.8,30S13.8,0.9,29.9,0.9S59,13.9,59,30S46,59.1,29.9,59.1z"></path> </g> </svg> 