<svg xmlns="http://www.w3.org/2000/svg" id="Layer_1" x="0" y="0" viewBox="0 0 495.6 80.5" xml:space="preserve">
  <style>
    .st0{fill:#037576}
  </style>
  <path class="st0" d="M85.5 2.7h1.2l10 16.1V2.7h1v17.6h-1.2L86.6 4v16.2h-1l-.1-17.5zM100.8 14.1c0 3 1.4 5.7 4.2 5.7 2.1.1 3.9-1.5 4.2-3.8h.8c-.2 2.8-2.4 4.8-4.9 4.6-3.3 0-5.1-2.9-5-6.4s1.6-6.8 5-6.8 5.2 3.1 5 6.7h-9.3zm8.3-.9c.2-2.6-1.6-4.9-4-5.1h-.1c-2.5 0-4 2.6-4.2 5.1h8.3zM114.8 19.2l3.1-11.6h1.1l3.1 11.6 3.2-11.6h.9l-3.7 12.6h-1l-3.1-11.5-3.2 11.5h-1.1l-3.6-12.6h.9l3.4 11.6zM144.7 2.7h1.1l-6.4 10.2v7.4h-1v-7.4l-6.3-10.2h1.1l5.7 9.3 5.8-9.3zM149.6 7.3c3.3 0 5.2 3.1 5.2 6.6s-1.9 6.6-5.2 6.6c-3.3 0-5.3-3.1-5.3-6.6s2-6.6 5.3-6.6zm0 12.4c2.9 0 4.4-2.8 4.4-5.8s-1.5-5.8-4.4-5.8-4.4 2.8-4.4 5.8 1.6 5.8 4.4 5.8zM157.7 10.4c.8-1.9 2.5-3.1 4.4-2.9v.9c-1.2-.1-2.3.3-3.2 1.2-.9 1-1.3 2.3-1.3 3.6v6.9h-.8V7.6h.8l.1 2.8zM163.1 2.7h.8v11.6l7-6.7h1.2l-5 4.7 5.4 8h-1.2l-4.9-7.2-2.6 2.4v4.8h-.8l.1-17.6zM190 7.7c-.1-3.1-2.2-4.5-5.1-4.5-1.8 0-4.4.8-4.4 3.8s2.7 3.3 5.4 3.9 5.4 1.4 5.4 4.9-3.2 4.9-5.6 4.9c-3.7 0-6.7-1.7-6.7-6.2h1c-.2 3.8 2.6 5.3 5.7 5.3 1.9 0 4.6-1 4.6-4s-2.8-3.5-5.4-4.1c-2.7-.6-5.4-1.3-5.4-4.6s2.8-4.6 5.3-4.6c3.3 0 5.9 1.5 6.1 5.4l-.9-.2zM197.7 8.4h-2.5v8.8c0 2 .9 2.2 2.5 2.2v.8c-1.7.1-3.4-.2-3.3-3.1V8.4h-2.1v-.8h2.1V3.7h.8v3.9h2.5v.8zM207.7 17.9c0 .7 0 1.5.8 1.5.2 0 .4 0 .6-.1v.8c-.2.1-.5.1-.7.1-1.4 0-1.5-.8-1.5-1.8v-.7c-.8 1.8-2.4 2.9-4.3 2.8-2.2 0-3.8-.9-3.8-3.6 0-3 2.3-3.6 4.2-3.7 3.8-.3 3.9-.6 3.9-2.6 0-.6-.6-2.5-3.2-2.5-1.7-.2-3.3 1.1-3.5 3v.4h-.8c.1-2.8 1.7-4.2 4.4-4.2 2 0 4 .7 4 3.3v7.3zm-.9-4.8c-.7.8-2.5.7-4.2 1-2 .2-3.1 1-3.1 2.9 0 1.5 1 2.8 3 2.8 2.2.2 4.1-1.6 4.3-4.1v-2.6zM214.6 8.4h-2.5v8.8c0 2 .9 2.2 2.5 2.2v.8c-1.7.1-3.4-.2-3.3-3.1V8.4h-2.1v-.8h2.1V3.7h.8v3.9h2.5v.8zM216.5 14.1c0 3 1.4 5.7 4.2 5.7 2 .1 3.8-1.5 4.1-3.8h.8c-.2 2.8-2.4 4.8-4.9 4.6-3.3 0-5.1-2.9-5-6.4 0-3.5 1.6-6.8 5-6.8s5.2 3.1 5 6.7h-9.2zm8.3-.9c.2-2.6-1.6-4.9-4-5.1h-.1c-2.5 0-4 2.6-4.2 5.1h8.3zM418.7 58.1h6.8c1.8 0 4.6.7 4.6 4.9 0 3.1-1.8 4.8-5 4.8h-5.4v7.8h-1V58.1zm.9 8.8h5.6c1.9.3 3.6-1.2 3.8-3.3V63c.1-2.1-1.3-3.8-3.2-4h-6.2v7.9zM432.5 65.8c.8-1.9 2.6-3.1 4.4-2.9v.9c-1.2-.2-2.3.3-3.2 1.2-.9.9-1.4 2.3-1.3 3.6v6.9h-.8V63h.8l.1 2.8zM442.5 62.7c3.4 0 5.3 3.1 5.3 6.6 0 3.5-1.9 6.6-5.3 6.6s-5.2-3.1-5.2-6.6c0-3.5 1.9-6.6 5.2-6.6zm0 12.4c2.9 0 4.4-2.8 4.4-5.8s-1.5-5.8-4.4-5.8-4.4 2.8-4.4 5.8 1.6 5.8 4.4 5.8zM459.2 63v12c.3 2.7-1.4 5.1-3.9 5.5h-1.1c-2.4 0-4.3-1-4.5-3.9h.8c.2 2.2 1.8 3.1 3.7 3.1 2 .2 3.8-1.4 4.1-3.6V72.5c-.7 1.8-2.4 3-4.2 2.9-3.4 0-4.9-2.7-4.9-6.3s1.7-6.2 4.9-6.2c1.8-.1 3.5 1.1 4.2 2.9V63h.9zm-9.1 5.9c0 3 1.4 5.4 4.1 5.4s4.2-2.6 4.2-5.4c0-2.9-1.4-5.4-4.2-5.4-2.8 0-4.1 2.7-4.1 5.4zM462.5 65.8c.8-1.9 2.6-3.1 4.4-2.9v.9c-1.2-.1-2.3.3-3.2 1.2-.9 1-1.4 2.3-1.3 3.6v6.9h-.8V63h.8v2.8zM476.3 73.3c0 .7 0 1.5.8 1.5.2 0 .4 0 .6-.1v.8c-.2.1-.5.1-.7.1-1.4 0-1.5-.8-1.5-1.8v-.7c-.8 1.8-2.4 2.9-4.2 2.8-2.2 0-3.8-.9-3.8-3.6 0-3 2.3-3.6 4.2-3.7 3.8-.3 3.9-.6 3.9-2.6 0-.6-.6-2.5-3.2-2.5-1.7-.2-3.3 1.1-3.5 3v.4h-.9c.1-2.8 1.7-4.2 4.3-4.2 2 0 4 .7 4 3.3v7.3zm-.8-4.8c-.7.8-2.5.7-4.2 1-2 .2-3.1 1-3.1 2.9 0 1.5 1 2.8 3 2.8 2.2.2 4.1-1.6 4.3-4.1v-2.6zM479 63h.8v2.6c.5-1.7 1.9-2.9 3.6-2.9 1.6-.2 3.1.9 3.4 2.7.5-1.7 2-2.8 3.6-2.7 2.1 0 3.6 1.3 3.6 4.3v8.6h-.8V67c0-3.2-2.1-3.5-2.8-3.5-2.1 0-3.6 1.6-3.6 4.6v7.5h-.8V67c0-3.2-2-3.5-2.7-3.5-2.1.1-3.7 2.1-3.6 4.4v7.7h-.8L479 63zM90.9 45.8c.1 3.8.1 4.9 4.2 5.5v.6H83.8v-.6c4-.6 4-1.7 4.2-5.5v-13c-.1-3.8-.1-4.9-4.2-5.5v-.6H95v.6c-4 .6-4 1.7-4.2 5.5l.1 13zM99.2 40.5c0-1.5 0-2-1.6-3.4v-.3l4-1.6.4.1-.3 2.7c1.6-1.6 3.7-2.6 5.9-2.8 4 0 4.2 3.6 4.2 5.8v6.6c0 3.1.1 3.3 2.6 3.7v.6h-7.7v-.6c2.5-.4 2.6-.8 2.6-3.7v-4.2c0-2.6.1-6.2-4-6.2-1.3 0-2.5.5-3.4 1.5v8.9c0 3.1.1 3.3 2.6 3.7v.6h-7.8v-.5c2.5-.4 2.6-.8 2.6-3.7v-7.2zM120.4 45.3c0 3.3 0 5.4 3.7 5.4.7 0 1.3-.1 2-.3l.1.6c-1.7.7-3.5 1.1-5.3 1.2-3.2 0-3.1-1.9-3.1-4.7V37.4h-2.2l-.2-.3 4.7-5.1h.3v3.9h5.3v1.5h-5.3v7.9zM130.1 42.4c-.4 3.6 1.9 6.9 5.2 7.4.2 0 .5.1.7.1 1.6 0 3.1-.9 3.9-2.3l.5.4c-1.2 2.5-3.5 4.1-6.1 4.3-3.9-.1-7-3.7-7-8v-.2c-.2-4.6 3-8.6 7.2-8.9h.3c2.7-.2 5 2 5.1 5v.4h-9.7l-.1 1.8zm6.6-2.8c-.3-1.7-1.2-3.6-3-3.6s-3 2.1-3.4 3.9l6.4-.3zM153.1 49c3.6-.2 5.6 1.5 5.6 4 0 3.6-4.4 7.7-10.4 7.7-4 0-5.6-2.2-5.6-3.8 0-2.8 2.6-4.1 4.5-5.2-1.3-.2-3.4-1.1-3.4-2.8 0-1.1 1.8-2.6 2.5-3.2-1.6-.9-2.7-2.7-2.8-4.7 0-3.8 3.1-5.9 6.3-5.9 1.5 0 3 .4 4.4 1.2h4.8v1.5l-4.1-.1c.5.9.7 1.9.7 2.9 0 3.8-3.1 5.9-6.2 5.9-.9 0-1.7-.2-2.5-.5-1.1 1.1-1.1 3.3 2 3.1l4.2-.1zm-4.9 2.8c-1.2.6-3.1 2.1-3.1 3.7 0 2.7 3.5 3.4 5.4 3.4 2.4 0 6.1-1.2 6.1-4.4s-4.3-3-5.2-2.9l-3.2.2zm4.5-10.6c0-2.4-1-5.2-3.5-5.2-2.2 0-2.9 2.5-2.9 4.5 0 3.6 2 5.3 3.5 5.3 2.4-.1 3-2.6 2.9-4.6zM164.9 47.6c0 3.1.1 3.3 3.3 3.7v.6h-8.3v-.6c2.3-.4 2.4-.8 2.4-3.7v-7c0-1.5 0-2-1.6-3.4v-.3l4-1.6.4.1-.1 4.4c.7-2 2.6-4.5 4.7-4.5.9-.1 1.6.6 1.7 1.6v.1c0 1-1 1.9-1.7 2.3-.6-.5-1.4-1.3-2.1-1.2-2.8.3-2.6 5.3-2.6 5.9l-.1 3.6zM180.4 42.7c.3-4-.7-5.7-3.3-5.7-2.3 0-2.1 1.2-2.1 3.2l-1.7.1c-.3 0-.8 0-.8-.4 0-1 3.7-4.8 6.4-4.8 3.1 0 4 2.6 4 5.5v5.2c0 3.3-.2 4 2.9 4.7v.6c-1.1.4-2.2.7-3.4.8-1.4 0-1.9-.9-2.1-2.3-1 1.5-2.6 2.4-4.2 2.5-1.9-.1-3.4-1.8-3.3-3.9v-.3c0-.6.1-1.1.2-1.6l7.4-3.6zm-4.5 3.3c-.2.5-.2 1-.2 1.5-.1 1.4.8 2.7 2.1 2.9h.2c.9-.1 1.8-.6 2.4-1.4v-5.6l-4.5 2.6zM191.7 45.3c0 3.3 0 5.4 3.7 5.4.7 0 1.3-.1 2-.3l.1.6c-1.7.7-3.5 1.1-5.3 1.2-3.2 0-3.1-1.9-3.1-4.7V37.4h-2.2l-.2-.3 4.7-5.1h.3v3.9h5.3v1.5h-5.3v7.9zM201.4 42.4c-.4 3.6 1.9 6.9 5.2 7.4h.7c1.6 0 3.1-.9 3.9-2.3l.5.4c-1.2 2.5-3.6 4.1-6.1 4.3-3.9-.1-7-3.7-7-8V44c-.2-4.6 3-8.6 7.2-8.9h.3c2.7-.2 5 2 5.1 5v.4h-9.7l-.1 1.9zm6.7-2.8c-.3-1.7-1.2-3.6-3-3.6s-3 2.1-3.4 3.9l6.4-.3zM225.7 52.5V49c-1.4 1.8-3.4 3-5.6 3.2-3.6 0-6.3-3.9-6.3-7.7 0-5.6 4.2-9.4 9-9.4.9 0 1.9.1 2.8.4v-4.8c0-1.5 0-2-1.6-3.4v-.4l3.8-1.6.4.2v21.6c0 3.4 0 3.8 2.8 3.4l.1.6-5.4 1.4zm0-11c.2-2.6-1.6-5-4-5.2h-.5c-3.1 0-4.4 3.5-4.4 6.5 0 5.3 2.9 7.6 5.3 7.6 1.5-.2 2.8-1.1 3.6-2.5v-6.4zM242.1 26.9l7.3-.3c9.7-.4 10.5 5.4 10.5 6.8 0 5.2-4.6 7-8.5 7.5l-.1-.6c3-.5 5.2-2.3 5.2-6 0-4.8-3.6-7-7.5-6.9v18.2c0 4.1.1 4.8 4.4 5.5v.6h-11.5v-.6c4-.6 4-1.7 4.2-5.5V34.3c0-5 0-6.6-3.9-6.8l-.1-.6zM264.8 42.4c-.4 3.6 1.9 6.9 5.2 7.4h.7c1.6 0 3.1-.9 3.9-2.3l.5.4c-1.2 2.5-3.6 4.1-6.1 4.3-3.9-.1-7-3.7-7-8V44c-.2-4.6 3-8.6 7.2-8.9h.3c2.7-.2 5 2 5.1 5v.4h-9.7l-.1 1.9zm6.6-2.8c-.3-1.7-1.2-3.6-3-3.6s-3 2.1-3.4 3.9l6.4-.3zM286.2 39.6l-.7.2c-.5-1.7-1.2-3.8-3.1-3.8-1.2 0-2.2 1-2.2 2.3v.3c0 3.8 6.9 3.7 6.9 8.5 0 3.3-2.8 5.1-5.6 5.1-1.4 0-2.9-.4-4.1-1.4l-.3-4.1.8-.1c.5 2.2 1.6 4.6 4 4.6 1.4 0 2.5-1.2 2.6-2.7v-.2c0-4.2-6.9-3.4-6.9-8.6.2-2.7 2.3-4.7 4.8-4.5 1.3 0 2.6.4 3.7 1.2l.1 3.2zM293.8 45.3c0 3.3 0 5.4 3.7 5.4.7 0 1.3-.1 2-.3l.1.6c-1.7.7-3.5 1.1-5.3 1.2-3.2 0-3.1-1.9-3.1-4.7V37.4H289l-.2-.3 4.7-5.1h.3v3.8h5.3v1.5h-5.3v8zM325 46.4l6-14.7c.8-2 1.3-3.9.6-4.4v-.6h7.3v.6c-2.1.5-3.4 1.4-3.3 4l.7 13.4c.4 5.1.4 5.9 3.9 6.6v.6h-11v-.6c2.6-.4 4.2-.8 4-4l-.9-16.1-8.3 20.6h-.4l-8-19.9c-.5 5.6-.8 9.8-1 15.5-.1 1.4 0 3.1 4 3.8v.6h-9.3v-.6c3-.6 3.3-2.1 3.7-5.1l1.2-10.3.4-5c.2-2.4-1.7-3.3-3.7-3.5v-.6h7.2v.4c-.7.8.2 3.1.4 3.6l6.5 15.7zM349.8 42.7c.3-4-.7-5.7-3.3-5.7-2.3 0-2.1 1.2-2.1 3.2l-1.7.1c-.3 0-.8 0-.8-.4 0-1 3.7-4.8 6.4-4.8 3.1 0 4 2.6 4 5.5v5.2c0 3.3-.2 4 2.9 4.7v.6c-1.1.4-2.2.7-3.4.8-1.4 0-1.9-.9-2.1-2.3-1 1.5-2.6 2.4-4.2 2.5-1.9-.1-3.4-1.8-3.4-3.9v-.3c0-.6.1-1.1.2-1.6l7.5-3.6zm-4.5 3.3c-.2.5-.2 1-.2 1.5-.1 1.4.8 2.7 2.1 2.9h.2c.9-.1 1.8-.6 2.4-1.4v-5.6l-4.5 2.6zM358.6 40.5c0-1.5 0-2-1.6-3.4v-.3l4-1.6.4.1-.4 2.7c1.6-1.6 3.7-2.6 5.9-2.8 4 0 4.2 3.6 4.2 5.8v6.6c0 3.1.1 3.3 2.6 3.7v.6h-7.8v-.6c2.5-.4 2.6-.8 2.6-3.7v-4.2c0-2.6.1-6.2-4-6.2-1.3 0-2.5.5-3.4 1.5v8.9c0 3.1.1 3.3 2.6 3.7v.6H356v-.5c2.5-.4 2.6-.8 2.6-3.7v-7.2zM383.1 42.7c.3-4-.7-5.7-3.3-5.7-2.3 0-2.1 1.2-2.1 3.2l-1.7.1c-.3 0-.8 0-.8-.4 0-1 3.7-4.8 6.4-4.8 3.1 0 4 2.6 4 5.5v5.2c0 3.3-.2 4 2.9 4.7v.6c-1.1.4-2.2.7-3.4.8-1.4 0-1.9-.9-2.1-2.3-1 1.5-2.6 2.4-4.2 2.5-1.9-.1-3.4-1.8-3.4-3.9v-.3c0-.6.1-1.1.2-1.6l7.5-3.6zm-4.5 3.3c-.2.5-.2 1-.2 1.5-.1 1.4.8 2.7 2.1 2.9h.2c.9-.1 1.8-.6 2.4-1.4v-5.6l-4.5 2.6zM400.6 49c3.6-.2 5.6 1.5 5.6 4 0 3.6-4.4 7.7-10.4 7.7-4 0-5.6-2.2-5.6-3.8 0-2.8 2.6-4.1 4.5-5.2-1.3-.2-3.4-1.1-3.4-2.8 0-1.1 1.8-2.6 2.5-3.2-1.6-.9-2.7-2.7-2.8-4.7 0-3.8 3.1-5.9 6.3-5.9 1.5 0 3 .4 4.4 1.2h4.8v1.5l-4.1-.1c.5.9.7 1.9.7 2.9 0 3.8-3.1 5.9-6.2 5.9-.9 0-1.7-.2-2.5-.5-1.1 1.1-1.1 3.3 2 3.1l4.2-.1zm-4.9 2.8c-1.2.6-3.1 2.1-3.1 3.7 0 2.7 3.5 3.4 5.4 3.4 2.4 0 6.1-1.2 6.1-4.4s-4.3-3-5.2-2.9l-3.2.2zm4.5-10.6c0-2.4-1-5.2-3.5-5.2-2.2 0-2.9 2.5-2.9 4.5 0 3.6 2 5.3 3.5 5.3 2.3-.1 2.9-2.6 2.9-4.6zM410.8 42.4c-.4 3.6 1.9 6.9 5.2 7.4.2 0 .5 0 .7.1 1.6 0 3.1-.9 3.9-2.3l.5.4c-1.2 2.5-3.6 4.1-6.1 4.3-3.9-.1-7-3.7-7-8v-.2c-.2-4.6 3-8.6 7.2-8.9h.3c2.7-.2 5 2 5.1 5v.4H411l-.2 1.8zm6.7-2.8c-.3-1.7-1.2-3.6-3-3.6s-3 2.1-3.4 3.9l6.4-.3zM427.9 47.6c0 3.1.1 3.3 2.3 3.7v.6h-7.3v-.6c2.3-.4 2.4-.8 2.4-3.7v-7c0-1.5 0-2-1.6-3.4v-.3l4-1.6.4.1-.3 2.8c1.5-1.7 3.4-2.8 5.6-3 1.8 0 3.4 1.1 4.1 3 1.5-1.7 3.4-2.8 5.6-3 4.9 0 4.3 5.6 4.3 7.6v4.8c0 3.1.1 3.3 2.3 3.7v.6h-7.3v-.6c2.3-.4 2.4-.8 2.4-3.7v-3.9c0-1.4.5-6.6-3.8-6.6-1.3 0-2.5.7-3.3 1.8v8.7c0 3.1.1 3.3 2.3 3.7v.6h-7.3v-.6c2.3-.4 2.4-.8 2.4-3.7v-3.9c0-2 .4-6.6-3.7-6.6-1.3.1-2.5.7-3.4 1.8l-.1 8.7zM454.2 42.4c-.4 3.6 1.9 6.9 5.2 7.4.2 0 .4 0 .7.1 1.6 0 3.1-.9 3.9-2.3l.5.4c-1.2 2.5-3.6 4.1-6.1 4.3-3.9-.1-7-3.7-7-8v-.2c-.2-4.6 3-8.6 7.2-8.9h.3c2.7-.2 5 2 5.1 5v.4h-9.7l-.1 1.8zm6.6-2.8c-.3-1.7-1.2-3.6-3-3.6s-3 2.1-3.4 3.9l6.4-.3zM468.6 40.5c0-1.5 0-2-1.6-3.4v-.3l4-1.6.4.1-.4 2.7c1.6-1.6 3.7-2.6 5.9-2.8 4 0 4.2 3.6 4.2 5.8v6.6c0 3.1.1 3.3 2.6 3.7v.6h-7.8v-.6c2.5-.4 2.6-.8 2.6-3.7v-4.2c0-2.6.1-6.2-4-6.2-1.3 0-2.5.5-3.4 1.5v8.9c0 3.1.1 3.3 2.6 3.7v.6H466v-.5c2.5-.4 2.6-.8 2.6-3.7v-7.2zM489.8 45.3c0 3.3 0 5.4 3.7 5.4.7 0 1.3-.1 2-.3l.1.6c-1.7.7-3.5 1.1-5.3 1.2-3.2 0-3.1-1.9-3.1-4.7V37.4H485l-.2-.3 4.7-5.1h.3v3.9h5.3v1.5h-5.3v7.9zM29.6 31.7c0-.2 1.6-1 1.8-1.2 1.1-.3 2.3-.5 3.4-.6.5 0 .5-.2 1-.4.4-.2.3-.3 1-.7.8-.4 1 .5 1.7.4.7-.1 0 .2 0 .3s-2.4 1.2-2.1 1.2c-1.3.6-2.6 1.1-3.9 1.5-.2 0-.4.1-.5.2-1.1.6-2.3.8-2.6.3-.4-.4.2-1.1.2-1M29.2 30.2l-4.9-3.5v-.6c.3-.3-.5-1-.5-1l-.8-1-18.2-.4.1-1.5c.5-.2 2.8-2.3 3.4-2.6.3 0 .5-.3.4-.7 0-.1 0-.2-.1-.2 0-.5-.8-1.1-.6-2.1.2-1 1.7-.9 1.7-.9l3.7.4c.5.8 2.8.2 2.8.2.4.6 2.3-1.1 2.3-1.1 0-.6.9-.1.9-.2s.3-2.2.3-2.2c.5-.5-.2-.8-.4-1-.2-.2-.4-.5.4-1 .6-.5 1.2-1 1.6-1.7 0 0 1.6-1.6 2.1-2.2.6-.5 1.2-.9 1.9-1.1l5.6-.2-.3 1.8v1c.3.1.2 2.3.2 2.3-.2.4-.2.9 0 1.3.6 1.5 0 1.5-.1 2s.9.7.9.7v5.1l-.6 2.6c-.4.8-.2 1.2-.2 1.2l-.1 4.7c.6.6-.1.8-.3.9s-.5.2-.2.6l-1 .4z"/>
  <path class="st0" d="M15.3 45.7c0 3.2 0 4.2 4.5 5V52H5v-1.3c4.5-.8 4.5-1.8 4.5-5V32.8c0-3.2 0-4.2-4.5-5v-1.3c2.5 0 5.1.1 7.4.1s4.9-.1 7.4-.1v1.3c-4.5.8-4.5 1.8-4.5 5v12.9z"/>
  <path class="st0" d="M22.1 41.1c0-3.2 0-4.2-4.5-5v-1.3c3.2-.2 6.4-.3 9.6-.3 4.5 0 12.5.3 12.5 7.2 0 5.9-5.3 7.9-9.9 8.4l-.2-1.1c2.4-.8 3.9-3.3 3.8-6.1 0-3.8-1.8-6.4-5.4-6.6v32.3c0 3.2 0 4.2 5.6 5v1.3H17.9v-1.3c4.5-.8 4.5-1.7 4.5-5l-.3-27.5z"/>
  <path class="st0" d="M45 31.2c-.5 4.7-1 12.1-1 14.4 0 3.5.2 4.4 4 5.1V52H37.1v-1.3c3.7-.6 4.4-3.6 5-8.1l.9-6.5c.2-1.6.3-3.2.4-4.8 0-2.1-.4-2.9-3.6-3.5v-1.3c2.1 0 4.3.1 6.4.1 1.7 0 2.8-.1 4-.1v.9c-.3.2-.5.6-.5 1.1 0 .5.1.9.3 1.3l5 14.5 4.9-13.5c.4-.7.6-1.5.7-2.3 0-.4-.2-.8-.5-1v-1c1.9 0 3.9.1 5.9.1 1.7 0 3.4-.1 5.1-.1v1.3c-3.3.5-4 1.2-4 5.5s.5 8.6.7 12.8c.1 2.2.7 4.3 4.5 4.6V52H58.1v-1.3c3.1-.6 4.2-.4 4.2-3.8 0-5.5-.3-11-.4-16.6l-7.8 22.1h-1.6L45 31.2z"/>
  <path fill="none" stroke="#037576" d="M.5.5h75.9v79.3H.5z"/>
</svg>
