<svg xmlns="http://www.w3.org/2000/svg" id="Layer_1" x="0" y="0" viewBox="0 0 60 60" xml:space="preserve">
  <style>
    .st0{stroke:#007476;stroke-width:.5}.st0,.st1{fill:#007476}
  </style>
  <path class="st0" d="M23.4 23.5c0-.2 1.2-.7 1.4-.8s2.2-.4 2.6-.4c.4 0 .4-.2.7-.3s.2-.2.8-.5c.6-.3.8.4 1.3.3s0 .1 0 .2-1.8.9-1.6.9c.2 0-2.8 1.2-3 1.2-.1 0-.3 0-.4.1-.8.4-1.8.6-2 .2-.3-.3.2-.9.2-.9M23.2 22.5l-3.8-2.6v-.5c.2-.2-.4-.7-.4-.7 0 .1-.6-.6-.6-.6l-13.9-.3.1-1.1c.4-.2 2.1-1.7 2.6-1.9.5-.2.3-.6.3-.6 0-.3-.6-.8-.5-1.5s1.3-.7 1.3-.7l2.9.3c.3.5 2.1.1 2.1.1.3.4 1.7-.8 1.7-.8 0-.4.7-.1.7-.1 0-.1.2-1.6.2-1.6.4-.4-.1-.6-.3-.7s-.3-.4.3-.7c.6-.4 1.2-1.2 1.2-1.2l1.6-1.6c.4-.4 1.5-.8 1.5-.8l4.3-.1-.2 1.3v.7c.2.1.1 1.7.1 1.7-.2.6 0 1 0 1 .4 1.2 0 1.1-.1 1.5s.7.5.7.5v3.7l-.4 2c-.3.6-.2.9-.2.9l-.1 3.4c.5.4-.1.6-.2.7-.2.1-.4.1-.2.5l-.7-.2z"/>
  <path class="st1" d="M12.5 33.7c0 2.3 0 3.1 3.4 3.6v.9c-1.9 0-3.9-.1-5.6-.1s-3.7.1-5.6.1v-.9c3.3-.5 3.4-1.3 3.4-3.6v-9.4c0-2.3 0-3-3.4-3.6v-.9c1.9 0 3.9.1 5.6.1s3.7-.1 5.6-.1v.9c-3.4.6-3.4 1.3-3.4 3.6v9.4z"/>
  <path class="st1" d="M17.7 30.4c0-2.3 0-3.1-3.4-3.6v-.9c2.4-.1 4.9-.2 7.3-.2 3.4 0 9.5.2 9.5 5.2 0 4.3-4 5.7-7.6 6.1l-.2-.9c2-.9 2.9-2.3 2.9-4.4 0-2.7-1.3-4.6-4.1-4.8v23.4c0 2.3 0 3 4.2 3.6v.9c-2.7 0-4.6-.1-6.4-.1-1.8 0-3.7.1-5.6.1v-.9c3.4-.6 3.4-1.3 3.4-3.6V30.4z"/>
  <path class="st1" d="M35.1 23.2c-.4 3.4-.8 8.8-.8 10.4 0 2.5.1 3.2 3 3.7v.9c-.6 0-1.4-.1-3.3-.1-2 0-3.4.1-5.1.1v-.9c2.8-.4 3.4-2.6 3.8-5.9l.7-4.7c.2-1.1.3-2.8.3-3.5 0-1.5-.3-2.1-2.8-2.5v-.9c1.6 0 3.3.1 4.9.1 1.3 0 2.1-.1 3-.1v.6c-.2.2-.4.3-.4.8 0 .3.1.6.2.9l3.8 10.5 3.7-9.8c.2-.5.5-1.1.5-1.7 0-.4-.2-.5-.4-.7v-.7c1.5 0 3 .1 4.5.1 1.3 0 2.6-.1 3.9-.1v.9c-2.5.4-3.1.9-3.1 4s.4 6.2.5 9.3c.1 1.6.6 3.1 3.5 3.4v.9c-1.8 0-3.6-.1-5.4-.1-1.5 0-3.6.1-5.4.1v-.9c2.4-.5 3.2-.3 3.2-2.8 0-4-.2-8-.3-12.1h-.1l-5.9 16h-1.3l-5.2-15.2z"/>
  <path fill="none" stroke="#007476" stroke-width=".5" d="M2 2h56v56H2z"/>
</svg>
