<svg xmlns="http://www.w3.org/2000/svg" id="Layer_1" x="0" y="0" viewBox="0 0 486 80" xml:space="preserve">
  <style>
    .st0{fill:#333}.st1{fill:#286651}
  </style>
  <path class="st0" d="M153.1 10h3.2v9.1c-.1.8.1 1.5.4 2.2 1 1.3 2.9 1.6 4.2.6.2-.2.5-.4.6-.6.3-.7.4-1.5.3-2.2V10h3.2v9.1c.1 1.3-.2 2.5-.7 3.7-2.5 2.9-6.8 3.2-9.7.8-.3-.2-.5-.5-.8-.8-.5-1.2-.8-2.4-.8-3.7V10zM176.6 14.5c.8.8 1.2 1.9 1.1 2.9v7.4h-2.9v-6.7c0-.5-.1-.9-.2-1.3-.3-.6-.9-.9-1.6-.8-.9-.1-1.7.4-2 1.2-.2.5-.3 1.1-.3 1.7v5.9h-2.9V13.9h2.8v1.6c.3-.5.6-.9 1-1.2.7-.5 1.4-.7 2.2-.6 1.1-.1 2 .2 2.8.8zM183.3 12.6h-2.9V9.9h2.9v2.7zm-2.9 1.3h2.9v11h-2.9v-11zM184.9 16v-2h1.6v-3.1h2.8V14h1.8v2h-1.8v5.8c0 .3 0 .6.2.8.1.1.5.2 1 .2h.6v2.1h-1.3c-1 .2-2-.1-2.8-.7-.4-.4-.6-1-.5-1.6V16h-1.6zM200 14.1c.8.3 1.4.9 1.9 1.6.5.7.8 1.5.9 2.3.1.7.1 1.5.1 2.2H195c0 .9.4 1.8 1.2 2.3.5.3 1 .4 1.6.4.6 0 1.1-.2 1.6-.5.2-.2.4-.5.6-.8h2.9c-.1.8-.5 1.5-1.1 2-1.1 1.1-2.6 1.7-4.1 1.6-1.4 0-2.8-.5-3.8-1.3-1.2-1.1-1.8-2.7-1.7-4.4-.1-1.6.5-3.2 1.6-4.4 1-1.1 2.5-1.6 3.9-1.6.8 0 1.6.2 2.3.6zm-4.2 2.5c-.4.5-.7 1.1-.8 1.7h4.9c0-.7-.3-1.3-.8-1.7-.5-.4-1.1-.6-1.7-.6-.6-.1-1.2.1-1.6.6zM210.2 14c.5.3 1 .7 1.3 1.2V10h3v14.8h-2.8v-1.6c-.7 1.2-2 2-3.3 1.9-1.2 0-2.4-.6-3.2-1.6-.9-1.1-1.4-2.5-1.3-4-.1-1.6.4-3.1 1.3-4.4.8-1.1 2.1-1.6 3.5-1.6.4.1 1 .2 1.5.5zm.7 7.8c.5-.7.7-1.5.6-2.3.1-1.1-.3-2.1-1-2.9-.4-.3-.9-.5-1.5-.5-.7-.1-1.5.3-1.8 1-.4.7-.6 1.5-.6 2.3 0 .9.2 1.7.6 2.4.4.6 1.1.9 1.8.9.7.1 1.4-.3 1.9-.9zM225.1 20.2c0 .6.2 1.1.6 1.6.7.7 1.7 1 2.6.9.6 0 1.2-.1 1.8-.2.8-.2 1.3-.9 1.3-1.7 0-.5-.2-.9-.6-1.1-.6-.3-1.3-.6-2.1-.7l-1.6-.3c-1.1-.2-2.2-.6-3.2-1.1-1-.7-1.6-1.9-1.5-3.2 0-1.3.5-2.5 1.5-3.3 1.2-1 2.8-1.4 4.3-1.3 1.5 0 2.9.4 4.1 1.2 1.1.8 1.7 2.1 1.7 3.5h-3c0-.8-.5-1.5-1.2-1.9-.6-.3-1.2-.4-1.8-.4-.7 0-1.4.1-2 .5-.5.3-.7.8-.7 1.3s.3 1 .7 1.2c.6.3 1.3.5 2 .6l2.6.6c.9.2 1.8.5 2.6 1.1.9.7 1.4 1.9 1.3 3 0 1.3-.6 2.6-1.6 3.4-1.3 1-2.8 1.5-4.4 1.3-1.6.1-3.2-.4-4.5-1.3a4.6 4.6 0 01-1.7-3.6h2.8zM235.3 16v-2h1.6v-3.1h2.8V14h1.8v2h-1.8v5.8c0 .3 0 .6.2.8.1.1.5.2 1 .2h.6v2.1h-1.4c-1 .2-2-.1-2.8-.7-.4-.4-.6-1-.5-1.6V16h-1.5zM247.7 18.2c.4 0 .8-.1 1.1-.3.4-.1.6-.4.6-.8s-.1-.7-.5-.9c-.4-.2-.9-.3-1.4-.3-.5-.1-1.1.1-1.5.5-.2.3-.4.6-.4 1h-2.8c0-.9.3-1.7.8-2.4 1-1.1 2.5-1.6 3.9-1.4 1.1 0 2.2.2 3.2.7 1 .5 1.5 1.6 1.4 2.7v6.3c0 .3 0 .5.2.8.1.1.2.3.4.3v.4h-3.2c-.1-.2-.2-.4-.2-.6v-.7c-.4.4-.9.8-1.4 1.1-.6.4-1.4.5-2.1.5-.9 0-1.8-.3-2.5-.9-.7-.6-1-1.5-1-2.4-.1-1.2.5-2.3 1.6-2.9.8-.4 1.7-.6 2.5-.7h1.3zm1.7 1.3l-.6.3c-.2.1-.5.2-.8.2l-.6.1c-.5.1-.9.2-1.3.4s-.7.7-.7 1.2c0 .4.1.8.4 1 .3.2.6.3 1 .3.6 0 1.2-.2 1.7-.5.6-.5.9-1.2.8-2l.1-1zM253.6 16v-2h1.6v-3.1h2.8V14h1.8v2H258v5.8c0 .3 0 .6.2.8.1.1.5.2 1 .2h.6v2.1h-1.4c-1 .2-2-.1-2.8-.7-.4-.4-.6-1-.5-1.6V16h-1.5zM268.7 14.1c.8.3 1.4.9 1.9 1.6.5.7.8 1.5.9 2.3.1.7.1 1.5.1 2.2h-7.9c0 .9.4 1.8 1.2 2.3.5.3 1 .4 1.6.4.6 0 1.1-.2 1.6-.5.2-.2.4-.5.6-.8h2.9c-.1.8-.5 1.5-1.1 2-1.1 1.1-2.6 1.7-4.1 1.6-1.4 0-2.8-.5-3.8-1.3-1.2-1.1-1.8-2.7-1.7-4.4-.1-1.6.4-3.2 1.5-4.4 1-1.1 2.5-1.6 3.9-1.6.7 0 1.6.2 2.4.6zm-4.3 2.5c-.4.5-.7 1.1-.8 1.7h4.9c0-.7-.3-1.3-.8-1.7-.5-.4-1.1-.6-1.7-.6-.5-.1-1.1.1-1.6.6zM275.2 21.3c0 .4.2.8.4 1.1.6.4 1.3.7 2 .6.5 0 .9-.1 1.3-.3.4-.2.6-.7.4-1.1-.1-.2-.2-.3-.3-.4-1-.4-2-.7-3-.9-1-.2-1.9-.6-2.6-1.2-.5-.5-.8-1.2-.8-2 0-1 .4-2 1.2-2.6.9-.8 2.1-1.2 3.4-1.1 1.2 0 2.3.2 3.4.8.9.7 1.5 1.7 1.5 2.8h-2.9c0-.3-.1-.6-.3-.9-.4-.4-1-.6-1.6-.6-.5 0-.9.1-1.3.3-.2.1-.4.4-.4.7 0 .3.2.6.4.7 1 .4 2 .6 3 .8.9.2 1.8.6 2.6 1.2.6.5.9 1.3.8 2.1 0 1-.4 2-1.2 2.7-2.3 1.4-5.2 1.4-7.6 0-.8-.7-1.3-1.7-1.2-2.8l2.8.1zM161.8 35c1 .3 1.9 1 2.5 1.9.5.7.9 1.5 1.1 2.4.2.8.3 1.6.3 2.5.1 1.7-.4 3.5-1.2 5-1 1.8-2.9 2.9-5 2.8h-6.3V34.7h6.3c.8 0 1.5.1 2.3.3zm-5.7 2.2v9.7h2.9c1.4 0 2.6-.8 3.1-2.2.3-.9.5-1.9.5-2.8.1-1.2-.2-2.4-.7-3.5-.6-.9-1.7-1.4-2.8-1.2h-3zM174.9 38.8c.8.3 1.4.9 1.9 1.6.5.7.8 1.5.9 2.3.1.7.1 1.4.1 2.2h-7.9c0 .9.4 1.8 1.1 2.3.5.3 1 .4 1.6.4.6 0 1.1-.2 1.6-.5.2-.2.4-.5.6-.8h2.9c-.1.8-.5 1.5-1.1 2-1.1 1.1-2.6 1.7-4.1 1.6-1.4 0-2.8-.5-3.9-1.3-1.2-1.1-1.8-2.8-1.6-4.4-.1-1.6.5-3.2 1.6-4.4 1-1.1 2.5-1.6 3.9-1.6.8 0 1.6.2 2.4.6zm-4.3 2.5c-.4.5-.7 1.1-.8 1.7h5c0-.7-.3-1.3-.8-1.7-.5-.4-1.1-.6-1.7-.6-.6 0-1.2.2-1.7.6zM188.4 39.7c1 1.2 1.5 2.7 1.3 4.2.1 1.6-.4 3.2-1.3 4.4-.8 1-2.1 1.6-3.4 1.6-.8 0-1.6-.2-2.2-.7-.4-.3-.7-.6-.9-1v5.7h-2.8V38.6h2.8v1.6c.3-.4.6-.8 1-1.1.7-.5 1.5-.7 2.3-.7 1.2-.1 2.4.4 3.2 1.3zm-2.2 2.1c-.4-.7-1.1-1-1.9-1-1-.1-1.9.6-2.2 1.5-.2.6-.3 1.3-.3 2-.1 1 .3 2 1 2.7.4.3.9.5 1.4.5.7 0 1.4-.3 1.8-.9 1-1.5 1-3.3.2-4.8zM196.1 42.9c.4 0 .8-.1 1.2-.3.4-.1.6-.4.6-.8s-.1-.7-.5-.9c-.4-.2-.9-.3-1.4-.3-.5-.1-1.1.1-1.5.5-.2.3-.4.6-.4 1h-2.8c0-.9.3-1.7.8-2.4 1-1.1 2.5-1.6 3.9-1.4 1.1 0 2.2.2 3.2.7 1 .5 1.5 1.6 1.4 2.7V48c0 .3 0 .5.2.8.1.2.3.3.4.3v.4H198c-.1-.2-.1-.4-.2-.6v-.7c-.4.4-.9.8-1.4 1.1-.6.4-1.4.5-2.1.5-.9 0-1.8-.3-2.5-.9-.7-.6-1-1.5-1-2.4-.1-1.2.5-2.3 1.6-2.9.8-.4 1.6-.6 2.5-.7h1.2zm1.8 1.3l-.6.3c-.3.1-.5.2-.8.2l-.6.1c-.5.1-.9.2-1.3.4s-.7.7-.7 1.2c0 .4.1.8.4 1.1.3.2.6.3 1 .3.6 0 1.2-.2 1.7-.5.6-.5.9-1.2.8-2v-1.1zM209.3 38.3h.2v3h-.8c-.9-.1-1.8.3-2.3 1.1-.3.6-.4 1.3-.3 1.9v5.2h-2.9V38.6h2.7v1.9c.3-.6.7-1.1 1.2-1.5.6-.5 1.3-.7 2.1-.7h.1zM210.1 40.7v-2h1.6v-3.1h2.8v3.1h1.8v2h-1.8v5.8c0 .4 0 .7.2.8s.5.2 1 .2h.6v2.1h-1.4c-1 .2-2-.1-2.8-.7-.4-.4-.5-1-.5-1.6v-6.7h-1.5zM231.8 38.6c.5.2.9.5 1.3 1 .3.4.5.9.6 1.4.1.5.1 1.1.1 1.6v6.9h-2.9v-7c0-.3-.1-.7-.2-1-.3-.5-.8-.8-1.4-.8-.7 0-1.3.4-1.6 1-.2.4-.2.8-.2 1.3v6.5h-2.9V43c0-.5 0-1-.2-1.4-.3-.5-.8-.9-1.4-.8-.6-.1-1.3.3-1.6.8-.2.4-.3.9-.2 1.3v6.6H218V38.6h2.8v1.6c.3-.5.6-.9 1-1.2.6-.4 1.4-.7 2.2-.6.7 0 1.4.2 2 .6.4.3.8.8 1 1.3.3-.6.8-1.1 1.4-1.4.6-.3 1.3-.5 2-.4.5-.2 1-.1 1.4.1zM243.6 38.8c.8.3 1.4.9 1.9 1.6.5.7.8 1.5.9 2.3.1.7.1 1.4.1 2.2h-7.9c0 .9.4 1.8 1.1 2.3.5.3 1 .4 1.6.4.6 0 1.1-.2 1.6-.5.3-.2.5-.5.6-.8h2.9c-.1.8-.5 1.5-1.1 2-1.1 1.1-2.6 1.7-4.1 1.6-1.4 0-2.8-.5-3.9-1.3-1.2-1.1-1.8-2.7-1.7-4.4-.1-1.6.5-3.2 1.6-4.4 1-1.1 2.4-1.6 3.9-1.6.9 0 1.7.2 2.5.6zm-4.3 2.5c-.4.5-.7 1.1-.8 1.7h4.9c0-.7-.3-1.3-.8-1.7-.5-.4-1.1-.6-1.7-.6-.6 0-1.2.2-1.6.6zM256.7 39.2c.8.8 1.2 1.9 1.1 2.9v7.4h-2.9v-6.6c0-.5-.1-.9-.2-1.3-.3-.6-.9-.9-1.6-.8-.9-.1-1.7.4-2 1.2-.2.5-.3 1-.3 1.6v5.9h-2.9V38.6h2.8v1.6c.3-.5.6-.9 1-1.2.7-.5 1.4-.7 2.2-.6 1-.1 2 .2 2.8.8zM259.3 40.7v-2h1.6v-3.1h2.8v3.1h1.8v2h-1.8v5.8c0 .3 0 .6.2.8.3.1.7.2 1 .2h.6v2.1h-1.4c-1 .2-2-.1-2.8-.7-.4-.4-.5-1-.5-1.6v-6.7h-1.5zM282.2 48.2c-2.3 2.3-6.1 2.3-8.4 0-1.8-2.4-1.8-5.8 0-8.2 2.3-2.3 6.1-2.3 8.4 0 1.8 2.4 1.8 5.8 0 8.2zm-2.3-1.6c.9-1.6.9-3.5 0-5.1-.9-1.1-2.5-1.2-3.6-.3l-.3.3c-.9 1.6-.9 3.5 0 5.1.9 1.1 2.5 1.2 3.5.3.2-.1.3-.2.4-.3zM290.1 34.6h.6v2.3h-.8c-.3 0-.6 0-.8.3-.1.2-.2.4-.2.6v.9h1.9v2h-1.9v8.8H286v-8.8h-1.6v-2h1.6V38c-.1-.9.1-1.7.6-2.4.4-.6 1.4-1 3-1h.5zM157.4 59.4h3.5l5.2 14.8h-3.4l-1-3h-5.4l-1 3h-3.2l5.3-14.8zm-.2 9.2h3.8l-1.9-5.8-1.9 5.8zM173.2 63.3c.7.3 1.3.9 1.7 1.6v-1.6h2.8v10.4c.1 1.1-.2 2.2-.7 3.2-1.2 1.4-3 2.1-4.8 1.9-1.2.1-2.4-.2-3.4-.8-.9-.5-1.4-1.4-1.5-2.5h3.2c0 .3.2.5.4.7.5.3 1 .5 1.6.4.8.1 1.7-.3 2.1-1 .3-.7.4-1.5.3-2.2v-.7c-.6 1.2-1.9 1.9-3.2 1.7-1.3 0-2.5-.5-3.4-1.5-.9-1.1-1.4-2.6-1.3-4-.1-1.5.4-2.9 1.2-4.1 1.3-1.6 3.2-2.2 5-1.5zm1 7.9c.5-.7.7-1.6.6-2.5.1-.8-.2-1.7-.7-2.4-.4-.5-1.1-.8-1.7-.8-.9-.1-1.8.5-2.1 1.4-.2.6-.3 1.2-.3 1.9 0 .6.1 1.2.3 1.7.3.9 1.2 1.4 2.1 1.4.7 0 1.3-.3 1.8-.7zM186.4 63h.2v3h-.8c-.9-.1-1.8.3-2.3 1.1-.3.6-.4 1.3-.3 1.9v5.2h-2.9v-11h2.7v1.9c.3-.6.7-1.1 1.2-1.5.6-.4 1.4-.6 2.2-.6zM191.3 62h-2.9v-2.6h2.9V62zm-2.9 1.3h2.9v11h-2.9v-11zM200.6 67.2c0-.4-.2-.8-.4-1.1-.4-.4-.9-.7-1.5-.6-.9 0-1.7.5-2 1.4-.2.7-.3 1.3-.3 2s.1 1.3.3 1.9c.3.8 1 1.4 1.9 1.4.5.1 1.1-.2 1.4-.6.3-.4.5-.9.5-1.4h2.9c-.1.9-.4 1.8-1 2.5-.9 1.3-2.4 1.9-4 1.8-1.5.1-2.9-.5-3.9-1.6-.9-1.2-1.3-2.6-1.3-4.1-.1-1.6.4-3.1 1.4-4.4 1-1.1 2.4-1.7 3.8-1.6 1.2-.1 2.4.3 3.4.9 1 .8 1.6 2 1.6 3.3l-2.8.2zM208.4 63.3v6.5c0 .5 0 1 .2 1.4.3.6.9.9 1.6.8.9.1 1.7-.4 2-1.2.2-.5.3-1.1.3-1.7v-5.9h2.9v11h-2.8v-1.6l-.2.3c-.1.2-.2.3-.4.4-.4.4-.8.6-1.3.8-.5.2-1 .2-1.5.2-1.3.1-2.6-.5-3.3-1.7-.4-.9-.5-1.9-.5-2.9v-6.6h3zM221 74.3h-2.9V59.4h2.9v14.9zM222.7 65.4v-2h1.6v-3.1h2.8v3.1h1.8v2h-1.8v5.8c0 .3 0 .6.2.8.1.1.5.2 1 .2h.6v2.1h-1.4c-1 .2-2-.1-2.8-.7-.4-.4-.6-1-.5-1.6v-6.6h-1.5zM233.5 63.3v6.5c0 .5.1 1 .2 1.4.3.6.9.9 1.6.8.9.1 1.7-.4 2-1.2.2-.5.3-1.1.3-1.7v-5.9h2.9v11h-2.8v-1.6c-.1.1-.1.2-.2.3-.1.2-.2.3-.4.4-.4.4-.8.6-1.3.8-.5.2-1 .2-1.5.2-1.3.1-2.6-.5-3.3-1.7-.3-.9-.5-1.9-.5-2.9v-6.6h3zM249.3 63h.3v3h-.8c-.9-.1-1.8.3-2.3 1.1-.3.6-.4 1.3-.3 1.9v5.2h-2.9v-11h2.7v1.9c.3-.6.7-1.1 1.2-1.5.6-.5 1.3-.7 2.1-.7zM258.4 63.5c.8.3 1.5.9 1.9 1.6.5.7.8 1.5.9 2.3.1.7.1 1.4.1 2.2h-7.9c0 .9.4 1.8 1.2 2.3.5.3 1 .4 1.6.4.6 0 1.1-.2 1.6-.5.2-.2.4-.5.6-.8h2.9c-.1.8-.5 1.5-1.1 2-1.1 1.1-2.6 1.7-4.1 1.6-1.4 0-2.8-.5-3.8-1.3-1.2-1.1-1.8-2.7-1.7-4.4-.1-1.6.4-3.2 1.5-4.4 1-1.1 2.5-1.6 3.9-1.6.8 0 1.6.2 2.4.6zm-4.3 2.5c-.4.5-.7 1.1-.8 1.7h4.9c0-.7-.3-1.3-.8-1.7-.5-.4-1.1-.6-1.7-.6-.5-.1-1.1.1-1.6.6zM334.8 10h2.4l7.4 11.9V10h1.9v14.8h-2.3l-7.5-11.9v11.9h-1.9V10zM355.2 18.3c.3 0 .7-.2.8-.5.1-.2.1-.5.1-.7 0-.5-.2-1.1-.6-1.3-.6-.3-1.2-.5-1.9-.4-.8-.1-1.5.2-2 .8-.3.4-.4.8-.4 1.3h-1.7c-.1-1.1.4-2.1 1.3-2.8.9-.5 1.9-.8 2.9-.8 1.1 0 2.1.2 3.1.7.8.5 1.2 1.3 1.2 2.3V23c0 .2 0 .3.1.5.1.1.3.2.5.2h.6V25l-.6.2h-.6c-.5 0-1.1-.2-1.3-.7-.2-.3-.3-.6-.3-1-.4.5-1 1-1.6 1.3-.7.4-1.5.5-2.3.5-.9 0-1.8-.3-2.5-.9-1.3-1.3-1.3-3.3 0-4.6.7-.6 1.5-.9 2.4-1l2.8-.5zm-3.8 4.9c.4.3.9.5 1.3.5.6 0 1.3-.2 1.9-.4 1-.4 1.6-1.4 1.5-2.4v-1.5c-.3.2-.6.3-.9.4-.3.1-.7.2-1 .2l-1.1.1c-.5 0-1 .2-1.5.4-.6.3-.9.9-.8 1.6 0 .4.2.8.6 1.1zM361.2 11h1.8v3h1.7v1.5H363v7c0 .3.1.6.4.8.2.1.5.1.7.1h.6v1.4c-.2.1-.4.1-.6.1h-.7c-.6.1-1.3-.2-1.7-.6-.3-.5-.5-1.1-.4-1.7v-7.1h-1.5V14h1.5l-.1-3zM366.6 10h1.8v2.1h-1.8V10zm0 4.1h1.8v10.7h-1.8V14.1zM378.9 15.1c1 1.1 1.6 2.6 1.4 4.1.1 1.5-.4 3-1.3 4.3-.9 1.2-2.4 1.8-3.9 1.7-1.3.1-2.6-.5-3.5-1.5-.9-1.1-1.4-2.6-1.3-4-.1-1.6.4-3.1 1.4-4.3.9-1.1 2.3-1.7 3.7-1.6 1.4-.1 2.6.4 3.5 1.3zm-1.1 7.2c.5-.9.7-2 .7-3 0-.8-.1-1.7-.5-2.5-.5-1-1.5-1.6-2.6-1.5-1-.1-1.9.4-2.4 1.3s-.8 2-.7 3.1c0 1 .2 2 .7 2.9.5.8 1.4 1.2 2.4 1.2s2-.6 2.4-1.5zM382.6 14h1.7v1.6c.4-.6 1-1 1.6-1.4.6-.3 1.2-.4 1.9-.4 1.3-.2 2.5.5 3.2 1.6.3.8.5 1.6.4 2.5v6.9h-1.8V18c0-.5-.1-1.1-.3-1.6-.3-.7-1-1.1-1.7-1-.4 0-.7 0-1.1.1-.5.2-1 .5-1.3.9-.3.3-.5.7-.6 1.1-.1.5-.2 1.1-.1 1.6v5.6h-1.8l-.1-10.7zM399.8 18.3c.3 0 .7-.2.8-.5.1-.2.1-.5.1-.7 0-.5-.2-1.1-.6-1.3-.6-.3-1.2-.5-1.9-.4-.8-.1-1.5.2-2 .8-.3.4-.4.8-.4 1.3h-1.7c-.1-1.1.4-2.1 1.3-2.8.9-.5 1.9-.8 2.9-.8 1.1 0 2.1.2 3.1.7.8.5 1.2 1.3 1.2 2.3V23c0 .2 0 .3.1.5.1.1.3.2.5.2h.6V25l-.6.2h-.6c-.5 0-1.1-.2-1.3-.7-.2-.3-.3-.6-.3-1-.4.5-1 1-1.6 1.3-.7.4-1.5.5-2.3.5-.9 0-1.8-.3-2.5-.9-1.3-1.3-1.3-3.3 0-4.6.7-.6 1.6-.9 2.5-1l2.7-.5zm-3.8 4.9c.4.3.9.5 1.3.5.6 0 1.3-.2 1.9-.4 1-.4 1.6-1.4 1.5-2.4v-1.5c-.3.2-.6.3-.9.4-.3.1-.7.2-1 .2l-1.1.1c-.5 0-1 .2-1.5.4-.6.3-.9.9-.8 1.6 0 .4.2.8.6 1.1zM405.6 10h1.8v14.8h-1.8V10zM416.5 10h2v14.8h-2V10zM421.5 14h1.7v1.6c.4-.6 1-1 1.6-1.4.6-.3 1.2-.4 1.9-.4 1.3-.1 2.5.5 3.1 1.6.3.8.5 1.6.4 2.5v6.9h-1.8V18c0-.5-.1-1.1-.3-1.6-.3-.7-1-1.1-1.8-1-.4 0-.7 0-1.1.1-.5.2-1 .5-1.3.9-.2.3-.4.7-.5 1.1-.1.5-.2 1.1-.1 1.6v5.6h-1.8V14zM434.1 21.4c0 .5.2 1 .5 1.4.6.7 1.5 1 2.4.9.6 0 1.3-.1 1.8-.4.5-.3.8-.8.8-1.3 0-.4-.2-.9-.6-1.1-.5-.2-1-.4-1.6-.5l-1.5-.3c-.7-.2-1.4-.4-2.1-.8-.7-.4-1.2-1.2-1.2-2 0-1 .4-1.9 1.1-2.5.9-.7 1.9-1 3-1 1.3-.1 2.7.4 3.6 1.4.4.6.7 1.3.6 2h-1.7c0-.4-.2-.8-.4-1.1-.6-.5-1.4-.8-2.2-.7-.6 0-1.1.1-1.6.4-.3.2-.5.6-.5 1 0 .5.3.9.7 1.1.4.2.8.4 1.2.4l1.2.3c.9.2 1.8.5 2.7.9.7.5 1.1 1.3 1 2.2 0 .9-.4 1.9-1.1 2.5-.9.8-2.2 1.1-3.4 1-1.2.1-2.5-.3-3.4-1.1-.7-.7-1.1-1.7-1.1-2.7h1.8zM443.7 11h1.8v3h1.7v1.5h-1.7v7c0 .3.1.6.4.8.2.1.5.1.7.1h.6v1.4c-.2.1-.4.1-.6.1h-.7c-.6.1-1.3-.2-1.7-.6-.3-.5-.5-1.1-.4-1.7v-7.1h-1.5V14h1.5v-3zM449 10h1.8v2.1H449V10zm0 4.1h1.8v10.7H449V14.1zM453.9 11h1.8v3h1.7v1.5h-1.7v7c0 .3.1.6.4.8.2.1.5.1.7.1h.6v1.4c-.2.1-.4.1-.6.1h-.7c-.6.1-1.3-.2-1.7-.6-.3-.5-.5-1.1-.4-1.7v-7.1h-1.5V14h1.5v-3zM461.1 14v7.1c0 .5.1.9.3 1.4.3.6 1 1 1.7 1 1.1.1 2.2-.6 2.5-1.7.3-.8.4-1.6.4-2.5V14h1.9v10.8h-1.7v-1.6c-.2.4-.5.7-.9 1-.7.6-1.6.9-2.5.8-1.2.1-2.5-.5-3.1-1.6-.3-.7-.5-1.4-.4-2.2V14h1.8zM471.1 11h1.8v3h1.7v1.5H473v7c0 .3.1.6.4.8.2.1.5.1.7.1h.6v1.4c-.2.1-.4.1-.6.1h-.7c-.6.1-1.3-.2-1.7-.6-.3-.5-.5-1.1-.5-1.7v-7.1h-1.5V14h1.4v-3zM483.1 14.4c.6.3 1.2.8 1.6 1.4.4.6.6 1.2.7 1.9.1.8.2 1.6.2 2.4h-7.8c0 .9.3 1.9.8 2.6.5.7 1.4 1.1 2.2 1 .9 0 1.7-.3 2.2-1 .3-.4.5-.8.7-1.3h1.8c-.1.5-.2.9-.5 1.3-.2.4-.5.8-.9 1.2-.6.5-1.3.9-2 1.1-.5.1-1 .2-1.5.2-1.3 0-2.5-.5-3.4-1.5-1-1.1-1.5-2.6-1.4-4.1-.1-1.5.4-3 1.4-4.2.9-1.1 2.3-1.6 3.7-1.6.8.1 1.5.2 2.2.6zm.7 4.2c0-.7-.2-1.3-.5-1.9-.5-.9-1.5-1.4-2.5-1.3-.8 0-1.5.3-2.1.9-.6.6-.9 1.4-.9 2.3h6zM342.3 39.8c1 1.1 1.5 2.6 1.4 4.1.1 1.5-.4 3-1.3 4.3-.9 1.2-2.4 1.8-3.9 1.7-1.4 0-2.6-.5-3.5-1.6-.9-1.1-1.4-2.6-1.3-4-.1-1.6.4-3.1 1.4-4.3.9-1.1 2.3-1.6 3.7-1.6 1.3 0 2.6.5 3.5 1.4zm-1.2 7.2c.4-.9.7-2 .6-3 0-.8-.1-1.7-.5-2.5-.5-1-1.5-1.6-2.6-1.5-1 0-1.8.5-2.3 1.3-.5.9-.8 2-.7 3.1 0 1 .2 2 .7 2.9.5.8 1.4 1.2 2.4 1.2 1.1-.1 2-.6 2.4-1.5zM346.8 35.5c.6-.7 1.5-1.1 2.5-.9h.7v1.6H349.4c-.5 0-.9.1-1 .4-.1.7-.2 1.4-.2 2.2h1.8v1.4h-1.8v9.3h-1.8v-9.2h-1.6v-1.4h1.6v-1.7c0-.6.1-1.2.4-1.7zM357.9 34.8h10.2v1.8h-8.2V41h7.3v1.9h-7.3v6.7h-2V34.8zM377.8 39.8c1 1.1 1.5 2.6 1.4 4.1.1 1.5-.4 3-1.3 4.3-.9 1.2-2.4 1.8-3.9 1.7-1.3 0-2.6-.5-3.5-1.6-.9-1.1-1.4-2.6-1.3-4-.1-1.6.4-3.1 1.4-4.3.9-1.1 2.3-1.6 3.7-1.6 1.3 0 2.6.5 3.5 1.4zm-1.1 7.2c.5-.9.7-2 .7-3 0-.8-.1-1.7-.5-2.5-.5-1-1.5-1.6-2.6-1.5-1-.1-1.9.4-2.4 1.3s-.8 2-.7 3.1c0 1 .2 2 .7 2.9.5.8 1.4 1.2 2.4 1.2s1.9-.6 2.4-1.5zM389.3 39.8c1 1.1 1.5 2.6 1.4 4.1.1 1.5-.4 3-1.3 4.3-.9 1.2-2.4 1.8-3.9 1.7-1.3 0-2.6-.5-3.5-1.6-.9-1.1-1.4-2.6-1.3-4-.1-1.6.4-3.1 1.4-4.3.9-1.1 2.3-1.6 3.7-1.6 1.3 0 2.5.5 3.5 1.4zm-1.2 7.2c.5-.9.7-2 .7-3 0-.8-.1-1.7-.5-2.5-.5-1-1.5-1.6-2.6-1.5-1-.1-1.9.4-2.4 1.3s-.8 2-.7 3.1c0 1 .2 2 .7 2.9.5.8 1.4 1.2 2.4 1.2s2-.6 2.4-1.5zM398.8 39.1c.4.3.8.7 1.1 1.1v-5.4h1.7v14.8H400V48c-.4.6-.9 1.1-1.5 1.4-.6.3-1.3.5-2 .4-1.2 0-2.4-.6-3.2-1.6-.9-1.1-1.4-2.6-1.3-4 0-1.4.4-2.9 1.2-4.1.8-1.1 2.1-1.8 3.4-1.7.9.1 1.6.3 2.2.7zm-4 8.1c.5.8 1.4 1.2 2.3 1.2.8 0 1.6-.4 2.1-1.1.6-.9.9-2.1.8-3.2.1-1.1-.2-2.1-.8-3-.5-.6-1.3-1-2.1-1-.9 0-1.7.4-2.2 1-.6.9-.9 2-.8 3.1-.1 1.1.2 2.1.7 3zM415.9 43c.3 0 .7-.2.8-.5.1-.2.1-.5.1-.7 0-.5-.2-1-.6-1.3-.6-.3-1.2-.5-1.9-.4-.8-.1-1.5.2-2 .8-.3.4-.4.8-.4 1.3h-1.7c-.1-1.1.4-2.1 1.3-2.8.9-.5 1.9-.8 2.9-.8 1.1 0 2.1.2 3.1.7.8.5 1.2 1.4 1.2 2.3v6.2c0 .2 0 .3.1.5.1.1.3.2.5.2h.6v1.3l-.6.2h-.6c-.5 0-1.1-.2-1.3-.7-.2-.3-.3-.6-.3-1-.4.5-1 1-1.6 1.3-.7.4-1.5.6-2.3.5-.9 0-1.8-.3-2.4-.9-1.3-1.3-1.3-3.3 0-4.6.7-.6 1.6-.9 2.5-1l2.6-.6zm-3.9 4.9c.4.3.9.5 1.4.5.6 0 1.3-.2 1.9-.4 1-.4 1.6-1.4 1.6-2.4v-1.5c-.3.2-.6.3-.9.4-.3.1-.7.2-1 .2l-1.1.1c-.5 0-1 .2-1.5.4-.6.3-.9.9-.8 1.6-.1.4.1.8.4 1.1zM421.6 38.8h1.7v1.6c.4-.6 1-1 1.6-1.4.6-.3 1.2-.4 1.9-.4 1.3-.2 2.5.5 3.2 1.6.3.8.5 1.6.4 2.5v6.9h-1.8v-6.8c0-.5-.1-1.1-.3-1.6-.3-.7-1-1.1-1.7-1-.4 0-.7 0-1.1.1-.5.2-1 .5-1.3.9-.3.3-.5.7-.6 1.1-.1.5-.1 1.1-.1 1.6v5.6h-1.8l-.1-10.7zM438.9 39.1c.4.3.8.7 1.1 1.1v-5.4h1.7v14.8h-1.6V48c-.4.6-.9 1.1-1.5 1.4-.6.3-1.3.5-2 .4-1.2 0-2.4-.6-3.2-1.6-.9-1.1-1.4-2.6-1.3-4 0-1.4.4-2.9 1.2-4.1.8-1.1 2.1-1.8 3.4-1.7.9.1 1.6.3 2.2.7zm-4 8.1c.5.8 1.4 1.2 2.3 1.2.8 0 1.6-.4 2.1-1.1.6-.9.9-2.1.8-3.2.1-1.1-.2-2.1-.8-3-.5-.6-1.2-1-2-1-.9 0-1.7.4-2.2 1-.6.9-.9 2-.8 3.1-.2 1.1 0 2.1.6 3zM339.1 59.5h2.3l5.4 14.8h-2.2l-1.6-4.4h-5.8l-1.6 4.4h-2.1l5.6-14.8zm3.3 8.7l-2.3-6.5-2.4 6.6 4.7-.1zM354.3 63.9c.4.3.7.6 1 1v-1.3h1.6v9.8c0 1.1-.2 2.2-.6 3.2-.8 1.5-2.5 2.4-4.2 2.2-1 0-2-.2-2.9-.8-.8-.5-1.3-1.5-1.3-2.4h1.8c.1.4.2.8.5 1.1.5.4 1.2.7 1.9.6 1.1.1 2.2-.5 2.7-1.5.3-1 .4-2 .3-3.1-.3.5-.8.9-1.3 1.2-1.7.8-3.7.4-5.1-.8-1-1.1-1.4-2.6-1.3-4-.1-1.5.4-3 1.3-4.2.8-1 1.9-1.6 3.2-1.6.9-.1 1.7.2 2.4.6zm.2 2c-.5-.6-1.3-1-2.1-1-1.2-.1-2.2.7-2.6 1.8-.3.8-.4 1.7-.4 2.5-.1 1 .2 2 .7 2.8.5.6 1.2 1 2 1 1.2.1 2.3-.6 2.7-1.8.3-.7.5-1.5.4-2.3.2-1.1-.1-2.2-.7-3zM359.8 63.5h1.7v1.9c.2-.5.6-1 1-1.3.5-.5 1.2-.8 1.9-.8H365v1.9h-.6c-.8-.1-1.6.3-2.1.9-.5.6-.7 1.3-.7 2v6.2h-1.8V63.5zM366.6 59.5h1.8v2h-1.8v-2zm0 4h1.8v10.7h-1.8V63.5zM378.3 64c.9.8 1.4 1.9 1.4 3.1h-1.8c-.1-.6-.3-1.2-.7-1.7-.5-.5-1.2-.7-1.8-.6-1.1 0-2.1.6-2.5 1.7-.3.9-.5 1.8-.5 2.7 0 1 .2 1.9.7 2.7.9 1.2 2.5 1.4 3.7.6l.2-.2c.5-.5.8-1.2.9-1.9h1.8c-.1 1.2-.7 2.4-1.6 3.2-.9.7-2 1.1-3.2 1-1.3 0-2.6-.6-3.4-1.6-.9-1.1-1.3-2.5-1.3-3.8-.1-1.6.4-3.2 1.4-4.4.9-1 2.2-1.6 3.5-1.6 1.2-.1 2.3.2 3.2.8zM383.3 63.5v7.1c0 .5.1.9.3 1.4.3.6 1 1 1.8 1 1.1.1 2.1-.6 2.5-1.7.3-.8.4-1.6.4-2.5v-5.3h1.8v10.8h-1.7v-1.6c-.7 1.2-2 1.9-3.3 1.9-1.3.1-2.5-.5-3.1-1.6-.3-.7-.5-1.4-.4-2.2v-7.3h1.7zM393 59.5h1.8v14.8H393V59.5zM397.9 60.5h1.8v3h1.7V65h-1.7v7c0 .3.1.6.4.8.2.1.5.1.7.1h.7v1.4c-.2.1-.4.1-.6.1h-.7c-.6.1-1.3-.2-1.7-.6-.3-.5-.5-1.1-.4-1.7V65h-1.5v-1.5h1.5l-.2-3zM405 63.5v7.1c0 .5.1.9.3 1.4.3.6 1 1 1.8 1 1.1.1 2.1-.6 2.5-1.7.3-.8.4-1.6.4-2.5v-5.3h1.8v10.8H410v-1.6c-.7 1.2-2 1.9-3.3 1.9-1.3.1-2.5-.5-3.1-1.6-.3-.7-.5-1.4-.4-2.2v-7.3h1.8zM414.7 63.5h1.7v1.9c.2-.5.6-1 1-1.3.5-.5 1.2-.8 1.9-.8H419.9v1.9h-.6c-.8 0-1.6.3-2.1.9-.5.6-.7 1.3-.7 2v6.2h-1.8V63.5zM428.2 63.8c.6.3 1.2.8 1.6 1.4.4.6.6 1.2.7 1.9.1.8.2 1.6.2 2.4h-7.8c0 .9.2 1.8.8 2.6.5.7 1.4 1.1 2.2 1 .9 0 1.7-.3 2.2-1 .3-.4.5-.8.7-1.3h1.8c-.1.5-.2.9-.5 1.3-.2.4-.5.8-.9 1.2-.6.5-1.3.9-2 1.1-.5.1-1 .2-1.5.2-1.3 0-2.5-.5-3.4-1.5-1-1.1-1.5-2.6-1.4-4.1-.1-1.5.4-3 1.4-4.2.9-1.1 2.3-1.6 3.7-1.6.7.1 1.5.2 2.2.6zm.6 4.2c0-.7-.2-1.3-.5-1.9-.5-.9-1.5-1.4-2.5-1.3-.8 0-1.5.3-2.1.9-.6.6-.9 1.4-.9 2.3h6z"/>
  <path class="st1" d="M40.4 44.4c-6.5-1.7-13.2-3-19.8-3.9C7.9 38.5 3 39.2 3 39.2v4.5h17c7.5 0 20.4.7 20.4.7zM2.9 51.4s2.5-1.1 11.1-2.2l15.1-2.1s-9-.8-15.8-.8H2.9v5.1zM114.1 43.7c-17.6-.1-35.2.8-52.6 2.6-24.9 3-58.6 13.1-58.6 13.1s26.3-12.3 53.3-15.8c17.8-3.2 57.9-4.5 57.9-4.5v4.6z"/>
  <path class="st1" d="M114.1 79H2.9V63.3s37.9-10.6 57.3-12.8 53.9-3 53.9-3V79z"/>
  <path fill="none" d="M.4-1h131v36.2H.4z"/>
  <text transform="translate(.393 30.555)" font-size="43.05" font-family="ClassicoURW-Reg" fill="#134d83">
    USDA
  </text>
</svg>
