<?xml version="1.0" encoding="UTF-8"?> <!-- Generator: Adobe Illustrator 24.0.2, SVG Export Plug-In . SVG Version: 6.00 Build 0) --> <svg xmlns="http://www.w3.org/2000/svg" xmlns:xlink="http://www.w3.org/1999/xlink" id="Layer_1" x="0px" y="0px" viewBox="0 0 330.6 80" style="enable-background:new 0 0 330.6 80;" xml:space="preserve"> <style type="text/css"> .st0{fill:#1B453C;} </style> <g> <g id="Layer_2_2_"> <g id="Layer_1-2_1_"> <path class="st0" d="M93.9,50.6v9.3c0,1.6,0.5,3.8,3.2,3.8c2.5,0,3.4-1.7,3.4-3.9l0-9.1c0-0.4-0.2-0.8-0.6-1h2.5 c-0.4,0.2-0.6,0.6-0.5,1l-0.1,9.1c0,3.8-2.1,5.2-5,5.2c-2.5,0-5.6-1.2-5.6-5.1v-9.2c0-0.4-0.3-0.8-0.7-1h4 C94.1,49.8,93.9,50.2,93.9,50.6"></path> <path class="st0" d="M129.5,50.6c0-0.4-0.2-0.8-0.5-1h2.3c-0.4,0.2-0.6,0.6-0.5,1v14.7c0,0-10.1-12.6-10.1-12.8v11.1 c0,0.4,0.2,0.8,0.6,1h-2.3c0.4-0.2,0.6-0.6,0.5-1V51.9c0-0.9,0-0.9-0.4-1.4c-0.3-0.3-0.6-0.6-0.9-0.8h3.6l7.8,9.8L129.5,50.6z"></path> <path class="st0" d="M151.9,49.6c-0.4,0.2-0.6,0.6-0.6,1v13.1c0,0.4,0.2,0.8,0.6,1h-3.8c0.4-0.2,0.6-0.6,0.5-1V50.6 c0-0.4-0.2-0.8-0.5-1L151.9,49.6z"></path> <path class="st0" d="M177.6,50.8c0.2-0.6,0.1-0.9-0.4-1.1h2.6c-0.4,0.2-0.7,0.6-0.8,1.1c-0.4,0.9-5.4,14.5-5.4,14.5 s-5.5-13.7-5.9-14.5c-0.2-0.5-0.6-0.9-1.1-1.1h4.7c-0.5,0.2-0.6,0.7-0.4,1.2c0,0.2,3.6,9.3,3.6,9.3S177.6,50.9,177.6,50.8"></path> <path class="st0" d="M203.1,51.6c-0.4-0.5-1-0.8-1.6-0.8c-0.6,0-3.6,0-3.6,0v5.1h3.2c0.3-0.1,0.6-0.3,0.8-0.6v2.4 c-0.1-0.3-0.4-0.6-0.8-0.6h-3.2v6.5c0.9,0.1,1.8,0.1,2.7,0.1c1.8,0,2.7,0,3.5-1.4l-0.4,2.6h-9.1c0.4-0.2,0.6-0.6,0.6-1V50.6 c0-0.4-0.2-0.8-0.6-1h8.5L203.1,51.6z"></path> <path class="st0" d="M226.2,57.1c1,0.1,1.9,0.8,2.4,1.7c0,0,2.5,4.2,3.3,5.1c0.4,0.4,0.8,0.7,1.3,0.9l-2.7,0 c-0.8,0-1.4-0.4-1.9-1c-0.9-1.4-1.8-3-2.6-4.3c-0.5-0.9-1-1.8-1.9-1.8c-0.3,0-0.9,0-0.9,0v6.1c0,0.4,0.2,0.8,0.6,1h-3.8 c0.4-0.2,0.6-0.6,0.5-1V50.6c0-0.4-0.2-0.8-0.5-1h4.6c4.4,0,5.4,2.2,5.4,3.7C229.8,55.3,228.2,56.9,226.2,57.1 M223.1,50.7v5.8 c0,0,0.6,0,0.9,0c1.4,0,3-0.8,3-3.1c0.1-1.5-1-2.7-2.5-2.8c-0.1,0-0.1,0-0.2,0C223.8,50.7,223.1,50.8,223.1,50.7"></path> <path class="st0" d="M256.4,60.3c0,2.6-2.2,4.7-4.8,4.7c0,0-0.1,0-0.1,0c-1.4,0-2.8-0.4-4-1.1l-0.1-3.8c0.4,1.6,1.7,3.7,3.9,3.7 c1.4,0.1,2.6-1,2.7-2.4c0-0.1,0-0.2,0-0.3c0-2.1-1.8-2.4-3.8-3.5c-1.9-1.1-2.8-2.3-2.8-4c0-3,2.7-4.2,4.6-4.2 c1.1,0,2.2,0.3,3.2,0.8l0.1,3.3c-0.3-1.2-1.5-3-3.5-3c-1.1-0.1-2.1,0.8-2.2,1.9c0,0.1,0,0.1,0,0.2c0,1.4,0.9,1.8,2.9,2.8 S256.3,57.2,256.4,60.3"></path> <path class="st0" d="M276.6,49.6c-0.4,0.2-0.6,0.6-0.5,1v13.1c0,0.4,0.2,0.8,0.5,1h-3.8c0.4-0.2,0.6-0.6,0.5-1V50.6 c0-0.4-0.2-0.8-0.5-1L276.6,49.6z"></path> <path class="st0" d="M299.5,50.8v13c0,0.4,0.2,0.8,0.5,1h-3.8c0.4-0.2,0.6-0.6,0.5-1v-13c-1.6,0-3.4,0.2-3.4,0.2 c-0.5,0-0.9,0.5-1.1,0.9v-2.2H304v2.2c-0.2-0.4-0.5-0.8-1-0.9C303,50.9,301.1,50.8,299.5,50.8"></path> <path class="st0" d="M330.6,49.6c-0.6,0.3-1.1,0.7-1.4,1.4l-3.4,6.8v6c0,0.4,0.3,0.8,0.7,1h-4.2c0.4-0.2,0.7-0.6,0.7-1v-5.9 l-4.1-7.1c-0.2-0.5-0.6-0.8-1.1-1.1h4.8c-0.5,0.2-0.9,0.3-0.3,1.4l3,5.5l2.8-5.7c0.2-0.3,0.2-0.7-0.1-1c-0.1-0.1-0.2-0.1-0.4-0.2 L330.6,49.6z"></path> <path class="st0" d="M106.8,14.8h4.9c-0.5,0.3-0.8,0.8-0.8,1.4v18.2c0,0.6,0.3,1.1,0.8,1.4h-5.2c0.5-0.3,0.8-0.8,0.8-1.4V18.9 c0-0.2,0-0.5,0.1-0.7l-0.3,0.7l-7,17.3L93,19.4l-0.2-0.8v15.9c0,0.6,0.3,1.1,0.8,1.4h-3.2c0.5-0.3,0.8-0.8,0.8-1.4V16.2 c-0.1-0.6-0.4-1.1-0.9-1.4h5.2l5.9,14.2L106.8,14.8z"></path> <path class="st0" d="M121.9,14.8c-0.5,0.3-0.8,0.8-0.8,1.4v18.2c0,0.6,0.3,1.1,0.8,1.4h-5.3c0.5-0.3,0.8-0.8,0.8-1.4V16.2 c0.1-0.6-0.2-1.1-0.8-1.4H121.9z"></path> <path class="st0" d="M144.3,20.8c-1.8-4.3-5.2-4.7-6.6-4.7c-5,0-7.8,3.9-7.8,8.8c0,4.2,2,9.4,8.1,9.4c1.4,0,4.7-0.5,6.6-4.7 c0.1-0.1-0.3,4.4-0.3,4.4c-2.3,1.3-4.8,2-7.4,2c-5.8,0-10.9-4.2-10.9-10.7c0-5.4,3.8-10.9,11.2-10.9c2.4,0,4.7,0.5,6.9,1.6 C144,16.1,144.3,21,144.3,20.8"></path> <path class="st0" d="M161.4,14.8h5.3c-0.5,0.2-0.9,0.8-0.8,1.4v18.2c0,0.6,0.3,1.1,0.8,1.4h-5.3c0.5-0.3,0.8-0.8,0.8-1.4v-9.4 h-9.1v9.4c0,0.6,0.3,1.1,0.8,1.4h-5.3c0.5-0.3,0.8-0.8,0.8-1.4V16.2c0.1-0.6-0.2-1.1-0.8-1.4h5.3c-0.5,0.3-0.8,0.8-0.8,1.4v7.3 h9.1v-7.3C162.3,15.6,162,15.1,161.4,14.8"></path> <path class="st0" d="M176.7,14.8c-0.5,0.3-0.8,0.8-0.8,1.4v18.2c0,0.6,0.3,1.1,0.8,1.4h-5.3c0.5-0.3,0.8-0.8,0.8-1.4V16.2 c0.1-0.6-0.2-1.1-0.8-1.4H176.7z"></path> <path class="st0" d="M199,16.1l0.2,4.9c-0.9-2.9-3.6-4.8-6.6-4.9c-5,0-7.8,3.9-7.8,8.8c0,4.2,2,9.4,8.1,9.4c1.3,0,2.6-0.3,3.7-1 V28c0-0.6-0.3-1.1-0.8-1.4h5.2c-0.5,0.3-0.8,0.8-0.8,1.4v4.6c0,0.5,0.2,0.9,0.5,1.3c-2.5,1.5-6.6,2.3-9,2.3 c-5.8,0-11-4.2-11-10.7c0-5.4,3.8-10.9,11.3-10.9C194.5,14.5,196.9,15,199,16.1"></path> <path class="st0" d="M220.4,34.3c0.3,0.7,0.8,1.2,1.5,1.5h-6.3c0.8-0.4,0.9-0.9,0.7-1.5c-0.1-0.3-0.8-2.2-1.7-4.3h-7.2 c-0.9,2.1-1.6,3.9-1.6,4.3c-0.3,0.5-0.1,1.2,0.4,1.4c0.1,0,0.2,0.1,0.3,0.1h-4c0.6-0.4,1.1-0.9,1.4-1.5 c0.6-1.2,8.3-20.1,8.3-20.1S219.9,33.1,220.4,34.3 M213.9,28.4c-1.4-3.4-3-7.6-3-7.6s-2,5.2-2.9,7.6H213.9z"></path> <path class="st0" d="M238.4,16.2c0-0.6-0.3-1.1-0.8-1.4h3.2c-0.5,0.3-0.8,0.8-0.8,1.4v20.5c0,0-14.1-17.5-14.1-17.7v15.5 c0,0.6,0.3,1.1,0.8,1.4h-3.2c0.5-0.3,0.8-0.8,0.8-1.4V17.9c0-1.2,0-1.2-0.5-1.9c-0.4-0.5-0.8-0.9-1.3-1.2h5l10.8,13.6L238.4,16.2 z"></path> <path class="st0" d="M264.9,29.6c0,3.9-3.2,6.5-6.8,6.5c-2,0-3.9-0.5-5.6-1.5l-0.1-5.2c0.6,2.2,2.3,5.1,5.4,5.1 c1.9,0.1,3.6-1.3,3.8-3.3c0-0.1,0-0.3,0-0.4c0-3-2.5-3.4-5.2-4.9c-2.7-1.5-3.9-3.2-3.9-5.6c0-4.2,3.7-5.9,6.4-5.9 c1.5,0,3.1,0.4,4.4,1.1l0.1,4.6c-0.4-1.6-2.1-4.1-4.9-4.1c-1.6-0.1-3,1.1-3.1,2.7c0,0.1,0,0.2,0,0.3c0,1.9,1.2,2.6,4,3.9 C262.2,24.3,264.9,25.3,264.9,29.6"></path> <path class="st0" d="M276.6,16.3v18c0,0.6,0.3,1.1,0.8,1.4h-5.2c0.5-0.3,0.8-0.8,0.8-1.4v-18c-2.2,0-4.7,0.2-4.7,0.2 c-0.7,0-1.2,0.7-1.5,1.2v-3h16v3c-0.3-0.5-0.7-1.2-1.4-1.2C281.4,16.6,278.7,16.3,276.6,16.3"></path> <path class="st0" d="M298,34.3c0.3,0.7,0.8,1.2,1.5,1.5h-6.3c0.8-0.4,0.9-0.9,0.7-1.5c-0.1-0.3-0.8-2.2-1.7-4.3h-7.2 c-0.6,1.4-1.2,2.8-1.6,4.3c-0.3,0.5-0.1,1.2,0.4,1.4c0.1,0,0.2,0.1,0.3,0.1h-4c0.6-0.4,1.1-0.9,1.4-1.5 c0.6-1.2,8.3-20.1,8.3-20.1S297.5,33.1,298,34.3 M291.6,28.4c-1.4-3.4-3-7.6-3-7.6s-2,5.2-2.9,7.6H291.6z"></path> <path class="st0" d="M307.1,16.3v18c0,0.6,0.3,1.1,0.8,1.4h-5.2c0.5-0.3,0.8-0.8,0.8-1.4v-18c-2.2,0-4.7,0.2-4.7,0.2 c-0.7,0-1.2,0.7-1.5,1.2v-3h16v3c-0.3-0.5-0.7-1.2-1.4-1.2C311.9,16.6,309.2,16.3,307.1,16.3"></path> <path class="st0" d="M328.3,17.5c-0.6-0.8-1.2-1-2.3-1.1c-0.9-0.1-5-0.1-5-0.1v7.1h4.4c0.5-0.1,0.9-0.4,1.1-0.9v3.3 c-0.2-0.5-0.6-0.8-1.1-0.9h-4.4V34c1.3,0.1,2.5,0.2,3.8,0.2c2.5-0.1,3.7,0,4.8-1.9l-0.6,3.6h-12.6c0.5-0.2,0.9-0.8,0.9-1.4V16.2 c0-0.6-0.3-1.1-0.9-1.4h11.8L328.3,17.5z"></path> <rect x="90.1" y="41.2" class="st0" width="240" height="1.6"></rect> <path class="st0" d="M64.8,5.5c0,0-4.2,8.9-6.3,13.4c-10.3-4.8-23.9-5.4-35.3,1.3C15.6,24.8,9.5,33.1,8.9,42 c-0.2,5.9,2.4,12.4,1.5,18.3c-0.1,3.1-1,6.2-2.4,9c-1.9,3.2-4.2,5.9-8,6.2c0.8-1.1,6.7-4,4.4-17.2c-0.9-5.3-8.2-18.4-1.2-34.7 C9.6,8.5,37.3-9.2,64.8,5.5"></path> <path class="st0" d="M33.1,31.7c3.7-1.2,7.6-1.4,11.4-0.5c7.2,1.3,12.5,5.6,15.2,12c2.7,6.7,4.7,12.2,9.4,17.9 c0.1,0.2-7.4-1.1-7.3-1.3C63.6,46.6,51,46,47.5,51c2.7,2.9,6.7,4.2,10.6,3.8C57.4,68,61.1,80,60.9,80c-3-0.4-16.8-8.5-20.8-12 c-5.9,1.1-10.5,3.2-17.4,4.2c-0.2,0,1.2-5.1,1-7.6c0-7-5.3-13.5-1.6-22.1C24.5,37.4,27.9,33.6,33.1,31.7"></path> <path class="st0" d="M38.1,27.7c0.4,0,1,0.1,1,0.1c0.4-2.4,1.5-4.5,3.3-6.2c3.1-2.7,7.3-2.4,7.2-2.5c-3.6-1.1-7.5-1.4-11.2-1.1 L38.1,27.7z"></path> <path class="st0" d="M12,39.7c-0.6,4-0.7,7.7-0.3,9.6c0,0,0.6-3.4,2.5-5.3c1.2-1.2,2.9-1.9,4.6-2c0.1-0.4,0.2-0.9,0.3-1.3 L12,39.7z"></path> <path class="st0" d="M20,39c0.2-0.5,0.5-1.1,0.8-1.6l-7.3-2.8c-0.4,1-0.7,2-1,3L20,39z"></path> <path class="st0" d="M21.7,36.2c0,0,1.2-1.5,1.2-1.5l-6.7-5c-0.7,0.9-1.3,1.9-1.7,2.9L21.7,36.2z"></path> <path class="st0" d="M24.2,33.5l1.5-1.3l-5.8-6.6c-0.9,0.8-1.7,1.7-2.5,2.6L24.2,33.5z"></path> <path class="st0" d="M27.2,31.2c0.6-0.3,1.2-0.6,1.7-1l-4.3-7.8c-1.1,0.6-2.2,1.2-3.2,2L27.2,31.2z"></path> <path class="st0" d="M30.4,29.5c2-0.7,2-0.7,2-0.7L30,20c-1.3,0.4-2.5,0.9-3.6,1.5L30.4,29.5z"></path> <path class="st0" d="M34,28.3c0.1,0,1.8-0.4,1.8-0.4l0.2-9.5c-0.1,0.1-2.2,0.4-4,0.9L34,28.3z"></path> </g> </g> </g> </svg> 