<?xml version="1.0" encoding="UTF-8"?> <!-- Generator: Adobe Illustrator 24.0.2, SVG Export Plug-In . SVG Version: 6.00 Build 0) --> <svg xmlns="http://www.w3.org/2000/svg" xmlns:xlink="http://www.w3.org/1999/xlink" id="Layer_1" x="0px" y="0px" viewBox="0 0 60 60" style="enable-background:new 0 0 60 60;" xml:space="preserve"> <style type="text/css"> .st0{fill:#EE1E3A;} .st1{fill:#054E32;} .st2{fill:#044D32;} .st3{opacity:0.52;fill:url(#SVGID_1_);enable-background:new ;} .st4{fill:#0BAB56;} .st5{opacity:0.52;fill:url(#SVGID_2_);enable-background:new ;} .st6{opacity:0.52;fill:url(#SVGID_3_);enable-background:new ;} .st7{opacity:0.52;fill:url(#SVGID_4_);enable-background:new ;} .st8{opacity:0.52;fill:url(#SVGID_5_);enable-background:new ;} .st9{opacity:0.52;fill:url(#SVGID_6_);enable-background:new ;} .st10{opacity:0.52;fill:url(#SVGID_7_);enable-background:new ;} .st11{opacity:0.52;fill:url(#SVGID_8_);enable-background:new ;} .st12{opacity:0.52;fill:url(#SVGID_9_);enable-background:new ;} .st13{opacity:0.52;fill:url(#SVGID_10_);enable-background:new ;} .st14{opacity:0.52;fill:url(#SVGID_11_);enable-background:new ;} .st15{opacity:0.52;fill:url(#SVGID_12_);enable-background:new ;} .st16{opacity:0.52;fill:url(#SVGID_13_);enable-background:new ;} .st17{opacity:0.71;fill:url(#SVGID_14_);enable-background:new ;} .st18{opacity:0.52;fill:url(#SVGID_15_);enable-background:new ;} .st19{opacity:0.52;fill:url(#SVGID_16_);enable-background:new ;} .st20{opacity:0.52;fill:url(#SVGID_17_);enable-background:new ;} .st21{opacity:0.52;fill:url(#SVGID_18_);enable-background:new ;} </style> <g> <g> <path class="st0" d="M19.1,11.6c-0.7-0.1-4.3-1.6-6.3-1.2c-2,0.4-4.2,1.6-4.9,4.4c-0.7,2.8-0.2,3.1,0,4.9 c0.2,1.8,4.9,10.3,5.6,11.4c0.7,1.2,1.4,1.3,2.4,1.6c1,0.3,2.2-0.2,3.2,0c1,0.2,1.3,0.4,1.8,0.4c0.5,0,0.2-0.1,1.5-0.5 c1.3-0.4,1.5,0.5,2.7,0.5c1.2,0,1.8-0.7,2.2-1.6c0.4-0.9,4.3-8.9,4.8-10.5s0.4-4,0.4-5.1s-1.3-2.7-2.2-4c-1-1.4-3.3-1.9-4.4-1.9 s-2,0-3.1,0C21.7,10.1,19.8,11.7,19.1,11.6z"></path> <path d="M30.1,14.2L29.4,16l-0.4,0.3l-0.1-1l0.2-0.7L28.6,14l-0.2-0.5L27.6,13h-1.5l-2.4-0.2L23,12.3h-0.5v-0.6l-1.1,0.6l-1.1,0.2 v2.1l-0.7,0.3v0.7l0.3,0.2v1l0.2,1l1.3,0.4l1.6,0.9c0,0,0.3,0.2,0.3,0.3c0,0.1,0.3,0.5,0.3,0.5l0.2,0.5l0.2,0.9l0.3,0.4l0.5,0.4 l0.5,0.1l5-0.9l-0.4-1.5l-0.3-1.2v-2.4L30.1,14.2z"></path> <path class="st1" d="M18.5,11.1h1c0,0-0.6-1.6-1.4-2.2c-0.9-0.6-2.7-1.3-3-1.4c-0.3-0.1-1.1,0-1.1,0v1.2c0,0,0.7,0,1.5,0.2 c0.7,0.2,1.7,1,1.7,1L18.5,11.1z"></path> <path class="st1" d="M19.4,9.8c0,0,1.4-3.1,2.1-4.1c0.7-1,4.2-3.4,4.2-3.4s-3.1,3.1-3.5,3.6c-0.3,0.5-1.4,1.8-1.7,2.7 c-0.4,0.9-0.4,1.7-0.4,1.7s1.7-0.1,2.9-0.6c1.2-0.4,1.7-1,2.6-1.7c0.9-0.7,1.4-2.8,1.6-3.8c0.3-1.1,0.2-2.7,0.3-3 c0.1-0.3,0.2-0.7,0.2-0.7s-0.7,0.4-1.7,0.7c-1,0.3-2.7,0-4,0.7s-1.8,1.2-2.5,2.2c-0.6,1.1-0.6,3.2-0.6,3.2L19.4,9.8z"></path> <path class="st0" d="M5.6,6.2c0,0,0.4-0.5,0.9-0.5c0.4,0,1.1,0.4,1.4,1.1c0.3,0.5,0.6,1.4,0.5,1.8c-0.1,0.3-0.5,0.7-1,1 s-1.4,0-1.9-0.3c-0.5-0.2-1-1-1-1.3s0.4-1,0.4-1H4.6l0.1-0.2l0.5,0.2l0.2-0.5L5,5.9L4.7,5.4l0.4-0.7c0,0,0.1,0.2,0.3,0.6 C5.6,5.6,5.6,6.2,5.6,6.2z"></path> <polygon class="st2" points="1.6,22.5 5.1,20.4 5.1,19.5 2.2,19.2 4.6,17.9 4.6,17 0.6,16.6 0.5,16.3 0.5,17.5 3.5,17.5 0.8,18.9 0.9,19.9 3.8,20.2 1.4,21.3 "></polygon> <polygon class="st2" points="0.4,15.5 0.8,15.4 0.8,15 0.7,14.7 0.5,14.6 0.1,14.7 0.1,15.1 0.1,15.4 "></polygon> <polygon class="st2" points="1.5,15.7 4.3,15.9 4.6,16.2 4.6,15.1 1.5,14.9 "></polygon> <polygon class="st2" points="2.6,12.3 2.7,11.8 2,11.7 1.7,12.5 1.8,13.3 2.1,13.7 2.6,13.9 3.2,13.7 3.9,12.9 4.2,12.9 4.6,13.2 4.5,13.5 4.1,14.1 3.7,14.5 4.9,14.6 5.1,13.5 5.1,12.7 4.3,12.1 3.7,12 3.1,12.7 2.7,13.1 2.3,13 2.3,12.5 "></polygon> <polygon class="st2" points="3.9,9 3.5,8.8 3,9.6 3,10.5 3.7,11.2 4.5,11.7 5.6,11.6 6.1,11.1 6.3,10.3 5.7,9.8 5.6,10.6 5.1,11 4.3,11 3.7,10.5 3.5,9.7 "></polygon> <polygon class="st2" points="8.7,7.7 8.6,7.2 6.9,5 6.7,5 7.2,4.6 7.6,4.6 8,3.8 8.7,3.5 9.4,3.8 11,6.1 10.4,6.6 8.9,4.6 8.5,4.3 8.2,4.6 8,5 8.2,5.6 9.5,7.2 8.7,7.9 "></polygon> <path class="st2" d="M12.4,2.6c-0.1-0.1-0.4-0.7-0.4-0.7l-1.4,0.5L10.3,3l0.2,0.6L10.9,4h1.3l0.3,0.3l-0.1,0.3l-0.4,0.1l-0.4,0.1 L11,4.8l0.4,0.9h0.9l0.6-0.4l0.4-0.5V4.1L13,3.6l-0.4-0.2l-0.9,0.1l-0.5-0.2V2.8l0.2-0.2h0.4H12.4z"></path> <polygon class="st2" points="13.6,1.2 14.1,0.9 14.1,0.6 13.7,0.3 13.3,0.3 13.1,0.7 13.2,1.1 "></polygon> <polygon class="st2" points="13.3,1.8 14.3,1.8 14.5,4.6 14.7,5 13.5,5.1 "></polygon> <polygon class="st2" points="15.2,1.6 16.1,1.6 16.1,1.9 16.6,1.6 17.4,1.5 17.9,1.8 18.1,2.2 18.1,4 18.1,5 17.3,5 17.3,2.4 17,2.1 16.4,2.1 16.1,2.5 16.1,3.5 16.2,4.9 15.2,4.9 "></polygon> </g> <g> <radialGradient id="SVGID_1_" cx="-77.8537" cy="-615.2143" r="2.3878" fx="-79.0658" fy="-614.6859" gradientTransform="matrix(-0.1736 0.9848 -0.9848 -0.1736 -587.4156 24.1049)" gradientUnits="userSpaceOnUse"> <stop offset="0" style="stop-color:#7F3F98"></stop> <stop offset="9.159267e-03" style="stop-color:#7F4199"></stop> <stop offset="0.3789" style="stop-color:#A280B5"></stop> <stop offset="0.678" style="stop-color:#C3B4D0"></stop> <stop offset="0.8918" style="stop-color:#DAD6E0"></stop> <stop offset="1" style="stop-color:#E6E7E8"></stop> </radialGradient> <path class="st3" d="M31.6,56c-1.1-0.2-1.8-1.1-1.7-2c0.2-0.9,1.2-1.5,2.2-1.3c1.1,0.2,1.8,1.1,1.7,2C33.7,55.5,32.7,56.2,31.6,56 z"></path> <path class="st4" d="M30.9,45.5c0,0-1.7-1.5-2.7-1.8s-2.8-0.5-3.3-0.3c-0.5,0.2-1,1-1.1,1.3c-0.2,0.3,0,1.9-0.1,2.1 c-0.1,0.2-1,0.1-1,0.1l-1.4-0.2l0.6,1.1l0.9,0.6c0,0-1.9,1.5-2.1,1.9c-0.2,0.4,0.1,1.7,0.1,1.7s1-0.2,1.2-0.6s0.5-0.7,0.5-0.7 s0.3,2.4,0.3,2.6c0.1,0.2,0.2,0.6,0.9,1c0.6,0.3,1.2-1.1,1.4-1.7c0.2-0.6-0.1-2.4,0-2.8c0.1-0.4,0.9-1.1,0.9-1.1l1-0.6 c0,0,1.5,4.4,2,4.5c0.5,0.1,0.7-6,0.7-6h1.4L30.9,45.5z"></path> <g> <path d="M30.7,44.8c-0.5-0.3-1.2-0.6-1.8-1c-0.6-0.2-1.3-0.4-2-0.5c-0.6,0-1.4-0.1-2-0.1s-1.4,0-2,0l0.2-0.3 c0.1,0.5,0.3,1,0.3,1.5c0,0.3,0.1,0.5,0.1,0.9c0,0.1,0,0.3,0,0.4c0,0.1,0,0.2-0.1,0.3l-0.1,0.1c0,0-0.1,0-0.1,0.1 c-0.2,0.1-0.3,0.1-0.4,0.1c-0.1,0-0.3,0-0.4,0c-0.3,0-0.5,0-0.7,0c-0.5,0-1.1,0-1.5,0l0.3-0.5l1.5,1.8l0.2,0.2l-0.4,0.3 c-0.4,0.4-0.7,0.9-1.1,1.4c-0.1,0.2-0.3,0.5-0.4,0.7c-0.1,0.2-0.1,0.5-0.1,0.7c0,0.3,0,0.5,0,0.9c0,0.3,0.1,0.5,0.1,0.7l0,0l0,0 l0,0l0,0l0,0l0,0l0,0c0,0,0,0,0.1,0c0.1,0,0.3,0,0.4,0c0.3,0,0.5-0.1,0.9-0.2l0.3-0.1l0.1,0.2l0.5,1l0.3,0.5l0.1,0.2l0.1,0.1l0,0 l0,0c0.2,0.2,0.5,0.5,0.9,0.7l0.9,0.7L24.2,56c0.3-0.6,0.5-1.2,0.9-1.8c0.1-0.3,0.2-0.5,0.3-0.9c0.1-0.3,0.2-0.6,0.2-1 c0-0.3,0.1-0.6,0.2-1c0.1-0.3,0.1-0.6,0.1-1c0-0.2,0.1-0.4,0.1-0.5c0-0.1,0.1-0.3,0.2-0.5c0.1-0.3,0.3-0.6,0.4-1l0.3-0.5l0.2,0.5 c0.7,1.6,1.5,3.1,2.1,4.6H29c0.3-0.3,0.6-0.7,0.7-1.2c0-0.1,0.1-0.2,0.1-0.3c0,0,0-0.1,0-0.2V51c0-0.2,0-0.5,0-0.7c0-1,0-2,0-3 l0,0l0,0l0.5-0.2c0.2-0.1,0.3-0.1,0.5-0.2l0,0l0,0l0,0l0,0c0,0,0,0-0.1,0h-0.1h-0.3L29.9,47l0.5-0.2l0.3-0.1h0.1c0,0,0,0,0.1,0 l0,0l0,0l0,0l0,0c-0.2,0.1-0.3,0.2-0.5,0.2l-0.5,0.2V47c0,1,0.1,2,0.1,3c0,0.2,0,0.5,0,0.7v0.2c0,0.1,0,0.1,0,0.2s0,0.3-0.1,0.4 c-0.2,0.5-0.4,1-0.7,1.4l-0.2,0.2l-0.1-0.3c-0.7-1.5-1.6-3.1-2.4-4.6H27c-0.1,0.3-0.3,0.5-0.4,0.9c-0.1,0.1-0.1,0.3-0.2,0.4 c0,0.1-0.1,0.3-0.1,0.4c0,0.4-0.1,0.7-0.1,1.1c-0.1,0.3-0.1,0.6-0.2,1c-0.1,0.3-0.1,0.6-0.2,1c-0.1,0.3-0.2,0.6-0.3,1 c-0.3,0.6-0.5,1.3-0.9,1.8l-0.2,0.4L24,55.9l-0.9-0.2c-0.3-0.3-0.5-0.5-0.9-0.9c0,0,0,0-0.1-0.1c0,0,0,0,0-0.1v0l-0.1-0.3 l-0.3-0.5l-0.5-1.1l0.4,0.2C21.3,53,21,53,20.8,53.1c-0.1,0-0.3,0-0.5,0.1h-0.1h-0.1l0,0l0,0l0,0h-0.1c-0.1-0.1-0.1-0.1-0.2-0.2 c0,0,0-0.1-0.1-0.1c-0.1-0.3-0.2-0.6-0.2-1c0-0.3,0-0.6,0-1c0-0.3,0-0.6,0.2-1c0.1-0.3,0.3-0.6,0.4-0.9c0.3-0.5,0.7-1,1.2-1.4 v0.4l-1.4-1.8l-0.5-0.6l0.7,0.1c0.5,0,1,0.1,1.5,0.1c0.2,0,0.5,0,0.7,0c0.1,0,0.2,0,0.3,0s0.2,0,0.3-0.1l0,0l0,0c0,0,0,0,0-0.1 c0-0.1,0-0.2,0-0.3c0-0.2,0-0.5,0-0.7c-0.1-0.5-0.2-1-0.3-1.5v-0.3h0.3c1.4,0.1,2.8,0.2,4.2,0.3c0.7,0.1,1.4,0.3,2,0.5 C29.6,44.1,30.2,44.4,30.7,44.8z"></path> </g> <g> <path d="M29.4,38.3c0.3-0.2,0.6-0.5,0.9-0.9c0.1-0.2,0.1-0.3,0.1-0.5c0-0.2,0-0.4-0.1-0.5c-0.1-0.3-0.4-0.5-0.9-0.6 c-0.3-0.1-0.9-0.2-1.2-0.2c-0.2,0-0.3,0-0.5,0.1c-0.1,0-0.2,0.1-0.3,0.3C27.1,36.3,27,36.6,27,37c0,0.2,0,0.4,0,0.5 c0,0.2,0,0.3,0.1,0.5c0.1,0.4,0.2,0.7,0.4,1.1c0,0.1,0.1,0.2,0.1,0.2c0,0.1,0.1,0.1,0.1,0.2c0.1,0.1,0.3,0.2,0.5,0.3 c0.3,0.2,0.7,0.4,1.1,0.5c0.2,0.1,0.4,0.2,0.5,0.2l0,0H30h0.1l0.3,0.1c0.4,0.1,0.9,0.2,1.3,0.3c0.2,0.1,0.4,0.1,0.6,0.2 c0.1,0,0.2,0.1,0.3,0.1c0,0,0.1,0.1,0.2,0.1l0.1,0.1c0.3,0.3,0.5,0.7,0.6,1.2c0.1,0.4,0,0.9-0.1,1.3c-0.1,0.4-0.2,0.9-0.4,1.2 c0.1-0.4,0.1-0.9,0.2-1.3c0-0.4,0.1-0.9,0-1.2s-0.3-0.6-0.6-1l-0.1-0.1c0,0,0,0-0.1,0c-0.1,0-0.2-0.1-0.3-0.1 c-0.2,0-0.4-0.1-0.5-0.1c-0.4-0.1-0.9-0.1-1.3-0.2H30h-0.2h-0.1h-0.1c-0.2-0.1-0.4-0.2-0.6-0.3c-0.4-0.2-0.7-0.4-1.2-0.6 c-0.2-0.1-0.3-0.2-0.5-0.4c-0.1-0.1-0.2-0.2-0.3-0.3c-0.1-0.1-0.1-0.2-0.2-0.3c-0.2-0.4-0.3-0.9-0.4-1.3c0-0.2-0.1-0.4-0.1-0.7 c0-0.2,0-0.4,0-0.6c0.1-0.4,0.2-0.9,0.5-1.3c0.1-0.2,0.4-0.4,0.6-0.5s0.5-0.1,0.7-0.1s0.4,0,0.6,0.1c0.2,0,0.4,0.1,0.6,0.2 c0.2,0.1,0.4,0.2,0.6,0.4c0.2,0.2,0.3,0.4,0.3,0.6s0,0.4,0,0.7c0,0.2-0.1,0.4-0.2,0.6C30.2,37.9,29.8,38.1,29.4,38.3z"></path> </g> <radialGradient id="SVGID_2_" cx="124.874" cy="-119.1913" r="2.3878" fx="123.6618" fy="-118.6629" gradientTransform="matrix(0.9397 0.342 -0.342 0.9397 -118.5745 109.7798)" gradientUnits="userSpaceOnUse"> <stop offset="0" style="stop-color:#7F3F98"></stop> <stop offset="9.159267e-03" style="stop-color:#7F4199"></stop> <stop offset="0.3789" style="stop-color:#A280B5"></stop> <stop offset="0.678" style="stop-color:#C3B4D0"></stop> <stop offset="0.8918" style="stop-color:#DAD6E0"></stop> <stop offset="1" style="stop-color:#E6E7E8"></stop> </radialGradient> <path class="st5" d="M41.2,41.1c-0.4,1.1-1.4,1.6-2.2,1.3c-0.9-0.3-1.3-1.4-0.9-2.5s1.4-1.6,2.2-1.3C41.1,39,41.5,40.1,41.2,41.1z "></path> <radialGradient id="SVGID_3_" cx="130.4534" cy="-120.2769" r="2.3878" fx="129.4371" fy="-119.0052" gradientTransform="matrix(0.9397 0.342 -0.342 0.9397 -118.5745 109.7798)" gradientUnits="userSpaceOnUse"> <stop offset="0" style="stop-color:#7F3F98"></stop> <stop offset="9.159267e-03" style="stop-color:#7F4199"></stop> <stop offset="0.3789" style="stop-color:#A280B5"></stop> <stop offset="0.678" style="stop-color:#C3B4D0"></stop> <stop offset="0.8918" style="stop-color:#DAD6E0"></stop> <stop offset="1" style="stop-color:#E6E7E8"></stop> </radialGradient> <path class="st6" d="M47,42c-0.4,1.1-1.4,1.6-2.2,1.3s-1.3-1.4-0.9-2.5c0.4-1.1,1.4-1.6,2.2-1.3C47,39.8,47.3,40.9,47,42z"></path> <radialGradient id="SVGID_4_" cx="137.1729" cy="-111.5813" r="2.3878" fx="135.9609" fy="-111.0529" gradientTransform="matrix(0.9397 0.342 -0.342 0.9397 -118.5745 109.7798)" gradientUnits="userSpaceOnUse"> <stop offset="0" style="stop-color:#7F3F98"></stop> <stop offset="9.159267e-03" style="stop-color:#7F4199"></stop> <stop offset="0.3789" style="stop-color:#A280B5"></stop> <stop offset="0.678" style="stop-color:#C3B4D0"></stop> <stop offset="0.8918" style="stop-color:#DAD6E0"></stop> <stop offset="1" style="stop-color:#E6E7E8"></stop> </radialGradient> <path class="st7" d="M50.1,52.5c-0.4,1.1-1.4,1.6-2.2,1.3c-0.9-0.3-1.3-1.4-0.9-2.5s1.4-1.6,2.2-1.3 C50.1,50.4,50.5,51.5,50.1,52.5z"></path> <radialGradient id="SVGID_5_" cx="131.2016" cy="-106.4833" r="2.3878" fx="129.9895" fy="-105.9548" gradientTransform="matrix(0.9397 0.342 -0.342 0.9397 -118.5745 109.7798)" gradientUnits="userSpaceOnUse"> <stop offset="0" style="stop-color:#7F3F98"></stop> <stop offset="9.159267e-03" style="stop-color:#7F4199"></stop> <stop offset="0.3789" style="stop-color:#A280B5"></stop> <stop offset="0.678" style="stop-color:#C3B4D0"></stop> <stop offset="0.8918" style="stop-color:#DAD6E0"></stop> <stop offset="1" style="stop-color:#E6E7E8"></stop> </radialGradient> <path class="st8" d="M42.8,55.2c-0.4,1.1-1.4,1.6-2.2,1.3c-0.9-0.3-1.3-1.4-0.9-2.5s1.4-1.6,2.2-1.3 C42.7,53.1,43.1,54.3,42.8,55.2z"></path> <radialGradient id="SVGID_6_" cx="145.6397" cy="-112.9578" r="2.3878" fx="144.4276" fy="-112.4293" gradientTransform="matrix(0.9397 0.342 -0.342 0.9397 -118.5745 109.7798)" gradientUnits="userSpaceOnUse"> <stop offset="0" style="stop-color:#7F3F98"></stop> <stop offset="9.159267e-03" style="stop-color:#7F4199"></stop> <stop offset="0.3789" style="stop-color:#A280B5"></stop> <stop offset="0.678" style="stop-color:#C3B4D0"></stop> <stop offset="0.8918" style="stop-color:#DAD6E0"></stop> <stop offset="1" style="stop-color:#E6E7E8"></stop> </radialGradient> <path class="st9" d="M58.5,54.1c-0.4,1.1-1.4,1.6-2.2,1.3S55,54,55.4,53c0.4-1.1,1.4-1.6,2.2-1.3S59,53.1,58.5,54.1z"></path> <radialGradient id="SVGID_7_" cx="-49.1796" cy="-643.3612" r="2.3878" fx="-50.3917" fy="-642.8327" gradientTransform="matrix(-0.1736 0.9848 -0.9848 -0.1736 -605.2362 -17.6575)" gradientUnits="userSpaceOnUse"> <stop offset="0" style="stop-color:#662D91"></stop> <stop offset="0.4707" style="stop-color:#4D58A7"></stop> <stop offset="0.822" style="stop-color:#316EB6"></stop> <stop offset="1" style="stop-color:#1B75BC"></stop> </radialGradient> <path class="st10" d="M36.5,47.3c-1.1-0.2-1.8-1.1-1.7-2C35,44.4,36,43.8,37,44c1.1,0.2,1.8,1.1,1.7,2 C38.7,47,37.6,47.5,36.5,47.3z"></path> <radialGradient id="SVGID_8_" cx="-64.3612" cy="-631.7024" r="2.3878" fx="-65.5733" fy="-631.174" gradientTransform="matrix(-0.1736 0.9848 -0.9848 -0.1736 -599.1211 2.955)" gradientUnits="userSpaceOnUse"> <stop offset="0" style="stop-color:#662D91"></stop> <stop offset="0.4707" style="stop-color:#4D58A7"></stop> <stop offset="0.822" style="stop-color:#316EB6"></stop> <stop offset="1" style="stop-color:#1B75BC"></stop> </radialGradient> <path class="st11" d="M33.7,50.9c-1.1-0.2-1.8-1.1-1.7-2c0.2-0.9,1.2-1.5,2.2-1.3c1.1,0.2,1.8,1.1,1.7,2 C35.9,50.6,34.9,51.2,33.7,50.9z"></path> <radialGradient id="SVGID_9_" cx="125.9584" cy="-105.7013" r="2.3878" fx="124.7463" fy="-105.1729" gradientTransform="matrix(0.9397 0.342 -0.342 0.9397 -118.5745 109.7798)" gradientUnits="userSpaceOnUse"> <stop offset="0" style="stop-color:#662D91"></stop> <stop offset="0.4707" style="stop-color:#4D58A7"></stop> <stop offset="0.822" style="stop-color:#316EB6"></stop> <stop offset="1" style="stop-color:#1B75BC"></stop> </radialGradient> <path class="st12" d="M37.6,54.3c-0.4,1.1-1.4,1.6-2.2,1.3c-0.9-0.3-1.3-1.4-0.9-2.5c0.4-1.1,1.4-1.6,2.2-1.3 C37.6,52,38,53.2,37.6,54.3z"></path> <radialGradient id="SVGID_10_" cx="132.8995" cy="-116.7396" r="2.3878" fx="131.6874" fy="-116.2111" gradientTransform="matrix(0.9397 0.342 -0.342 0.9397 -118.5745 109.7798)" gradientUnits="userSpaceOnUse"> <stop offset="0" style="stop-color:#662D91"></stop> <stop offset="0.4707" style="stop-color:#4D58A7"></stop> <stop offset="0.822" style="stop-color:#316EB6"></stop> <stop offset="1" style="stop-color:#1B75BC"></stop> </radialGradient> <path class="st13" d="M48,46.2c-0.4,1.1-1.4,1.6-2.2,1.3c-0.9-0.3-1.3-1.4-0.9-2.5c0.4-1.1,1.4-1.6,2.2-1.3 C47.8,44.1,48.3,45.2,48,46.2z"></path> <radialGradient id="SVGID_11_" cx="170.1864" cy="-343.6407" r="2.3878" fx="168.9742" fy="-343.1122" gradientTransform="matrix(0.6018 0.7986 -0.7986 0.6018 -326.8781 117.6365)" gradientUnits="userSpaceOnUse"> <stop offset="0" style="stop-color:#662D91"></stop> <stop offset="0.4707" style="stop-color:#4D58A7"></stop> <stop offset="0.822" style="stop-color:#316EB6"></stop> <stop offset="1" style="stop-color:#1B75BC"></stop> </radialGradient> <path class="st14" d="M50.9,48.2c-0.9,0.6-2,0.6-2.6-0.1c-0.5-0.7-0.3-1.9,0.5-2.6c0.9-0.6,2-0.6,2.6,0.1 C52.1,46.3,51.9,47.5,50.9,48.2z"></path> <radialGradient id="SVGID_12_" cx="133.3921" cy="-111.8829" r="2.3878" fx="132.18" fy="-111.3545" gradientTransform="matrix(0.9397 0.342 -0.342 0.9397 -118.5745 109.7798)" gradientUnits="userSpaceOnUse"> <stop offset="0" style="stop-color:#662D91"></stop> <stop offset="0.4707" style="stop-color:#4D58A7"></stop> <stop offset="0.822" style="stop-color:#316EB6"></stop> <stop offset="1" style="stop-color:#1B75BC"></stop> </radialGradient> <path class="st15" d="M46.7,50.9c-0.4,1.1-1.4,1.6-2.2,1.3c-0.9-0.3-1.3-1.4-0.9-2.5s1.4-1.6,2.2-1.3 C46.7,48.8,47.1,49.9,46.7,50.9z"></path> <radialGradient id="SVGID_13_" cx="142.7118" cy="-110.5174" r="2.3878" fx="141.4997" fy="-109.989" gradientTransform="matrix(0.9397 0.342 -0.342 0.9397 -118.5745 109.7798)" gradientUnits="userSpaceOnUse"> <stop offset="0" style="stop-color:#662D91"></stop> <stop offset="0.4707" style="stop-color:#4D58A7"></stop> <stop offset="0.822" style="stop-color:#316EB6"></stop> <stop offset="1" style="stop-color:#1B75BC"></stop> </radialGradient> <path class="st16" d="M55,55.4c-0.4,1.1-1.4,1.6-2.2,1.3s-1.3-1.4-0.9-2.5s1.4-1.6,2.2-1.3C55,53.3,55.3,54.4,55,55.4z"></path> <radialGradient id="SVGID_14_" cx="139.5626" cy="-106.8628" r="2.3878" fx="138.3505" fy="-106.3344" gradientTransform="matrix(0.9397 0.342 -0.342 0.9397 -118.5745 109.7798)" gradientUnits="userSpaceOnUse"> <stop offset="0" style="stop-color:#662D91"></stop> <stop offset="0.4707" style="stop-color:#4D58A7"></stop> <stop offset="0.822" style="stop-color:#316EB6"></stop> <stop offset="1" style="stop-color:#1B75BC"></stop> </radialGradient> <path class="st17" d="M50.7,57.8c-0.4,1.1-1.4,1.6-2.2,1.3c-0.9-0.3-1.3-1.4-0.9-2.5c0.4-1.1,1.4-1.6,2.2-1.3 C50.7,55.6,51.2,56.7,50.7,57.8z"></path> <radialGradient id="SVGID_15_" cx="-27.9781" cy="-638.0877" r="2.3878" fx="-29.1902" fy="-637.5593" gradientTransform="matrix(-0.1736 0.9848 -0.9848 -0.1736 -591.6479 -38.3512)" gradientUnits="userSpaceOnUse"> <stop offset="0" style="stop-color:#662D91"></stop> <stop offset="9.350008e-02" style="stop-color:#644190"></stop> <stop offset="0.4316" style="stop-color:#55768D"></stop> <stop offset="0.7053" style="stop-color:#449884"></stop> <stop offset="0.901" style="stop-color:#36AC79"></stop> <stop offset="1" style="stop-color:#2BB673"></stop> </radialGradient> <path class="st18" d="M41.2,46.6c-1.1-0.2-1.8-1.1-1.7-2c0.2-0.9,1.2-1.5,2.2-1.3s1.8,1.1,1.7,2C43.4,46.2,42.3,46.8,41.2,46.6z"></path> <radialGradient id="SVGID_16_" cx="-13.5885" cy="-613.2292" r="2.3878" fx="-14.8006" fy="-612.7007" gradientTransform="matrix(-0.2588 0.9659 -0.9659 -0.2588 -541.8457 -94.6067)" gradientUnits="userSpaceOnUse"> <stop offset="0" style="stop-color:#662D91"></stop> <stop offset="9.350008e-02" style="stop-color:#644190"></stop> <stop offset="0.4316" style="stop-color:#55768D"></stop> <stop offset="0.7053" style="stop-color:#449884"></stop> <stop offset="0.901" style="stop-color:#36AC79"></stop> <stop offset="1" style="stop-color:#2BB673"></stop> </radialGradient> <path class="st19" d="M53.5,52.7c-1.1-0.3-1.7-1.3-1.5-2.1s1.3-1.4,2.4-1.1s1.7,1.3,1.5,2.1C55.5,52.4,54.6,53,53.5,52.7z"></path> <radialGradient id="SVGID_17_" cx="85.5609" cy="-481.5009" r="2.3878" fx="84.3487" fy="-480.9724" gradientTransform="matrix(0.225 0.9744 -0.9744 0.225 -443.2675 80.3348)" gradientUnits="userSpaceOnUse"> <stop offset="0" style="stop-color:#662D91"></stop> <stop offset="9.350008e-02" style="stop-color:#644190"></stop> <stop offset="0.4316" style="stop-color:#55768D"></stop> <stop offset="0.7053" style="stop-color:#449884"></stop> <stop offset="0.901" style="stop-color:#36AC79"></stop> <stop offset="1" style="stop-color:#2BB673"></stop> </radialGradient> <path class="st20" d="M45.5,57.1c-1.1,0.2-2.1-0.3-2.4-1.2c-0.2-0.9,0.5-1.8,1.6-2c1.1-0.2,2.1,0.3,2.4,1.2 C47.3,56,46.6,56.8,45.5,57.1z"></path> <radialGradient id="SVGID_18_" cx="128.465" cy="-111.3535" r="2.3878" fx="127.2529" fy="-110.825" gradientTransform="matrix(0.9397 0.342 -0.342 0.9397 -118.5745 109.7798)" gradientUnits="userSpaceOnUse"> <stop offset="0" style="stop-color:#7F3F98"></stop> <stop offset="9.159267e-03" style="stop-color:#7F4199"></stop> <stop offset="0.3789" style="stop-color:#A280B5"></stop> <stop offset="0.678" style="stop-color:#C3B4D0"></stop> <stop offset="0.8918" style="stop-color:#DAD6E0"></stop> <stop offset="1" style="stop-color:#E6E7E8"></stop> </radialGradient> <path class="st21" d="M41.9,49.8c-0.4,1.1-1.4,1.6-2.2,1.3c-0.9-0.3-1.3-1.4-0.9-2.5s1.4-1.6,2.2-1.3 C41.9,47.6,42.3,48.7,41.9,49.8z"></path> <g> <path d="M38.9,42.8c0.3,0.1,0.5,0.2,0.9,0.2s0.5-0.1,0.9-0.3c0.5-0.3,0.9-0.6,1.2-1.2c0.3-0.4,0.5-1.1,0.4-1.6 c-0.1-0.5-0.5-1.1-1.1-1.3c-0.5-0.2-1.1-0.1-1.6,0.1c-0.5,0.2-0.9,0.6-1.1,1.1c-0.1,0.2-0.2,0.5-0.3,0.7c0,0.3-0.1,0.5-0.1,0.9 s0.1,0.5,0.2,0.9C38.3,42.5,38.5,42.7,38.9,42.8z M38.8,42.8c-0.5-0.3-1.1-0.7-1.3-1.4c-0.1-0.3-0.2-0.6-0.1-1.1 c0-0.3,0.1-0.6,0.3-1c0.3-0.6,0.9-1.1,1.6-1.4c0.3-0.1,0.6-0.2,1.1-0.1c0.3,0,0.6,0.2,1,0.3c0.5,0.3,1,1,1.1,1.6 c0.2,0.6,0.2,1.3-0.1,1.9c-0.3,0.6-0.9,1.2-1.5,1.3C40,43.2,39.4,43.1,38.8,42.8z"></path> </g> <g> <path d="M43.8,43.4c0.3,0.1,0.5,0.2,0.9,0.2s0.5-0.1,0.9-0.3c0.5-0.3,0.9-0.6,1.2-1.2c0.3-0.4,0.5-1.1,0.4-1.6 c-0.1-0.5-0.5-1.1-1.1-1.3c-0.5-0.2-1.1-0.1-1.6,0.1c-0.5,0.2-0.9,0.6-1.1,1.1c-0.1,0.2-0.2,0.5-0.3,0.7c0,0.3-0.1,0.5-0.1,0.9 c0,0.3,0.1,0.5,0.2,0.9C43.4,43,43.6,43.2,43.8,43.4z M43.8,43.5c-0.5-0.3-1.1-0.7-1.3-1.4c-0.1-0.3-0.2-0.6-0.1-1.1 c0-0.3,0.1-0.6,0.3-1c0.3-0.6,0.9-1.1,1.6-1.4c0.3-0.1,0.6-0.2,1.1-0.1c0.3,0,0.6,0.2,1,0.3c0.5,0.3,1,1,1.1,1.6 c0.2,0.6,0.2,1.3-0.1,1.9c-0.3,0.6-0.9,1.2-1.5,1.3C45,43.8,44.3,43.7,43.8,43.5z"></path> </g> <g> <path d="M40.7,46.7c0.3,0.1,0.5,0.2,0.9,0.2c0.3,0,0.5-0.1,0.9-0.3c0.5-0.3,0.9-0.6,1.2-1.2c0.3-0.4,0.5-1.1,0.4-1.6 c-0.1-0.5-0.5-1.1-1.1-1.3c-0.5-0.2-1.1-0.1-1.6,0.1s-0.9,0.6-1.1,1.1c-0.1,0.2-0.2,0.5-0.3,0.7c0,0.3-0.1,0.5-0.1,0.9 s0.1,0.5,0.2,0.9C40.1,46.3,40.4,46.6,40.7,46.7z M40.6,46.8c-0.5-0.3-1.1-0.7-1.3-1.4c-0.1-0.3-0.2-0.6-0.1-1.1 c0-0.3,0.1-0.6,0.3-1c0.3-0.6,0.9-1.1,1.6-1.4c0.3-0.1,0.6-0.2,1.1-0.1c0.3,0,0.6,0.2,1,0.3c0.5,0.3,1,1,1.1,1.6 c0.2,0.6,0.2,1.3-0.1,1.9c-0.3,0.6-0.9,1.2-1.5,1.3C41.9,47.2,41.2,47.1,40.6,46.8z"></path> </g> <g> <path d="M35.8,47.6c0.3,0.1,0.5,0.2,0.9,0.2s0.5-0.1,0.9-0.3c0.5-0.3,0.9-0.6,1.2-1.2s0.5-1.1,0.4-1.6c-0.1-0.5-0.5-1.1-1.1-1.3 c-0.5-0.2-1.1-0.1-1.6,0.1c-0.5,0.2-0.9,0.6-1.1,1.1c-0.1,0.2-0.2,0.5-0.3,0.7c-0.1,0.2-0.1,0.5-0.1,0.9s0.1,0.5,0.2,0.9 C35.2,47.2,35.4,47.4,35.8,47.6z M35.7,47.7c-0.5-0.3-1.1-0.7-1.3-1.4c-0.1-0.3-0.2-0.6-0.1-1.1c0-0.3,0.1-0.6,0.3-1 c0.3-0.6,0.9-1.1,1.6-1.4c0.3-0.1,0.6-0.2,1.1-0.1c0.3,0,0.6,0.2,1,0.3c0.5,0.3,1,1,1.1,1.6c0.2,0.6,0.2,1.3-0.1,1.9 c-0.3,0.6-0.9,1.2-1.5,1.3C36.9,48.1,36.2,47.9,35.7,47.7z"></path> </g> <g> <path d="M33.2,51c0.3,0.1,0.5,0.2,0.9,0.2s0.5-0.1,0.9-0.3c0.5-0.3,0.9-0.6,1.2-1.2c0.3-0.5,0.5-1.1,0.4-1.6 c-0.1-0.5-0.5-1.1-1.1-1.3c-0.5-0.2-1.1-0.1-1.6,0.1c-0.5,0.2-0.9,0.6-1.1,1.1c-0.1,0.2-0.2,0.5-0.3,0.7c0,0.3-0.1,0.5-0.1,0.9 s0.1,0.5,0.2,0.9C32.8,50.7,33,50.9,33.2,51z M33.2,51.2c-0.5-0.3-1.1-0.7-1.3-1.4c-0.1-0.3-0.2-0.6-0.1-1.1c0-0.3,0.1-0.6,0.3-1 c0.3-0.6,0.9-1.1,1.6-1.4c0.3-0.1,0.6-0.2,1.1-0.1c0.3,0,0.6,0.2,1,0.3c0.5,0.3,1,1,1.1,1.6c0.2,0.6,0.2,1.3-0.1,1.9 s-0.9,1.2-1.5,1.3C34.4,51.6,33.7,51.5,33.2,51.2z"></path> </g> <g> <path d="M30.6,55.9c0.3,0.1,0.5,0.2,0.9,0.2c0.3,0,0.5-0.1,0.9-0.3c0.5-0.3,0.9-0.6,1.2-1.2c0.3-0.5,0.5-1.1,0.4-1.6 c-0.1-0.5-0.5-1.1-1.1-1.3s-1.1-0.1-1.6,0.1c-0.5,0.2-0.9,0.6-1.1,1.1c-0.1,0.2-0.2,0.5-0.3,0.7c0,0.3-0.1,0.5-0.1,0.9 s0.1,0.5,0.2,0.9C30.2,55.5,30.4,55.8,30.6,55.9z M30.6,56c-0.5-0.3-1.1-0.7-1.3-1.4c-0.1-0.3-0.2-0.6-0.1-1.1 c0-0.3,0.1-0.6,0.3-1c0.3-0.6,0.9-1.1,1.6-1.4c0.3-0.1,0.6-0.2,1.1-0.1c0.3,0,0.6,0.2,1,0.3c0.5,0.3,1,1,1.1,1.6 c0.2,0.6,0.2,1.3-0.1,1.9c-0.3,0.6-0.9,1.2-1.5,1.3C31.8,56.4,31.2,56.2,30.6,56z"></path> </g> <g> <path d="M35.3,55.5c0.3,0.1,0.5,0.2,0.9,0.2c0.3,0,0.5-0.1,0.9-0.3c0.5-0.3,0.9-0.6,1.2-1.2c0.3-0.4,0.5-1.1,0.4-1.6 c-0.1-0.5-0.5-1.1-1.1-1.3c-0.5-0.2-1.1-0.1-1.6,0.1s-0.9,0.6-1.1,1.1c-0.1,0.2-0.2,0.5-0.3,0.7c0,0.3-0.1,0.5-0.1,0.9 c0,0.3,0.1,0.5,0.2,0.9C34.8,55.1,35,55.3,35.3,55.5z M35.2,55.5c-0.5-0.3-1.1-0.7-1.3-1.4c-0.1-0.3-0.2-0.6-0.1-1.1 c0-0.3,0.1-0.6,0.3-1c0.3-0.6,0.9-1.1,1.6-1.4c0.3-0.1,0.6-0.2,1.1-0.1c0.3,0,0.6,0.2,1,0.3c0.5,0.3,1,1,1.1,1.6 c0.2,0.6,0.2,1.3-0.1,1.9c-0.3,0.6-0.9,1.2-1.5,1.3C36.5,56,35.9,55.9,35.2,55.5z"></path> </g> <g> <path d="M39.2,51.5c0.3,0.1,0.5,0.2,0.9,0.2s0.5-0.1,0.9-0.3c0.5-0.3,0.9-0.6,1.2-1.2c0.3-0.4,0.5-1.1,0.4-1.6 c-0.1-0.5-0.5-1.1-1.1-1.3c-0.5-0.2-1.1-0.1-1.6,0.1c-0.5,0.2-0.9,0.6-1.1,1.1c-0.1,0.2-0.2,0.5-0.3,0.7c0,0.3-0.1,0.5-0.1,0.9 s0.1,0.5,0.2,0.9C38.7,51.2,38.9,51.4,39.2,51.5z M39.1,51.6c-0.5-0.3-1.1-0.7-1.3-1.4c-0.1-0.3-0.2-0.6-0.1-1.1 c0-0.3,0.1-0.6,0.3-1c0.3-0.6,0.9-1.1,1.6-1.4c0.3-0.1,0.6-0.2,1.1-0.1c0.3,0,0.6,0.2,1,0.3c0.5,0.3,1,1,1.1,1.6 c0.2,0.6,0.2,1.3-0.1,1.9s-0.9,1.2-1.5,1.3C40.4,52,39.6,51.8,39.1,51.6z"></path> </g> <g> <path d="M39.6,56.5c0.3,0.1,0.5,0.2,0.9,0.2s0.5-0.1,0.9-0.3c0.5-0.3,0.9-0.6,1.2-1.2c0.3-0.4,0.5-1.1,0.4-1.6 c-0.1-0.5-0.5-1.1-1.1-1.3c-0.5-0.2-1.1-0.1-1.6,0.1c-0.5,0.2-0.9,0.6-1.1,1.1c-0.1,0.2-0.2,0.5-0.3,0.7c0,0.3-0.1,0.5-0.1,0.9 s0.1,0.5,0.2,0.9C39.2,56.1,39.4,56.4,39.6,56.5z M39.6,56.6c-0.5-0.3-1.1-0.7-1.3-1.4c-0.1-0.3-0.2-0.6-0.1-1.1 c0-0.3,0.1-0.6,0.3-1c0.3-0.6,0.9-1.1,1.6-1.4c0.3-0.1,0.6-0.2,1.1-0.1c0.3,0,0.6,0.2,1,0.3c0.5,0.3,1,1,1.1,1.6 c0.2,0.6,0.2,1.3-0.1,1.9s-0.9,1.2-1.5,1.3C40.8,56.9,40.1,56.8,39.6,56.6z"></path> </g> <g> <path d="M45.2,48.3c0.3,0.1,0.5,0.2,0.9,0.2s0.5-0.1,0.9-0.3c0.5-0.3,0.9-0.6,1.2-1.2c0.3-0.4,0.5-1.1,0.4-1.6 c-0.1-0.5-0.5-1.1-1.1-1.3c-0.5-0.2-1.1-0.1-1.6,0.1c-0.5,0.2-0.9,0.6-1.1,1.1c-0.1,0.2-0.2,0.5-0.3,0.7 c-0.1,0.2-0.1,0.5-0.1,0.9c0,0.3,0.1,0.5,0.2,0.9C44.6,47.9,44.9,48.2,45.2,48.3z M45.2,48.4c-0.5-0.3-1.1-0.7-1.3-1.4 c-0.1-0.3-0.2-0.6-0.1-1.1c0-0.3,0.1-0.6,0.3-1c0.3-0.6,0.9-1.1,1.6-1.4c0.3-0.1,0.6-0.2,1.1-0.1c0.3,0,0.6,0.2,1,0.3 c0.5,0.3,1,1,1.1,1.6c0.1,0.6,0.2,1.3-0.1,1.9c-0.3,0.6-0.9,1.2-1.5,1.3C46.3,48.8,45.7,48.6,45.2,48.4z"></path> </g> <g> <path d="M43.8,52.8c0.3,0.1,0.5,0.2,0.9,0.2s0.5-0.1,0.9-0.3c0.5-0.3,0.9-0.6,1.2-1.2c0.3-0.5,0.5-1.1,0.4-1.6 c-0.1-0.5-0.5-1.1-1.1-1.3c-0.5-0.2-1.1-0.1-1.6,0.1c-0.5,0.2-0.9,0.6-1.1,1.1c-0.1,0.2-0.2,0.5-0.3,0.7c0,0.3-0.1,0.5-0.1,0.9 s0.1,0.5,0.2,0.9C43.2,52.4,43.5,52.7,43.8,52.8z M43.8,52.9c-0.5-0.3-1.1-0.7-1.3-1.4c-0.1-0.3-0.2-0.6-0.1-1.1s0.1-0.6,0.3-1 c0.3-0.6,0.9-1.1,1.6-1.4c0.3-0.1,0.6-0.2,1.1-0.1c0.3,0,0.6,0.2,1,0.3c0.5,0.3,1,1,1.1,1.6c0.2,0.6,0.2,1.3-0.1,1.9 c-0.3,0.6-0.9,1.2-1.5,1.3C45,53.3,44.3,53.1,43.8,52.9z"></path> </g> <g> <path d="M44.1,58c0.3,0.1,0.5,0.2,0.9,0.2c0.3,0,0.5-0.1,0.9-0.3c0.5-0.3,0.9-0.6,1.2-1.2c0.3-0.4,0.5-1.1,0.4-1.6 c-0.1-0.5-0.5-1.1-1.1-1.3c-0.5-0.2-1.1-0.1-1.6,0.1c-0.5,0.2-0.9,0.6-1.1,1.1c-0.1,0.2-0.2,0.5-0.3,0.7c0,0.3-0.1,0.5-0.1,0.9 s0.1,0.5,0.2,0.9C43.6,57.7,43.8,57.9,44.1,58z M44,58.1c-0.5-0.3-1.1-0.7-1.3-1.4c-0.1-0.3-0.2-0.6-0.1-1.1c0-0.3,0.1-0.6,0.3-1 c0.3-0.6,0.9-1.1,1.6-1.4c0.3-0.1,0.6-0.2,1.1-0.1c0.3,0,0.6,0.2,1,0.3c0.5,0.3,1,1,1.1,1.6c0.1,0.6,0.2,1.3-0.1,1.9 s-0.9,1.2-1.5,1.3C45.3,58.5,44.6,58.3,44,58.1z"></path> </g> <g> <path d="M48.6,59.5c0.3,0.1,0.5,0.2,0.9,0.2s0.5-0.1,0.9-0.3c0.5-0.3,0.9-0.6,1.2-1.2c0.3-0.4,0.5-1.1,0.4-1.6 c-0.1-0.5-0.5-1.1-1.1-1.3c-0.5-0.2-1.1-0.1-1.6,0.1c-0.5,0.2-0.9,0.6-1.1,1.1c-0.1,0.2-0.2,0.5-0.3,0.7 c-0.1,0.2-0.1,0.5-0.1,0.9s0.1,0.5,0.2,0.9C48.1,59.2,48.3,59.4,48.6,59.5z M48.5,59.6c-0.5-0.3-1.1-0.7-1.3-1.4 c-0.1-0.3-0.2-0.6-0.1-1.1c0-0.3,0.1-0.6,0.3-1c0.3-0.6,0.9-1.1,1.6-1.4c0.3-0.1,0.6-0.2,1.1-0.1c0.3,0,0.6,0.2,1,0.3 c0.5,0.3,1,1,1.1,1.6c0.2,0.6,0.2,1.3-0.1,1.9s-0.9,1.2-1.5,1.3C49.8,60,49.1,59.9,48.5,59.6z"></path> </g> <g> <path d="M48.3,54.3c0.3,0.1,0.5,0.2,0.9,0.2c0.3,0,0.5-0.1,0.9-0.3c0.5-0.3,0.9-0.6,1.2-1.2c0.3-0.4,0.5-1.1,0.4-1.6 c-0.1-0.5-0.5-1.1-1.1-1.3c-0.5-0.2-1.1-0.1-1.6,0.1c-0.5,0.2-0.9,0.6-1.1,1.1c-0.1,0.2-0.2,0.5-0.3,0.7 c-0.1,0.2-0.1,0.5-0.1,0.9s0.1,0.5,0.2,0.9C47.7,53.9,48,54.1,48.3,54.3z M48.3,54.3c-0.5-0.3-1.1-0.7-1.3-1.4 c-0.1-0.3-0.2-0.6-0.1-1.1c0.1-0.4,0.1-0.6,0.3-1c0.3-0.6,0.9-1.1,1.6-1.4c0.3-0.1,0.6-0.2,1.1-0.1c0.3,0,0.6,0.2,1,0.3 c0.5,0.3,1,1,1.1,1.6c0.2,0.6,0.2,1.3-0.1,1.9c-0.3,0.6-0.9,1.2-1.5,1.3C49.4,54.7,48.8,54.6,48.3,54.3z"></path> </g> <g> <path d="M49.1,49.4c0.3,0.1,0.5,0.2,0.9,0.2s0.5-0.1,0.9-0.3c0.5-0.3,0.9-0.6,1.2-1.2c0.3-0.5,0.5-1.1,0.4-1.6 c-0.1-0.5-0.5-1.1-1.1-1.3c-0.5-0.2-1.1-0.1-1.6,0.1c-0.5,0.2-0.9,0.6-1.1,1.1c-0.1,0.2-0.2,0.5-0.3,0.7c0,0.3-0.1,0.5-0.1,0.9 c0,0.3,0.1,0.5,0.2,0.9C48.7,49.1,48.9,49.3,49.1,49.4z M49.1,49.6c-0.5-0.3-1.1-0.7-1.3-1.4c-0.1-0.3-0.2-0.6-0.1-1.1 c0-0.3,0.1-0.6,0.3-1c0.3-0.6,0.9-1.1,1.6-1.4c0.3-0.1,0.6-0.2,1.1-0.1c0.3,0,0.6,0.2,1,0.3c0.5,0.3,1,1,1.1,1.6 c0.2,0.6,0.2,1.3-0.1,1.9c-0.3,0.6-0.9,1.2-1.5,1.3C50.3,50,49.7,49.9,49.1,49.6z"></path> </g> <g> <path d="M53,52.8c0.3,0.1,0.5,0.2,0.9,0.2s0.5-0.1,0.9-0.3c0.5-0.3,0.9-0.6,1.2-1.2c0.3-0.4,0.5-1.1,0.4-1.6 c-0.1-0.5-0.5-1.1-1.1-1.3c-0.5-0.2-1.1-0.1-1.6,0.1c-0.5,0.2-0.9,0.6-1.1,1.1c-0.1,0.2-0.2,0.5-0.3,0.7c0,0.3-0.1,0.5-0.1,0.9 s0.1,0.5,0.2,0.9C52.4,52.4,52.7,52.7,53,52.8z M52.9,52.9c-0.5-0.3-1.1-0.7-1.3-1.4c-0.1-0.3-0.2-0.6-0.1-1.1 c0.1-0.4,0.1-0.6,0.3-1c0.3-0.6,0.9-1.1,1.6-1.4c0.3-0.1,0.6-0.2,1.1-0.1c0.3,0,0.6,0.2,1,0.3c0.5,0.3,1,1,1.1,1.6 c0.2,0.6,0.2,1.3-0.1,1.9c-0.3,0.6-0.9,1.2-1.5,1.3C54.1,53.3,53.5,53.1,52.9,52.9z"></path> </g> <g> <path d="M52.2,57.5c0.3,0.1,0.5,0.2,0.9,0.2s0.5-0.1,0.9-0.3c0.5-0.3,0.9-0.6,1.2-1.2c0.3-0.4,0.5-1.1,0.4-1.6 c-0.1-0.5-0.5-1.1-1.1-1.3c-0.5-0.2-1.1-0.1-1.6,0.1c-0.5,0.2-0.9,0.6-1.1,1.1c-0.1,0.2-0.2,0.5-0.3,0.7 c-0.1,0.2-0.1,0.5-0.1,0.9c0,0.3,0.1,0.5,0.2,0.9C51.8,57.1,52,57.4,52.2,57.5z M52.2,57.6c-0.5-0.3-1.1-0.7-1.3-1.4 c-0.1-0.3-0.2-0.6-0.1-1.1c0-0.3,0.1-0.6,0.3-1c0.3-0.6,0.9-1.1,1.6-1.4c0.3-0.1,0.6-0.2,1.1-0.1c0.3,0,0.6,0.2,1,0.3 c0.5,0.3,1,1,1.1,1.6c0.1,0.6,0.2,1.3-0.1,1.9c-0.3,0.6-0.9,1.2-1.5,1.3C53.5,58,52.8,57.9,52.2,57.6z"></path> </g> <g> <path d="M56.3,55.5c0.3,0.1,0.5,0.2,0.9,0.2c0.3,0,0.5-0.1,0.9-0.3c0.5-0.3,0.9-0.6,1.2-1.2c0.3-0.4,0.5-1.1,0.4-1.6 c-0.1-0.5-0.5-1.1-1.1-1.3c-0.5-0.2-1.1-0.1-1.6,0.1s-0.9,0.6-1.1,1.1c-0.1,0.2-0.2,0.5-0.3,0.7c-0.1,0.2-0.1,0.5-0.1,0.9 c0,0.3,0.1,0.5,0.2,0.9C55.8,55.2,56.1,55.4,56.3,55.5z M56.3,55.6c-0.5-0.3-1.1-0.7-1.3-1.4c-0.1-0.3-0.2-0.6-0.1-1.1 c0-0.3,0.1-0.6,0.3-1c0.3-0.6,0.9-1.1,1.6-1.4c0.3-0.1,0.6-0.2,1.1-0.1c0.3,0,0.6,0.2,1,0.3c0.5,0.3,1,1,1.1,1.6 c0.2,0.6,0.2,1.3-0.1,1.9c-0.3,0.6-0.9,1.2-1.5,1.3C57.5,56.1,56.8,56,56.3,55.6z"></path> </g> </g> </g> </svg> 