<?xml version="1.0" encoding="UTF-8"?> <!-- Generator: Adobe Illustrator 24.0.2, SVG Export Plug-In . SVG Version: 6.00 Build 0) --> <svg xmlns="http://www.w3.org/2000/svg" xmlns:xlink="http://www.w3.org/1999/xlink" id="wordmark" x="0px" y="0px" viewBox="0 0 60 60" style="enable-background:new 0 0 60 60;" xml:space="preserve"> <style type="text/css"> .st0{fill:#20694A;} .st1{fill:#FF0000;stroke:#990000;stroke-width:0.75;stroke-miterlimit:10;} .st2{fill:#FFFFFF;stroke:#990000;stroke-width:0.5;stroke-miterlimit:10;} .st3{fill:#0E8D47;stroke:#006633;stroke-miterlimit:10;} </style> <g> <g> <path class="st0" d="M0,42.3v-4.7h1l1.9,3.2v-3.2h0.9v4.7h-1l-1.9-3.1v3.1H0z"></path> <path class="st0" d="M4.6,40c0-0.4,0-0.9,0.2-1.2c0.1-0.2,0.2-0.4,0.4-0.6c0.2-0.2,0.3-0.3,0.6-0.4c0.3-0.2,0.6-0.2,1-0.2 c0.6,0,1.3,0.2,1.7,0.6C9,38.7,9.2,39.3,9.2,40c0,0.6-0.2,1.3-0.6,1.8c-0.4,0.4-1.1,0.6-1.7,0.6s-1.3-0.2-1.7-0.6 C4.8,41.2,4.6,40.6,4.6,40z M5.6,40c0,0.4,0.1,0.9,0.3,1.3c0.5,0.5,1.3,0.5,1.8,0c0,0,0,0,0.1-0.1c0.3-0.3,0.4-0.8,0.3-1.3 c0-0.4-0.1-0.9-0.3-1.2c-0.2-0.3-0.5-0.4-1-0.4c-0.3,0-0.7,0.1-1,0.4C5.7,39.1,5.6,39.5,5.6,40z"></path> <path class="st0" d="M10,42.3v-4.7h2c0.3,0,0.8,0,1.1,0.2c0.2,0.1,0.4,0.2,0.5,0.4s0.2,0.5,0.2,0.8c0,0.3-0.1,0.6-0.3,0.9 c-0.2,0.2-0.5,0.3-1,0.4c0.2,0.1,0.3,0.2,0.5,0.4c0.2,0.2,0.3,0.5,0.5,0.8l0.5,1h-1.1l-0.8-1.1c-0.2-0.2-0.3-0.4-0.5-0.8 c-0.1-0.1-0.2-0.2-0.3-0.2c-0.2,0-0.3,0-0.5,0h-0.2v2L10,42.3z M10.9,39.5h0.7c0.3,0,0.5,0,0.9,0c0.1,0,0.2-0.1,0.3-0.2 C13,39.2,13,39.1,13,39c0-0.1,0-0.3-0.1-0.3c-0.1-0.1-0.2-0.2-0.3-0.2s-0.3,0-0.8,0H11v1.1H10.9z"></path> <path class="st0" d="M15.9,42.3v-4h-1.4v-0.8h3.8v0.8h-1.4v4H15.9z"></path> <path class="st0" d="M18.9,42.3v-4.7h1v1.8h1.8v-1.8h1v4.7h-1v-2h-1.8v2H18.9z"></path> <path class="st0" d="M28.5,40.6l1,0.3c-0.1,0.4-0.3,0.9-0.8,1.2c-0.9,0.5-2,0.5-2.8-0.3c-0.4-0.5-0.6-1.1-0.6-1.8 c0-0.6,0.2-1.3,0.6-1.8c0.4-0.4,1-0.6,1.6-0.6c0.5,0,1.1,0.2,1.4,0.5c0.2,0.2,0.4,0.5,0.5,0.9l-1,0.2c-0.1-0.4-0.5-0.9-1-0.8 c-0.3,0-0.6,0.1-0.9,0.3c-0.2,0.3-0.3,0.8-0.3,1.3c0,0.4,0.1,1,0.3,1.3c0.2,0.2,0.5,0.3,0.9,0.3c0.2,0,0.5-0.1,0.6-0.2 C28.3,41.1,28.4,40.8,28.5,40.6z"></path> <path class="st0" d="M34.5,42.3h-1.1L33,41.2h-1.9l-0.4,1.1h-1l1.8-4.7h1L34.5,42.3z M32.8,40.4l-0.6-1.7l-0.6,1.7 C31.5,40.4,32.8,40.4,32.8,40.4z"></path> <path class="st0" d="M35,42.3v-4.7h2c0.3,0,0.8,0,1.1,0.1c0.2,0.1,0.4,0.2,0.5,0.4c0.1,0.2,0.2,0.5,0.2,0.8c0,0.3-0.1,0.6-0.3,0.9 s-0.5,0.4-1,0.4c0.2,0.1,0.3,0.2,0.5,0.4s0.3,0.5,0.5,0.8l0.5,1H38l-0.8-1.1c-0.2-0.2-0.3-0.4-0.5-0.8c-0.1-0.1-0.2-0.2-0.3-0.2 c-0.2,0-0.3,0-0.5,0h-0.2v2L35,42.3z M36,39.5h0.8c0.3,0,0.5,0,0.9,0c0.1,0,0.2-0.1,0.3-0.2C38,39.2,38,39.1,38,39 c0-0.1,0-0.3-0.1-0.3c-0.1-0.1-0.2-0.2-0.3-0.2c-0.1,0-0.3,0-0.8,0h-0.8L36,39.5L36,39.5z"></path> <path class="st0" d="M39.6,40c0-0.4,0-0.9,0.2-1.2c0.1-0.2,0.2-0.4,0.4-0.6c0.2-0.2,0.3-0.3,0.6-0.4c0.3-0.1,0.6-0.2,1.1-0.2 c0.6,0,1.2,0.2,1.7,0.6c0.9,1.1,0.9,2.6,0,3.6c-0.4,0.4-1.1,0.6-1.7,0.6c-0.6,0-1.3-0.2-1.7-0.6C39.9,41.2,39.6,40.6,39.6,40z M40.6,40c0,0.4,0.1,0.9,0.3,1.3c0.5,0.5,1.3,0.5,1.8,0.1c0,0,0,0,0.1-0.1c0.3-0.3,0.4-0.8,0.3-1.3c0-0.4-0.1-0.9-0.3-1.2 c-0.2-0.3-0.5-0.4-1-0.4s-0.8,0.1-1,0.4S40.6,39.5,40.6,40L40.6,40z"></path> <path class="st0" d="M45,42.3v-4.7h1v3.9h2.4v0.8L45,42.3z"></path> <path class="st0" d="M49.1,42.3v-4.7h1v4.7H49.1z"></path> <path class="st0" d="M50.9,42.3v-4.7h1l1.9,3.2v-3.2h0.9v4.7h-1l-1.9-3.1v3.1H50.9z"></path> <path class="st0" d="M60,42.3h-1.1l-0.4-1.1h-1.9l-0.3,1.1h-1l1.8-4.7h1L60,42.3z M58.2,40.4l-0.6-1.7l-0.6,1.7H58.2z"></path> </g> <g> <path class="st0" d="M21.5,50.6h-1.1L20,49.5h-1.9l-0.4,1.1h-1.1l1.9-4.8h1L21.5,50.6z M19.8,48.6l-0.6-1.8l-0.6,1.8H19.8z"></path> <path class="st0" d="M22.1,50.6v-4.8h1.5c0.4,0,0.8,0,1.2,0.1c0.3,0.1,0.5,0.2,0.6,0.4c0.2,0.2,0.3,0.6,0.3,1c0,0.2,0,0.5-0.2,0.8 c-0.1,0.2-0.2,0.3-0.4,0.4c-0.2,0.1-0.3,0.2-0.5,0.2c-0.3,0-0.6,0.1-1,0.1h-0.6v1.8L22.1,50.6z M23,46.5v1.4h0.5 c0.2,0,0.5,0,0.8-0.1c0.1,0,0.2-0.1,0.3-0.2c0.1-0.1,0.1-0.2,0.1-0.4s0-0.3-0.2-0.4c-0.1-0.1-0.2-0.2-0.4-0.2c-0.2,0-0.4,0-0.8,0 L23,46.5z"></path> <path class="st0" d="M26.6,50.6v-4.8h1.6c0.4,0,0.8,0,1.2,0.1c0.3,0.1,0.5,0.2,0.6,0.4c0.2,0.2,0.3,0.6,0.3,1c0,0.2,0,0.5-0.2,0.8 c-0.1,0.2-0.2,0.3-0.4,0.4c-0.2,0.1-0.3,0.2-0.5,0.2c-0.3,0-0.6,0.1-1,0.1h-0.6v1.8L26.6,50.6z M27.5,46.5v1.4h0.5 c0.2,0,0.5,0,0.8-0.1c0.1,0,0.2-0.1,0.3-0.2c0.1-0.1,0.1-0.2,0.1-0.4s0-0.3-0.2-0.4c-0.1-0.1-0.2-0.2-0.4-0.2c-0.2,0-0.4,0-0.8,0 L27.5,46.5z"></path> <path class="st0" d="M31.1,50.6v-4.8h1v4h2.5v0.8L31.1,50.6z"></path> <path class="st0" d="M35.2,50.6v-4.8h3.5v0.8h-2.6v1.1h2.4v0.8h-2.5v1.3h2.7v0.8L35.2,50.6z"></path> <path class="st0" d="M39.4,49l1-0.1c0,0.2,0.2,0.5,0.3,0.8c0.2,0.2,0.4,0.2,0.8,0.2c0.2,0,0.5,0,0.8-0.2c0.1-0.1,0.2-0.3,0.2-0.4 s0-0.2-0.1-0.3c-0.1-0.1-0.2-0.2-0.3-0.2c-0.1,0-0.4-0.1-0.8-0.2c-0.4-0.1-0.8-0.2-1.1-0.4c-0.5-0.4-0.6-1.2-0.2-1.6 c0.2-0.2,0.3-0.4,0.6-0.5c0.3-0.1,0.6-0.2,1-0.2c0.5,0,1,0.1,1.4,0.4c0.3,0.2,0.4,0.6,0.4,1.1h-1c0-0.2-0.1-0.4-0.2-0.5 c-0.2-0.1-0.4-0.2-0.6-0.2s-0.4,0-0.6,0.2c-0.1,0.1-0.2,0.2-0.2,0.3s0,0.2,0.1,0.3c0.3,0.2,0.6,0.2,0.9,0.3 c0.4,0.1,0.8,0.2,1.1,0.3c0.2,0.1,0.4,0.3,0.5,0.5c0.1,0.2,0.2,0.5,0.2,0.8c0,0.3-0.1,0.5-0.2,0.8c-0.2,0.2-0.4,0.4-0.6,0.5 c-0.3,0.1-0.6,0.2-1.1,0.2c-0.5,0-1-0.1-1.4-0.4C39.6,49.9,39.4,49.4,39.4,49z"></path> </g> <g> <path class="st1" d="M30.5,19.3c-0.9,1.1-1.2,2.5-1,3.9c0,0,0.6,3.2,2.3,5.4s3.2,4.1,4.2,4.3c1,0.2,1.2-0.4,1.9-0.4s1,0.9,1.6,0.9 c0.6,0,1.1-1,1.5-1.2c0.5-0.2,1.1,0.6,1.9,0.4c1-0.3,3.9-4,4.4-5.5s1.3-5.1,0.9-6.8S46,17.4,46,17.4s-1.9-1.6-2.8-1.8 c-1-0.2-2.1-0.3-2.5,0c-0.3,0.3,0.4,2.4,0.2,2.7c-0.3,0.3-2,0-2,0s-3.6-1.3-4.4-1.3C33.8,17,32,17.5,30.5,19.3z"></path> <path class="st2" d="M46.5,19.4c0,0-0.5,3.8-0.9,4.7c-0.3,1-1.8,2.8-1.8,3.2c0,0.4,1.1,0.9,1.6,0.6c0.5-0.2,1.4-2.4,1.7-3.4 c0.3-1.1,0.3-3,0.3-3.6C47.5,20.2,46.5,19.4,46.5,19.4z"></path> <path class="st1" d="M41.1,9.7c0,0-1.9,0.6-2.5,1.3c-0.5,0.6-0.5,2-0.5,2s0.2,3.3,0.4,3.4c0.3,0.3,0.6,0.5,1.1,0.8 c0.2,0.1,0.5,0.1,0.9,0l-0.1-0.9c0,0-0.5-0.2-0.8-0.5c-0.2-0.4-0.2-2.4,0-3.1s1.5-2.1,1.5-2.1L41.1,9.7L41.1,9.7z"></path> <path class="st3" d="M37.5,13.8c-0.3,0.3-1.9,0-1.9,0s1.3,0.9,1.4,1.2c0,0.3-0.9,1.1-2,1.1s-2.4-1-3.2-1.5 c-1.1-0.8-1.9-1.8-2.3-3.1c-0.4-1.7-0.2-2-0.2-2s2.6,0.5,4.1,0.9c1.5,0.4,2.7,1,3.2,1.5C37.2,12.2,37.8,13.5,37.5,13.8z"></path> <polygon points="0,16.9 0,32.2 9.6,32.2 9.6,28.4 3.5,28.4 3.5,26 8.6,26 8.6,22.5 3.5,22.5 3.5,20.5 9.6,20.5 9.6,16.9 "></polygon> <polygon points="18.2,32.2 14,22.7 14,32.2 10.6,32.2 10.6,16.9 13.9,16.9 18.2,25.9 18.2,16.9 21.6,16.9 21.6,32.2 "></polygon> <path d="M28.5,16.9v15.3c-0.2,0.8-0.5,1.5-1.1,2c-0.9,1-1.1,1-1.9,1h-2.7V31c0,0,1.7,0.4,1.7-0.4V16.9H28.5z"></path> <polygon points="47.8,16.9 52.1,26.1 52.1,32.2 55.9,32.2 55.9,26.1 60,16.9 55.8,16.9 53.9,20.4 52,16.9 "></polygon> <path d="M26.4,13.4c1.1-0.2,2.1,0.5,2.1,1.2c-0.1,1-1.1,1.7-2,1.6h-0.1c-1.4-0.2-1.6-1-1.6-1.4C24.8,14.2,25.3,13.5,26.4,13.4z"></path> </g> </g> </svg> 