<?xml version="1.0" encoding="UTF-8"?> <!-- Generator: Adobe Illustrator 24.0.2, SVG Export Plug-In . SVG Version: 6.00 Build 0) --> <svg xmlns="http://www.w3.org/2000/svg" xmlns:xlink="http://www.w3.org/1999/xlink" id="Layer_1" x="0px" y="0px" viewBox="0 0 300 80" style="enable-background:new 0 0 300 80;" xml:space="preserve"> <style type="text/css"> .st0{fill:#ED2224;stroke:#991B1E;stroke-width:0.75;stroke-miterlimit:10;} .st1{fill:#FFFFFF;stroke:#991B1E;stroke-width:0.5;stroke-miterlimit:10;} .st2{fill:#148E47;stroke:#026735;stroke-miterlimit:10;} .st3{fill:#010101;} .st4{fill:#226A4B;} </style> <g> <path class="st0" d="M151.1,25.7c-2.1,2.8-3,6.4-2.5,9.9c0,0,1.8,8.2,5.7,13.9c3.9,5.7,8.2,10.5,10.7,10.9c2.5,0.4,3.2-1.1,5-1.1 c1.9,0,2.5,2.1,4.2,2.1s2.7-2.4,4-2.9c1.3-0.5,2.6,1.8,5,1.1c2.4-0.7,10-10.2,11.4-14.1s3.4-13.4,2.1-17.5s-5.9-7.4-5.9-7.4 s-4.8-4.1-7.1-4.6c-2.3-0.5-5.6-0.9-6.3,0c-0.7,0.9,1.2,6.1,0.4,6.9c-0.7,0.8-5.1,0-5.1,0s-9.5-3.3-11.5-3.4 C159.3,19.5,154.7,20.9,151.1,25.7z"></path> <path class="st1" d="M192.1,25.9c0,0-1.5,9.7-2.3,12c-0.8,2.3-4.6,7.3-4.6,8.3c0,1.1,2.8,2.3,4.1,1.8c1.3-0.5,3.5-6.1,4.3-8.8 c0.8-2.7,0.8-7.6,0.8-9.4C194.5,28,192.1,25.9,192.1,25.9z"></path> <path class="st0" d="M178.3,1.1c0,0-5,1.8-6.3,3.4s-1.3,5.3-1.3,5.3s0.6,8.4,1.2,8.8c0.8,0.7,1.7,1.4,2.6,1.9 c0.7,0.3,1.5,0.3,2.1,0l-0.2-2.1c0,0-1.5-0.5-1.9-1.5c-0.4-0.9-0.6-6.1,0-8.1c0.6-2,3.8-5.5,3.8-5.5V1.1z"></path> <path class="st2" d="M169,11.5c-0.8,0.9-4.8,0-4.8,0s3.4,2.1,3.5,3.1s-2.1,2.7-5.2,2.7c-3,0-6.1-2.5-8.2-4 c-2.9-1.8-4.9-4.6-5.8-7.9C147.2,1.1,148,0,148,0s6.5,1.3,10.5,2.3c4,1.1,6.8,2.5,8.2,3.8S169.8,10.5,169,11.5z"></path> <polygon class="st3" points="72.3,19.5 72.3,58.9 97.2,58.9 97.2,49.1 81.5,49.1 81.5,42.9 94.5,42.9 94.5,33.9 81.5,33.9 81.5,28.5 97.2,28.5 97.2,19.5 "></polygon> <polygon class="st3" points="119.1,58.9 108.4,34.5 108.4,58.9 99.6,58.9 99.6,19.5 108.2,19.5 119.1,42.7 119.1,19.5 128.2,19.5 128.2,58.9 "></polygon> <path class="st3" d="M145.8,19.5v39.4c-0.6,2-1.5,3.8-2.8,5.3c-2.2,2.5-2.7,2.5-5,2.5h-6.8V55.6c0,0,4.5,1,4.5-1.2V19.5H145.8z"></path> <polygon class="st3" points="195.5,19.5 206.4,43.1 206.4,58.9 216.4,58.9 216.4,43.1 226.9,19.5 216,19.5 211.2,28.3 206.2,19.5 "></polygon> <path class="st4" d="M75,79.8v-8.1h1.6l3.3,5.4v-5.4h1.5v8.1h-1.7l-3.3-5.3v5.3H75z"></path> <path class="st4" d="M82.8,75.8c0-0.7,0.1-1.4,0.4-2.1c0.2-0.4,0.4-0.8,0.8-1.1c0.3-0.3,0.7-0.5,1.1-0.7c0.6-0.2,1.2-0.3,1.8-0.3 c1.1-0.1,2.1,0.3,2.9,1.1c0.8,0.9,1.1,2,1.1,3.1c0.1,1.1-0.3,2.2-1.1,3.1c-0.7,0.8-1.8,1.2-2.8,1.1c-1.1,0.1-2.1-0.3-2.9-1.1 C83.2,78,82.8,76.9,82.8,75.8z M84.5,75.7c-0.1,0.8,0.2,1.5,0.6,2.1c0.8,0.9,2.2,0.9,3.1,0.1c0,0,0.1-0.1,0.1-0.1 c0.5-0.6,0.7-1.4,0.6-2.1c0.1-0.7-0.2-1.5-0.6-2.1c-0.4-0.5-1-0.7-1.6-0.7c-0.6,0-1.2,0.2-1.6,0.7C84.7,74.2,84.5,75,84.5,75.7z"></path> <path class="st4" d="M92,79.8v-8.1h3.5c0.6,0,1.3,0.1,1.9,0.3c0.4,0.1,0.7,0.4,0.9,0.8c0.2,0.4,0.4,0.8,0.4,1.3 c0,0.6-0.2,1.1-0.5,1.5c-0.4,0.4-1,0.7-1.6,0.7c0.3,0.2,0.6,0.4,0.9,0.7c0.4,0.4,0.7,0.9,0.9,1.3l1,1.6h-2L96.2,78 c-0.3-0.4-0.6-0.8-0.9-1.2c-0.1-0.1-0.3-0.3-0.5-0.3c-0.3-0.1-0.6-0.1-0.8-0.1h-0.3v3.4L92,79.8z M93.7,75.1h1.2c0.5,0,1,0,1.5-0.1 c0.2-0.1,0.4-0.2,0.5-0.3c0.1-0.2,0.2-0.4,0.2-0.6c0-0.2-0.1-0.5-0.2-0.7c-0.2-0.2-0.4-0.3-0.6-0.3c-0.1,0-0.5,0-1.2,0h-1.3V75.1z"></path> <path class="st4" d="M102.1,79.8V73h-2.4v-1.4h6.5V73h-2.4v6.8H102.1z"></path> <path class="st4" d="M107.2,79.8v-8.1h1.6v3.2h3.2v-3.2h1.7v8.1h-1.7v-3.6h-3.2v3.6H107.2z"></path> <path class="st4" d="M123.8,76.8l1.6,0.5c-0.2,0.8-0.6,1.5-1.2,2c-1.5,1-3.5,0.8-4.8-0.5c-0.7-0.8-1.1-1.9-1-3 c-0.1-1.2,0.3-2.3,1.1-3.2c0.7-0.8,1.7-1.2,2.8-1.1c0.9,0,1.8,0.3,2.4,0.9c0.4,0.4,0.7,0.9,0.8,1.5l-1.6,0.4 c-0.2-0.8-0.9-1.4-1.7-1.4c-0.6,0-1.1,0.2-1.5,0.7c-0.4,0.6-0.6,1.4-0.6,2.1c-0.1,0.8,0.1,1.5,0.6,2.2c0.4,0.4,0.9,0.7,1.4,0.7 c0.4,0,0.8-0.1,1.1-0.4C123.5,77.8,123.7,77.3,123.8,76.8z"></path> <path class="st4" d="M134.1,79.8h-1.8l-0.7-1.8h-3.3l-0.7,1.8H126l3.2-8.1h1.7L134.1,79.8z M131.1,76.6l-1.1-3l-1.1,3H131.1z"></path> <path class="st4" d="M135,79.8v-8.1h3.5c0.6,0,1.3,0,1.9,0.2c0.4,0.1,0.7,0.4,1,0.8c0.2,0.4,0.4,0.8,0.4,1.3c0,0.6-0.2,1.1-0.5,1.5 c-0.4,0.4-1,0.7-1.6,0.7c0.3,0.2,0.6,0.4,0.9,0.7c0.3,0.4,0.7,0.9,0.9,1.3l1,1.6h-2l-1.2-1.8c-0.3-0.4-0.6-0.8-0.9-1.2 c-0.1-0.2-0.3-0.3-0.5-0.3c-0.3-0.1-0.5-0.1-0.8-0.1h-0.3v3.4L135,79.8z M136.7,75.1h1.2c0.5,0,1,0,1.5-0.1 c0.2-0.1,0.4-0.2,0.5-0.3c0.1-0.2,0.2-0.4,0.2-0.6c0-0.2-0.1-0.5-0.2-0.7c-0.2-0.2-0.4-0.3-0.6-0.3c-0.1,0-0.5,0-1.2,0h-1.3V75.1z"></path> <path class="st4" d="M142.9,75.8c0-0.7,0.1-1.4,0.4-2.1c0.2-0.4,0.4-0.8,0.8-1.1c0.3-0.3,0.7-0.5,1.1-0.7c0.6-0.2,1.2-0.3,1.8-0.3 c1.1,0,2.1,0.4,2.8,1.1c1.4,1.8,1.4,4.4,0,6.2c-0.7,0.8-1.8,1.2-2.8,1.1c-1.1,0.1-2.1-0.3-2.9-1.1C143.2,78,142.8,76.9,142.9,75.8z M144.6,75.7c-0.1,0.8,0.2,1.5,0.6,2.1c0.8,0.9,2.2,0.9,3.1,0.1c0,0,0.1-0.1,0.1-0.1c0.5-0.6,0.7-1.4,0.6-2.1 c0.1-0.7-0.2-1.5-0.6-2.1c-0.4-0.5-1-0.7-1.6-0.7c-0.6,0-1.2,0.2-1.6,0.7C144.8,74.2,144.5,75,144.6,75.7L144.6,75.7z"></path> <path class="st4" d="M152.2,79.8v-8.1h1.7v6.7h4v1.4L152.2,79.8z"></path> <path class="st4" d="M159,79.8v-8.1h1.7v8.1H159z"></path> <path class="st4" d="M162.2,79.8v-8.1h1.6l3.3,5.4v-5.4h1.5v8.1H167l-3.3-5.3v5.3H162.2z"></path> <path class="st4" d="M177.8,79.8H176l-0.7-1.8H172l-0.7,1.8h-1.7l3.2-8.1h1.7L177.8,79.8z M174.7,76.6l-1.1-3l-1.1,3H174.7z"></path> <path class="st4" d="M188.3,79.8h-1.8l-0.7-1.8h-3.3l-0.7,1.8h-1.7l3.2-8.1h1.7L188.3,79.8z M185.3,76.6l-1.1-3l-1.1,3H185.3z"></path> <path class="st4" d="M189.1,79.8v-8.1h2.6c0.7,0,1.3,0,2,0.1c0.5,0.1,0.9,0.4,1.2,0.8c0.3,0.5,0.5,1,0.5,1.6c0,0.4-0.1,0.9-0.3,1.3 c-0.2,0.3-0.4,0.6-0.7,0.8c-0.3,0.2-0.5,0.3-0.9,0.4c-0.6,0.1-1.1,0.1-1.7,0.1h-1.1v3.1L189.1,79.8z M190.8,73v2.3h0.9 c0.4,0,0.9,0,1.3-0.1c0.2-0.1,0.4-0.2,0.5-0.4c0.1-0.2,0.2-0.4,0.2-0.6c0-0.3-0.1-0.5-0.3-0.7c-0.2-0.2-0.4-0.3-0.7-0.4 c-0.4-0.1-0.8-0.1-1.2-0.1L190.8,73z"></path> <path class="st4" d="M196.8,79.8v-8.1h2.6c0.7,0,1.3,0,2,0.1c0.5,0.1,0.9,0.4,1.2,0.8c0.3,0.5,0.5,1,0.5,1.6c0,0.4-0.1,0.9-0.3,1.3 c-0.2,0.3-0.4,0.6-0.7,0.8c-0.3,0.2-0.5,0.3-0.9,0.4c-0.6,0.1-1.1,0.1-1.7,0.1h-1.1v3.1L196.8,79.8z M198.4,73v2.3h0.9 c0.4,0,0.9,0,1.3-0.1c0.2-0.1,0.4-0.2,0.5-0.4c0.1-0.2,0.2-0.4,0.2-0.6c0-0.3-0.1-0.5-0.3-0.7c-0.2-0.2-0.4-0.3-0.7-0.4 c-0.4-0.1-0.8-0.1-1.2-0.1L198.4,73z"></path> <path class="st4" d="M204.4,79.8v-8.1h1.6v6.7h4.1v1.4L204.4,79.8z"></path> <path class="st4" d="M211.3,79.8v-8.1h6V73h-4.4v1.8h4.1v1.4h-4.1v2.2h4.6v1.4L211.3,79.8z"></path> <path class="st4" d="M218.5,77.2l1.6-0.2c0.1,0.5,0.3,0.9,0.6,1.2c0.3,0.3,0.8,0.4,1.2,0.4c0.4,0,0.9-0.1,1.2-0.3 c0.2-0.2,0.4-0.5,0.4-0.8c0-0.2-0.1-0.4-0.2-0.5c-0.2-0.2-0.4-0.3-0.6-0.3c-0.2-0.1-0.6-0.2-1.3-0.4c-0.7-0.1-1.3-0.4-1.9-0.8 c-0.8-0.7-1-1.9-0.4-2.8c0.3-0.4,0.6-0.7,1-0.8c0.5-0.2,1.1-0.3,1.6-0.3c0.8-0.1,1.6,0.2,2.3,0.7c0.5,0.5,0.8,1.1,0.8,1.8l-1.6,0.1 c0-0.3-0.2-0.7-0.5-0.9c-0.3-0.2-0.7-0.3-1-0.3c-0.4,0-0.8,0.1-1.1,0.3c-0.2,0.1-0.3,0.3-0.3,0.5c0,0.2,0.1,0.4,0.2,0.5 c0.5,0.3,1,0.5,1.5,0.5c0.6,0.1,1.2,0.3,1.8,0.6c0.4,0.2,0.7,0.5,0.9,0.8c0.2,0.4,0.3,0.8,0.3,1.3c0,0.5-0.1,0.9-0.4,1.3 c-0.3,0.4-0.6,0.7-1.1,0.9c-0.6,0.2-1.2,0.3-1.8,0.3c-0.9,0.1-1.7-0.2-2.4-0.7C218.9,78.7,218.5,78,218.5,77.2z"></path> <path class="st3" d="M140.3,10.3c2.8-0.5,5.5,1.5,5.5,3c-0.4,2.6-2.7,4.4-5.3,4.1c-0.1,0-0.1,0-0.2,0c-3.6-0.5-4.2-2.4-4.2-3.5 S137.4,10.8,140.3,10.3z"></path> </g> </svg> 