<?xml version="1.0" encoding="UTF-8"?> <!-- Generator: Adobe Illustrator 24.0.2, SVG Export Plug-In . SVG Version: 6.00 Build 0) --> <svg xmlns="http://www.w3.org/2000/svg" xmlns:xlink="http://www.w3.org/1999/xlink" id="Layer_1" x="0px" y="0px" viewBox="0 0 300 80" style="enable-background:new 0 0 300 80;" xml:space="preserve"> <style type="text/css"> .st0{fill:#FBF4F1;stroke:#231F20;stroke-miterlimit:10;} .st1{fill:#ECE6E6;stroke:#8C9295;stroke-miterlimit:10;} .st2{clip-path:url(#SVGID_2_);fill:none;stroke:#373531;stroke-miterlimit:10;} .st3{fill:#D1202C;} .st4{fill:#792E1D;} .st5{fill:#315C2E;} .st6{fill:#EDDDE1;} .st7{fill:#B0AA8F;} .st8{fill:#956E4C;stroke:#CB9866;stroke-width:2;stroke-miterlimit:10;} .st9{fill:none;} .st10{fill:#FFFFFF;} .st11{font-family:'Arial-BoldMT';} .st12{font-size:18.7209px;} .st13{fill:none;stroke:#640E0E;stroke-width:0.5;stroke-miterlimit:10;} .st14{font-family:'ArialNarrow-Bold';} .st15{font-size:8.5095px;} .st16{fill:none;stroke:#640E0E;stroke-miterlimit:10;} </style> <g> <ellipse class="st0" cx="28.3" cy="40" rx="26.5" ry="31.5"></ellipse> <ellipse class="st1" cx="28.1" cy="40.2" rx="19.4" ry="24.4"></ellipse> <g> <g> <defs> <ellipse id="SVGID_1_" cx="28.2" cy="41.1" rx="19.6" ry="24.7"></ellipse> </defs> <clipPath id="SVGID_2_"> <use xlink:href="#SVGID_1_" style="overflow:visible;"></use> </clipPath> <path class="st2" d="M13.8,24.2h9.3v-2.6l1.8,0.2l0.4,1.2l0.6,1.8l-0.4,0.8l1.8,0.4l2.2,1l1.4-0.2l1.4-0.4l1.4,0.6l0.6,0.8 l1.8,0.6l1.2,0.8l1.4,0.2l0.8,0.6l1.6-0.4h1.4l1.4,0.4l1-0.2h1.6l1.6,0.2l-2.8,2l-2.1,1l-3,2.4l-3.9,3L35.9,41c0,0-0.6,2.4-0.6,3 c0,0.6,0.2,3.2,0.2,3.2l0.2,3l1,3l1.4,1l2,3.2l1,1v1.2l-24.1-0.2l-0.3-13l-0.8-6.1l-1.5-5.8v-4.1l-0.4-3.2L13.8,24.2z"></path> </g> </g> <g> <path class="st3" d="M32.8,53c1-0.6,1.6,1.4,3.9,0.2s2.6-4.7,3-6.1c0.4-1.4,0-7.1-1-9.9s-4.7-4.4-5.8-4.7 c-1.2-0.2-3.5,0.4-4.7,1.2c-1.2,0.8-2.4,3.2-3.5,3.5c-1,0.2-3,0.4-4.3,0.8c-1.2,0.4-1.2,0-2.8,1c-1.6,1-1.8,1.6-2,2.6 c-0.2,1-0.4,2.4,0,4.3c0.4,1.8,2,3.2,3.2,4.7c1.2,1.4,3.9,3,5.3,4c1.4,1,4.3,1.4,6.3,1S31.8,53.7,32.8,53z"></path> <path class="st4" d="M24.9,36c0,0-0.4-3.6-0.2-4.7c0.2-1,1-2,1-2l-1.2-1c0,0-0.8,1.4-0.8,3.6S24.9,36,24.9,36z"></path> <polygon class="st5" points="23.7,36.4 21.2,35.2 19.8,32.4 18,31 17.6,32 14.2,30.6 13.8,31.4 12.9,32 11.1,31.8 8.3,32.2 10.1,34.6 11.3,35.9 11.5,36.9 13.6,37.3 14.2,38.1 15.4,37.7 17.8,38.1 20,37.1 20.7,36 "></polygon> </g> <g> <path class="st6" d="M44.6,59.1c0,0-1.3-0.5-2.4,0c-1.1,0.5-1.1,1.8-1.1,1.8s-0.5,1.9,0.1,2.6c0.6,0.7,2.7,0.3,2.7,0.3l1.6-0.6 c0,0-0.6,1.4-0.1,2s1.8,0.7,2.6,0.7c0.9,0,1.6-0.2,2.3-1.1c0.6-0.9-0.2-2.6-0.2-2.6s2.6,0.1,3.3,0.1s1.6,0.1,2.2-0.9 c0.5-1-0.2-1.8-0.6-2.6c-0.3-0.9-2.3-0.9-2.3-0.9s0.6-0.9,0.9-1.4c0.3-0.6,0.2-1.8-0.3-2.7s-1.8-1.9-2.6-1.6 c-0.9,0.2-1.9,1.2-2.3,1.5c-0.4,0.3-0.5,2.1-0.5,2.1s-0.3-1.2-1.2-1.4c-0.9-0.2-1.5-0.5-2.4-0.2c-0.9,0.2-1.8,1.1-1.6,1.9 C42.9,57,44.6,59.1,44.6,59.1z"></path> <ellipse transform="matrix(0.9811 -0.1936 0.1936 0.9811 -10.6354 10.4204)" class="st7" cx="48" cy="59.6" rx="1.6" ry="1.2"></ellipse> </g> <g> <path class="st6" d="M8.5,56.1l-1.2-2.8c0,0-2.3-0.2-3.2,0.6c-1,0.9-1.3,1.5-1,2s2,1.6,2,1.6s-2.3,0.3-3,1 c-0.7,0.7-0.6,1.8-0.4,2.2s1,1.9,1.8,1.8s2.2-0.8,2.2-0.8s0.6,1.9,1.2,2.2c0.6,0.3,1.5,0.1,2.2-0.2c0.7-0.3,1.1-1.1,1.2-1.4 C10.4,62.1,10,61,10,61l2,0.2c0,0,1.4,0.2,2,0c0.7-0.2,1.1-0.4,1.2-1.4c0.2-1-0.2-2-0.8-2.2c-0.6-0.2-2.2-0.2-2.2-0.2 s1.6-1.2,1.6-2.2c0.1-1-1-2.2-1.4-2.8c-0.5-0.6-2.3-1.4-3.2-0.6C8.4,52.5,8.5,56.1,8.5,56.1z"></path> <ellipse transform="matrix(0.9811 -0.1936 0.1936 0.9811 -11.0979 2.6378)" class="st7" cx="7.9" cy="58.1" rx="1.6" ry="1.2"></ellipse> </g> <rect x="62.5" y="18.6" class="st8" width="236.4" height="42.4"></rect> <rect x="65.4" y="22.1" class="st9" width="242.2" height="18.4"></rect> <text transform="matrix(1 0 0 1 65.3599 35.5522)" class="st10 st11 st12">Minnesota Apple Growers</text> <text transform="matrix(1 0 0 1 65.3599 35.5522)" class="st13 st11 st12">Minnesota Apple Growers</text> <rect x="66.3" y="41.6" class="st9" width="242.2" height="18.4"></rect> <text transform="matrix(1 0 0 1 66.3047 55.0361)" class="st10 st14 st12">A</text> <text transform="matrix(1 0 0 1 66.3047 55.0361)" class="st13 st14 st12">A</text> <text transform="matrix(1 0 0 1 77.3643 55.0361)" class="st10 st14 st15"> </text> <text transform="matrix(1 0 0 1 77.3643 55.0361)" class="st16 st14 st15"> </text> <text transform="matrix(1 0 0 1 79.2939 55.0361)" class="st10 st14 st12">s</text> <text transform="matrix(1 0 0 1 79.2939 55.0361)" class="st13 st14 st12">s</text> <text transform="matrix(1 0 0 1 87.8613 55.0361)" class="st10 st14 st15"> </text> <text transform="matrix(1 0 0 1 87.8613 55.0361)" class="st16 st14 st15"> </text> <text transform="matrix(1 0 0 1 89.791 55.0361)" class="st10 st14 st12">s</text> <text transform="matrix(1 0 0 1 89.791 55.0361)" class="st13 st14 st12">s</text> <text transform="matrix(1 0 0 1 98.3535 55.0361)" class="st10 st14 st15"> </text> <text transform="matrix(1 0 0 1 98.3535 55.0361)" class="st16 st14 st15"> </text> <text transform="matrix(1 0 0 1 100.2842 55.0361)" class="st10 st14 st12">o</text> <text transform="matrix(1 0 0 1 100.2842 55.0361)" class="st13 st14 st12">o</text> <text transform="matrix(1 0 0 1 109.6479 55.0361)" class="st10 st14 st15"> </text> <text transform="matrix(1 0 0 1 109.6479 55.0361)" class="st16 st14 st15"> </text> <text transform="matrix(1 0 0 1 111.5752 55.0361)" class="st10 st14 st12">c</text> <text transform="matrix(1 0 0 1 111.5752 55.0361)" class="st13 st14 st12">c</text> <text transform="matrix(1 0 0 1 120.1431 55.0361)" class="st10 st14 st15"> </text> <text transform="matrix(1 0 0 1 120.1431 55.0361)" class="st16 st14 st15"> </text> <text transform="matrix(1 0 0 1 122.0718 55.0361)" class="st10 st14 st12">i</text> <text transform="matrix(1 0 0 1 122.0718 55.0361)" class="st13 st14 st12">i</text> <text transform="matrix(1 0 0 1 126.3252 55.0361)" class="st10 st14 st15"> </text> <text transform="matrix(1 0 0 1 126.3252 55.0361)" class="st16 st14 st15"> </text> <text transform="matrix(1 0 0 1 128.3091 55.0361)" class="st10 st14 st12">a</text> <text transform="matrix(1 0 0 1 128.3091 55.0361)" class="st13 st14 st12">a</text> <text transform="matrix(1 0 0 1 136.8188 55.0361)" class="st10 st14 st15"> </text> <text transform="matrix(1 0 0 1 136.8188 55.0361)" class="st16 st14 st15"> </text> <text transform="matrix(1 0 0 1 138.7476 55.0361)" class="st10 st14 st12">t</text> <text transform="matrix(1 0 0 1 138.7476 55.0361)" class="st13 st14 st12">t</text> <text transform="matrix(1 0 0 1 143.855 55.0361)" class="st10 st14 st15"> </text> <text transform="matrix(1 0 0 1 143.855 55.0361)" class="st16 st14 st15"> </text> <text transform="matrix(1 0 0 1 145.8462 55.0361)" class="st10 st14 st12">i</text> <text transform="matrix(1 0 0 1 145.8462 55.0361)" class="st13 st14 st12">i</text> <text transform="matrix(1 0 0 1 150.0952 55.0361)" class="st10 st14 st15"> </text> <text transform="matrix(1 0 0 1 150.0952 55.0361)" class="st16 st14 st15"> </text> <text transform="matrix(1 0 0 1 152.0205 55.0361)" class="st10 st14 st12">o</text> <text transform="matrix(1 0 0 1 152.0205 55.0361)" class="st13 st14 st12">o</text> <text transform="matrix(1 0 0 1 161.3867 55.0361)" class="st10 st14 st15"> </text> <text transform="matrix(1 0 0 1 161.3867 55.0361)" class="st16 st14 st15"> </text> <text transform="matrix(1 0 0 1 163.374 55.0361)" class="st10 st14 st12">n</text> <text transform="matrix(1 0 0 1 163.374 55.0361)" class="st13 st14 st12">n</text> </g> </svg> 