<?xml version="1.0" encoding="UTF-8"?> <!-- Generator: Adobe Illustrator 24.0.2, SVG Export Plug-In . SVG Version: 6.00 Build 0) --> <svg xmlns="http://www.w3.org/2000/svg" xmlns:xlink="http://www.w3.org/1999/xlink" id="Layer_1" x="0px" y="0px" viewBox="0 0 60 60" style="enable-background:new 0 0 60 60;" xml:space="preserve"> <style type="text/css"> .st0{fill:#1F407C;} .st1{fill:#96BEE6;} .st2{fill:#FFFFFF;} </style> <g> <path class="st0" d="M16.7,30.3l1.9,3.5l6.1,2l1.1-2.8l0.6,2.8l3.1,3.5h4.6l2.9-0.7l1.3-1.7l1.3,1.7l2,0.7l2.7-3.5c0,0,0.1-2.7,0-3 c-0.1-0.3-0.7-1.4-0.7-1.4s1.2-4.7,1.3-5c0-0.3-1.3-2.4-1.3-2.4l-1-0.6c0,0,0-1.3-0.1-1.5c-0.1-0.2-1.1-1-1.3-1.1 c-0.2-0.1-1.1-0.1-1.4,0c-0.3,0.1-0.3,1.3-0.3,1.3l0.7,1.3l1.5,1.1c0,0-1.5,0.3-1.8,0.1c-0.3-0.2-1.7-2.9-1.8-3.2 c-0.1-0.3,0.7-1.8,0.7-1.8s1.5-0.6,1.9-0.6s2,1.2,2.1,1.4c0.2,0.2,0.4,1.8,0.4,1.8s1.3-1.2,1.2-1.6c-0.1-0.4-1.9-2.4-1.9-2.4 s1.2-2,1.4-2.5c0.1-0.4,0-2-0.2-2.8c-0.2-0.7-1.4-2.1-1.4-2.1s-1.6-0.2-2.5,0c-0.9,0.2-2.9,1.5-3.2,1.8C36.5,13,37,13.5,37,13.5 l-2.5-0.9c0,0-2.8-0.7-4.3-0.9c-1.5-0.1-7.7,0-7.7,0l-3.2-3.9h-1l-2.1,1.3c0,0-1.1,1-1.5,2.1c-0.3,1.1,0.9,6.4,0.9,6.4l-0.9-0.3 L14,16.9l-3.3,4.9L9,25.2l-0.7,2.7l0.4,2.6l0.2,2.5L8.3,35l-1.4,2.1v2.4c0,0-2.4-4.9-3-6.5c-0.6-1.6-1.1-6.1-1.1-6.1V4.7 c0,0,4.3-1.6,12.3-3.2S29.7,0,29.7,0S39,0.3,44.5,1.4c5.5,1,11.9,3.1,11.9,3.1v22.9c0,0-0.4,4.9-3.3,11c-2.9,6.1-7,9.3-7,9.3 l-4,3.7l-2.7,2l-2.1-1.3L36.6,51l-0.4-1.9l-0.4-1l-4.1,4.8l-1.8,2.6l-0.1,3.6V60l-8-5.2L17,51.2l-2.7-2.7l-1.4-2.8l0.1-5l1.3-2.7 l1.7-2.2l0.7-2.6V30.3z"></path> <polygon class="st0" points="18.7,18.2 20,16.7 21.5,15.8 20.1,12.3 18.7,9.9 17.7,9.9 16.7,10.8 16.4,12.5 16.4,14.6 17.2,16.4 17.7,17.8 "></polygon> <polygon class="st0" points="39.5,15.4 41,13.3 42.1,12.4 42.7,13.3 42.7,14.5 42.7,15.9 41.7,17.1 "></polygon> <polygon class="st0" points="28.7,24.3 27.1,23.3 26.7,22.4 27.8,21 28.7,20.6 30.9,21.1 31.6,22 30.9,23.8 32.1,23.6 32.9,22.4 32.9,20.9 31.7,19.1 30.2,18.2 27.5,18.8 25.7,19.6 24.5,21.3 23.4,22.7 23.9,23.7 25,23.6 25.9,23.1 26.7,24.3 27.8,24.8 "></polygon> <path class="st0" d="M35.4,32.2l0.7-1.2l1.5-0.7c0,0,4.3-0.2,4.5,0c0.2,0.2,0.9,1.9,0.9,1.9l-0.9,0.5H41l-0.6,0.9l-0.5,1.5 l-1.2,0.6l0.6-1.8l-0.9-0.9l-1.5-0.4L35.4,32.2z"></path> <polygon class="st1" points="32.9,20.9 34.4,22.7 35.6,25.5 36.9,28.6 37.1,30.1 36.9,30.8 36.1,31.1 35.4,32.2 35,30.6 34,27.3 32.7,24.2 32.1,23.6 32.9,22.4 "></polygon> <polygon class="st1" points="43.7,31.5 44.9,26.5 44.3,24.9 44.1,26.3 43.2,26.8 42.2,27.5 42,28.2 42.3,28.9 "></polygon> <path class="st1" d="M29.7,39.4l0.2-2.4l0.7-2l0.3-1.5l-1-2.5l-1-2.1l-1.8-0.9c0,0-1.9-0.3-2.1-0.3s-3.2-0.4-3.2-0.4l-2.4-0.2 l-1.6-1.6l-0.9-1.9l-0.5-1.4l-0.7-0.6l-0.5,1c0,0,0.2,1.2,0.3,1.5c0.1,0.3,0.1,3.3,0.1,3.3l-0.1,2.5l-0.6,1.3l-1.5,2.1l-1.5,1.9 v2.1v2.2l0.9,2.7l0.2-1.5l1.3-2.7l1.7-2.2l0.7-2.6l0.1-2.9l0.5,0.9l1.4,2.6l6.1,2L26,33l0.6,2.8L29.7,39.4z"></path> <polygon class="st1" points="36.1,49.1 35.7,48.1 31.6,52.9 29.8,55.5 29.7,60 32.8,58.2 36.2,55.9 35.7,53.4 35.6,51.3 "></polygon> <polygon class="st2" points="31.2,41.7 33.8,40.5 35.9,40.1 38,40.1 39.8,40.2 40.6,40.8 40.1,41.8 38.7,43.2 36.5,43.4 33.1,43.3 31.5,42.5 "></polygon> </g> </svg> 