<?xml version="1.0" encoding="UTF-8"?> <!-- Generator: Adobe Illustrator 24.0.2, SVG Export Plug-In . SVG Version: 6.00 Build 0) --> <svg xmlns="http://www.w3.org/2000/svg" xmlns:xlink="http://www.w3.org/1999/xlink" id="Layer_1" x="0px" y="0px" viewBox="0 0 60 60" style="enable-background:new 0 0 60 60;" xml:space="preserve"> <style type="text/css"> .st0{fill:#EEB111;} </style> <g id="Layer_2_1_"> <g id="Layer_1-2"> <path class="st0" d="M60,1.8H49.4c-1.8,0-2.6,0.8-3.1,1.5L38.5,15L30.9,3.6l-0.3-0.4C30.4,3,30.2,2.9,30,2.8l0,0 c-0.2,0-0.4,0.1-0.5,0.4l-0.2,0.4L21.9,15L13.7,3.4c-0.5-0.9-1.3-1.5-3.1-1.5H0v9.5h5.9c1.3,0,1.8,0.1,2.7,1.1L9,13.1l12,18.8 c0.2,0.4,0.6,0.5,1.1,0.6c0.4,0,0.9-0.2,1.1-0.6l7-10.4l0,0l7.2,10.3c0.2,0.4,0.6,0.5,1,0.6c0.4,0,0.8-0.2,1-0.6L51,13l0.3-0.5 c0.6-1,1.4-1.1,2.7-1.1h5.9L60,1.8z"></path> <path class="st0" d="M44.9,28.6l-6.4,10.3l-8.4-12.1l-6.3,9.4l13.4,21.1c0.4,0.8,0.9,1,1,1c0.4,0,0.6-0.2,1.1-1L49.8,38 c0.4-1,1.5-1.5,2.5-1.6h7.6v-9.6H48.1C46.8,26.8,45.5,27.5,44.9,28.6L44.9,28.6z"></path> </g> </g> </svg> 