<?xml version="1.0" encoding="UTF-8"?> <!-- Generator: Adobe Illustrator 24.0.2, SVG Export Plug-In . SVG Version: 6.00 Build 0) --> <svg xmlns="http://www.w3.org/2000/svg" xmlns:xlink="http://www.w3.org/1999/xlink" id="Layer_1" x="0px" y="0px" viewBox="0 0 1161 80" style="enable-background:new 0 0 1161 80;" xml:space="preserve"> <style type="text/css"> .st0{fill:#0D1940;} </style> <g> <path class="st0" d="M50.9,62.8c-5.4,2-11.1,3.2-16.9,3.5c-5.8-0.3-11.5-1.5-16.9-3.5V2.1H0.3v69.2c10.3,5.8,21.9,8.8,33.8,8.7 c11.8,0.1,23.5-2.9,33.8-8.7V2.1H50.9V62.8z"></path> <path class="st0" d="M130,17v11.2h16.8V8.6c-10.3-5.8-21.9-8.8-33.7-8.6c-11.8-0.2-23.4,2.8-33.6,8.6v62.8 c10.3,5.7,21.9,8.6,33.6,8.4c11.8,0.2,23.4-2.7,33.7-8.4v-23H130v14.3c-5.5,1.6-11.2,2.4-16.9,2.4c-5.7,0-11.3-0.8-16.7-2.4V17 c5.4-1.6,11.1-2.5,16.7-2.4C118.8,14.6,124.5,15.4,130,17z"></path> <path class="st0" d="M158.8,8.5v63c10.3,5.7,22,8.6,33.8,8.4c11.8,0.1,23.4-2.8,33.8-8.4v-63C205.2-2.8,179.9-2.8,158.8,8.5z M209.6,62.8c-11,3.2-22.7,3.2-33.8,0V17c5.5-1.7,11.2-2.5,16.9-2.4c5.7,0,11.4,0.8,16.9,2.4V62.8z"></path> <polygon class="st0" points="289.3,55.7 288.9,55.7 255.4,2.1 237.4,2.1 237.4,77.6 252.6,77.6 252.6,24.1 253.1,24.1 286.6,77.6 304.6,77.6 304.6,2.1 289.3,2.1 "></polygon> <polygon class="st0" points="367.5,55.7 367.1,55.7 333.6,2.1 315.6,2.1 315.6,77.6 330.8,77.6 330.8,24.1 331.3,24.1 364.8,77.6 382.9,77.6 382.9,2.1 367.5,2.1 "></polygon> <rect x="410.4" y="2.1" class="st0" width="5.2" height="75.5"></rect> <path class="st0" d="M438.9,21.8L438.9,21.8c-0.1-7.5,5.8-13.6,13.2-13.7c0.2,0,0.5,0,0.7,0c3.9-0.2,7.7,1.3,10.5,4.1l-3.7,4.3 c-1.8-1.8-4.2-2.9-6.8-3c-4.4,0.1-7.8,3.7-7.7,8c0,0.1,0,0.1,0,0.2l0,0c-0.3,4.3,3.1,8.1,7.4,8.3c0.1,0,0.2,0,0.3,0 c2.7,0,5.2-1.2,7-3.1l3.7,3.7c-2.7,3.2-6.7,4.9-10.9,4.7c-7.4,0.2-13.5-5.7-13.7-13.1C438.9,22.2,438.9,22,438.9,21.8z"></path> <path class="st0" d="M466.5,21.8L466.5,21.8c0-7.8,6.3-14.1,14.1-14.1s14.1,6.3,14.1,14.1l0,0c0,7.8-6.3,14.1-14.1,14.1 S466.5,29.6,466.5,21.8z M488.7,21.8L488.7,21.8c0.2-4.4-3.3-8.2-7.7-8.4c-0.1,0-0.2,0-0.3,0c-4.4,0-8,3.5-8,7.9c0,0.1,0,0.2,0,0.4 l0,0c-0.1,4.5,3.4,8.2,7.8,8.3c0.1,0,0.1,0,0.2,0c4.4,0,7.9-3.5,8-7.9C488.7,22,488.7,21.9,488.7,21.8z"></path> <path class="st0" d="M500.4,8.5h5.7v21.2h13.2v5.2h-19.1L500.4,8.5z"></path> <path class="st0" d="M524.3,8.5h5.8v21.2h13.3v5.2h-19.1V8.5z"></path> <path class="st0" d="M548.1,8.5h20.1v5.2H554V19h12.5v5.2H554v5.6h14.4v5.1h-20.2V8.5z"></path> <path class="st0" d="M572.8,21.8L572.8,21.8c-0.1-7.5,5.9-13.7,13.5-13.7c0.2,0,0.3,0,0.5,0c3.8-0.2,7.6,1,10.5,3.5l-3.5,4.5 c-1.9-1.8-4.4-2.8-7-2.7c-4.4,0.2-7.8,3.9-7.6,8.3l0,0c-0.3,4.4,3.1,8.1,7.5,8.4c0.2,0,0.4,0,0.6,0c2,0.1,3.9-0.5,5.5-1.6v-3.6 h-5.9v-5.1h11.5v11.7c-3.2,2.7-7.2,4.2-11.3,4.2c-7.3,0.5-13.7-5.1-14.1-12.4C572.8,22.7,572.8,22.3,572.8,21.8z"></path> <path class="st0" d="M604.1,8.5h20v5.2h-14.2V19h12.5v5.2h-12.5v5.6h14.4v5.1h-20.2V8.5z"></path> <path class="st0" d="M640.5,21.8L640.5,21.8c0-7.8,6.3-14.1,14.1-14.1s14.1,6.3,14.1,14.1l0,0c0,7.6-6.2,13.7-13.8,13.7 c-0.1,0-0.3,0-0.4,0c-7.5,0.3-13.8-5.6-14-13.1C640.5,22.2,640.5,22,640.5,21.8z M662.6,21.8L662.6,21.8c0.2-4.5-3.3-8.2-7.8-8.4 c-0.1,0-0.2,0-0.2,0c-4.4,0-7.9,3.5-8,7.9c0,0.1,0,0.3,0,0.4l0,0c-0.2,4.4,3.3,8.2,7.8,8.3c0.1,0,0.2,0,0.2,0c4.4,0,8-3.5,8-7.9 C662.7,22,662.7,21.9,662.6,21.8L662.6,21.8z"></path> <path class="st0" d="M674.4,8.5h20.1v5.3h-14.4v5.7h12.7v5.3h-12.7v10.2h-5.8L674.4,8.5z"></path> <path class="st0" d="M720.5,8.2h5.3l11.4,26.7h-6.1l-2.4-5.9h-11.2l-2.4,5.9h-5.9L720.5,8.2z M726.7,23.9l-3.5-8.6l-3.5,8.6H726.7z "></path> <path class="st0" d="M738.9,21.8L738.9,21.8c-0.1-7.5,6-13.7,13.5-13.7c0.1,0,0.3,0,0.4,0c3.8-0.2,7.6,1,10.5,3.5l-3.7,4.5 c-1.9-1.8-4.4-2.8-7-2.7c-4.4,0.2-7.8,3.9-7.6,8.3l0,0c-0.3,4.4,3.1,8.1,7.5,8.4c0.2,0,0.4,0,0.6,0c2,0.1,3.9-0.5,5.5-1.6v-3.6 h-5.9v-5.1h11.5v11.7c-3.2,2.7-7.2,4.2-11.4,4.2c-7.3,0.4-13.6-5.3-13.9-12.6C738.9,22.6,738.9,22.2,738.9,21.8z"></path> <path class="st0" d="M770.2,8.5h12.1c2.8-0.2,5.6,0.8,7.7,2.7c1.6,1.6,2.4,3.8,2.3,6.1v0.2c0.2,3.7-2.1,7.1-5.7,8.2l6.5,9.2h-7 l-5.5-8.4h-4.6v8.4h-5.9V8.5z M782,21.4c2.9,0,4.5-1.5,4.5-3.8v-0.1c0-2.5-1.7-3.8-4.6-3.8h-5.8v7.7H782z"></path> <path class="st0" d="M798.3,8.5h5.8v26.4h-5.8V8.5z"></path> <path class="st0" d="M810,21.8L810,21.8c-0.1-7.5,5.8-13.6,13.2-13.7c0.2,0,0.5,0,0.7,0c3.9-0.2,7.7,1.3,10.5,4.1l-3.9,4.2 c-1.8-1.8-4.2-2.9-6.8-3c-4.4,0.1-7.8,3.7-7.7,8c0,0.1,0,0.1,0,0.2l0,0c-0.3,4.3,3.1,8.1,7.4,8.3c0.1,0,0.2,0,0.3,0 c2.7,0,5.2-1.2,7-3.1l3.7,3.7c-2.7,3.2-6.7,5-10.9,4.8c-7.4,0.1-13.4-5.9-13.5-13.3C810,22,810,21.9,810,21.8z"></path> <path class="st0" d="M839.2,23.6V8.5h5.8v15c0,4.3,2.2,6.6,5.8,6.6s5.7-2.2,5.7-6.4V8.5h5.8v15c0,8-4.5,12-11.6,12 c-5.7,0.6-10.9-3.5-11.5-9.3C839.1,25.3,839.1,24.5,839.2,23.6z"></path> <path class="st0" d="M868.9,8.5h5.8v21.2H888v5.2h-19.1V8.5z"></path> <path class="st0" d="M895,14h-8.1V8.5h22V14h-8.1v20.9H895L895,14z"></path> <path class="st0" d="M913.4,23.6V8.5h5.8v15c0,4.3,2.2,6.6,5.8,6.6c3.6,0,5.7-2.2,5.7-6.4V8.5h5.8v15c0,8-4.5,12-11.7,12 c-5.7,0.6-10.9-3.6-11.5-9.3C913.2,25.3,913.2,24.4,913.4,23.6z"></path> <path class="st0" d="M942.9,8.5H955c2.8-0.2,5.6,0.8,7.7,2.7c1.5,1.6,2.4,3.8,2.3,6.1v0.2c0.2,3.7-2.1,7.1-5.7,8.2l6.5,9.2h-7 l-5.5-8.4h-4.6v8.4h-5.8V8.5z M954.6,21.4c2.8,0,4.5-1.5,4.5-3.8v-0.1c0-2.5-1.7-3.8-4.6-3.8h-5.8v7.7H954.6z"></path> <path class="st0" d="M970.7,8.5h20.1v5.2h-14.2V19H989v5.2h-12.5v5.6H991v5.1h-20.2L970.7,8.5z"></path> <path class="st0" d="M994.5,38.8c2.6-0.2,3.9-1.6,3.7-3.8h-2.3v-6.1h6.1v5.1c0.4,3.4-2,6.5-5.4,7c-0.5,0.1-1,0.1-1.6,0L994.5,38.8z "></path> <path class="st0" d="M440.1,45.1h5.9v10.5h10.8V45.1h5.8v26.5h-5.8V61h-10.8v10.6h-5.9V45.1z"></path> <path class="st0" d="M469.3,45.1h20v5.2h-14.2v5.5h12.5V61h-12.5v5.6h14.4v5.2h-20.2L469.3,45.1z"></path> <path class="st0" d="M504.2,44.9h5.3L521,71.7h-6.1l-2.4-5.9h-11.2l-2.4,5.9h-5.9L504.2,44.9z M510.4,60.6l-3.5-8.6l-3.5,8.6H510.4 z"></path> <path class="st0" d="M525.5,45.1h5.8v21.2h13.1v5.3h-19.1L525.5,45.1z"></path> <path class="st0" d="M551.8,50.5h-8.1v-5.4h22v5.4h-8.1v21.2h-5.8V50.5z"></path> <path class="st0" d="M570.6,45.1h5.8v10.5h10.8V45.1h5.9v26.5h-5.9V61h-10.8v10.6h-5.8V45.1z"></path> <path class="st0" d="M620.7,44.9h5.4l11.4,26.8h-6.1l-2.4-5.9h-11.2l-2.4,5.9h-6L620.7,44.9z M626.9,60.6l-3.5-8.6l-3.5,8.6H626.9z "></path> <path class="st0" d="M642.1,45.1h5.4L660,61.5V45.1h5.8v26.5h-5l-13-16.9v16.9h-5.6V45.1z"></path> <path class="st0" d="M672.3,45.1h10.5c7.3-0.5,13.6,5,14.1,12.4c0,0.3,0,0.6,0,0.8l0,0c0,7.3-6,13.3-13.3,13.3c-0.3,0-0.6,0-0.8,0 h-10.5V45.1z M678.2,50.4v15.9h4.5c4.2,0.3,7.8-2.9,8-7.1c0-0.3,0-0.6,0-0.8l0,0c0.2-4.2-3-7.8-7.2-8c-0.3,0-0.5,0-0.8,0 L678.2,50.4z"></path> <path class="st0" d="M714.2,45.1h5.4L732,61.5V45.1h5.8v26.5h-5L720,54.8v16.9h-5.8V45.1z"></path> <path class="st0" d="M753.8,44.9h5.4l11.4,26.8h-6.3l-2.4-5.9h-11.2l-2.4,5.9h-6L753.8,44.9z M759.9,60.6l-3.5-8.6l-3.5,8.6H759.9z "></path> <path class="st0" d="M777.7,50.5h-8.1v-5.4h22v5.4h-8.1v21.2h-5.8L777.7,50.5z"></path> <path class="st0" d="M796.1,60.3V45.1h5.8v15c0,4.3,2.2,6.6,5.7,6.6s5.8-2.2,5.8-6.4V45.1h5.8v15c0,8-4.5,12-11.7,12 c-5.7,0.6-10.9-3.6-11.5-9.3C796,61.9,796,61.1,796.1,60.3z"></path> <path class="st0" d="M825.6,45.1h12.2c2.8-0.2,5.6,0.8,7.7,2.7c1.6,1.6,2.4,3.8,2.3,6.1l0,0c0.2,3.7-2.2,7.1-5.7,8.2l6.5,9.5h-7 l-5.7-8.5h-4.6v8.5h-5.9L825.6,45.1z M837.4,58c2.8,0,4.5-1.5,4.5-3.8l0,0c0-2.5-1.7-3.8-4.6-3.8h-5.8v7.6L837.4,58z"></path> <path class="st0" d="M862.5,44.9h5.4l11.4,26.8h-6.1l-2.4-5.9h-11.2l-2.4,5.9h-6L862.5,44.9z M868.9,60.6l-3.5-8.6l-3.5,8.6H868.9z "></path> <path class="st0" d="M883.8,45.1h6v21.2H903v5.3h-19.1L883.8,45.1z"></path> <path class="st0" d="M919.5,45.1h12.2c2.8-0.2,5.6,0.8,7.7,2.7c1.6,1.6,2.4,3.8,2.3,6.1l0,0c0.2,3.7-2.2,7.1-5.7,8.2l6.5,9.5h-6.8 l-5.7-8.5h-4.6v8.5h-5.9V45.1z M931.2,58c2.8,0,4.5-1.5,4.5-3.8l0,0c0-2.5-1.7-3.8-4.6-3.8h-5.8v7.6L931.2,58z"></path> <path class="st0" d="M947.3,45.1h20.1v5.2h-14.2v5.5h12.5V61h-12.5v5.6h14.4v5.2h-20.2L947.3,45.1z"></path> <path class="st0" d="M971.3,67.8l3.5-4.1c2.2,2,5,3.1,7.9,3.2c2.4,0,3.8-0.9,3.8-2.5l0,0c0-1.5-0.9-2.2-5.3-3.5 c-5.3-1.4-8.8-2.8-8.8-8.1l0,0c0.1-4.6,3.9-8.2,8.5-8.1c0.3,0,0.5,0,0.8,0.1c3.6,0,7.1,1.2,9.9,3.5l-3,4.4c-2-1.6-4.4-2.5-7-2.6 c-2.2,0-3.5,1-3.5,2.3l0,0c0,1.8,1.2,2.3,5.7,3.5c5.4,1.4,8.4,3.5,8.4,8l0,0c0,5.3-4,8.2-9.8,8.2C978.3,72,974.4,70.5,971.3,67.8z"></path> <path class="st0" d="M996.6,58.5L996.6,58.5c0-7.8,6.3-14.1,14.1-14.1c7.8,0,14.1,6.3,14.1,14.1l0,0c0,7.8-6.3,14.1-14.1,14.1 C1002.9,72.6,996.6,66.3,996.6,58.5z M1018.7,58.5L1018.7,58.5c0.2-4.4-3.3-8.2-7.7-8.4c-0.1,0-0.2,0-0.3,0c-4.4,0-8,3.5-8,7.9 c0,0.1,0,0.2,0,0.4l0,0c-0.1,4.5,3.4,8.2,7.8,8.3c0.1,0,0.1,0,0.2,0c4.4,0.1,8-3.4,8.1-7.7c0-0.2,0-0.3,0-0.5H1018.7z"></path> <path class="st0" d="M1030,60.3V45.1h5.9v15c0,4.3,2.2,6.6,5.7,6.6s5.7-2.2,5.7-6.4V45.1h5.9v15c0.7,5.8-3.4,11.2-9.2,11.9 c-0.8,0.1-1.6,0.1-2.4,0c-5.7,0.6-10.9-3.5-11.5-9.3C1029.9,62,1029.9,61.1,1030,60.3z"></path> <path class="st0" d="M1059.5,45.1h12.1c2.8-0.2,5.6,0.8,7.7,2.7c1.5,1.6,2.4,3.8,2.3,6.1l0,0c0.2,3.7-2.1,7.1-5.7,8.2l6.5,9.5h-7 l-5.7-8.5h-4.6v8.5h-5.8L1059.5,45.1z M1071.3,58c2.9,0,4.5-1.5,4.5-3.8l0,0c0-2.5-1.7-3.8-4.6-3.8h-5.8v7.6L1071.3,58z"></path> <path class="st0" d="M1086.2,58.5L1086.2,58.5c-0.1-7.5,5.8-13.6,13.2-13.7c0.2,0,0.5,0,0.7,0c3.9-0.2,7.7,1.3,10.5,4.1l-3.7,4.3 c-1.8-1.8-4.2-2.9-6.8-3c-4.4,0.1-7.8,3.7-7.7,8c0,0.1,0,0.1,0,0.2l0,0c-0.3,4.3,3.1,8.1,7.4,8.3c0.1,0,0.2,0,0.3,0 c2.7,0,5.2-1.2,7-3.1l3.7,3.7c-2.7,3.2-6.7,4.9-10.9,4.7c-7.4,0.2-13.5-5.6-13.7-13C1086.2,58.9,1086.2,58.7,1086.2,58.5z"></path> <path class="st0" d="M1115.8,45.1h20v5.2h-14.2v5.5h12.4V61h-12.5v5.6h14.4v5.2h-20.2L1115.8,45.1z"></path> <path class="st0" d="M1139.8,67.8l3.5-4.1c2.2,2,5,3.1,7.9,3.2c2.4,0,3.8-0.9,3.8-2.5l0,0c0-1.5-0.9-2.2-5.3-3.5 c-5.4-1.4-8.8-2.8-8.8-8.1l0,0c0.1-4.6,3.9-8.2,8.5-8.1c0.3,0,0.5,0,0.8,0.1c3.6,0,7.1,1.2,9.9,3.5l-3,4.4c-2-1.6-4.4-2.5-7-2.6 c-2.2,0-3.5,1-3.5,2.3l0,0c0,1.8,1.1,2.3,5.7,3.5c5.4,1.4,8.4,3.5,8.4,8l0,0c0,5.3-4,8.2-9.8,8.2 C1146.8,72,1142.8,70.5,1139.8,67.8z"></path> </g> </svg> 