<?xml version="1.0" encoding="UTF-8"?> <!-- Generator: Adobe Illustrator 24.0.2, SVG Export Plug-In . SVG Version: 6.00 Build 0) --> <svg xmlns="http://www.w3.org/2000/svg" xmlns:xlink="http://www.w3.org/1999/xlink" id="Layer_1" x="0px" y="0px" viewBox="0 0 60 60" style="enable-background:new 0 0 60 60;" xml:space="preserve"> <style type="text/css"> .st0{fill:#0056A4;} .st1{fill:#FFFFFF;} </style> <g> <path class="st0" d="M5.2,0h49.5v33.1c0,0-1.4,10.6-8.5,17.4s-16,9.5-16,9.5s-8.6-1.9-16.2-8.9s-8.9-18-8.9-18V0z"></path> <path class="st1" d="M11,5.8h19v7.1h5.1v9.6h3.6v-9.6h5.6v24.7h-5.2L38.7,28h-3.5v9.6H30V54c0,0-6.6-1.4-12.8-7.8S11,33.1,11,33.1 V5.8z"></path> <polygon class="st0" points="25,23.7 25,12.9 30,12.9 30,37.6 25,37.6 20.9,25.2 20.9,37.6 15.9,37.6 15.9,12.9 21.1,12.9 "></polygon> </g> </svg> 