<?xml version="1.0" encoding="UTF-8"?> <!-- Generator: Adobe Illustrator 24.0.2, SVG Export Plug-In . SVG Version: 6.00 Build 0) --> <svg xmlns="http://www.w3.org/2000/svg" xmlns:xlink="http://www.w3.org/1999/xlink" id="Layer_1" x="0px" y="0px" viewBox="0 0 60 60" style="enable-background:new 0 0 60 60;" xml:space="preserve"> <style type="text/css"> .st0{fill:#426D61;} </style> <g> <polygon class="st0" points="33.9,23.2 32.6,23.2 30.3,9.6 31.6,23.2 30,23.2 30,7.6 "></polygon> <polygon class="st0" points="35.7,26 35.7,25.4 34.6,24.3 25.3,24.3 24.3,25.4 24.3,26 "></polygon> <path class="st0" d="M29.6,34.1h-1.9v-4.8c0-0.5,0.5-1,1.1-0.9c0.4,0,0.9,0.4,0.9,0.9V34.1z"></path> <path class="st0" d="M26.8,34.1h-1.9v-4.8c0-0.5,0.4-1,1-1c0.5,0,1,0.4,1,1V34.1z"></path> <path class="st0" d="M35.1,34.1h-1.9v-4.8c0-0.5,0.4-1,1-1c0.5,0,1,0.4,1,1L35.1,34.1z"></path> <path class="st0" d="M32.2,34.1h-1.9v-4.8c0-0.5,0.5-1,1.1-0.9c0.4,0,0.9,0.4,0.9,0.9V34.1z"></path> <polygon class="st0" points="36.2,36.1 35.5,34.7 24.5,34.7 23.8,36.1 "></polygon> <path class="st0" d="M27.5,49.3h-2v-3c0.1-0.5,0.6-1,1.2-0.9c0.4,0.1,0.9,0.4,0.9,0.9V49.3z"></path> <path class="st0" d="M34.4,49.3h-2v-3c0.1-0.5,0.6-1,1.2-0.9c0.4,0.1,0.9,0.4,0.9,0.9C34.4,46.3,34.4,49.3,34.4,49.3z"></path> <path class="st0" d="M31.2,49.3h-2.6V44c0,0,0-1.1,1.4-1.1c1.4,0,1.4,1.1,1.4,1.1L31.2,49.3z"></path> <polygon class="st0" points="20.9,49.3 22.5,49.3 30,38.9 37.5,49.3 39,49.3 30,37.1 "></polygon> <polygon class="st0" points="16.2,51.3 43.8,51.3 44.5,50.4 15.5,50.4 "></polygon> <path class="st0" d="M29.5,56.1h-3.5v-2.8c1.1-0.5,2.2-0.9,3.5-0.9V56.1z"></path> <path class="st0" d="M30.5,56.1h3.3v-2.8c-1.1-0.5-2.2-0.9-3.5-0.9L30.5,56.1z"></path> <rect x="25.9" y="57" class="st0" width="3.5" height="2.7"></rect> <rect x="30.5" y="57" class="st0" width="3.5" height="2.7"></rect> <path class="st0" d="M24.9,56.1h-2.6c0.9-0.9,1.6-1.6,2.6-2.1"></path> <path class="st0" d="M24.9,59.7V57h-3.3c-0.6,0.9-1.1,1.7-1.5,2.7H24.9"></path> <path class="st0" d="M34.9,56.1h2.6c-0.9-0.9-1.6-1.6-2.6-2.1"></path> <path class="st0" d="M34.9,59.7V57h3.5c0.6,0.9,1.1,1.7,1.5,2.7H34.9"></path> <path class="st0" d="M4.9,0v60h50.2V0H4.9z M15.1,56.1v-2.5l-0.6-0.5v-2.6l-1.1-0.6v-0.6h6.3l2.8-3.8l1.4-8l-1.1-1.4l1.1-2v-6.3 l-1.4-0.6V26l2.1-2.6l0.3-0.3l4.2-15.2l-0.6-0.4l1.2-2.1c-0.3-0.1-0.5-0.4-0.5-0.9c0-0.4,0.3-1,0.6-1c0.4,0,1,0.3,1,0.6 c0,0.1,0,0.1,0,0.3c0,0.4-0.3,0.6-0.5,0.9l1.2,2.1l-0.6,0.4l4.2,15l0.3,0.3l2.2,2.6v1.1l-1.4,0.6v6.3l1.1,2l-1.1,1.4l1.4,8l2.8,3.8 h6.3v0.6l-1.1,0.6v2.6l-0.7,0.6V56l-1,0.6v2.8H16.2v-2.8L15.1,56.1z"></path> </g> </svg> 