<?xml version="1.0" encoding="UTF-8"?> <!-- Generator: Adobe Illustrator 24.0.2, SVG Export Plug-In . SVG Version: 6.00 Build 0) --> <svg xmlns="http://www.w3.org/2000/svg" xmlns:xlink="http://www.w3.org/1999/xlink" id="Layer_1" x="0px" y="0px" viewBox="0 0 300 80" style="enable-background:new 0 0 300 80;" xml:space="preserve"> <style type="text/css"> .st0{fill:#E21D39;} .st1{fill-rule:evenodd;clip-rule:evenodd;fill:#E21D39;} </style> <g> <g id="long_name_1_"> <path class="st0" d="M106.8,59.9h-1.3l-0.1-0.1c-0.5-0.8-0.9-1.7-1.4-2.5l-4-7.7c0,1.3,0,9,0.1,10.2l-0.1,0.1c-0.3,0-0.5,0-0.8,0 l-0.1-0.1c0-1,0-1.9,0-2.9c0-1,0-7.4-0.1-8l0.1-0.1c0.4,0,0.9,0,1.3,0l0.1,0.1c1.9,3.5,2.6,4.9,5.5,10.2c0-1.4-0.1-9.3-0.2-10.2 l0.1-0.1c0.2,0,0.6,0,0.8,0l0.1,0.1c0,0.8,0,1.5,0,2.3c0,1.2,0,2.4,0,3.5c0,1.7,0.1,3.4,0.1,5.2L106.8,59.9z"></path> <path class="st0" d="M115.8,55.8h-5.5v0.1c0,0.7,0.2,1.5,0.5,2.1c0.5,0.8,1.4,1.3,2.3,1.3c0.9,0,1.8-0.4,2.4-1l0.1,0.1 c0,0.3,0,0.6-0.1,0.9l-0.1,0.2c-0.7,0.5-1.6,0.8-2.5,0.8c-2.2,0-3.6-1.6-3.6-4.2c0-0.7,0.1-1.3,0.3-1.9c0.4-1.4,1.7-2.3,3.1-2.2 c1.4,0,3.1,0.8,3.1,3.9v0.1L115.8,55.8z M114.9,55.1c0-0.2,0-0.4,0-0.5c-0.1-1.1-1-2-2.1-2c-0.4,0-0.8,0.1-1.2,0.3 c-0.7,0.5-1.2,1.3-1.2,2.2L114.9,55.1z"></path> <path class="st0" d="M125.3,59.9c-0.4,0-0.8,0-1.2,0l-0.1-0.1c-0.4-1.6-1-3.9-1.9-7.3c-1.2,5.1-1.5,6.2-1.7,7.3l-0.1,0.1h-1.2 l-0.1-0.1c-0.1-0.6-1.3-5.1-2-7.8l0.1-0.1c0.1,0,0.6,0,0.9,0l0.1,0.1c0.1,0.7,0.3,1.5,1.7,7.3c1.4-5.9,1.6-6.6,1.8-7.2l0.1-0.1 h1.2l0.1,0.1c0.2,0.9,0.4,1.8,1.8,7.1c1.2-5.2,1.5-6.2,1.6-7.1l0.1-0.1h0.4h0.4l0.1,0.1c-0.1,0.5-1.2,4.7-2,7.8L125.3,59.9z"></path> <path class="st0" d="M133.2,59.7c0-0.3,0-0.5,0-0.8l0.1-0.1c0.4,0.3,0.8,0.4,1.2,0.4c0.3,0,0.6-0.1,0.8-0.3c0.5-0.4,0.6-1,0.6-2.1 c0-0.9-0.1-7-0.1-7.9l0.1-0.1c0.3,0,0.6,0,0.9,0l0.1,0.1c0,2.5,0,3.4,0,3.6c0,1.5,0.1,2.9,0.1,4.5c0,0.6-0.1,1.2-0.2,1.8 c-0.4,0.8-1.2,1.4-2.1,1.3c-0.4,0-0.8-0.1-1.2-0.3L133.2,59.7z"></path> <path class="st0" d="M145.7,55.8h-5.5v0.1c0,0.7,0.2,1.5,0.5,2.1c0.5,0.8,1.4,1.3,2.3,1.3c0.9,0,1.8-0.4,2.4-1l0.1,0.1 c0,0.3,0,0.6-0.1,0.9l-0.1,0.2c-0.7,0.5-1.6,0.8-2.5,0.8c-2.2,0-3.6-1.6-3.6-4.2c0-0.7,0.1-1.3,0.3-1.9c0.4-1.4,1.7-2.3,3.1-2.2 c1.4,0,3.1,0.8,3.1,3.9v0.1L145.7,55.8z M144.8,55.1c0-0.2,0-0.4,0-0.5c-0.1-1.1-1-2-2.1-2c-0.4,0-0.8,0.1-1.2,0.3 c-0.7,0.5-1.2,1.3-1.2,2.2L144.8,55.1z"></path> <path class="st0" d="M151.1,53c-0.2-0.1-0.4-0.2-0.6-0.2c-0.5,0-1,0.3-1.2,0.8c-0.3,0.8-0.4,1.6-0.3,2.5c0,1.2,0,2.6,0.1,3.8 l-0.1,0.1h-0.9l-0.1-0.1c0-0.9,0-1.7,0-2.6c0-2.9,0-4-0.1-5.2l0.1-0.1c0.3,0,0.6-0.1,0.9-0.1l0.1,0.1c0,0.4,0,0.8,0,1.2 c0.2-0.8,0.8-1.3,1.6-1.4c0.2,0,0.5,0.1,0.7,0.2l0.1,0.1c0,0.2-0.1,0.6-0.1,0.8L151.1,53z"></path> <path class="st0" d="M157.1,53.3c-0.5-0.5-1.2-0.7-1.9-0.7c-0.8,0-1.7,0.4-1.7,1.4c0,0.8,0.5,1.1,1.5,1.3l0.8,0.2 c1.1,0.2,1.9,1.1,1.9,2.1c0,1.1-0.7,2.5-2.8,2.5c-0.8,0-1.5-0.2-2.2-0.6l-0.1-0.1c0.1-0.3,0.1-0.6,0.1-0.9l0.1,0 c0.5,0.6,1.3,0.9,2.1,0.9c0.9,0,1.9-0.4,1.9-1.6c0-0.8-0.4-1.1-1.6-1.5l-0.7-0.2c-0.7-0.2-1.9-0.6-1.9-2.1c0-1.7,1.6-2.2,2.7-2.2 c0.7,0,1.4,0.2,2,0.5l0.1,0.1C157.3,52.5,157.2,52.9,157.1,53.3L157.1,53.3z"></path> <path class="st0" d="M165.9,55.8h-5.5v0.1c0,0.7,0.2,1.5,0.5,2.1c0.5,0.8,1.4,1.3,2.3,1.3c0.9,0,1.8-0.4,2.4-1l0.1,0.1 c0,0.3,0,0.6-0.1,0.9l-0.1,0.2c-0.7,0.5-1.6,0.8-2.5,0.8c-2.2,0-3.6-1.6-3.6-4.2c0-0.7,0.1-1.3,0.3-1.9c0.4-1.4,1.7-2.3,3.1-2.2 c1.4,0,3.1,0.8,3.1,3.9v0.1L165.9,55.8z M165,55.1c0-0.1,0-0.3,0-0.5c-0.1-1.1-1-2-2.2-2c-0.4,0-0.8,0.1-1.2,0.3 c-0.7,0.5-1.2,1.3-1.2,2.2L165,55.1z"></path> <path class="st0" d="M173.6,52c-0.2,0.4-0.7,1.9-2,5.6c-0.7,2-1.4,4-1.9,6l-0.1,0.1h-0.7h-0.3l-0.1-0.1c0.5-1.2,1-2.5,1.4-3.8 c-0.5-1.3-0.9-2.6-1.4-4c-0.2-0.4-1.2-3.3-1.4-3.7l0.1-0.1c0.3,0,0.6,0,0.9-0.1l0.1,0.1c0.4,1.2,0.8,2.4,1.2,3.6l1,3 c1.6-4.7,1.8-5.5,2-6.5l0.1-0.1h0.8L173.6,52z"></path> <path class="st0" d="M186.3,59.9c-0.2-1-0.5-2-1-3.6h-4l-0.2,0.6c-0.3,1-0.6,2-0.8,3l-0.1,0.1c-0.1,0-0.3,0-0.4,0 c-0.1,0-0.3,0-0.4,0l-0.1-0.1c1.1-3.1,2.3-7.4,3.4-10.9l0.1-0.1c0.4,0,1,0,1.2,0l0.1,0.1c0.7,2.1,2.2,7.3,3.4,10.9l-0.1,0.1h-1 L186.3,59.9z M183.3,49.4l-1.8,6c0.6,0,1.2,0,1.8,0c0.6,0,1.2,0,1.8,0L183.3,49.4z"></path> <path class="st0" d="M195.1,52c0,0.1,0,0.5-0.1,0.6l-0.1,0.1c-0.3,0-1-0.1-1.5-0.1c0.6,0.5,1,1.3,1,2.1c0,1.5-1.1,2.7-2.6,2.7 c-0.1,0-0.1,0-0.2,0c-0.2,0-0.5,0-0.7-0.1c-0.2,0.3-0.3,0.6-0.5,0.8L193,59c1.1,0.2,1.9,1.2,1.9,2.3c0,1.4-1.2,2.6-3.1,2.6 s-3.1-1.1-3.1-2.5c0.1-1,0.6-1.8,1.4-2.4c-0.2-0.1-0.4-0.2-0.6-0.3l0-0.2c0.3-0.5,0.6-0.9,0.8-1.4c-0.9-0.5-1.4-1.4-1.4-2.4 c0-1.4,0.8-2.9,3.1-2.9c0.8,0,1,0,1.2,0L195.1,52L195.1,52z M189.6,61.2c0,0.7,0.5,1.9,2.2,1.9c1.3,0,2.1-0.7,2.1-1.8 c0-0.6-0.2-1.2-1.8-1.7l-1.5-0.5C190.1,59.7,189.6,60.4,189.6,61.2z M191.7,52.7c-1.1,0-1.9,0.8-2,1.8c0,0.1,0,0.2,0,0.2 c-0.1,1,0.7,1.9,1.7,2c0.1,0,0.1,0,0.2,0c1,0,1.9-0.8,1.9-1.9c0-0.1,0-0.1,0-0.2c0.1-1-0.7-1.9-1.7-2 C191.8,52.7,191.8,52.7,191.7,52.7z"></path> <path class="st0" d="M200,53c-0.2-0.1-0.4-0.2-0.6-0.2c-0.5,0-1,0.3-1.2,0.8c-0.3,0.8-0.4,1.6-0.3,2.5c0,1.2,0,2.6,0.1,3.8 l-0.1,0.1H197l-0.1-0.1c0-0.9,0-1.7,0-2.6c0-2.9,0-4-0.1-5.2L197,52c0.3,0,0.6-0.1,0.9-0.1l0.1,0.1c0,0.4,0,0.8,0,1.2 c0.2-0.8,0.8-1.3,1.6-1.4c0.2,0,0.5,0.1,0.7,0.2l0.1,0.1c0,0.2-0.1,0.6-0.1,0.8L200,53z"></path> <path class="st0" d="M201.8,49.3c0-0.3,0-0.8,0-1l0.1-0.1c0.3,0,0.6-0.1,0.9-0.1l0.1,0.1c0,0.3,0,0.8,0,1l-0.1,0.1 c-0.1,0-0.6,0.1-0.9,0.1L201.8,49.3z M202.9,60H202l-0.1-0.1c0-0.4,0-1.5,0-2c0-1.2,0-3.9-0.1-5.8l0.1-0.1l0.9-0.1l0.1,0.1 c0,0.7,0,1.1,0,1.7c0,2,0.1,4.2,0.1,6.2L202.9,60z"></path> <path class="st0" d="M211,58.5c0,0.3-0.1,0.6-0.1,0.9l-0.1,0.2c-0.6,0.4-1.3,0.6-2,0.6c-0.5,0-1.1-0.1-1.6-0.4 c-0.8-0.4-1.9-1.4-1.9-3.7c0-2.3,1.2-4.3,3.6-4.3c0.7,0,1.3,0.2,1.9,0.5l0.1,0.1c0,0.1-0.1,0.6-0.1,0.9l-0.1,0.1 c-0.4-0.5-1.1-0.8-1.7-0.8c-1,0-2.7,0.7-2.7,3.4c0,2,1,3.3,2.6,3.3c0.8,0,1.5-0.3,2-0.9L211,58.5z"></path> <path class="st0" d="M218.7,60l-0.8,0.1l-0.1-0.1c0-0.3,0-0.8,0-0.8c-0.7,0.7-1.6,1-2.5,1c-1.1,0.1-2.1-0.6-2.4-1.7 c-0.2-0.9-0.2-1.8-0.1-2.6v-1.2c0-0.9,0-1.7-0.1-2.6l0.1-0.1c0.2,0,0.7,0,0.9,0l0.1,0.1c0,1-0.1,2-0.1,3v1.5c0,1.7,0.2,2,0.5,2.4 c0.3,0.4,0.8,0.6,1.3,0.6c0.9,0,1.7-0.4,2.2-1c0-1.5,0-2.9,0-4.4c0-0.6,0-1.3-0.1-1.9l0.1-0.1c0.3,0,0.6,0,0.8,0l0.1,0.1 c0,0.6,0,1.2,0,1.8C218.6,55.8,218.6,57.9,218.7,60L218.7,60z"></path> <path class="st0" d="M222.4,60h-0.8l-0.1-0.1v-7.5c0-1.5,0-3.1-0.1-4.6l0.1-0.1c0.1,0,0.6-0.1,0.9-0.2l0.1,0.1c0,1.4,0,2.8,0,4.1 c0,5.9,0.1,7.2,0.1,8.2L222.4,60z"></path> <path class="st0" d="M228,52.7c-0.3,0-1.1,0-1.6,0v4.7c0,0.4,0,0.9,0.1,1.3c0.1,0.2,0.2,0.5,0.8,0.5c0.2,0,0.5-0.1,0.7-0.2 l0.1,0.1c0,0.1,0,0.5,0,0.7l-0.1,0.1c-0.3,0.1-0.5,0.1-0.8,0.1c-0.5,0-1-0.2-1.4-0.6c-0.3-0.6-0.4-1.2-0.4-1.9c0-0.9,0-2.2,0-3.5 v-1.4c-0.2,0-0.9,0-1.2,0l-0.1-0.1c0-0.2,0-0.4,0-0.6l0.1-0.1c0.3,0,0.9,0,1.2,0c0-0.7,0-1.4-0.1-1.9l0.1-0.1 c0.3-0.1,0.6-0.2,0.8-0.2l0.1,0.1c0,0.4,0,1.2-0.1,2.1c0.4,0,1.4,0,1.7,0l0.1,0.1C228.1,52.1,228.1,52.3,228,52.7L228,52.7z"></path> <path class="st0" d="M235.7,60l-0.8,0.1l-0.1-0.1c0-0.3,0-0.8,0-0.8c-0.7,0.7-1.6,1-2.5,1c-1.1,0.1-2.1-0.6-2.4-1.7 c-0.2-0.9-0.2-1.8-0.1-2.6v-1.2c0-0.9,0-1.7-0.1-2.6l0.1-0.1c0.2,0,0.7,0,0.9,0l0.1,0.1c0,1-0.1,2-0.1,3v1.5c0,1.7,0.2,2,0.5,2.4 c0.3,0.4,0.8,0.6,1.3,0.6c0.9,0,1.7-0.4,2.2-1c0-1.5,0-2.9,0-4.4c0-0.6,0-1.3-0.1-1.9l0.1-0.1c0.3,0,0.6,0,0.8,0l0.1,0.1 c0,0.6,0,1.2,0,1.8C235.7,55.8,235.7,57.9,235.7,60L235.7,60z"></path> <path class="st0" d="M241.6,53c-0.2-0.1-0.4-0.2-0.6-0.2c-0.5,0-1,0.3-1.2,0.8c-0.3,0.8-0.4,1.6-0.3,2.5c0,1.2,0,2.6,0.1,3.8 l-0.1,0.1h-0.9l-0.1-0.1c0-0.9,0-1.7,0-2.6c0-2.9,0-4-0.1-5.2l0.1-0.1c0.3,0,0.6-0.1,0.9-0.1l0.1,0.1c0,0.4,0,0.8,0,1.2 c0.2-0.8,0.8-1.3,1.6-1.4c0.2,0,0.5,0.1,0.7,0.2l0.1,0.1c0,0.2-0.1,0.6-0.1,0.8L241.6,53z"></path> <path class="st0" d="M247.6,59.9c0,0,0-0.4,0-0.5c-0.6,0.5-1.3,0.8-2.1,0.8c-1.3,0.1-2.4-1-2.4-2.3c0-0.1,0-0.2,0-0.3 c0-2.2,1.9-2.6,3.3-2.8l1.3-0.2v-0.3c0-1-0.3-1.6-1.6-1.6c-0.7,0-1.4,0.2-2,0.6l-0.1-0.1c0-0.1,0-0.6,0-0.7l0.1-0.1 c0.7-0.3,1.4-0.5,2.2-0.5c1.8,0,2.4,1,2.4,2.1v4c0,0.6,0.1,1.3,0.1,1.9l-0.1,0.1c-0.1,0-0.5,0-0.8,0L247.6,59.9z M247.6,55.3 c-1.8,0.3-2.5,0.5-3,0.9c-0.4,0.3-0.7,0.8-0.7,1.4c0,0.9,0.7,1.7,1.6,1.8c0,0,0.1,0,0.1,0c0.7,0,1.4-0.3,1.9-0.8L247.6,55.3z"></path> <path class="st0" d="M252.2,60h-0.8l-0.1-0.1v-7.5c0-1.5,0-3.1-0.1-4.6l0.1-0.1c0.1,0,0.6-0.1,0.9-0.2l0.1,0.1 c0,1.4-0.1,2.8-0.1,4.1C252.2,57.7,252.3,59,252.2,60L252.2,60z"></path> <path class="st0" d="M101.5,70.6c1,0,2,0,3.1,0l0.1,0.1c0,0.2,0,0.5,0,0.7l-0.1,0.1c-0.6,0-0.8,0-1.6,0h-2.8c0,1.5,0,3.2,0.1,4.5 c2.9,0,3,0,4.8-0.1L105,76l0,0.7l-0.1,0.1h-1.7h-2.6c-0.4,0-0.9,0-1.3,0.1l-0.1-0.1c0-0.8,0-1.6,0-2.4c0-1.1,0-2.2,0-3.3 c0-0.6-0.1-4.6-0.1-5.2l0.1-0.1c0.5,0,1.2,0,1.9,0h1.7c0.4,0,1.4,0,2.1,0l0.1,0.1c0,0.2,0,0.5,0,0.8l-0.1,0.1 c-1.3,0-2.6,0-4.7-0.1c0,0.3,0,1,0,1.8v2.2L101.5,70.6z"></path> <path class="st0" d="M111.9,68.9c-0.4,0.7-0.8,1.4-2.2,3.7c0.7,1.3,2.4,4.1,2.4,4.1l-0.1,0.1c-0.3,0-0.8,0-0.9,0l-0.1-0.1 c-0.3-0.7-0.7-1.3-1.8-3.3c-1.2,2.1-1.5,2.6-1.8,3.2l-0.2,0.1h-0.4h-0.5l-0.1-0.1c0.6-1,1.3-2,2.5-4c-1.4-2.5-1.8-3.1-2.2-3.8 l0.1-0.1c0.1,0,0.6,0,0.9,0l0.1,0.1c0.3,0.6,0.6,1.1,1.6,3c0.9-1.6,1.2-2.3,1.6-3l0.1-0.1h0.5h0.4L111.9,68.9z"></path> <path class="st0" d="M114.7,80.5h-0.9l-0.1-0.1c0-1.9,0-3.7,0-5.6s0-3.9-0.1-5.8l0.1-0.1c0.3,0,0.7-0.1,0.9-0.1l0.1,0.1 c0,0.3,0,0.7,0,0.7c0.6-0.6,1.4-0.9,2.2-0.9c2,0,3.2,1.7,3.2,3.9c0,2-1.1,4.4-4.4,4.4c-0.3,0-0.8,0-1.1,0c0,1.2,0,2.4,0.1,3.6 L114.7,80.5z M114.7,76c0.3,0,0.6,0.1,0.9,0.1c3,0,3.6-2.1,3.6-3.5c0-1.6-0.8-3-2.4-3c-0.8,0-1.6,0.4-2.1,1L114.7,76z"></path> <path class="st0" d="M128.4,72.7H123v0.1c0,0.7,0.2,1.5,0.5,2.1c0.5,0.8,1.4,1.3,2.3,1.3c0.9,0,1.8-0.4,2.4-1l0.1,0.1 c0,0.3,0,0.6-0.1,0.9l-0.1,0.2c-0.7,0.5-1.6,0.8-2.5,0.8c-2.2,0-3.7-1.6-3.7-4.2c0-0.7,0.1-1.3,0.3-1.9c0.4-1.4,1.7-2.3,3.1-2.2 c1.4,0,3.1,0.8,3.1,3.9v0.1L128.4,72.7z M127.6,71.9c0-0.2,0-0.4,0-0.6c-0.1-1.1-1-2-2.1-2c-0.4,0-0.8,0.1-1.2,0.3 c-0.7,0.5-1.2,1.3-1.2,2.2L127.6,71.9z"></path> <path class="st0" d="M133.9,69.8c-0.2-0.1-0.4-0.2-0.6-0.2c-0.5,0-1,0.3-1.2,0.8c-0.3,0.8-0.4,1.6-0.3,2.5c0,1.2,0,2.6,0.1,3.8 l-0.1,0.1h-0.9l-0.1-0.1c0-0.9,0-1.7,0-2.6c0-2.9,0-4-0.1-5.2l0.1-0.1c0.3,0,0.6-0.1,0.9-0.1l0.1,0.1c0,0.4,0,0.8,0,1.2 c0.2-0.8,0.8-1.3,1.6-1.4c0.2,0,0.5,0.1,0.7,0.2l0.1,0.1c0,0.2-0.1,0.6-0.1,0.8L133.9,69.8z"></path> <path class="st0" d="M135.6,66.1c0-0.3,0-0.8,0-1l0.1-0.1c0.3,0,0.6-0.1,0.9-0.1l0.1,0.1c0,0.3,0,0.8,0,1l-0.1,0.1 c-0.1,0-0.6,0.1-0.9,0.1L135.6,66.1z M136.8,76.8h-0.9l-0.1-0.1c0-0.4,0-1.5,0-2c0-1.2,0-3.9-0.1-5.8l0.1-0.1l0.9-0.1l0.1,0.1 c0,0.7,0,1.1,0,1.7c0,2,0.1,4.2,0.1,6.2L136.8,76.8z"></path> <path class="st0" d="M139.6,76.8c0-0.7,0-1.2,0-1.9c0-1.1,0-4.7-0.2-5.8l0.1-0.1c0.3-0.1,0.6-0.1,0.9-0.2l0.1,0.1v0.9 c0.7-0.6,1.6-1,2.5-1.1c0.8,0,1.5,0.5,1.9,1.2c0.8-0.7,1.8-1.2,2.8-1.2c0.6,0,1.1,0.2,1.6,0.6c0.7,0.7,0.7,1.6,0.7,3 c0,0.7,0,3.5,0.1,4.5l-0.1,0.1c-0.3,0-0.6,0-0.8,0l-0.1-0.1c0-1,0-1.8,0-2.8v-1.3c0.1-0.8,0-1.7-0.3-2.5c-0.3-0.4-0.8-0.7-1.3-0.6 c-0.9,0.1-1.7,0.4-2.3,1.1c0.1,0.5,0.1,1,0.1,1.5c0,0.7,0.1,4.1,0.1,4.7l-0.1,0.1c-0.3,0-0.5,0-0.8,0l-0.1-0.1c0-0.7,0-1.2,0-1.9 c0-1.7,0-3.5-0.1-4c0-0.8-0.7-1.4-1.5-1.4c0,0,0,0,0,0c-0.8,0.1-1.6,0.4-2.2,1c0,2.6,0.1,5.5,0.1,6.2l-0.1,0.1 C140.3,76.8,139.8,76.8,139.6,76.8L139.6,76.8z"></path> <path class="st0" d="M158.7,72.7h-5.5v0.1c0,0.7,0.2,1.5,0.5,2.1c0.5,0.8,1.4,1.3,2.3,1.3c0.9,0,1.8-0.4,2.4-1l0.1,0.1 c0,0.3,0,0.6-0.1,0.9l-0.1,0.2c-0.7,0.5-1.6,0.8-2.5,0.8c-2.2,0-3.6-1.6-3.6-4.2c0-0.7,0.1-1.3,0.3-1.9c0.4-1.4,1.7-2.3,3.1-2.2 c1.4,0,3.1,0.8,3.1,3.9v0.1L158.7,72.7z M157.9,71.9c0-0.2,0-0.4,0-0.5c-0.1-1.1-1-2-2.1-2c-0.4,0-0.8,0.1-1.2,0.3 c-0.7,0.5-1.2,1.3-1.2,2.2L157.9,71.9z"></path> <path class="st0" d="M161.1,76.8c0-0.4,0-1.4,0-2.1c0-0.5,0-2.6,0-3c0-0.3,0-1.8-0.1-2.7l0.1-0.1c0.3-0.1,0.6-0.1,0.9-0.2l0.1,0.1 c0,0.2-0.1,0.5-0.1,0.8c0.8-0.6,1.7-1,2.7-1c0.8-0.1,1.6,0.4,2,1.1c0.3,0.7,0.4,1.5,0.3,2.2c0,1.8,0,3.1,0.1,4.8l-0.1,0.1 c-0.3,0-0.8,0-0.9,0l-0.1-0.1c0-0.7,0-1.4,0-2.2c0-1.4,0-2.8-0.2-4.2c-0.2-0.6-0.8-1-1.5-1c-0.9,0.1-1.7,0.4-2.4,1.1 c0,2,0.1,4.2,0.1,6.2l-0.1,0.2C161.8,76.8,161.2,76.8,161.1,76.8L161.1,76.8z"></path> <path class="st0" d="M172.5,69.6c-0.3,0-1.1,0-1.6,0v4.7c0,0.4,0,0.9,0.1,1.3c0.1,0.2,0.2,0.5,0.8,0.5c0.2,0,0.5-0.1,0.7-0.2 l0.1,0.1c0,0.1,0,0.5,0,0.7l-0.1,0.1c-0.3,0.1-0.5,0.1-0.8,0.1c-0.5,0-1-0.2-1.4-0.6c-0.3-0.6-0.4-1.2-0.4-1.9c0-0.9,0-2.2,0-3.5 v-1.4c-0.2,0-0.9,0-1.2,0l-0.1-0.1c0-0.2,0-0.4,0-0.6l0.1-0.1c0.3,0,0.9,0,1.2,0c0-0.7,0-1.4-0.1-1.9l0.1-0.1 c0.3-0.1,0.6-0.2,0.8-0.2l0.1,0.1c0,0.4,0,1.2-0.1,2.1c0.4,0,1.4,0,1.7,0l0.1,0.1C172.6,69,172.6,69.1,172.5,69.6L172.5,69.6z"></path> <path class="st0" d="M184.7,67.1c-0.7-0.5-1.5-0.8-2.4-0.8c-1.6,0-2.3,1-2.3,2c0,1.1,0.8,1.6,1.8,2l1.2,0.5c1.2,0.5,2.2,1.3,2.2,3 c0,1.7-1.4,3.1-3.1,3.1c-0.1,0-0.2,0-0.3,0c-0.9,0-1.9-0.3-2.6-0.8l-0.1-0.2c0-0.3,0-0.7,0.1-0.9h0.1c0.6,0.7,1.5,1.1,2.5,1.1 c1.2,0.1,2.3-0.8,2.4-2.1c0-0.1,0-0.1,0-0.2c0-1.3-1.1-1.9-1.9-2.2l-1.2-0.5c-1.2-0.5-2.1-1.4-2.1-2.8c0-0.5,0.2-2.9,3.3-2.9 c0.9,0,1.7,0.2,2.5,0.6l0.1,0.1l-0.1,0.8L184.7,67.1z"></path> <path class="st0" d="M190.5,69.6c-0.3,0-1.1,0-1.6,0v4.7c0,0.4,0,0.9,0.1,1.3c0.1,0.2,0.2,0.5,0.8,0.5c0.2,0,0.5-0.1,0.7-0.2 l0.1,0.1c0,0.1,0,0.5,0,0.7l-0.1,0.1c-0.3,0.1-0.5,0.1-0.8,0.1c-0.5,0-1-0.2-1.4-0.6c-0.3-0.6-0.4-1.2-0.4-1.9c0-0.9,0-2.2,0-3.5 v-1.4c-0.2,0-0.9,0-1.2,0l-0.1-0.1c0-0.2,0-0.4,0-0.6l0.1-0.1c0.3,0,0.9,0,1.2,0c0-0.7,0-1.4-0.1-1.9l0.1-0.1 c0.3-0.1,0.6-0.2,0.8-0.2l0.1,0.1c0,0.4,0,1.2-0.1,2.1c0.4,0,1.4,0,1.7,0l0.1,0.1C190.6,69,190.6,69.1,190.5,69.6L190.5,69.6z"></path> <path class="st0" d="M196.4,76.8c0,0,0-0.4,0-0.5c-0.6,0.5-1.3,0.8-2.1,0.8c-1.3,0-2.4-1-2.4-2.3c0-0.1,0-0.2,0-0.3 c0-2.2,1.9-2.6,3.3-2.8l1.3-0.2v-0.3c0-1-0.3-1.6-1.6-1.6c-0.7,0-1.4,0.2-2,0.6l-0.1-0.1c0-0.1,0-0.6,0-0.7l0.1-0.1 c0.7-0.3,1.4-0.5,2.2-0.5c1.8,0,2.4,1,2.4,2.1v4c0,0.6,0.1,1.3,0.1,1.9l-0.1,0.1c-0.1,0-0.5,0-0.8,0L196.4,76.8z M196.4,72.2 c-1.8,0.3-2.5,0.5-3,0.9c-0.4,0.3-0.7,0.8-0.7,1.4c0,0.9,0.7,1.7,1.6,1.8c0,0,0.1,0,0.1,0c0.7,0,1.4-0.3,1.9-0.8V72.2z"></path> <path class="st0" d="M202.9,69.6c-0.3,0-1.1,0-1.6,0v4.7c0,0.4,0,0.9,0.1,1.3c0.1,0.2,0.2,0.5,0.8,0.5c0.2,0,0.5-0.1,0.7-0.2 L203,76c0,0.1,0,0.5,0,0.7l-0.1,0.1c-0.3,0.1-0.5,0.1-0.8,0.1c-0.5,0-1-0.2-1.4-0.6c-0.3-0.6-0.4-1.2-0.4-1.9c0-0.9,0-2.2,0-3.5 v-1.4c-0.2,0-0.9,0-1.2,0l-0.1-0.1c0-0.2,0-0.4,0-0.6l0.1-0.1c0.3,0,0.9,0,1.2,0c0-0.7,0-1.4-0.1-1.9l0.1-0.1 c0.3-0.1,0.6-0.2,0.8-0.2l0.1,0.1c0,0.4,0,1.2-0.1,2.1c0.4,0,1.4,0,1.7,0l0.1,0.1C203,69,203,69.1,202.9,69.6L202.9,69.6z"></path> <path class="st0" d="M204.7,66.1c0-0.3,0-0.8,0-1l0.1-0.1c0.3,0,0.6-0.1,0.9-0.1l0.1,0.1c0,0.3,0,0.8,0,1l-0.1,0.1 c-0.1,0-0.6,0.1-0.9,0.1L204.7,66.1z M205.8,76.8h-0.9l-0.1-0.1c0-0.4,0-1.5,0-2c0-1.2,0-3.9-0.1-5.8l0.1-0.1l0.9-0.1l0.1,0.1 c0,0.7,0,1.1,0,1.7c0,2,0.1,4.2,0.1,6.2L205.8,76.8z"></path> <path class="st0" d="M211.5,77c-1.8,0-3.4-1.1-3.4-4.2c0-2.9,1.5-4.2,3.5-4.2c3.3,0,3.3,3.6,3.3,4.1C214.9,75.8,213.3,77,211.5,77 z M211.5,69.4c-2,0-2.4,1.8-2.4,3.4c0,2.1,0.8,3.4,2.4,3.4c1.2,0,2.4-0.6,2.4-3.4C213.9,70.4,212.9,69.4,211.5,69.4L211.5,69.4z"></path> <path class="st0" d="M217.2,76.8c0-0.4,0-1.4,0-2.1c0-0.5,0-2.6,0-3c0-0.3,0-1.8-0.1-2.7l0.1-0.1c0.3-0.1,0.6-0.1,0.9-0.2l0.1,0.1 c0,0.2-0.1,0.5-0.1,0.8c0.8-0.6,1.7-1,2.7-1c0.8-0.1,1.6,0.4,2,1.1c0.3,0.7,0.4,1.5,0.3,2.2c0,1.8,0,3.1,0.1,4.8l-0.1,0.1 c-0.3,0-0.8,0-0.9,0l-0.1-0.1c0-0.7,0-1.4,0-2.2c0-1.4,0-2.8-0.2-4.2c-0.2-0.6-0.8-1-1.5-1c-0.9,0.1-1.7,0.4-2.4,1.1 c0,2,0.1,4.2,0.1,6.2l-0.1,0.1C217.9,76.8,217.4,76.8,217.2,76.8L217.2,76.8z"></path> </g> <g id="Rutgers_1_"> <path class="st1" d="M99.4,33.7l1.2-0.4V12.7c0-5,0-5.2,1.6-5.3l1.5-0.1V6.4h-9.9v0.9l1.5,0.1c1.6,0.2,1.6,0.4,1.6,5.3v16.5 c-1.9,2.1-4.6,3.3-7.4,3.3c-6.3,0-7.3-3.9-7.3-9.7V12.7c0-5,0-5.2,1.6-5.3l1.5-0.1V6.4h-9.9v0.9l1.5,0.1c1.6,0.2,1.6,0.4,1.6,5.3 v10.8c0,5.5,0.7,10.4,9.1,10.4c5.4,0,8.8-2.6,9.4-2.6c0.6,0,0.9,0.6,1.5,1.1L99.4,33.7z"></path> <path class="st1" d="M110.3,33.3h11.3v-0.9l-1.5-0.1c-2.3-0.2-2.3-0.4-2.3-5.3V7.6h2.1c5.7,0,5.8,0.6,6.7,5.3h1 c0-0.2-0.2-5.6-0.4-6.5h-22.7c-0.2,0.9-0.4,6.3-0.4,6.5h1c0.9-4.7,1-5.3,6.7-5.3h2.1v19.4c0,5,0,5.2-2.2,5.3l-1.5,0.1L110.3,33.3z "></path> <path class="st1" d="M152.7,27.9c0-4,0-4.2,0.8-4.3l1.5-0.1v-0.9h-10.4v0.9l1.5,0.1c2.8,0.2,2.8,0.4,2.8,5.4V32 c-1.6,0.4-3.2,0.5-4.8,0.5c-8,0-11.5-6.5-11.5-13.4c0-7.6,4.2-12,10.9-12c7,0,7.5,5,7.9,6.6l1.1-0.2c-0.2-2-0.4-4.3-0.7-6 c-1.1-0.7-4.2-1.7-8.3-1.7c-6.4,0-15.2,3.3-15.2,14.1c0,10.4,7.3,14,15.5,14c3,0,6.1-0.6,8.9-1.6 C152.8,32.2,152.7,29.2,152.7,27.9z"></path> <path class="st1" d="M157.4,33.3h18.7c0.6-2.2,1-4.5,1.3-6.8l-1-0.2c-0.8,3.3-1.2,5.8-7.7,5.8c-1.5,0-3-0.2-4.4-0.5V19.9h3.6 c3.1,0,3.9,0,4.1,1.7l0.2,1.4h1.1v-7.3h-1.1l-0.2,1.4c-0.2,1.7-1,1.7-4.1,1.7h-3.6V7.6h3.4c5.7,0,5.8,0.6,6.7,5l1-0.2 c0-0.4-0.2-5-0.4-5.9h-17.5v0.9l1.5,0.1c1.6,0.2,1.6,0.4,1.6,5.3v14.2c0,5,0,5.2-1.6,5.3l-1.5,0.1V33.3z"></path> <path class="st1" d="M180.6,33.3h9.9v-0.9l-1.5-0.1c-1.6-0.2-1.6-0.4-1.6-5.3v-5.4h1.5c0.9-0.1,1.8,0.1,2.5,0.5 c1,1.2,1.9,2.6,2.5,4l1.6,3.1c1.2,2.2,3.1,4.1,5.8,4.1h3.1v-0.9c-0.7,0-1.4-0.1-2-0.4c-1-0.6-2.8-3-4.5-6c-1.1-2-2.4-4.6-3.1-5.7 c2.2-1.1,5.6-3.3,5.6-7.1c0-6.2-5.5-6.7-9.3-6.7h-10.6v0.9l1.5,0.1c1.6,0.2,1.6,0.4,1.6,5.3v14.2c0,5,0,5.2-1.6,5.3l-1.5,0.1V33.3 z M187.5,8.1c0.8-0.2,1.7-0.3,2.5-0.3c3.2,0,6.3,1.5,6.3,6.2c0,4.6-3.1,6.4-6.5,6.4h-2.4L187.5,8.1z"></path> <path class="st1" d="M213.4,16.6c-2.2-1.3-3.9-2.6-3.9-5c-0.1-2.4,1.8-4.4,4.2-4.4c0.1,0,0.2,0,0.2,0c4.6,0,5.2,3.5,5.7,5.6h1 c-0.1-1.2-0.2-4.2-0.4-5.6c-1.7-0.9-3.7-1.4-5.7-1.3c-4.3,0-8.5,2.1-8.5,7.1c0,3,2.2,5.6,4.5,6.8l2.6,1.4c3.2,1.4,5.7,3.5,5.7,6.4 c0,3.2-2.1,5-4.9,5c-5.6,0-7.1-4.8-7.5-7.8l-1.3,0.3c0.5,2.8,0.9,5.6,1.3,7.2c1.9,1.1,4.1,1.7,6.4,1.6c4.3,0,9.4-2.1,9.4-7.6 c0-4.9-3.3-6.6-6.6-8.4L213.4,16.6z"></path> <path class="st1" d="M65.9,17.8c0.5,2.6,4.1,9.2,5.4,11.7c3.1,5.8,11.1,17.4,17.1,17h0.7v0.9l-1,0c-8.5,0.3-16-9.1-20.4-16.6 c-1.8-3.1-3.5-6.6-5.1-9.8c-0.3-0.7-0.8-1.3-1.4-1.7c-0.9-0.4-1.9-0.5-2.8-0.4h-2.9v6.8c0,1.2-0.1,4.3,0.2,5.6 c0.3,1,0.8,1.1,1.8,1.2l1.7,0.1v0.8H47.7v-0.8l1.7-0.1c1-0.1,1.6-0.2,1.9-1.2c0.3-1.2,0.3-4.3,0.3-5.6V8.2c0-1.2,0.1-4.4-0.3-5.6 c-0.3-1-0.9-1.1-1.9-1.2l-1.7-0.1V0.5h7.8c6.9,0,16.3-1,16.3,8.7c0,3.9-2.7,6.5-6,8.1C65.9,17.6,65.9,17.8,65.9,17.8z M55.5,17.8 c1.2,0.1,2.6,0,3.8,0c4.8,0,7.8-2.6,7.8-7.4c0-5.2-3-8.5-8.3-8.5c-1.1,0-2.2,0.2-3.3,0.4L55.5,17.8z"></path> </g> </g> </svg> 