<?xml version="1.0" encoding="UTF-8"?> <!-- Generator: Adobe Illustrator 24.0.2, SVG Export Plug-In . SVG Version: 6.00 Build 0) --> <svg xmlns="http://www.w3.org/2000/svg" xmlns:xlink="http://www.w3.org/1999/xlink" id="Layer_1" x="0px" y="0px" viewBox="0 0 437.1 80" style="enable-background:new 0 0 437.1 80;" xml:space="preserve"> <style type="text/css"> .st0{fill:none;} .st1{fill:#010101;} .st2{font-family:'FiraSans-Bold';} .st3{font-size:20.8356px;} .st4{fill:#EE223B;} .st5{fill:#074F32;} .st6{fill:#074E33;} .st7{fill:#09AA58;} .st8{opacity:0.52;fill:url(#SVGID_1_);enable-background:new ;} .st9{fill:#11AB55;} .st10{opacity:0.52;fill:url(#SVGID_2_);enable-background:new ;} .st11{opacity:0.52;fill:url(#SVGID_3_);enable-background:new ;} .st12{opacity:0.52;fill:url(#SVGID_4_);enable-background:new ;} .st13{opacity:0.52;fill:url(#SVGID_5_);enable-background:new ;} .st14{opacity:0.52;fill:url(#SVGID_6_);enable-background:new ;} .st15{opacity:0.52;fill:url(#SVGID_7_);enable-background:new ;} .st16{opacity:0.52;fill:url(#SVGID_8_);enable-background:new ;} .st17{opacity:0.52;fill:url(#SVGID_9_);enable-background:new ;} .st18{opacity:0.52;fill:url(#SVGID_10_);enable-background:new ;} .st19{opacity:0.52;fill:url(#SVGID_11_);enable-background:new ;} .st20{opacity:0.52;fill:url(#SVGID_12_);enable-background:new ;} .st21{opacity:0.52;fill:url(#SVGID_13_);enable-background:new ;} .st22{opacity:0.71;fill:url(#SVGID_14_);enable-background:new ;} .st23{opacity:0.52;fill:url(#SVGID_15_);enable-background:new ;} .st24{opacity:0.52;fill:url(#SVGID_16_);enable-background:new ;} .st25{opacity:0.52;fill:url(#SVGID_17_);enable-background:new ;} .st26{opacity:0.52;fill:url(#SVGID_18_);enable-background:new ;} </style> <g> <g> <rect x="76.7" y="12.2" class="st0" width="153.5" height="69"></rect> <text transform="matrix(0.9384 0 0 1 76.7104 27.9502)" class="st1 st2 st3">Wisconsin</text> <text transform="matrix(0.9384 0 0 1 76.7104 52.9527)" class="st1 st2 st3">Apple Growers</text> <text transform="matrix(0.9384 0 0 1 76.7104 77.9575)" class="st1 st2 st3">Association</text> <g> <path class="st4" d="M43.1,27.2c-1.6-0.3-9.7-3.8-14.3-2.8s-9.5,4-11,10.6c-1.6,6.6-0.4,7.5,0,12c0.4,4.5,11,24.7,12.7,27.5 c1.6,2.8,3.2,3.1,5.4,4c2.2,0.9,5.2-0.5,7.3,0c2.1,0.5,2.9,0.9,4.2,0.9s0.4-0.2,3.3-1.4c2.9-1.2,3.3,1.4,6,1.4 c2.7,0,4.2-1.7,5.1-3.8c0.9-2.1,9.7-21.4,10.8-25.4s1.1-9.4,1.1-12.4s-2.9-6.4-5.1-9.7c-2.2-3.3-7.5-4.7-9.9-4.7 c-2.4,0-4.6,0-7.1,0S44.7,27.5,43.1,27.2z"></path> <path class="st1" d="M68.1,33.4l-1.7,4.3l-1,1l-0.2-2.2l0.4-1.7l-1-1.9l-0.4-1.3l-1.7-1h-3.4L53.8,30l-1.6-1.3l-1.2,0.1l-0.1-1.6 l-2.3,1.6l-2.3,0.4v5.2l-1.8,0.8l0.1,1.7l0.7,0.5l0.1,2.3l0.4,2.3l2.9,1.2l3.5,2c0,0,0.7,0.4,0.8,0.7c0.2,0.3,0.7,1.3,0.7,1.3 l0.5,1.3l0.4,2.1l0.8,1l1.2,1l1.2,0.3l11.4-2.1l-1-3.6l-0.7-2.8v-5.6L68.1,33.4z"></path> <path class="st5" d="M41.5,25.9h2.2c0,0-1.5-3.9-3.3-5.3c-1.7-1.4-5.8-3.1-6.5-3.4c-0.7-0.3-2.3,0-2.3,0v2.9c0,0,1.7-0.1,3.4,0.4 c1.6,0.5,4,2.3,4,2.3L41.5,25.9z"></path> <path class="st5" d="M43.7,23c0,0,3.3-7.5,4.9-9.7S58,5.1,58,5.1s-7,7.4-7.8,8.6c-0.8,1.3-3.2,4.2-4.1,6.4 c-0.9,2.1-0.9,4.2-0.9,4.2s3.9-0.3,6.6-1.5c2.7-1.2,3.9-2.3,5.8-4.1c1.9-1.7,3.1-6.8,3.7-9.4c0.7-2.5,0.5-6.4,0.7-7.1 s0.5-1.7,0.5-1.7s-1.6,1-3.9,1.9s-6,0-8.9,1.7c-2.9,1.7-4.1,2.8-5.5,5.3c-1.5,2.5-1.5,7.8-1.5,7.8L43.7,23z"></path> <path class="st4" d="M12.7,14.1c0,0,1-1.3,1.9-1.3c0.9,0,2.4,1.2,3.1,2.5c0.7,1.3,1.4,3.5,1.2,4.3c-0.2,0.8-1.2,1.9-2.3,2.4 c-1.1,0.5-3.3-0.1-4.5-0.7S10,19.1,10,18.2s0.9-2.3,0.9-2.3L10,15.8l0.2-0.6l1.2,0.4l0.7-0.9l-1-1l-0.7-1.3l1.1-1.9 c0,0,0.2,0.6,0.7,1.4C12.6,12.9,12.7,14.1,12.7,14.1z"></path> <polygon class="st6" points="3.4,53.7 11.4,48.6 11.4,46.4 4.8,45.7 10.3,42.7 10.3,40.2 1.2,39.4 0.9,38.7 0.9,41.4 7.8,41.4 1.7,45 1.9,47.4 8.5,47.9 3,50.9 "></polygon> <polygon class="st6" points="0.8,36.5 1.6,36.4 1.8,35.7 1.5,34.8 0.9,34.6 0.1,34.8 0,35.8 0.1,36.2 "></polygon> <polygon class="st6" points="3.1,37.1 9.7,37.5 10.1,38.4 10.2,35.8 3.1,35.2 "></polygon> <polygon class="st6" points="5.8,28.9 6,27.8 4.5,27.7 3.7,29.3 3.8,31.4 4.6,32.5 5.7,32.8 7.1,32.4 8.7,30.4 9.6,30.4 10.1,31.1 9.9,32.1 9.2,33.3 8.2,34.2 10.8,34.5 11.5,32.1 11.3,29.9 9.7,28.5 8.3,28.4 6.8,29.9 6.1,30.9 5.1,30.6 5,29.4 "></polygon> <polygon class="st6" points="8.8,21.1 7.7,20.5 6.6,22.5 6.6,24.6 8.2,26.4 9.9,27.6 12.5,27.3 13.6,26 14.1,24.1 12.9,22.8 12.5,24.9 11.5,25.8 9.7,25.8 8.2,24.6 7.7,22.7 "></polygon> <polygon class="st6" points="19.7,17.8 19.4,16.8 15.6,11.3 14.9,11.3 16.3,10.2 16.8,10.3 17.9,8.6 19.6,7.6 21,8.3 24.8,13.8 23.4,15 20.2,10.3 19.2,9.8 18.3,10.3 18,11.3 18.4,12.7 21.3,16.6 19.7,18.2 "></polygon> <path class="st6" d="M28,5.6c-0.3-0.2-1-1.7-1-1.7l-3.1,1.3l-0.4,1.3L23.9,8l0.7,1.2l2.9,0.1l0.7,0.7L28,10.8L27,11.1l-1,0.2 l-1.2-0.3l1.1,2l2-0.1l1.2-1l0.9-1.3L30,9.2l-0.7-1.3l-1.1-0.6l-2,0.2l-0.9-0.4v-1l0.4-0.5h1L28,5.6z"></path> <polygon class="st6" points="30.7,2.3 31.7,1.6 31.6,0.7 31.1,0 30.1,0 29.6,1 29.9,1.9 "></polygon> <polygon class="st6" points="30,3.5 32.3,3.6 32.6,10.3 33.1,11.3 30.6,11.5 "></polygon> <polygon class="st6" points="34.4,3 36.3,3 36.3,3.8 37.5,3 39.2,2.8 40.4,3.5 40.8,4.6 41,9 41,11.3 39,11.3 39.1,5 38.2,4.3 37.1,4.3 36.4,5.3 36.4,7.6 36.6,11.2 34.3,11.2 "></polygon> </g> </g> <g> <g> <g> <g> <path class="st1" d="M240.3,17.3c-1.3,3.5-2.5,6.8-3.5,9.9c-1,3.2-1.6,4.8-1.6,4.9h-1.5c-0.1-0.1-0.4-1.3-1.2-3.6 c-0.8-2.3-1.8-5.1-3-8.5l0,0c-1.1,2.8-2.1,5.5-3,8c-0.9,2.5-1.4,3.9-1.5,4.1h-1.5c-0.1-0.2-0.5-1.7-1.5-4.5 c-0.9-2.8-2.1-6.2-3.5-10.2l1.7-0.7c0,0.1,0.4,1.4,1.3,3.9s1.8,5.4,2.9,8.6l0,0c1.1-3,2.2-5.7,3-8.1c0.8-2.4,1.3-3.7,1.4-3.8 h1.7c0,0.1,0.5,1.4,1.4,4.1c0.9,2.6,1.7,5.2,2.7,7.8l0,0c1.2-3.4,2.2-6.3,3-8.7c0.8-2.5,1.2-3.8,1.2-3.9L240.3,17.3z"></path> <path class="st1" d="M245.3,32.1h-1.7c0-0.4,0-1.2,0.1-2.4c0-1.2,0-2.9,0-5c0-0.9,0-2,0-3.4c0-1.4,0-2.8-0.1-4.3h1.7 c0,1.1,0,2.3-0.1,3.8c-0.1,1.4,0,2.6,0,3.5c0,2.3,0,4.1,0,5.4C245.3,30.8,245.3,31.7,245.3,32.1z"></path> <path class="st1" d="M257.8,27.8c0,0.8-0.2,1.4-0.5,2s-0.8,1-1.4,1.4c-0.5,0.3-1.2,0.6-1.9,0.8c-0.7,0.2-1.5,0.2-2.4,0.2 c-0.5,0-1,0-1.5-0.1c-0.5-0.1-0.8-0.1-0.9-0.1l-0.1-1.6c0.1,0,0.4,0.1,0.8,0.1c0.5,0.1,1,0.1,1.7,0.1c0.4,0,0.9-0.1,1.5-0.2 c0.6-0.1,1.1-0.2,1.4-0.4c0.4-0.2,0.8-0.5,1-0.8c0.2-0.3,0.4-0.7,0.4-1.2c0-0.5-0.1-0.9-0.4-1.3c-0.2-0.3-0.6-0.7-1.1-1 c-0.4-0.2-0.8-0.5-1.4-0.7c-0.5-0.3-1-0.5-1.5-0.8c-0.7-0.5-1.2-1-1.6-1.5c-0.3-0.6-0.5-1.2-0.5-1.9c0-0.7,0.2-1.3,0.4-1.8 c0.3-0.5,0.7-0.9,1.1-1.3c0.5-0.4,1-0.6,1.7-0.8s1.4-0.3,2.3-0.3c0.5,0,1,0,1.4,0.1c0.5,0,0.7,0.1,0.8,0.1l0.2,1.6 c-0.1,0-0.3-0.1-0.8-0.1c-0.5,0-1.1-0.1-1.7-0.1c-0.4,0-0.9,0.1-1.3,0.1c-0.4,0.1-0.8,0.2-1.2,0.5c-0.3,0.2-0.5,0.4-0.8,0.8 c-0.2,0.3-0.3,0.7-0.3,1.1c0,0.4,0.1,0.8,0.3,1.1c0.2,0.3,0.7,0.7,1.2,1c0.3,0.2,0.8,0.4,1.2,0.7c0.5,0.2,1,0.5,1.4,0.8 c0.8,0.5,1.3,1,1.7,1.5S257.8,27.1,257.8,27.8z"></path> <path class="st1" d="M271.5,30.7c0,0.1,0,0.2-0.1,0.6c-0.1,0.3-0.1,0.7-0.1,1c-0.1,0-0.1,0-0.2,0c-0.1,0-0.2,0-0.2,0 c-1.8,0-3.4-0.2-4.8-0.7c-1.4-0.5-2.6-1.2-3.5-2c-0.7-0.6-1.1-1.3-1.5-2.2c-0.4-0.9-0.5-1.8-0.5-2.9c0-1,0.2-1.9,0.5-2.7 s0.8-1.5,1.4-2.1c0.9-0.9,2-1.6,3.4-2.1s2.9-0.8,4.6-0.8c0.1,0,0.2,0,0.3,0c0.1,0,0.2,0,0.2,0c0,0.1,0,0.3,0.1,0.6 c0,0.3,0.1,0.6,0.1,1c-0.1,0-0.2,0-0.2,0s-0.1,0-0.2,0c-1,0-1.9,0.1-2.9,0.3c-1,0.2-1.8,0.5-2.6,0.9c-0.9,0.5-1.6,1.2-2.2,2.1 c-0.5,0.9-0.8,1.7-0.8,2.8c0,1,0.2,2,0.7,2.8c0.4,0.8,1.2,1.5,2.1,2.1c0.8,0.5,1.7,0.8,2.7,1c1,0.2,2,0.3,3,0.3 c0.1,0,0.1,0,0.2,0C271.3,30.7,271.4,30.7,271.5,30.7z"></path> <path class="st1" d="M287.9,24.5c0,1.2-0.2,2.3-0.6,3.4c-0.4,1-0.9,1.9-1.6,2.5c-0.7,0.8-1.5,1.3-2.3,1.6s-1.7,0.5-2.7,0.5 c-0.9,0-1.8-0.2-2.6-0.5c-0.8-0.3-1.5-0.8-2.2-1.4c-0.7-0.7-1.3-1.6-1.7-2.6c-0.4-1-0.7-2.2-0.7-3.5c0-1.2,0.2-2.2,0.5-3.2 c0.4-1,0.9-1.8,1.6-2.6c0.7-0.7,1.4-1.3,2.3-1.6c0.9-0.4,1.8-0.6,2.8-0.6c1,0,1.9,0.2,2.8,0.5c0.9,0.3,1.6,0.9,2.2,1.5 c0.7,0.8,1.3,1.7,1.6,2.7C287.7,22.3,287.9,23.4,287.9,24.5z M286,24.7c0-1-0.2-2-0.5-2.9c-0.3-0.9-0.8-1.7-1.5-2.4 c-0.4-0.5-1-0.8-1.5-1c-0.5-0.2-1.2-0.3-1.8-0.3c-0.7,0-1.3,0.1-1.9,0.3c-0.6,0.2-1.1,0.6-1.6,1.1c-0.6,0.6-1.1,1.3-1.4,2.3 s-0.5,1.8-0.5,2.8c0,1.1,0.2,2.1,0.5,2.9c0.3,0.9,0.8,1.6,1.5,2.2c0.4,0.4,0.9,0.8,1.5,1c0.6,0.2,1.2,0.3,1.8,0.3 s1.3-0.1,1.8-0.3c0.5-0.2,1.1-0.6,1.6-1c0.6-0.6,1-1.3,1.4-2.1S286,25.7,286,24.7z"></path> <path class="st1" d="M304.5,17c0,1.2,0,2.5-0.1,4.1s0,2.6,0,3.2c0,2.2,0,3.9,0,5.2c0,1.2,0,1.9,0,2l-1.4,0.7 c-2.2-3-4.2-5.7-6.2-8.3s-3.2-4-3.5-4.4l0,0c0,2.1,0,4.6,0.1,7.6c0.1,3,0.1,4.6,0.1,5h-1.7c0-0.2,0-0.9,0.1-2 c0-1.2,0-2.8,0-4.8c0-0.9,0-2,0-3.3s0-2.8-0.1-4.3l1.6-0.8c0.2,0.2,1.4,1.7,3.5,4.5c2.2,2.8,4.2,5.3,6,7.6l0,0 c0-1.1,0-3.1-0.1-5.8c0-2.8,0-4.9,0-6.2H304.5z"></path> <path class="st1" d="M316.9,27.8c0,0.8-0.2,1.4-0.5,2c-0.4,0.6-0.8,1-1.4,1.4c-0.5,0.3-1.2,0.6-1.9,0.8 c-0.7,0.2-1.5,0.2-2.4,0.2c-0.5,0-1,0-1.5-0.1c-0.5-0.1-0.8-0.1-0.9-0.1l-0.1-1.6c0.1,0,0.4,0.1,0.8,0.1c0.5,0.1,1,0.1,1.7,0.1 c0.4,0,0.9-0.1,1.5-0.2c0.6-0.1,1.1-0.2,1.4-0.4c0.4-0.2,0.8-0.5,1-0.8c0.2-0.3,0.4-0.7,0.4-1.2c0-0.5-0.1-0.9-0.4-1.3 c-0.2-0.3-0.6-0.7-1.1-1c-0.4-0.2-0.8-0.5-1.4-0.7c-0.5-0.3-1-0.5-1.5-0.8c-0.7-0.5-1.2-1-1.6-1.5c-0.3-0.6-0.5-1.2-0.5-1.9 c0-0.7,0.2-1.3,0.4-1.8c0.3-0.5,0.7-0.9,1.1-1.3c0.5-0.4,1-0.6,1.7-0.8c0.7-0.2,1.4-0.3,2.3-0.3c0.5,0,1,0,1.4,0.1 c0.5,0,0.7,0.1,0.8,0.1l0.2,1.6c-0.1,0-0.3-0.1-0.8-0.1s-1.1-0.1-1.7-0.1c-0.4,0-0.9,0.1-1.3,0.1c-0.4,0.1-0.8,0.2-1.2,0.5 c-0.3,0.2-0.5,0.4-0.8,0.8c-0.2,0.3-0.3,0.7-0.3,1.1c0,0.4,0.1,0.8,0.3,1.1c0.2,0.3,0.7,0.7,1.2,1c0.3,0.2,0.8,0.4,1.2,0.7 c0.5,0.2,1,0.5,1.4,0.8c0.8,0.5,1.3,1,1.7,1.5S316.9,27.1,316.9,27.8z"></path> <path class="st1" d="M322.6,32.1h-1.7c0-0.4,0-1.2,0.1-2.4c0-1.2,0-2.9,0-5c0-0.9,0-2,0-3.4c0-1.4,0-2.8-0.1-4.3h1.7 c0,1.1,0,2.3-0.1,3.8c-0.1,1.4,0,2.6,0,3.5c0,2.3,0,4.1,0,5.4C322.6,30.8,322.6,31.7,322.6,32.1z"></path> <path class="st1" d="M340.3,17c0,1.2,0,2.5-0.1,4.1c-0.1,1.5,0,2.6,0,3.2c0,2.2,0,3.9,0,5.2c0,1.2,0,1.9,0,2l-1.4,0.7 c-2.2-3-4.2-5.7-6.2-8.3c-2-2.5-3.2-4-3.5-4.4l0,0c0,2.1,0,4.6,0.1,7.6s0.1,4.6,0.1,5h-1.7c0-0.2,0-0.9,0.1-2 c0-1.2,0-2.8,0-4.8c0-0.9,0-2,0-3.3s0-2.8-0.1-4.3l1.6-0.8c0.2,0.2,1.4,1.7,3.5,4.5c2.2,2.8,4.2,5.3,6,7.6l0,0 c0-1.1,0-3.1-0.1-5.8c-0.1-2.8-0.1-4.9-0.1-6.2H340.3z"></path> </g> </g> <g> <g> <path class="st7" d="M226.3,42.2c0,0.6,0,1.3-0.1,1.8c-0.1,0.5,0,1.1,0,1.5c0,0.6,0,1.3,0,2.1s0,1.3,0,1.4 c-0.1,0-0.2,0-0.5,0.1c-0.3,0.1-0.5,0.1-0.7,0.1c-1.2,0-2.2-0.2-3.1-0.6s-1.7-1-2.3-1.8c-0.4-0.5-0.8-1.2-1-2 c-0.3-0.8-0.4-1.7-0.4-2.7c0-1.2,0.2-2.3,0.7-3.3c0.5-1,1.1-1.7,2-2.4c0.5-0.4,1.2-0.7,1.9-0.9s1.5-0.3,2.3-0.3 c0.1,0,0.2,0,0.3,0c0.1,0,0.2,0,0.3,0l0.1,1.3c-0.1,0-0.2,0-0.3,0c-0.1,0-0.2,0-0.3,0c-0.8,0-1.4,0.1-2,0.3 c-0.6,0.2-1.1,0.5-1.6,0.8c-0.6,0.5-1.1,1.1-1.5,1.9c-0.4,0.8-0.5,1.7-0.5,2.6c0,1.1,0.2,2,0.5,2.8c0.3,0.8,0.8,1.4,1.4,1.9 c0.4,0.3,1,0.6,1.5,0.8c0.5,0.2,1.1,0.3,1.7,0.3c0-0.2,0-0.9,0-2.1c0-1.3,0-2.4,0-3.5L226.3,42.2L226.3,42.2z"></path> <path class="st7" d="M237,48.3l-1.2,0.9c-0.1-0.2-0.6-0.9-1.4-2.3c-0.9-1.3-1.7-2.7-2.8-4.2v-0.1c0.2-0.1,0.5-0.2,0.8-0.5 c0.3-0.2,0.5-0.5,0.8-0.8c0.2-0.3,0.4-0.6,0.5-1c0.2-0.3,0.2-0.8,0.2-1.3c0-0.6-0.1-1-0.3-1.4s-0.5-0.6-0.8-0.8 c-0.2-0.1-0.5-0.2-0.8-0.2c-0.3,0-0.6-0.1-0.9-0.1c-0.1,0-0.2,0-0.3,0c-0.1,0-0.2,0-0.2,0c0,1.1,0,2.1,0,3.1s0,1.7,0,2.4 c0,1.2,0,2.6,0,4.2c0,1.6,0,2.4,0,2.7h-1.4c0-0.2,0-0.9,0-2.1s0-2.7,0-4.7c0-0.7,0-1.6,0-2.6s0-2.5,0-4.2c0.1,0,0.3,0,0.7-0.1 c0.4,0,0.8,0,1.2,0c0.5,0,1,0.1,1.5,0.1c0.4,0.1,0.8,0.2,1.1,0.4c0.5,0.3,0.9,0.7,1.2,1.2c0.3,0.5,0.4,1.2,0.4,1.9 c0,0.8-0.2,1.6-0.6,2.3c-0.4,0.7-0.9,1.2-1.5,1.7v0.1c0.5,0.8,1.2,1.8,2.2,3.2C236.4,47.5,236.9,48.2,237,48.3z"></path> <path class="st7" d="M247.1,48.7l-1.4,0.5c-0.1-0.2-0.2-0.8-0.5-1.7c-0.3-0.9-0.7-2.1-1.1-3.5h-4.1c-0.5,1.4-0.8,2.6-1.1,3.5 c-0.3,0.9-0.4,1.4-0.5,1.6l-1.2-0.5c0.1-0.3,0.7-2,1.6-4.9c0.9-3,1.8-5.8,2.8-8.6h1.2c1,3.1,1.9,6,2.8,8.9 C246.5,47,247,48.5,247.1,48.7z M243.8,42.9c-0.3-0.9-0.5-1.7-0.8-2.7c-0.3-0.9-0.5-1.7-0.8-2.5h-0.1c-0.2,0.7-0.5,1.6-0.8,2.5 c-0.3,1-0.6,1.9-0.8,2.6l0,0H243.8L243.8,42.9z"></path> <path class="st7" d="M255.2,40.1c0,1-0.3,1.9-0.8,2.7c-0.5,0.8-1.1,1.3-2,1.6c-0.3,0.1-0.7,0.2-1,0.3s-0.8,0.1-1.4,0.1V49h-1.4 c0-0.3,0-1,0-2.1s0-2.9,0-5.2c0-0.7,0-1.6,0-2.7s0-2.3-0.1-3.6c0.2,0,0.4,0,0.7,0s0.4,0,0.5,0c1,0,1.8,0.1,2.4,0.3 s1.1,0.4,1.5,0.8c0.5,0.4,0.8,0.9,1.1,1.5C255.1,38.5,255.2,39.2,255.2,40.1z M253.7,40.1c0-0.7-0.1-1.3-0.4-1.8 c-0.3-0.5-0.6-0.9-1-1.2c-0.3-0.2-0.6-0.3-0.9-0.3c-0.3-0.1-0.7-0.1-1-0.1c-0.1,0-0.1,0-0.1,0c-0.1,0-0.1,0-0.1,0 c0,0.1,0,0.6,0,1.6c0,1,0,1.7,0,2.3s0,1.1,0,1.8s0,1.1,0,1.2c0.1,0,0.1,0,0.2,0c0.1,0,0.1,0,0.1,0c0.3,0,0.7-0.1,1-0.1 c0.4-0.1,0.7-0.2,0.9-0.3c0.4-0.3,0.8-0.7,1-1.2C253.6,41.4,253.7,40.8,253.7,40.1z"></path> <path class="st7" d="M263.7,49c-0.2,0-0.6,0-1.4,0s-1.4,0-2,0s-1.1,0-1.7,0s-1,0-1.4,0c0-0.3,0-1,0-2.2s0-2.7,0-4.7 c0-0.8,0-1.8,0-3s0-2.4,0-3.7c0.4,0,0.8,0,1.4,0s1.1,0,1.6,0c0.7,0,1.4,0,2.1,0c0.7,0,1.1,0,1.2,0v1.3c-0.2,0-0.5,0-1.1,0 c-0.5,0-1.1,0-1.6,0c-0.4,0-0.9,0-1.2,0s-0.7,0-0.9,0c0,0.6,0,1.4,0,2.1s0,1.6,0,2.5c0.2,0,0.5,0,0.8,0c0.3,0,0.5,0,0.8,0 c0.7,0,1.3,0,2,0c0.7,0,1.1,0,1.3,0v1.3c-0.1,0-0.6,0-1.4,0s-1.4,0-1.8,0c-0.2,0-0.5,0-0.8,0s-0.6,0-0.9,0c0,0.6,0,1.6,0,2.7 s0,2,0,2.5c0.3,0,0.6,0,1,0c0.4,0,0.9,0,1.3,0c0.5,0,1.1,0,1.6,0s0.9,0,1,0L263.7,49L263.7,49z"></path> <path class="st7" d="M277.5,42.2c0,0.6,0,1.3-0.1,1.8c-0.1,0.5,0,1.1,0,1.5c0,0.6,0,1.3,0,2.1s0,1.3,0,1.4 c-0.1,0-0.2,0-0.5,0.1c-0.3,0.1-0.5,0.1-0.7,0.1c-1.2,0-2.2-0.2-3.1-0.6c-0.9-0.4-1.7-1-2.3-1.8c-0.4-0.5-0.8-1.2-1-2 c-0.3-0.8-0.4-1.7-0.4-2.7c0-1.2,0.2-2.3,0.7-3.3c0.5-1,1.1-1.7,2-2.4c0.5-0.4,1.2-0.7,1.9-0.9s1.5-0.3,2.3-0.3 c0.1,0,0.2,0,0.3,0c0.1,0,0.2,0,0.3,0l0.1,1.3c-0.1,0-0.2,0-0.3,0c-0.1,0-0.2,0-0.3,0c-0.8,0-1.4,0.1-2,0.3 c-0.6,0.2-1.1,0.5-1.6,0.8c-0.6,0.5-1.1,1.1-1.5,1.9s-0.5,1.7-0.5,2.6c0,1.1,0.2,2,0.5,2.8c0.3,0.8,0.8,1.4,1.4,1.9 c0.4,0.3,1,0.6,1.5,0.8c0.5,0.2,1.1,0.3,1.7,0.3c0-0.2,0-0.9,0-2.1c0-1.3,0-2.4,0-3.5L277.5,42.2L277.5,42.2z"></path> <path class="st7" d="M288.2,48.3l-1.2,0.9c-0.1-0.2-0.6-0.9-1.4-2.3c-0.9-1.3-1.7-2.7-2.8-4.2v-0.1c0.2-0.1,0.5-0.2,0.8-0.5 c0.3-0.2,0.5-0.5,0.8-0.8c0.2-0.3,0.4-0.6,0.5-1c0.2-0.3,0.2-0.8,0.2-1.3c0-0.6-0.1-1-0.3-1.4c-0.2-0.4-0.5-0.6-0.8-0.8 c-0.2-0.1-0.5-0.2-0.8-0.2s-0.6-0.1-0.9-0.1c-0.1,0-0.2,0-0.3,0c-0.1,0-0.2,0-0.2,0c0,1.1,0,2.1,0,3.1s0,1.7,0,2.4 c0,1.2,0,2.6,0,4.2c0,1.6,0,2.4,0,2.7h-1.4c0-0.2,0-0.9,0-2.1s0-2.7,0-4.7c0-0.7,0-1.6,0-2.6s0-2.5,0-4.2c0.1,0,0.3,0,0.7-0.1 c0.4,0,0.8,0,1.2,0c0.5,0,1,0.1,1.5,0.1c0.4,0.1,0.8,0.2,1.1,0.4c0.5,0.3,0.9,0.7,1.2,1.2c0.3,0.5,0.4,1.2,0.4,1.9 c0,0.8-0.2,1.6-0.6,2.3c-0.4,0.7-0.9,1.2-1.5,1.7v0.1c0.5,0.8,1.2,1.8,2.2,3.2C287.6,47.5,288.1,48.2,288.2,48.3z"></path> <path class="st7" d="M298.7,42.2c0,1.1-0.1,2.1-0.4,3c-0.3,0.9-0.6,1.7-1,2.3c-0.4,0.6-1,1.1-1.5,1.4s-1.1,0.5-1.8,0.5 s-1.2-0.2-1.8-0.5c-0.5-0.3-1-0.8-1.5-1.3c-0.5-0.6-0.8-1.4-1.1-2.3c-0.3-0.9-0.4-1.9-0.4-3.1c0-1.1,0.1-2.1,0.3-3 c0.2-0.9,0.5-1.7,1.1-2.4c0.4-0.6,0.9-1,1.5-1.3s1.2-0.5,1.8-0.5s1.3,0.2,1.8,0.5c0.5,0.3,1,0.8,1.5,1.3 c0.5,0.7,0.9,1.5,1.1,2.4C298.6,40.2,298.7,41.2,298.7,42.2z M297.3,42.3c0-0.9-0.1-1.7-0.3-2.6s-0.5-1.6-0.9-2.1 c-0.3-0.4-0.6-0.8-1-0.9c-0.4-0.2-0.8-0.3-1.2-0.3c-0.4,0-0.8,0.1-1.1,0.3c-0.4,0.2-0.7,0.5-1,1c-0.4,0.5-0.7,1.2-0.8,2.1 s-0.3,1.7-0.3,2.5c0,1,0.1,1.9,0.3,2.7c0.2,0.8,0.5,1.4,0.9,2c0.3,0.3,0.6,0.6,0.9,0.9c0.3,0.2,0.8,0.3,1.1,0.3 c0.4,0,0.8-0.1,1.1-0.3c0.3-0.2,0.7-0.5,1-0.9c0.4-0.5,0.7-1.2,0.9-2C297.1,44.2,297.3,43.3,297.3,42.3z"></path> <path class="st7" d="M314.7,35.5c-0.7,2.5-1.4,5.3-2.2,8.5c-0.8,3.2-1.1,4.8-1.2,5h-1.3c-0.1-0.2-0.3-1.3-0.8-3.4 c-0.5-2.1-1.1-4.5-1.8-7h-0.1c-0.6,2-1.2,4.2-1.8,6.6c-0.6,2.4-0.9,3.6-1,3.9h-1.3c-0.1-0.2-0.4-1.7-1-4.4 c-0.6-2.7-1.4-5.7-2.3-9l1.4-0.4c0.1,0.1,0.3,1.5,0.9,4.1c0.6,2.6,1.1,4.9,1.7,6.8h0.1c0.6-2,1.1-4.2,1.7-6.5 c0.5-2.3,0.9-3.6,0.9-3.7h1.4c0.1,0.2,0.3,1.4,0.9,3.6c0.5,2.3,1.1,4.5,1.6,6.5h0.1c0.6-2.3,1.2-4.6,1.7-7.1 c0.5-2.4,0.9-3.7,0.9-3.9L314.7,35.5z"></path> <path class="st7" d="M323.4,49c-0.2,0-0.6,0-1.4,0s-1.4,0-2,0s-1.1,0-1.7,0c-0.6,0-1,0-1.4,0c0-0.3,0-1,0-2.2s0-2.7,0-4.7 c0-0.8,0-1.8,0-3s0-2.4,0-3.7c0.4,0,0.8,0,1.4,0s1.1,0,1.6,0c0.7,0,1.4,0,2.1,0s1.1,0,1.2,0v1.3c-0.2,0-0.5,0-1.1,0 s-1.1,0-1.6,0c-0.4,0-0.9,0-1.2,0c-0.4,0-0.7,0-0.9,0c0,0.6,0,1.4,0,2.1s0,1.6,0,2.5c0.2,0,0.5,0,0.8,0c0.3,0,0.5,0,0.8,0 c0.7,0,1.3,0,2,0s1.1,0,1.3,0v1.3c-0.1,0-0.6,0-1.4,0c-0.8,0-1.4,0-1.8,0c-0.2,0-0.5,0-0.8,0c-0.3,0-0.6,0-0.9,0 c0,0.6,0,1.6,0,2.7s0,2,0,2.5c0.3,0,0.6,0,1,0c0.4,0,0.9,0,1.3,0c0.5,0,1.1,0,1.6,0c0.5,0,0.9,0,1,0L323.4,49L323.4,49z"></path> <path class="st7" d="M333.8,48.3l-1.2,0.9c-0.1-0.2-0.6-0.9-1.4-2.3c-0.9-1.3-1.7-2.7-2.8-4.2v-0.1c0.2-0.1,0.5-0.2,0.8-0.5 c0.3-0.2,0.5-0.5,0.8-0.8c0.2-0.3,0.4-0.6,0.5-1c0.2-0.3,0.2-0.8,0.2-1.3c0-0.6-0.1-1-0.3-1.4c-0.2-0.4-0.5-0.6-0.8-0.8 c-0.2-0.1-0.5-0.2-0.8-0.2s-0.6-0.1-0.9-0.1c-0.1,0-0.2,0-0.3,0s-0.2,0-0.2,0c0,1.1,0,2.1,0,3.1s0,1.7,0,2.4c0,1.2,0,2.6,0,4.2 c0,1.6,0,2.4,0,2.7H326c0-0.2,0-0.9,0-2.1s0-2.7,0-4.7c0-0.7,0-1.6,0-2.6s0-2.5,0-4.2c0.1,0,0.3,0,0.7-0.1c0.4,0,0.8,0,1.2,0 c0.5,0,1,0.1,1.5,0.1c0.4,0.1,0.8,0.2,1.1,0.4c0.5,0.3,0.9,0.7,1.2,1.2c0.3,0.5,0.4,1.2,0.4,1.9c0,0.8-0.2,1.6-0.6,2.3 c-0.4,0.7-0.9,1.2-1.5,1.7v0.1c0.5,0.8,1.2,1.8,2.2,3.2C333.2,47.5,333.7,48.2,333.8,48.3z"></path> <path class="st7" d="M341,45.3c0,0.7-0.1,1.3-0.4,1.8c-0.3,0.5-0.6,0.9-1,1.2c-0.4,0.3-0.9,0.5-1.4,0.7 c-0.5,0.2-1.1,0.2-1.7,0.2c-0.3,0-0.7,0-0.9,0s-0.5-0.1-0.6-0.1l-0.1-1.3c0.1,0,0.3,0.1,0.6,0.1c0.3,0,0.7,0.1,1.1,0.1 c0.3,0,0.7-0.1,1.1-0.2c0.4-0.1,0.8-0.2,1-0.5c0.3-0.2,0.5-0.5,0.7-0.8c0.2-0.3,0.2-0.6,0.2-1.1c0-0.5-0.1-0.8-0.3-1.2 c-0.2-0.3-0.4-0.6-0.8-0.9c-0.2-0.2-0.5-0.4-0.9-0.7c-0.4-0.3-0.7-0.5-1-0.8c-0.5-0.4-0.9-0.9-1.2-1.3c-0.3-0.5-0.4-1-0.4-1.7 c0-0.6,0.1-1.1,0.3-1.5c0.2-0.4,0.5-0.8,0.8-1.2c0.3-0.3,0.8-0.6,1.4-0.8s1.1-0.3,1.6-0.3c0.3,0,0.7,0,0.9,0 c0.3,0,0.4,0,0.5,0.1l0.1,1.3c-0.1,0-0.3,0-0.5-0.1c-0.2-0.1-0.6-0.1-1.1,0c-0.3,0-0.7,0.1-1,0.1c-0.3,0.1-0.6,0.2-0.9,0.5 c-0.2,0.2-0.4,0.4-0.5,0.6c-0.2,0.2-0.2,0.6-0.2,0.9c0,0.4,0.1,0.8,0.3,1.1s0.4,0.6,0.8,0.9c0.2,0.2,0.5,0.3,0.8,0.6 c0.3,0.2,0.7,0.5,1,0.8c0.5,0.4,0.9,0.8,1.2,1.3C340.9,43.8,341,44.6,341,45.3z"></path> </g> </g> <g> <g> <path class="st1" d="M229.8,66.1l-1.5,0.8c0-0.1-0.2-0.6-0.6-1.5c-0.4-0.9-0.9-2.1-1.5-3.6h-5.6c-0.7,1.6-1.2,2.8-1.6,3.6 c-0.4,0.9-0.5,1.3-0.6,1.4l-1.3-0.8c0.2-0.3,0.9-1.9,2.1-4.7c1.2-2.8,2.4-5.7,3.7-8.7h1.2c1.2,3,2.5,6,3.7,8.9 C229.1,64.5,229.7,66,229.8,66.1z M225.7,60.5c-0.3-0.8-0.7-1.7-1.1-2.6c-0.4-0.9-0.8-1.9-1.2-2.8h-0.1 c-0.3,0.8-0.7,1.7-1.1,2.8c-0.4,1.1-0.8,2-1.1,2.7l0,0H225.7L225.7,60.5z"></path> <path class="st1" d="M238.5,62.8c0,0.7-0.2,1.3-0.5,1.9c-0.3,0.5-0.7,0.9-1.2,1.3c-0.5,0.3-1,0.5-1.6,0.7s-1.3,0.2-2.1,0.2 c-0.4,0-0.8,0-1.2-0.1s-0.7-0.1-0.8-0.1l-0.1-1.4c0.1,0,0.3,0.1,0.8,0.1s0.9,0.1,1.5,0.1c0.3,0,0.8-0.1,1.3-0.1 c0.5-0.1,0.9-0.2,1.2-0.3c0.4-0.2,0.7-0.5,0.9-0.7c0.2-0.2,0.3-0.6,0.3-1c0-0.5-0.1-0.9-0.3-1.2c-0.2-0.3-0.5-0.6-1-0.9 c-0.3-0.2-0.7-0.4-1.1-0.6c-0.4-0.2-0.9-0.5-1.3-0.8c-0.7-0.4-1.1-0.9-1.4-1.4c-0.3-0.5-0.4-1-0.4-1.7c0-0.6,0.1-1.2,0.4-1.6 s0.6-0.9,1-1.2c0.4-0.3,0.9-0.6,1.5-0.8c0.6-0.2,1.2-0.2,2-0.2c0.4,0,0.8,0,1.2,0.1s0.7,0.1,0.7,0.1l0.1,1.4 c-0.1,0-0.3-0.1-0.7-0.1s-0.9-0.1-1.5-0.1c-0.4,0-0.7,0.1-1.1,0.1c-0.4,0.1-0.7,0.2-1,0.4c-0.3,0.2-0.5,0.3-0.7,0.6 c-0.2,0.3-0.3,0.6-0.3,1c0,0.3,0.1,0.6,0.3,1s0.5,0.6,1,0.9c0.3,0.2,0.6,0.3,1,0.6s0.9,0.5,1.2,0.7c0.7,0.4,1.1,0.9,1.4,1.4 C238.3,61.6,238.5,62.1,238.5,62.8z"></path> <path class="st1" d="M248.4,62.8c0,0.7-0.2,1.3-0.5,1.9c-0.3,0.5-0.7,0.9-1.2,1.3c-0.5,0.3-1,0.5-1.6,0.7s-1.3,0.2-2.1,0.2 c-0.4,0-0.8,0-1.2-0.1s-0.7-0.1-0.8-0.1l-0.1-1.4c0.1,0,0.3,0.1,0.8,0.1s0.9,0.1,1.5,0.1c0.3,0,0.8-0.1,1.3-0.1 c0.5-0.1,0.9-0.2,1.2-0.3c0.4-0.2,0.7-0.5,0.9-0.7c0.2-0.2,0.3-0.6,0.3-1c0-0.5-0.1-0.9-0.3-1.2c-0.2-0.3-0.5-0.6-1-0.9 c-0.3-0.2-0.7-0.4-1.1-0.6c-0.4-0.2-0.9-0.5-1.3-0.8c-0.7-0.4-1.1-0.9-1.4-1.4c-0.3-0.5-0.4-1-0.4-1.7c0-0.6,0.1-1.2,0.4-1.6 s0.6-0.9,1-1.2c0.4-0.3,0.9-0.6,1.5-0.8c0.6-0.2,1.2-0.2,2-0.2c0.4,0,0.8,0,1.2,0.1C247.7,53,248,53,248,53l0.1,1.4 c-0.1,0-0.3-0.1-0.7-0.1s-0.9-0.1-1.5-0.1c-0.4,0-0.7,0.1-1.1,0.1c-0.4,0.1-0.7,0.2-1,0.4c-0.3,0.2-0.5,0.3-0.7,0.6 c-0.2,0.3-0.3,0.6-0.3,1c0,0.3,0.1,0.6,0.3,1s0.5,0.6,1,0.9c0.3,0.2,0.6,0.3,1,0.6s0.9,0.5,1.2,0.7c0.7,0.4,1.1,0.9,1.4,1.4 C248.2,61.6,248.4,62.1,248.4,62.8z"></path> <path class="st1" d="M263.2,59.8c0,1.1-0.2,2.1-0.5,3c-0.4,0.9-0.8,1.7-1.4,2.3c-0.7,0.6-1.3,1.2-2,1.4 c-0.7,0.3-1.5,0.5-2.3,0.5s-1.5-0.1-2.2-0.4c-0.7-0.3-1.3-0.7-1.9-1.3c-0.6-0.6-1.1-1.4-1.5-2.3c-0.4-0.9-0.5-2-0.5-3.2 c0-1,0.2-2,0.4-2.8c0.3-0.9,0.8-1.6,1.4-2.3c0.5-0.6,1.2-1.2,2-1.5s1.6-0.5,2.4-0.5c0.9,0,1.6,0.2,2.4,0.5s1.4,0.8,1.9,1.4 c0.6,0.7,1.1,1.5,1.4,2.4C263,57.8,263.2,58.8,263.2,59.8z M261.6,60c0-0.9-0.2-1.7-0.4-2.6c-0.3-0.9-0.7-1.6-1.2-2.1 c-0.4-0.4-0.8-0.7-1.3-0.9c-0.5-0.2-1-0.3-1.6-0.3c-0.6,0-1.1,0.1-1.6,0.3c-0.5,0.2-0.9,0.5-1.4,1c-0.5,0.5-0.9,1.2-1.2,2 s-0.4,1.6-0.4,2.5c0,1,0.2,1.9,0.4,2.6s0.7,1.4,1.2,2c0.4,0.3,0.8,0.7,1.3,0.9c0.5,0.2,1,0.3,1.6,0.3s1.1-0.1,1.6-0.3 c0.5-0.2,0.9-0.5,1.4-0.9c0.5-0.5,0.9-1.1,1.2-1.9C261.4,61.8,261.6,60.9,261.6,60z"></path> <path class="st1" d="M275.1,65.3c0,0.1,0,0.2-0.1,0.5s-0.1,0.6-0.1,0.9c-0.1,0-0.1,0-0.2,0s-0.1,0-0.2,0 c-1.6,0-2.9-0.2-4.1-0.6s-2.2-1-3-1.8c-0.5-0.5-1-1.2-1.3-2c-0.3-0.8-0.5-1.6-0.5-2.6c0-0.9,0.2-1.7,0.5-2.4 c0.3-0.8,0.7-1.4,1.2-1.9c0.7-0.8,1.7-1.4,2.9-1.9c1.2-0.5,2.6-0.7,4-0.7c0.1,0,0.2,0,0.2,0c0.1,0,0.2,0,0.2,0 c0,0.1,0,0.3,0.1,0.6s0.1,0.6,0.1,0.9c-0.1,0-0.1,0-0.2,0s-0.1,0-0.2,0c-0.8,0-1.6,0.1-2.5,0.3c-0.9,0.2-1.6,0.5-2.2,0.9 c-0.8,0.5-1.4,1.1-1.8,1.9c-0.4,0.8-0.7,1.6-0.7,2.5s0.2,1.7,0.6,2.5s1,1.4,1.8,1.9c0.7,0.4,1.5,0.8,2.3,0.9 c0.8,0.2,1.7,0.3,2.6,0.3c0.1,0,0.1,0,0.2,0C274.9,65.4,275,65.4,275.1,65.3z"></path> <path class="st1" d="M279.5,66.6h-1.6c0-0.4,0-1.2,0.1-2.2c0.1-1,0-2.5,0-4.5c0-0.8,0-1.8,0-3.1s0-2.5-0.1-3.9h1.6 c0,1,0,2.1-0.1,3.4c-0.1,1.3,0,2.3,0,3.1c0,2.1,0,3.6,0,4.8C279.4,65.3,279.5,66.2,279.5,66.6z"></path> <path class="st1" d="M294.6,66.1l-1.5,0.8c0-0.1-0.2-0.6-0.6-1.5c-0.4-0.9-0.9-2.1-1.5-3.6h-5.6c-0.7,1.6-1.2,2.8-1.6,3.6 c-0.4,0.9-0.5,1.3-0.6,1.4l-1.3-0.8c0.2-0.3,0.9-1.9,2.1-4.7c1.2-2.8,2.4-5.7,3.7-8.7h1.2c1.2,3,2.5,6,3.7,8.9 C293.9,64.5,294.5,66,294.6,66.1z M290.5,60.5c-0.3-0.8-0.7-1.7-1.1-2.6c-0.4-0.9-0.8-1.9-1.2-2.8h-0.1 c-0.3,0.8-0.7,1.7-1.1,2.8c-0.4,1.1-0.8,2-1.1,2.7l0,0H290.5L290.5,60.5z"></path> <path class="st1" d="M305.8,54.4c-0.1,0-0.5,0-1.3,0c-0.8,0-1.9,0-3.4,0c0,1.4,0,2.4-0.1,3.2c-0.1,0.8,0,1.7,0,3 c0,1.2,0,2.4,0,3.6c0,1.2,0,2,0,2.4h-1.5c0-0.4,0-1.2,0.1-2.5c0-1.3,0-2.5,0-3.7c0-1.2,0-2.1,0-2.8s0-1.8-0.1-3.2 c-1.4,0-2.4,0-3.3,0s-1.3,0-1.4,0V53c0.7,0,1.5,0,2.4,0c0.9,0,2,0,3,0c1.5,0,2.8,0,3.9,0s1.6,0,1.7,0L305.8,54.4L305.8,54.4z"></path> <path class="st1" d="M309.7,66.6h-1.6c0-0.4,0-1.2,0.1-2.2c0.1-1,0-2.5,0-4.5c0-0.8,0-1.8,0-3.1s0-2.5-0.1-3.9h1.6 c0,1,0,2.1-0.1,3.4c-0.1,1.3,0,2.3,0,3.1c0,2.1,0,3.6,0,4.8C309.6,65.3,309.7,66.2,309.7,66.6z"></path> <path class="st1" d="M325.5,59.8c0,1.1-0.2,2.1-0.5,3c-0.4,0.9-0.8,1.7-1.4,2.3c-0.7,0.6-1.3,1.2-2,1.4s-1.5,0.5-2.3,0.5 c-0.8,0-1.5-0.1-2.2-0.4c-0.7-0.3-1.3-0.7-1.9-1.3c-0.6-0.6-1.1-1.4-1.5-2.3c-0.4-0.9-0.5-2-0.5-3.2c0-1,0.2-2,0.4-2.8 c0.3-0.9,0.8-1.6,1.4-2.3c0.5-0.6,1.2-1.2,2-1.5s1.6-0.5,2.4-0.5c0.9,0,1.6,0.2,2.4,0.5s1.4,0.8,1.9,1.4 c0.6,0.7,1.1,1.5,1.4,2.4C325.3,57.8,325.5,58.8,325.5,59.8z M323.9,60c0-0.9-0.2-1.7-0.4-2.6c-0.3-0.9-0.7-1.6-1.2-2.1 c-0.4-0.4-0.8-0.7-1.3-0.9c-0.5-0.2-1-0.3-1.6-0.3c-0.6,0-1.1,0.1-1.6,0.3s-0.9,0.5-1.4,1c-0.5,0.5-0.9,1.2-1.2,2 c-0.3,0.8-0.4,1.6-0.4,2.5c0,1,0.2,1.9,0.4,2.6c0.3,0.8,0.7,1.4,1.2,2c0.4,0.3,0.8,0.7,1.3,0.9s1,0.3,1.6,0.3s1.1-0.1,1.6-0.3 c0.5-0.2,0.9-0.5,1.4-0.9c0.5-0.5,0.9-1.1,1.2-1.9C323.7,61.8,323.9,60.9,323.9,60z"></path> <path class="st1" d="M339.9,53c0,1,0,2.3-0.1,3.6c-0.1,1.4,0,2.4,0,3c0,1.9,0,3.5,0,4.6c0,1.1,0,1.7,0,1.8l-1.2,0.7 c-1.9-2.8-3.7-5.3-5.4-7.5c-1.7-2.2-2.7-3.5-2.9-3.9l0,0c0,1.8,0,4.1,0.1,6.7c0.1,2.7,0.1,4.2,0.1,4.6H329c0-0.2,0-0.8,0.1-1.8 c0.1-1,0-2.5,0-4.3c0-0.8,0-1.7,0-3c0-1.2,0-2.5-0.1-3.9l1.5-0.8c0.1,0.2,1.1,1.4,2.9,3.9c1.8,2.5,3.6,4.8,5.2,6.9l0,0 c0-1,0-2.8-0.1-5.3c0-2.5-0.1-4.3-0.1-5.5L339.9,53L339.9,53z"></path> </g> </g> </g> <g> <radialGradient id="SVGID_1_" cx="565.7153" cy="-79.2835" r="5.3302" fx="563.0095" fy="-78.1039" gradientTransform="matrix(-0.1736 1.0494 0.9848 0.185 550.9892 -518.7609)" gradientUnits="userSpaceOnUse"> <stop offset="0" style="stop-color:#804099"></stop> <stop offset="9.159267e-03" style="stop-color:#80439A"></stop> <stop offset="0.3789" style="stop-color:#A380B5"></stop> <stop offset="0.678" style="stop-color:#C3B4D0"></stop> <stop offset="0.8918" style="stop-color:#DAD7E1"></stop> <stop offset="1" style="stop-color:#E6E7E7"></stop> </radialGradient> <path class="st8" d="M373.9,64.4c-2.4-0.5-4.1-2.6-3.7-4.7c0.4-2.1,2.6-3.5,5.1-3.1c2.4,0.5,4.1,2.6,3.7,4.7 C378.6,63.5,376.3,64.9,373.9,64.4z"></path> <path class="st9" d="M372.2,39.6c0,0-3.9-3.5-6-4.2c-2.1-0.7-6.2-1.3-7.5-0.9c-1.2,0.4-2.1,2.3-2.4,3.1s0.1,4.6-0.3,5.1 s-2.2,0.3-2.2,0.3l-3-0.6l1.5,2.8l1.9,1.6c0,0-4.2,3.5-4.8,4.6c-0.5,1.2,0.3,4.2,0.3,4.2s2.1-0.5,2.6-1.6s1.1-1.9,1.1-1.9 s0.7,5.5,0.8,6.1c0.2,0.6,0.4,1.6,1.9,2.3c1.5,0.7,2.7-2.6,3.2-4.1c0.4-1.4-0.3-5.7,0-6.7c0.3-1,1.9-2.4,1.9-2.4l2.1-1.4 c0,0,3.4,10.4,4.5,10.7c1.1,0.3,1.7-14.2,1.7-14.2l3.2-0.1L372.2,39.6z"></path> <g> <path class="st1" d="M371.9,37.9c-1.3-0.9-2.7-1.6-4.1-2.2c-1.4-0.6-2.9-1-4.5-1.2c-1.5-0.1-3.1-0.2-4.6-0.2 c-1.5-0.1-3.1-0.1-4.6-0.1l0.5-0.6c0.3,1.2,0.6,2.4,0.8,3.6c0.1,0.6,0.2,1.2,0.2,1.9c0,0.3,0,0.7-0.1,1 c-0.1,0.2-0.1,0.4-0.2,0.6c-0.1,0.1-0.2,0.2-0.3,0.3c-0.1,0.1-0.2,0.1-0.3,0.2c-0.4,0.2-0.7,0.2-1,0.3s-0.6,0.1-0.9,0.1 c-0.6,0.1-1.1,0.1-1.7,0.1c-1.1,0-2.3-0.1-3.4-0.1l0.6-1.2l3.3,4.3l0.4,0.5l-0.4,0.5c-0.9,1-1.7,2.1-2.4,3.2 c-0.3,0.6-0.7,1.2-0.9,1.7c-0.2,0.5-0.3,1.2-0.3,1.9c-0.1,0.7-0.1,1.3,0,2c0.1,0.6,0.2,1.4,0.3,1.9c0,0.1,0.1,0.1,0.1,0.1 s0,0-0.1-0.1l-0.1-0.1h-0.1l0,0l0,0c0,0,0,0,0.1,0c0.1,0,0.1,0,0.2,0c0.3,0,0.6-0.1,0.9-0.1c0.7-0.1,1.3-0.3,1.9-0.5l0.6-0.2 l0.3,0.6l1.2,2.4l0.6,1.2l0.3,0.6l0.2,0.3c0,0.1,0.1,0.1,0.1,0.1s0,0,0.1,0.1c0.5,0.6,1.2,1.2,1.8,1.9l1.8,1.9l-1.2,0.2 c0.7-1.4,1.2-2.9,1.8-4.3c0.3-0.8,0.5-1.4,0.7-2.1c0.2-0.8,0.4-1.5,0.5-2.3s0.3-1.6,0.5-2.3c0.2-0.8,0.3-1.6,0.3-2.3 c0.1-0.6,0.2-1,0.3-1.4c0.1-0.4,0.3-0.8,0.4-1.2c0.3-0.8,0.7-1.4,1-2.2l0.7-1.2l0.5,1.3c1.6,3.7,3.3,7.4,4.9,11.1l-0.8-0.1 c0.7-0.9,1.4-1.8,1.7-2.8c0.1-0.2,0.2-0.5,0.2-0.8c0-0.1,0-0.2,0-0.4v-0.5c0-0.6,0-1.2,0-1.8c0-2.4,0.1-4.7,0.1-7.2V44l0.1-0.1 l1.2-0.4c0.4-0.2,0.8-0.3,1.1-0.5l0,0c0,0,0,0,0,0.1c0,0.1,0.1,0.1,0.1,0.1c0,0,0,0-0.1,0c-0.1,0-0.1,0-0.2,0l-0.3,0.1l-0.6,0.1 l-1.2,0.3l1.2-0.4l0.6-0.2l0.3-0.1c0.1,0,0.1,0,0.2-0.1c0.1,0,0.1,0,0.1,0c0,0,0.1,0.1,0.1,0.1c0,0.1,0,0.1-0.1,0.1 c0,0-0.1,0-0.1,0.1c-0.4,0.2-0.8,0.4-1.1,0.6l-1.1,0.5l0.1-0.2c0.1,2.4,0.2,4.7,0.2,7.1c0,0.6,0.1,1.2,0.1,1.8l0.1,0.4 c0,0.2,0,0.3,0,0.5c0,0.3-0.1,0.7-0.2,1c-0.4,1.2-1,2.3-1.7,3.2l-0.4,0.6l-0.3-0.7c-1.7-3.6-3.5-7.3-5.2-10.9l1.2,0.1 c-0.3,0.7-0.7,1.4-0.9,2.1c-0.2,0.3-0.3,0.7-0.4,1c-0.1,0.3-0.2,0.7-0.2,0.9c-0.1,0.9-0.2,1.7-0.3,2.5c-0.2,0.8-0.3,1.6-0.5,2.4 c-0.2,0.8-0.3,1.6-0.5,2.4c-0.2,0.8-0.4,1.6-0.8,2.4c-0.6,1.5-1.2,3-1.8,4.4l-0.4,1l-0.8-0.8l-1.9-1.9c-0.7-0.6-1.2-1.2-1.8-2 c-0.1-0.1-0.1-0.1-0.2-0.2c-0.1-0.1-0.1-0.1-0.1-0.2l-0.2-0.3l-0.3-0.6l-0.6-1.2l-1.2-2.4l0.9,0.5c-0.7,0.2-1.4,0.3-2,0.5 c-0.3,0.1-0.7,0.1-1.1,0.2c-0.1,0-0.2,0-0.3,0c-0.1,0-0.2,0-0.2,0H348h-0.1h-0.1c-0.1,0-0.2-0.1-0.3-0.1 c-0.3-0.2-0.3-0.3-0.4-0.5c-0.1-0.1-0.1-0.2-0.2-0.3c-0.3-0.9-0.4-1.6-0.4-2.4c-0.1-0.8-0.1-1.5,0-2.3s0.1-1.5,0.4-2.3 c0.3-0.8,0.7-1.4,1-2c0.8-1.2,1.7-2.3,2.7-3.4l-0.1,1l-3.2-4.3l-1-1.3l1.6,0.2c1.1,0.1,2.2,0.2,3.3,0.2c0.5,0,1.1,0,1.6,0 c0.3,0,0.5-0.1,0.8-0.1c0.3-0.1,0.5-0.1,0.7-0.2c0.1,0,0.1-0.1,0.1-0.1l0,0c0,0,0.1-0.1,0.1-0.2c0.1-0.2,0.1-0.5,0.1-0.8 c0-0.5-0.1-1.2-0.1-1.7c-0.2-1.2-0.4-2.3-0.7-3.5l-0.2-0.7l0.7,0.1c3.1,0.2,6.2,0.4,9.3,0.8c1.6,0.2,3.1,0.8,4.5,1.4 C369.4,36.1,370.7,36.9,371.9,37.9z"></path> </g> <g> <path class="st1" d="M368.9,22.4c0.8-0.5,1.5-1.3,1.8-2.1c0.2-0.5,0.3-0.9,0.3-1.3c0-0.5-0.1-0.9-0.2-1.3 c-0.3-0.8-0.9-1.3-1.8-1.6c-0.8-0.2-1.8-0.4-2.6-0.4c-0.4,0-0.8,0.1-1.1,0.2c-0.3,0.1-0.5,0.3-0.8,0.7c-0.4,0.6-0.7,1.6-0.8,2.5 c-0.1,0.5-0.1,0.9-0.1,1.4c0,0.4,0.1,0.9,0.2,1.3c0.2,0.9,0.5,1.8,0.9,2.6c0.1,0.2,0.2,0.4,0.3,0.6c0.1,0.2,0.2,0.3,0.3,0.4 c0.3,0.2,0.7,0.5,1.1,0.8c0.8,0.5,1.6,1,2.4,1.4c0.4,0.2,0.9,0.5,1.2,0.6l0.1,0.1l0.2,0.1l0.3,0.1l0.7,0.2 c0.9,0.2,1.8,0.4,2.8,0.7c0.5,0.2,0.9,0.3,1.4,0.5c0.2,0.1,0.5,0.2,0.7,0.3c0.1,0.1,0.3,0.2,0.4,0.3c0.1,0.1,0.2,0.2,0.3,0.3 c0.7,0.8,1.3,1.7,1.5,2.8s0,2.1-0.2,3.1c-0.2,1-0.5,2-0.9,2.9c0.2-1,0.3-2,0.4-3c0.1-1,0.2-2-0.1-2.8c-0.3-0.9-0.8-1.6-1.5-2.2 c-0.1-0.1-0.2-0.2-0.3-0.2c-0.1-0.1-0.1-0.1-0.2-0.1c-0.2-0.1-0.4-0.2-0.6-0.2c-0.4-0.1-0.9-0.2-1.3-0.3 c-0.9-0.2-1.8-0.3-2.8-0.5l-0.7-0.1l-0.3-0.2l-0.2-0.1l-0.2-0.1c-0.5-0.2-1-0.4-1.4-0.6c-0.9-0.4-1.7-0.9-2.6-1.4 c-0.4-0.3-0.8-0.5-1.3-0.9c-0.2-0.2-0.5-0.5-0.7-0.8c-0.2-0.2-0.3-0.5-0.4-0.8c-0.5-1-0.8-2-1-3.1c-0.1-0.5-0.2-1.1-0.2-1.7 s0.1-1.1,0.1-1.6c0.2-1.1,0.5-2.1,1.2-3.1c0.3-0.5,0.9-0.9,1.4-1.2c0.5-0.2,1.1-0.2,1.6-0.2c0.5,0,1,0.1,1.5,0.2 c0.5,0.1,0.9,0.2,1.4,0.5c0.5,0.2,1,0.5,1.4,0.9c0.4,0.4,0.7,0.9,0.8,1.5c0.1,0.6,0.1,1.1,0.1,1.7c-0.1,0.5-0.3,1-0.5,1.5 C370.7,21.4,369.9,22,368.9,22.4z"></path> </g> <radialGradient id="SVGID_2_" cx="442.5501" cy="-164.0488" r="5.3302" fx="439.8444" fy="-162.8692" gradientTransform="matrix(0.9397 0.3644 0.342 -1.0014 31.8459 -298.0168)" gradientUnits="userSpaceOnUse"> <stop offset="0" style="stop-color:#804099"></stop> <stop offset="9.159267e-03" style="stop-color:#80439A"></stop> <stop offset="0.3789" style="stop-color:#A380B5"></stop> <stop offset="0.678" style="stop-color:#C3B4D0"></stop> <stop offset="0.8918" style="stop-color:#DAD7E1"></stop> <stop offset="1" style="stop-color:#E6E7E7"></stop> </radialGradient> <path class="st10" d="M395.3,29.1c-0.9,2.5-3.1,3.9-5.1,3.1c-2-0.8-2.8-3.4-2-5.8c0.9-2.5,3.1-3.9,5.1-3.1 C395.2,24,396.2,26.7,395.3,29.1z"></path> <radialGradient id="SVGID_3_" cx="455.0049" cy="-161.6252" r="5.3302" fx="452.7361" fy="-158.7862" gradientTransform="matrix(0.9397 0.3644 0.342 -1.0014 31.8459 -298.0168)" gradientUnits="userSpaceOnUse"> <stop offset="0" style="stop-color:#804099"></stop> <stop offset="9.159267e-03" style="stop-color:#80439A"></stop> <stop offset="0.3789" style="stop-color:#A380B5"></stop> <stop offset="0.678" style="stop-color:#C3B4D0"></stop> <stop offset="0.8918" style="stop-color:#DAD7E1"></stop> <stop offset="1" style="stop-color:#E6E7E7"></stop> </radialGradient> <path class="st11" d="M408.2,31.1c-0.9,2.5-3.1,3.9-5.1,3.1c-2-0.8-2.8-3.4-2-5.8s3.1-3.9,5.1-3.1C408.2,26,409,28.6,408.2,31.1z "></path> <radialGradient id="SVGID_4_" cx="470.0048" cy="-181.0361" r="5.3302" fx="467.2991" fy="-179.8565" gradientTransform="matrix(0.9397 0.3644 0.342 -1.0014 31.8459 -298.0168)" gradientUnits="userSpaceOnUse"> <stop offset="0" style="stop-color:#804099"></stop> <stop offset="9.159267e-03" style="stop-color:#80439A"></stop> <stop offset="0.3789" style="stop-color:#A380B5"></stop> <stop offset="0.678" style="stop-color:#C3B4D0"></stop> <stop offset="0.8918" style="stop-color:#DAD7E1"></stop> <stop offset="1" style="stop-color:#E6E7E7"></stop> </radialGradient> <path class="st12" d="M415.3,56.1c-0.9,2.5-3.1,3.9-5.1,3.1c-2-0.8-2.8-3.4-2-5.8c0.9-2.5,3.1-3.9,5.1-3.1S416.1,53.7,415.3,56.1 z"></path> <radialGradient id="SVGID_5_" cx="456.6752" cy="-192.4161" r="5.3302" fx="453.9695" fy="-191.2365" gradientTransform="matrix(0.9397 0.3644 0.342 -1.0014 31.8459 -298.0168)" gradientUnits="userSpaceOnUse"> <stop offset="0" style="stop-color:#804099"></stop> <stop offset="9.159267e-03" style="stop-color:#80439A"></stop> <stop offset="0.3789" style="stop-color:#A380B5"></stop> <stop offset="0.678" style="stop-color:#C3B4D0"></stop> <stop offset="0.8918" style="stop-color:#DAD7E1"></stop> <stop offset="1" style="stop-color:#E6E7E7"></stop> </radialGradient> <path class="st13" d="M398.9,62.7c-0.9,2.5-3.1,3.9-5.1,3.1c-2-0.8-2.8-3.4-2-5.8c0.9-2.5,3.1-3.9,5.1-3.1 C398.8,57.6,399.7,60.2,398.9,62.7z"></path> <radialGradient id="SVGID_6_" cx="488.905" cy="-177.9634" r="5.3302" fx="486.1992" fy="-176.7837" gradientTransform="matrix(0.9397 0.3644 0.342 -1.0014 31.8459 -298.0168)" gradientUnits="userSpaceOnUse"> <stop offset="0" style="stop-color:#804099"></stop> <stop offset="9.159267e-03" style="stop-color:#80439A"></stop> <stop offset="0.3789" style="stop-color:#A380B5"></stop> <stop offset="0.678" style="stop-color:#C3B4D0"></stop> <stop offset="0.8918" style="stop-color:#DAD7E1"></stop> <stop offset="1" style="stop-color:#E6E7E7"></stop> </radialGradient> <path class="st14" d="M434.1,60c-0.9,2.5-3.1,3.9-5.1,3.1c-2-0.8-2.8-3.4-2-5.8c0.9-2.5,3.1-3.9,5.1-3.1 C434.1,54.9,434.9,57.5,434.1,60z"></path> <radialGradient id="SVGID_7_" cx="582.854" cy="-47.0126" r="5.3302" fx="580.1483" fy="-45.8329" gradientTransform="matrix(-0.1736 1.0494 0.9848 0.185 533.1686 -563.264)" gradientUnits="userSpaceOnUse"> <stop offset="0" style="stop-color:#67308F"></stop> <stop offset="0.4707" style="stop-color:#4E59A7"></stop> <stop offset="0.822" style="stop-color:#326FB7"></stop> <stop offset="1" style="stop-color:#1C76BC"></stop> </radialGradient> <path class="st15" d="M384.9,43.9c-2.4-0.5-4.1-2.6-3.7-4.7c0.4-2.1,2.6-3.5,5.1-3.1c2.4,0.5,4.1,2.6,3.7,4.7 S387.3,44.3,384.9,43.9z"></path> <radialGradient id="SVGID_8_" cx="572.6712" cy="-61.2076" r="5.3302" fx="569.9655" fy="-60.028" gradientTransform="matrix(-0.1736 1.0494 0.9848 0.185 539.2837 -541.2988)" gradientUnits="userSpaceOnUse"> <stop offset="0" style="stop-color:#67308F"></stop> <stop offset="0.4707" style="stop-color:#4E59A7"></stop> <stop offset="0.822" style="stop-color:#326FB7"></stop> <stop offset="1" style="stop-color:#1C76BC"></stop> </radialGradient> <path class="st16" d="M378.8,52.5c-2.4-0.5-4.1-2.6-3.7-4.7c0.4-2.1,2.6-3.5,5.1-3.1s4.1,2.6,3.7,4.7 C383.4,51.6,381.2,53,378.8,52.5z"></path> <radialGradient id="SVGID_9_" cx="444.9708" cy="-194.162" r="5.3302" fx="442.265" fy="-192.9823" gradientTransform="matrix(0.9397 0.3644 0.342 -1.0014 31.8459 -298.0168)" gradientUnits="userSpaceOnUse"> <stop offset="0" style="stop-color:#67308F"></stop> <stop offset="0.4707" style="stop-color:#4E59A7"></stop> <stop offset="0.822" style="stop-color:#326FB7"></stop> <stop offset="1" style="stop-color:#1C76BC"></stop> </radialGradient> <path class="st17" d="M387.2,60.1c-0.9,2.5-3.1,3.9-5.1,3.1c-2-0.8-2.8-3.4-2-5.8c0.9-2.5,3.1-3.9,5.1-3.1 C387.2,55.1,388.1,57.7,387.2,60.1z"></path> <radialGradient id="SVGID_10_" cx="460.4653" cy="-169.5213" r="5.3302" fx="457.7596" fy="-168.3416" gradientTransform="matrix(0.9397 0.3644 0.342 -1.0014 31.8459 -298.0168)" gradientUnits="userSpaceOnUse"> <stop offset="0" style="stop-color:#67308F"></stop> <stop offset="0.4707" style="stop-color:#4E59A7"></stop> <stop offset="0.822" style="stop-color:#326FB7"></stop> <stop offset="1" style="stop-color:#1C76BC"></stop> </radialGradient> <path class="st18" d="M410.3,41.2c-0.9,2.5-3.1,3.9-5.1,3.1c-2-0.8-2.8-3.4-2-5.8c0.9-2.5,3.1-3.9,5.1-3.1 C410.3,36.1,411.1,38.7,410.3,41.2z"></path> <radialGradient id="SVGID_11_" cx="555.0365" cy="-152.2949" r="5.3302" fx="552.3308" fy="-151.1153" gradientTransform="matrix(0.6018 0.851 0.7986 -0.6413 202.499 -527.5669)" gradientUnits="userSpaceOnUse"> <stop offset="0" style="stop-color:#67308F"></stop> <stop offset="0.4707" style="stop-color:#4E59A7"></stop> <stop offset="0.822" style="stop-color:#326FB7"></stop> <stop offset="1" style="stop-color:#1C76BC"></stop> </radialGradient> <path class="st19" d="M417.2,45.9c-2,1.6-4.6,1.4-5.8-0.3c-1.2-1.7-0.7-4.5,1.3-6c2-1.6,4.6-1.4,5.8,0.3 C419.8,41.6,419.2,44.3,417.2,45.9z"></path> <radialGradient id="SVGID_12_" cx="461.5648" cy="-180.3628" r="5.3302" fx="458.859" fy="-179.1832" gradientTransform="matrix(0.9397 0.3644 0.342 -1.0014 31.8459 -298.0168)" gradientUnits="userSpaceOnUse"> <stop offset="0" style="stop-color:#67308F"></stop> <stop offset="0.4707" style="stop-color:#4E59A7"></stop> <stop offset="0.822" style="stop-color:#326FB7"></stop> <stop offset="1" style="stop-color:#1C76BC"></stop> </radialGradient> <path class="st20" d="M407.6,52.4c-0.9,2.5-3.1,3.9-5.1,3.1c-2-0.8-2.8-3.4-2-5.8s3.1-3.9,5.1-3.1S408.4,49.9,407.6,52.4z"></path> <radialGradient id="SVGID_13_" cx="482.369" cy="-183.4111" r="5.3302" fx="479.6632" fy="-182.2315" gradientTransform="matrix(0.9397 0.3644 0.342 -1.0014 31.8459 -298.0168)" gradientUnits="userSpaceOnUse"> <stop offset="0" style="stop-color:#67308F"></stop> <stop offset="0.4707" style="stop-color:#4E59A7"></stop> <stop offset="0.822" style="stop-color:#326FB7"></stop> <stop offset="1" style="stop-color:#1C76BC"></stop> </radialGradient> <path class="st21" d="M426.1,63c-0.9,2.5-3.1,3.9-5.1,3.1c-2-0.8-2.8-3.4-2-5.8c0.9-2.5,3.1-3.9,5.1-3.1 C426,57.9,427,60.5,426.1,63z"></path> <radialGradient id="SVGID_14_" cx="475.3391" cy="-191.569" r="5.3302" fx="472.6334" fy="-190.3893" gradientTransform="matrix(0.9397 0.3644 0.342 -1.0014 31.8459 -298.0168)" gradientUnits="userSpaceOnUse"> <stop offset="0" style="stop-color:#67308F"></stop> <stop offset="0.4707" style="stop-color:#4E59A7"></stop> <stop offset="0.822" style="stop-color:#326FB7"></stop> <stop offset="1" style="stop-color:#1C76BC"></stop> </radialGradient> <path class="st22" d="M416.7,68.6c-0.9,2.5-3.1,3.9-5.1,3.1c-2-0.8-2.8-3.4-2-5.8c0.9-2.5,3.1-3.9,5.1-3.1 C416.6,63.5,417.6,66.2,416.7,68.6z"></path> <radialGradient id="SVGID_15_" cx="602.1609" cy="-46.7212" r="5.3302" fx="599.4552" fy="-45.5416" gradientTransform="matrix(-0.1736 1.0494 0.9848 0.185 546.7569 -585.3157)" gradientUnits="userSpaceOnUse"> <stop offset="0" style="stop-color:#67308F"></stop> <stop offset="9.350008e-02" style="stop-color:#654291"></stop> <stop offset="0.4316" style="stop-color:#57768D"></stop> <stop offset="0.7053" style="stop-color:#459884"></stop> <stop offset="0.901" style="stop-color:#35AC7A"></stop> <stop offset="1" style="stop-color:#2DB674"></stop> </radialGradient> <path class="st23" d="M395.4,42.1c-2.4-0.5-4.1-2.6-3.7-4.7s2.6-3.5,5.1-3.1c2.4,0.5,4.1,2.6,3.7,4.7 C400.1,41.2,397.8,42.6,395.4,42.1z"></path> <radialGradient id="SVGID_16_" cx="653.5259" cy="-60.6418" r="5.3302" fx="650.8202" fy="-59.4622" gradientTransform="matrix(-0.2588 1.0293 0.9659 0.2758 651.5741 -603.447)" gradientUnits="userSpaceOnUse"> <stop offset="0" style="stop-color:#67308F"></stop> <stop offset="9.350008e-02" style="stop-color:#654291"></stop> <stop offset="0.4316" style="stop-color:#57768D"></stop> <stop offset="0.7053" style="stop-color:#459884"></stop> <stop offset="0.901" style="stop-color:#35AC7A"></stop> <stop offset="1" style="stop-color:#2DB674"></stop> </radialGradient> <path class="st24" d="M422.7,56.5c-2.4-0.7-3.9-3-3.4-5.1c0.5-2.1,2.9-3.3,5.3-2.6s3.9,3,3.4,5.1 C427.5,56.1,425.1,57.2,422.7,56.5z"></path> <radialGradient id="SVGID_17_" cx="586.4846" cy="-139.2164" r="5.3302" fx="583.7789" fy="-138.0367" gradientTransform="matrix(0.225 1.0383 0.9744 -0.2398 407.8665 -579.4095)" gradientUnits="userSpaceOnUse"> <stop offset="0" style="stop-color:#67308F"></stop> <stop offset="9.350008e-02" style="stop-color:#654291"></stop> <stop offset="0.4316" style="stop-color:#57768D"></stop> <stop offset="0.7053" style="stop-color:#459884"></stop> <stop offset="0.901" style="stop-color:#35AC7A"></stop> <stop offset="1" style="stop-color:#2DB674"></stop> </radialGradient> <path class="st25" d="M405,67.1c-2.4,0.6-4.7-0.6-5.2-2.8c-0.5-2.1,1.1-4.3,3.5-4.9c2.4-0.6,4.7,0.6,5.2,2.8 C408.9,64.3,407.3,66.5,405,67.1z"></path> <radialGradient id="SVGID_18_" cx="450.5665" cy="-181.5446" r="5.3302" fx="447.8607" fy="-180.365" gradientTransform="matrix(0.9397 0.3644 0.342 -1.0014 31.8459 -298.0168)" gradientUnits="userSpaceOnUse"> <stop offset="0" style="stop-color:#804099"></stop> <stop offset="9.159267e-03" style="stop-color:#80439A"></stop> <stop offset="0.3789" style="stop-color:#A380B5"></stop> <stop offset="0.678" style="stop-color:#C3B4D0"></stop> <stop offset="0.8918" style="stop-color:#DAD7E1"></stop> <stop offset="1" style="stop-color:#E6E7E7"></stop> </radialGradient> <path class="st26" d="M396.9,49.5c-0.9,2.5-3.1,3.9-5.1,3.1c-2-0.8-2.8-3.4-2-5.8c0.9-2.5,3.1-3.9,5.1-3.1 C396.8,44.5,397.7,47.1,396.9,49.5z"></path> <g> <path class="st1" d="M390,33c0.6,0.3,1.3,0.5,2,0.4s1.3-0.3,1.8-0.7c1.1-0.7,1.9-1.6,2.6-2.7c0.7-1.1,1.1-2.5,0.9-3.9 c-0.2-1.4-1.1-2.6-2.3-3.1c-1.2-0.5-2.4-0.3-3.5,0.2c-1.1,0.5-1.9,1.5-2.5,2.6c-0.3,0.6-0.5,1.2-0.6,1.8 c-0.1,0.6-0.2,1.3-0.2,1.9c0.1,0.6,0.2,1.4,0.5,2C388.9,32.2,389.4,32.7,390,33z M390,33.2c-1.2-0.7-2.3-1.9-2.9-3.4 c-0.3-0.8-0.4-1.6-0.3-2.4c0.1-0.8,0.3-1.6,0.7-2.4c0.7-1.5,2-2.7,3.5-3.2c0.8-0.3,1.5-0.4,2.3-0.3c0.8,0.1,1.5,0.4,2.2,0.8 c1.3,0.9,2.1,2.3,2.4,3.8c0.4,1.4,0.4,3.1-0.2,4.7c-0.6,1.5-1.9,2.7-3.4,3.1C392.7,34.2,391.2,33.9,390,33.2z"></path> </g> <g> <path class="st1" d="M401.2,34.4c0.6,0.3,1.3,0.5,2,0.4s1.3-0.3,1.8-0.7c1.1-0.7,1.9-1.6,2.6-2.7c0.7-1.1,1.1-2.5,0.9-3.9 c-0.2-1.4-1.1-2.6-2.3-3.1c-1.2-0.5-2.4-0.3-3.5,0.2c-1.1,0.5-1.9,1.5-2.5,2.6c-0.3,0.6-0.5,1.2-0.6,1.8 c-0.1,0.6-0.2,1.3-0.2,1.9c0.1,0.6,0.2,1.4,0.5,2C400.1,33.5,400.6,34,401.2,34.4z M401.1,34.5c-1.2-0.7-2.3-1.9-2.9-3.4 c-0.3-0.8-0.4-1.6-0.3-2.4c0.1-0.8,0.3-1.6,0.7-2.4c0.7-1.5,2-2.7,3.5-3.2c0.8-0.3,1.5-0.4,2.3-0.3c0.8,0.1,1.5,0.4,2.2,0.8 c1.3,0.9,2.1,2.3,2.4,3.8c0.4,1.4,0.4,3.1-0.2,4.7c-0.6,1.5-1.9,2.7-3.4,3.1C403.8,35.5,402.3,35.2,401.1,34.5z"></path> </g> <g> <path class="st1" d="M394.1,42.3c0.6,0.3,1.3,0.5,2,0.4c0.7-0.1,1.3-0.3,1.8-0.7c1.1-0.7,1.9-1.6,2.6-2.7 c0.7-1.1,1.1-2.5,0.9-3.9c-0.2-1.4-1.1-2.6-2.3-3.1c-1.2-0.5-2.4-0.3-3.5,0.2c-1.1,0.5-1.9,1.5-2.5,2.6 c-0.3,0.6-0.5,1.2-0.6,1.8c-0.1,0.6-0.2,1.3-0.2,1.9c0.1,0.6,0.2,1.4,0.5,2C393,41.4,393.5,42,394.1,42.3z M394,42.5 c-1.2-0.7-2.3-1.9-2.9-3.4c-0.3-0.8-0.4-1.6-0.3-2.4c0.1-0.8,0.3-1.6,0.7-2.4c0.7-1.5,2-2.7,3.5-3.2c0.8-0.3,1.5-0.4,2.3-0.3 c0.8,0.1,1.5,0.4,2.2,0.8c1.3,0.9,2.1,2.3,2.4,3.8c0.4,1.4,0.4,3.1-0.2,4.7c-0.6,1.5-1.9,2.7-3.4,3.1 C396.8,43.5,395.3,43.2,394,42.5z"></path> </g> <g> <path class="st1" d="M383.1,44.5c0.6,0.3,1.3,0.5,2,0.4c0.7-0.1,1.3-0.3,1.8-0.7c1.1-0.7,1.9-1.6,2.6-2.7 c0.7-1.1,1.1-2.5,0.9-3.9c-0.2-1.4-1.1-2.6-2.3-3.1c-1.2-0.5-2.4-0.3-3.5,0.2c-1.1,0.5-1.9,1.5-2.5,2.6 c-0.3,0.6-0.5,1.2-0.6,1.8c-0.1,0.6-0.2,1.3-0.2,1.9c0.1,0.6,0.2,1.4,0.5,2C382,43.6,382.5,44.2,383.1,44.5z M383.1,44.6 c-1.2-0.7-2.3-1.9-2.9-3.4c-0.3-0.8-0.4-1.6-0.3-2.4c0.1-0.8,0.3-1.6,0.7-2.4c0.7-1.5,2-2.7,3.5-3.2c0.8-0.3,1.5-0.4,2.3-0.3 c0.8,0.1,1.5,0.4,2.2,0.8c1.3,0.9,2.1,2.3,2.4,3.8s0.4,3.1-0.2,4.7c-0.6,1.5-1.9,2.7-3.4,3.1C385.8,45.6,384.3,45.3,383.1,44.6z "></path> </g> <g> <path class="st1" d="M377.5,52.7c0.6,0.3,1.3,0.5,2,0.4c0.7-0.1,1.3-0.3,1.8-0.7c1.1-0.7,1.9-1.6,2.6-2.7 c0.7-1.1,1.1-2.5,0.9-3.9c-0.2-1.4-1.1-2.6-2.3-3.1s-2.4-0.3-3.5,0.2c-1.1,0.5-1.9,1.5-2.5,2.6c-0.3,0.6-0.5,1.2-0.6,1.8 c-0.1,0.6-0.2,1.3-0.2,1.9c0.1,0.6,0.2,1.4,0.5,2C376.4,51.9,376.9,52.4,377.5,52.7z M377.5,52.9c-1.2-0.7-2.3-1.9-2.9-3.4 c-0.3-0.8-0.4-1.6-0.3-2.4c0.1-0.8,0.3-1.6,0.7-2.4c0.7-1.5,2-2.7,3.5-3.2c0.8-0.3,1.5-0.4,2.3-0.3c0.8,0.1,1.5,0.4,2.2,0.8 c1.3,0.9,2.1,2.3,2.4,3.8c0.4,1.4,0.4,3.1-0.2,4.7c-0.6,1.5-1.9,2.7-3.4,3.1C380.2,53.9,378.7,53.6,377.5,52.9z"></path> </g> <g> <path class="st1" d="M371.8,64.2c0.6,0.3,1.3,0.5,2,0.4c0.7-0.1,1.3-0.3,1.8-0.7c1.1-0.7,1.9-1.6,2.6-2.7 c0.7-1.1,1.1-2.5,0.9-3.9c-0.2-1.4-1.1-2.6-2.3-3.1c-1.2-0.5-2.4-0.3-3.5,0.2c-1.1,0.5-1.9,1.5-2.5,2.6 c-0.3,0.6-0.5,1.2-0.6,1.8c-0.1,0.6-0.2,1.3-0.2,1.9c0.1,0.6,0.2,1.4,0.5,2C370.7,63.3,371.2,63.8,371.8,64.2z M371.8,64.3 c-1.2-0.7-2.3-1.9-2.9-3.4c-0.3-0.8-0.4-1.6-0.3-2.4c0.1-0.8,0.3-1.6,0.7-2.4c0.7-1.5,2-2.7,3.5-3.2c0.8-0.3,1.5-0.4,2.3-0.3 c0.8,0.1,1.5,0.4,2.2,0.8c1.3,0.9,2.1,2.3,2.4,3.8c0.4,1.4,0.4,3.1-0.2,4.7c-0.6,1.5-1.9,2.7-3.4,3.1 C374.5,65.3,373,65,371.8,64.3z"></path> </g> <g> <path class="st1" d="M382.1,63.3c0.6,0.3,1.3,0.5,2,0.4c0.7-0.1,1.3-0.3,1.8-0.7c1.1-0.7,1.9-1.6,2.6-2.7 c0.7-1.1,1.1-2.5,0.9-3.9c-0.2-1.4-1.1-2.6-2.3-3.1s-2.4-0.3-3.5,0.2c-1.1,0.5-1.9,1.5-2.5,2.6c-0.3,0.6-0.5,1.2-0.6,1.8 c-0.1,0.6-0.2,1.3-0.2,1.9s0.2,1.4,0.5,2C381.1,62.4,381.5,63,382.1,63.3z M382.1,63.4c-1.2-0.7-2.3-1.9-2.9-3.4 c-0.3-0.8-0.4-1.6-0.3-2.4c0.1-0.8,0.3-1.6,0.7-2.4c0.7-1.5,2-2.7,3.5-3.2c0.8-0.3,1.5-0.4,2.3-0.3c0.8,0.1,1.5,0.4,2.2,0.8 c1.3,0.9,2.1,2.3,2.4,3.8s0.4,3.1-0.2,4.7c-0.6,1.5-1.9,2.7-3.4,3.1C384.8,64.4,383.3,64.1,382.1,63.4z"></path> </g> <g> <path class="st1" d="M390.7,53.8c0.6,0.3,1.3,0.5,2,0.4c0.7-0.1,1.3-0.3,1.8-0.7c1.1-0.7,1.9-1.6,2.6-2.7 c0.7-1.1,1.1-2.5,0.9-3.9c-0.2-1.4-1.1-2.6-2.3-3.1s-2.4-0.3-3.5,0.2c-1.1,0.5-1.9,1.5-2.5,2.6c-0.3,0.6-0.5,1.2-0.6,1.8 c-0.1,0.6-0.2,1.3-0.2,1.9c0.1,0.6,0.2,1.4,0.5,2C389.6,52.9,390.1,53.4,390.7,53.8z M390.7,53.9c-1.2-0.7-2.3-1.9-2.9-3.4 c-0.3-0.8-0.4-1.6-0.3-2.4c0.1-0.8,0.3-1.6,0.7-2.4c0.7-1.5,2-2.7,3.5-3.2c0.8-0.3,1.5-0.4,2.3-0.3c0.8,0.1,1.5,0.4,2.2,0.8 c1.3,0.9,2.1,2.3,2.4,3.8c0.4,1.4,0.4,3.1-0.2,4.7c-0.6,1.5-1.9,2.7-3.4,3.1C393.4,54.9,391.9,54.6,390.7,53.9z"></path> </g> <g> <path class="st1" d="M391.8,65.6c0.6,0.3,1.3,0.5,2,0.4c0.7-0.1,1.3-0.3,1.8-0.7c1.1-0.7,1.9-1.6,2.6-2.7 c0.7-1.1,1.1-2.5,0.9-3.9c-0.2-1.4-1.1-2.6-2.3-3.1c-1.2-0.5-2.4-0.3-3.5,0.2c-1.1,0.5-1.9,1.5-2.5,2.6 c-0.3,0.6-0.5,1.2-0.6,1.8c-0.1,0.6-0.2,1.3-0.2,1.9c0.1,0.6,0.2,1.4,0.5,2C390.7,64.8,391.2,65.3,391.8,65.6z M391.8,65.7 c-1.2-0.7-2.3-1.9-2.9-3.4c-0.3-0.8-0.4-1.6-0.3-2.4c0.1-0.8,0.3-1.6,0.7-2.4c0.7-1.5,2-2.7,3.5-3.2c0.8-0.3,1.5-0.4,2.3-0.3 c0.8,0.1,1.5,0.4,2.2,0.8c1.3,0.9,2.1,2.3,2.4,3.8c0.4,1.4,0.4,3.1-0.2,4.7c-0.6,1.5-1.9,2.7-3.4,3.1 C394.5,66.7,393,66.4,391.8,65.7z"></path> </g> <g> <path class="st1" d="M404.1,46.1c0.6,0.3,1.3,0.5,2,0.4c0.7-0.1,1.3-0.3,1.8-0.7c1.1-0.7,1.9-1.6,2.6-2.7 c0.7-1.1,1.1-2.5,0.9-3.9c-0.2-1.4-1.1-2.6-2.3-3.1c-1.2-0.5-2.4-0.3-3.5,0.2c-1.1,0.5-1.9,1.5-2.5,2.6 c-0.3,0.6-0.5,1.2-0.6,1.8c-0.1,0.6-0.2,1.3-0.2,1.9c0.1,0.6,0.2,1.4,0.5,2C403.1,45.2,403.5,45.7,404.1,46.1z M404.1,46.2 c-1.2-0.7-2.3-1.9-2.9-3.4c-0.3-0.8-0.4-1.6-0.3-2.4c0.1-0.8,0.3-1.6,0.7-2.4c0.7-1.5,2-2.7,3.5-3.2c0.8-0.3,1.5-0.4,2.3-0.3 c0.8,0.1,1.5,0.4,2.2,0.8c1.3,0.9,2.1,2.3,2.4,3.8c0.4,1.4,0.4,3.1-0.2,4.7c-0.6,1.5-1.9,2.7-3.4,3.1 C406.8,47.2,405.3,46.9,404.1,46.2z"></path> </g> <g> <path class="st1" d="M401,56.8c0.6,0.3,1.3,0.5,2,0.4c0.7-0.1,1.3-0.3,1.8-0.7c1.1-0.7,1.9-1.6,2.6-2.7c0.7-1.1,1.1-2.5,0.9-3.9 c-0.2-1.4-1.1-2.6-2.3-3.1c-1.2-0.5-2.4-0.3-3.5,0.2c-1.1,0.5-1.9,1.5-2.5,2.6c-0.3,0.6-0.5,1.2-0.6,1.8 c-0.1,0.6-0.2,1.3-0.2,1.9c0.1,0.6,0.2,1.4,0.5,2C400,55.9,400.4,56.4,401,56.8z M401,57c-1.2-0.7-2.3-1.9-2.9-3.4 c-0.3-0.8-0.4-1.6-0.3-2.4c0.1-0.8,0.3-1.6,0.7-2.4c0.7-1.5,2-2.7,3.5-3.2c0.8-0.3,1.5-0.4,2.3-0.3c0.8,0.1,1.5,0.4,2.2,0.8 c1.3,0.9,2.1,2.3,2.4,3.8c0.4,1.4,0.4,3.1-0.2,4.7c-0.6,1.5-1.9,2.7-3.4,3.1C403.7,57.9,402.2,57.6,401,57z"></path> </g> <g> <path class="st1" d="M401.7,69.2c0.6,0.3,1.3,0.5,2,0.4c0.7-0.1,1.3-0.3,1.8-0.7c1.1-0.7,1.9-1.6,2.6-2.7 c0.7-1.1,1.1-2.5,0.9-3.9c-0.2-1.4-1.1-2.6-2.3-3.1s-2.4-0.3-3.5,0.2c-1.1,0.5-1.9,1.5-2.5,2.6c-0.3,0.6-0.5,1.2-0.6,1.8 c-0.1,0.6-0.2,1.3-0.2,1.9c0.1,0.6,0.2,1.4,0.5,2C400.6,68.4,401.1,68.9,401.7,69.2z M401.6,69.4c-1.2-0.7-2.3-1.9-2.9-3.4 c-0.3-0.8-0.4-1.6-0.3-2.4c0.1-0.8,0.3-1.6,0.7-2.4c0.7-1.5,2-2.7,3.5-3.2c0.8-0.3,1.5-0.4,2.3-0.3c0.8,0.1,1.5,0.4,2.2,0.8 c1.3,0.9,2.1,2.3,2.4,3.8c0.4,1.4,0.4,3.1-0.2,4.7c-0.6,1.5-1.9,2.7-3.4,3.1C404.4,70.4,402.9,70.1,401.6,69.4z"></path> </g> <g> <path class="st1" d="M411.7,72.9c0.6,0.3,1.3,0.5,2,0.4c0.7-0.1,1.3-0.3,1.8-0.7c1.1-0.7,1.9-1.6,2.6-2.7 c0.7-1.1,1.1-2.5,0.9-3.9c-0.2-1.4-1.1-2.6-2.3-3.1s-2.4-0.3-3.5,0.2c-1.1,0.5-1.9,1.5-2.5,2.6c-0.3,0.6-0.5,1.2-0.6,1.8 c-0.1,0.6-0.2,1.3-0.2,1.9c0.1,0.6,0.2,1.4,0.5,2C410.7,72,411.1,72.5,411.7,72.9z M411.7,73c-1.2-0.7-2.3-1.9-2.9-3.4 c-0.3-0.8-0.4-1.6-0.3-2.4c0.1-0.8,0.3-1.6,0.7-2.4c0.7-1.5,2-2.7,3.5-3.2c0.8-0.3,1.5-0.4,2.3-0.3c0.8,0.1,1.5,0.4,2.2,0.8 c1.3,0.9,2.1,2.3,2.4,3.8c0.4,1.4,0.4,3.1-0.2,4.7c-0.6,1.5-1.9,2.7-3.4,3.1C414.4,74,412.9,73.7,411.7,73z"></path> </g> <g> <path class="st1" d="M411.1,60.2c0.6,0.3,1.3,0.5,2,0.4c0.7-0.1,1.3-0.3,1.8-0.7c1.1-0.7,1.9-1.6,2.6-2.7 c0.7-1.1,1.1-2.5,0.9-3.9c-0.2-1.4-1.1-2.6-2.3-3.1s-2.4-0.3-3.5,0.2c-1.1,0.5-1.9,1.5-2.5,2.6c-0.3,0.6-0.5,1.2-0.6,1.8 c-0.1,0.6-0.2,1.3-0.2,1.9c0.1,0.6,0.2,1.4,0.5,2C410,59.4,410.5,59.9,411.1,60.2z M411,60.4c-1.2-0.7-2.3-1.9-2.9-3.4 c-0.3-0.8-0.4-1.6-0.3-2.4c0.1-0.8,0.3-1.6,0.7-2.4c0.7-1.5,2-2.7,3.5-3.2c0.8-0.3,1.5-0.4,2.3-0.3c0.8,0.1,1.5,0.4,2.2,0.8 c1.3,0.9,2.1,2.3,2.4,3.8c0.4,1.4,0.4,3.1-0.2,4.7c-0.6,1.5-1.9,2.7-3.4,3.1C413.8,61.4,412.2,61.1,411,60.4z"></path> </g> <g> <path class="st1" d="M413.1,49c0.6,0.3,1.3,0.5,2,0.4c0.7-0.1,1.3-0.3,1.8-0.7c1.1-0.7,1.9-1.6,2.6-2.7c0.7-1.1,1.1-2.5,0.9-3.9 c-0.2-1.4-1.1-2.6-2.3-3.1s-2.4-0.3-3.5,0.2c-1.1,0.5-1.9,1.5-2.5,2.6c-0.3,0.6-0.5,1.2-0.6,1.8c-0.1,0.6-0.2,1.3-0.2,1.9 c0.1,0.6,0.2,1.4,0.5,2C412,48.1,412.5,48.6,413.1,49z M413,49.1c-1.2-0.7-2.3-1.9-2.9-3.4c-0.3-0.8-0.4-1.6-0.3-2.4 c0.1-0.8,0.3-1.6,0.7-2.4c0.7-1.5,2-2.7,3.5-3.2c0.8-0.3,1.5-0.4,2.3-0.3c0.8,0.1,1.5,0.4,2.2,0.8c1.3,0.9,2.1,2.3,2.4,3.8 s0.4,3.1-0.2,4.7c-0.6,1.5-1.9,2.7-3.4,3.1C415.8,50.1,414.3,49.8,413,49.1z"></path> </g> <g> <path class="st1" d="M421.5,56.8c0.6,0.3,1.3,0.5,2,0.4c0.7-0.1,1.3-0.3,1.8-0.7c1.1-0.7,1.9-1.6,2.6-2.7 c0.7-1.1,1.1-2.5,0.9-3.9c-0.2-1.4-1.1-2.6-2.3-3.1c-1.2-0.5-2.4-0.3-3.5,0.2c-1.1,0.5-1.9,1.5-2.5,2.6 c-0.3,0.6-0.5,1.2-0.6,1.8c-0.1,0.6-0.2,1.3-0.2,1.9c0.1,0.6,0.2,1.4,0.5,2C420.4,55.9,420.9,56.4,421.5,56.8z M421.5,57 c-1.2-0.7-2.3-1.9-2.9-3.4c-0.3-0.8-0.4-1.6-0.3-2.4c0.1-0.8,0.3-1.6,0.7-2.4c0.7-1.5,2-2.7,3.5-3.2c0.8-0.3,1.5-0.4,2.3-0.3 c0.8,0.1,1.5,0.4,2.2,0.8c1.3,0.9,2.1,2.3,2.4,3.8c0.4,1.4,0.4,3.1-0.2,4.7c-0.6,1.5-1.9,2.7-3.4,3.1 C424.2,57.9,422.7,57.6,421.5,57z"></path> </g> <g> <path class="st1" d="M420.1,68.1c0.6,0.3,1.3,0.5,2,0.4c0.7-0.1,1.3-0.3,1.8-0.7c1.1-0.7,1.9-1.6,2.6-2.7 c0.7-1.1,1.1-2.5,0.9-3.9c-0.2-1.4-1.1-2.6-2.3-3.1c-1.2-0.5-2.4-0.3-3.5,0.2c-1.1,0.5-1.9,1.5-2.5,2.6 c-0.3,0.6-0.5,1.2-0.6,1.8c-0.1,0.6-0.2,1.3-0.2,1.9c0.1,0.6,0.2,1.4,0.5,2C419,67.2,419.5,67.7,420.1,68.1z M420,68.2 c-1.2-0.7-2.3-1.9-2.9-3.4c-0.3-0.8-0.4-1.6-0.3-2.4c0.1-0.8,0.3-1.6,0.7-2.4c0.7-1.5,2-2.7,3.5-3.2c0.8-0.3,1.5-0.4,2.3-0.3 c0.8,0.1,1.5,0.4,2.2,0.8c1.3,0.9,2.1,2.3,2.4,3.8s0.4,3.1-0.2,4.7c-0.6,1.5-1.9,2.7-3.4,3.1C422.7,69.2,421.2,68.9,420,68.2z"></path> </g> <g> <path class="st1" d="M429,63.4c0.6,0.3,1.3,0.5,2,0.4c0.7-0.1,1.3-0.3,1.8-0.7c1.1-0.7,1.9-1.6,2.6-2.7c0.7-1.1,1.1-2.5,0.9-3.9 c-0.2-1.4-1.1-2.6-2.3-3.1s-2.4-0.3-3.5,0.2c-1.1,0.5-1.9,1.5-2.5,2.6c-0.3,0.6-0.5,1.2-0.6,1.8s-0.2,1.3-0.2,1.9s0.2,1.4,0.5,2 C427.9,62.6,428.4,63.1,429,63.4z M429,63.6c-1.2-0.7-2.3-1.9-2.9-3.4c-0.3-0.8-0.4-1.6-0.3-2.4c0.1-0.8,0.3-1.6,0.7-2.4 c0.7-1.5,2-2.7,3.5-3.2c0.8-0.3,1.5-0.4,2.3-0.3c0.8,0.1,1.5,0.4,2.2,0.8c1.3,0.9,2.1,2.3,2.4,3.8c0.4,1.4,0.4,3.1-0.2,4.7 c-0.6,1.5-1.9,2.7-3.4,3.1C431.7,64.6,430.2,64.3,429,63.6z"></path> </g> </g> </g> </g> </svg> 