<?xml version="1.0" encoding="UTF-8"?> <!-- Generator: Adobe Illustrator 24.0.2, SVG Export Plug-In . SVG Version: 6.00 Build 0) --> <svg xmlns="http://www.w3.org/2000/svg" xmlns:xlink="http://www.w3.org/1999/xlink" id="Layer_1" x="0px" y="0px" viewBox="0 0 823.1 80.5" style="enable-background:new 0 0 823.1 80.5;" xml:space="preserve"> <style type="text/css"> .st0{fill:none;} .st1{fill:#676868;} .st2{font-family:'IowanOldStyle-Bold';} .st3{font-size:56.7306px;} .st4{font-size:42.5479px;} .st5{enable-background:new ;} .st6{font-size:55.4134px;} .st7{font-size:56.73px;} .st8{fill:none;stroke:#676868;stroke-miterlimit:10;} .st9{fill:#BA2025;} .st10{fill:#FFFFFF;} </style> <rect x="86.2" y="12.7" class="st0" width="736.9" height="56.6"></rect> <text transform="matrix(1 0 0 1 86.2139 54.656)" class="st1 st2 st3">T</text> <text transform="matrix(1 0 0 1 124.4131 54.656)" class="st1 st2 st4">HE</text> <text transform="matrix(1 0 0 1 188.9039 54.656)" class="st5"><tspan x="0" y="0" class="st1 st2 st6"> </tspan><tspan x="16.5" y="0" class="st1 st2 st3">O</tspan></text> <text transform="matrix(1 0 0 1 251.7457 54.656)" class="st1 st2 st4">HIO</text> <text transform="matrix(1 0 0 1 339.4649 54.656)" class="st5"><tspan x="0" y="0" class="st1 st2 st6"> </tspan><tspan x="16.5" y="0" class="st1 st2 st3">S</tspan></text> <text transform="matrix(1 0 0 1 389.338 54.656)" class="st1 st2 st4">TATE</text> <text transform="matrix(1 0 0 1 523.4927 54.656)" class="st5"><tspan x="0" y="0" class="st1 st2 st7">U</tspan><tspan x="46.8" y="0" class="st1 st2 st4">NIVERSITY</tspan></text> <line class="st8" x1="89.7" y1="65.8" x2="813.7" y2="65.8"></line> <g> <g> <path class="st9" d="M45.8,2.6H16.7L3.1,16.4v49.2L15.4,78h29.9l13.3-13.4V16.1C58.6,16.1,45.8,1.4,45.8,2.6z"></path> <path class="st8" d="M47.1,0.6H15.4L0.5,14.9v51.5l13.4,13.1h32.7l14.4-14V14.8C61.1,14.8,47.1-0.6,47.1,0.6z"></path> <path class="st10" d="M39.1,16.7H23.7l-7.1,8.5v30.5l6.5,7.7h15.7l7-8.3V25.1C45.8,25.1,39.1,15.9,39.1,16.7z"></path> </g> <path class="st8" d="M38,18.2H24.8l-6.1,7.9v28.4l5.5,7.2h13.6l6-7.8V26C43.8,26,38,17.5,38,18.2z"></path> </g> </svg> 