<?xml version="1.0" encoding="UTF-8"?> <!-- Generator: Adobe Illustrator 24.0.2, SVG Export Plug-In . SVG Version: 6.00 Build 0) --> <svg xmlns="http://www.w3.org/2000/svg" xmlns:xlink="http://www.w3.org/1999/xlink" id="wordmark" x="0px" y="0px" viewBox="0 0 60 60" style="enable-background:new 0 0 60 60;" xml:space="preserve"> <style type="text/css"> .st0{fill:#BB0212;} .st1{fill:none;stroke:#676767;stroke-miterlimit:10;} .st2{fill:#FFFFFF;} </style> <g> <g> <path class="st0" d="M41.3,1.6H19.3L9,12.1v37.3l9.3,9.5H41l10.1-10.2V11.9C51.2,11.9,41.3,0.7,41.3,1.6z"></path> <path class="st1" d="M42.4,0H18.3L7.1,10.9V50l10.2,10H42l10.9-10.6V10.9C53,10.9,42.4-0.8,42.4,0z"></path> <path class="st2" d="M36.3,12.3H24.6l-5.4,6.4v23.1l4.9,5.8h11.9l5.2-6.2V18.7C41.3,18.7,36.3,11.7,36.3,12.3z"></path> </g> <path class="st1" d="M35.5,13.5H25.4l-4.6,6V41l4.2,5.5h10.4l4.6-5.9V19.4C39.8,19.4,35.5,13,35.5,13.5z"></path> </g> </svg> 