<?xml version="1.0" encoding="UTF-8"?> <!-- Generator: Adobe Illustrator 24.0.2, SVG Export Plug-In . SVG Version: 6.00 Build 0) --> <svg xmlns="http://www.w3.org/2000/svg" xmlns:xlink="http://www.w3.org/1999/xlink" id="wordmark" x="0px" y="0px" viewBox="0 0 60 60" style="enable-background:new 0 0 60 60;" xml:space="preserve"> <g> <g> <path d="M2.1,16.3c-0.9-1.8-0.9-1.7-2.1-2.1v-0.4h5.8V14c-1.9,0.4-1.9,0.4-1,2.9L7,22.3l1.4-3.5c1.8-4.4,1.3-4.3-0.9-4.7v-0.4h5.2 V14c-1.5,0.2-1.9,1.2-3,3.9l-3.1,7.2L6,25L2.1,16.3z"></path> <path d="M13.8,20.2c0-1.1,0-0.9-1-1.6v-0.2l2.7-1.1l0.3,0.2l-0.1,1.9v3.2c0,1.3,0,1.3,1.3,1.7v0.4h-4.4v-0.4 c1.2-0.3,1.2-0.3,1.2-1.7C13.8,22.6,13.8,20.2,13.8,20.2z M14.8,15.6c-0.6,0-1.2-0.5-1.2-1.2s0.6-1.2,1.3-1.1 c0.6,0,1.1,0.5,1.1,1.1C15.9,15.2,15.4,15.8,14.8,15.6z"></path> <path d="M20.3,17.1l0.2,0.2l-0.2,1.9l0,0c0.5-0.8,1.4-2,2.6-2c0.5,0,1,0.4,1.1,1c0,0.6-0.8,1.3-1.3,1.6c-0.2-0.3-0.6-0.9-1.1-0.9 c-1,0-1,1.2-1,1.8v1.9c0,1.3,0,1.3,1.8,1.7v0.3h-4.9v-0.4c1.2-0.3,1.2-0.3,1.2-1.7v-2.5c0-1.1,0-0.9-1-1.6v-0.2L20.3,17.1z"></path> <path d="M32.9,18.8l-2-0.1c0.2,0.3,0.3,0.6,0.3,1.1c0,1.8-1.7,2.7-3.3,2.7c-0.4,0-0.8,0-1.2-0.1c-0.2,0.2-0.3,0.4-0.3,0.6 c0,1.7,6.2-1,6.2,2.4c0,2.4-3.6,3.5-5.6,3.5c-1.1,0-2.8-0.4-2.8-1.8c0-1,1.4-1.6,2.3-2l0,0c-0.8,0-1.8-0.4-1.8-1.3 c0-0.5,1.2-1.1,1.7-1.6c-1-0.3-1.7-1.1-1.7-2.1c0-1.8,1.8-2.7,3.3-2.7c0.8,0,1.5,0.2,2.3,0.5h2.7V18.8z M27.1,25.1 c-0.5,0.2-1,0.8-1,1.3c0,1.1,1.5,1.5,2.4,1.5c1,0,2.6-0.4,2.6-1.6c0-1.1-0.9-1.2-1.8-1.2H27.1z M26.6,19.6c0,0.9,0.4,2.3,1.4,2.3 s1.2-1.1,1.2-1.8c0-0.9-0.3-2.3-1.5-2.3C26.9,17.8,26.6,19,26.6,19.6z"></path> <path d="M34.3,20.2c0-1.1,0-0.9-1-1.6v-0.2l2.7-1.1l0.3,0.2l-0.1,1.9v3.2c0,1.3,0,1.3,1.3,1.7v0.4h-4.4v-0.4 c1.2-0.3,1.2-0.4,1.2-1.7V20.2z M35.3,15.6c-0.6,0-1.2-0.5-1.2-1.2s0.6-1.2,1.3-1.1c0.6,0,1.1,0.5,1.1,1.1 C36.4,15.2,35.9,15.8,35.3,15.6z"></path> <path d="M41.1,22.6c0,1.3,0,1.3,1.2,1.7v0.4h-4.3v-0.4c1.2-0.3,1.2-0.3,1.2-1.7v-2.5c0-1.1,0-0.9-1-1.6v-0.2l2.7-1.1l0.3,0.2 l-0.2,1c1-0.6,1.9-1.2,3-1.2c0.6,0,1.3,0.3,1.7,0.9c0.4,0.6,0.4,1.5,0.4,2.3v2.3c0,1.3,0,1.3,1.2,1.7v0.4H43v-0.4 c1.2-0.3,1.2-0.3,1.2-1.7v-2c0-1.3-0.3-2.3-1.8-2.3c-0.4,0-0.9,0.1-1.2,0.3C41.1,18.8,41.1,22.6,41.1,22.6z"></path> <path d="M49,20.2c0-1.1,0-0.9-1-1.6v-0.2l2.7-1.1l0.3,0.2l-0.1,1.9v3.2c0,1.3,0,1.3,1.3,1.7v0.4h-4.4v-0.4C49,24,49,24,49,22.6 V20.2z M49.9,15.6c-0.6,0-1.2-0.5-1.2-1.2s0.6-1.2,1.3-1.1c0.6,0,1.1,0.5,1.1,1.1C51,15.2,50.5,15.8,49.9,15.6z"></path> <path d="M56.7,20.7c0-1.3,0-2.4-1.4-2.4c-0.8,0-0.8,0.5-0.8,1.2v0.3l-1.4,0.1c-0.1,0-0.4,0-0.4-0.2c0-0.5,2.3-2.4,3.9-2.4 c1.8,0,2,1.9,2,3.4v1.8c0,1.1,0.2,1,1.3,1.4v0.3c-0.6,0.1-1.4,0.5-2,0.5s-1-0.3-1.1-0.9c-0.8,0.5-1.4,0.9-2.3,0.9 c-1,0-1.7-0.8-1.8-1.7v-0.1c0-0.3,0-0.5,0.1-0.9L56.7,20.7z M54.9,22.1c-0.1,0.2-0.1,0.4-0.1,0.8c0,0.6,0.3,1.2,1,1.2 c0.3,0,0.6-0.1,0.9-0.3v-2.6L54.9,22.1z"></path> </g> <g> <path d="M10.6,35.2l0.3-3.4h0.3c0.1,0.2,0.3,0.4,0.6,0.4c0.3,0,0.5,0,0.8,0h6.4c0.5,0,1.1,0.1,1.4-0.4h0.3l0.3,3.4l-0.4,0.1 c-0.6-2.1-1.7-2.4-3.9-2.4v6.3c0,2.8,0.2,2.7,2.4,3v0.4h-6.5v-0.4c2.1-0.3,2.4-0.2,2.4-3v-6.3c-2.1,0-3.2,0.2-3.9,2.4L10.6,35.2z"></path> <path d="M22.7,38.3c0,1.7,1,3.2,2.8,3.2c0.8,0,1.2-0.3,1.7-0.9l0.3,0.3c-0.8,1.1-1.8,1.9-3.1,1.9c-1.8,0-3.4-1.5-3.4-3.4v-0.1 c0-1.8,1.6-3.6,3.5-3.6c1.7,0,2.7,1,2.7,2.6H22.7z M25.4,37.6c-0.1-0.6-0.3-1.5-1.1-1.5c-0.8,0-1.3,0.9-1.4,1.5H25.4z"></path> <path d="M34.4,41.2c-1,1-1.7,1.6-3.1,1.6c-1.8,0-3.3-1.6-3.3-3.4c0-2.3,1.9-3.8,4.1-3.8c0.6,0,1.8,0.2,1.8,1.1 c0,0.4-0.4,0.9-0.9,0.9c-0.8,0-1.4-1.1-2-1.1c-0.9,0-1.3,1.2-1.3,1.9c0,1.5,1.1,3.1,2.8,3.1c0.6,0,1.2-0.2,1.6-0.6L34.4,41.2z"></path> <path d="M37.5,31.9v1.8v3c0.9-0.4,1.7-1,2.7-1c0.6,0,1.2,0.3,1.6,0.9c0.4,0.6,0.4,1.4,0.4,2.1v2.1c0,1.2,0,1.3,1.2,1.6v0.3h-4.1 v-0.3c1.1-0.3,1.1-0.3,1.1-1.6V39c0-1.2-0.3-2.1-1.7-2.1c-0.4,0-0.8,0.1-1.2,0.3v3.6c0,1.3,0,1.2,1.1,1.6v0.3h-4.1v-0.3 c1.2-0.3,1.2-0.3,1.2-1.6v-6.4c0-1.1,0-0.9-1-1.5v-0.3l2.5-1.1L37.5,31.9z"></path> <path d="M44.8,35.2c0-2.1,1.7-3.9,3.9-3.9s3.9,1.7,3.9,3.9S50.8,39,48.7,39c0,0,0,0-0.1,0C46.5,39,44.8,37.2,44.8,35.2z M51.6,35.2c0-1.7-1.3-3.1-3-3.1c-1.6,0-3,1.4-3,3.1s1.3,3.1,3,3.1l0,0C50.3,38.3,51.6,36.8,51.6,35.2L51.6,35.2z M50.7,37.2h-0.3 c-0.3,0-0.6,0-0.9-0.2c-0.4-0.3-0.5-1.7-1.3-1.6v1.2c0,0.2,0.1,0.3,0.4,0.3v0.3h-1.8v-0.3c0.3,0,0.3-0.1,0.3-0.3v-2.9 c0-0.2-0.1-0.3-0.3-0.3V33h1.9c0.6,0,1.5,0,1.5,1.1c0,0.5-0.5,1.1-1.1,1.1l0,0c0.5,0.1,0.8,0.6,0.9,1.1c0.1,0.3,0.3,0.6,0.6,0.6 V37.2z M48.3,35L48.3,35c0.6,0,1.1,0,1.1-0.9c0-0.6-0.3-0.8-0.8-0.8c-0.2,0-0.3,0-0.3,0.3V35z"></path> </g> </g> </svg> 