<?xml version="1.0" encoding="UTF-8"?> <!-- Generator: Adobe Illustrator 24.0.2, SVG Export Plug-In . SVG Version: 6.00 Build 0) --> <svg xmlns="http://www.w3.org/2000/svg" xmlns:xlink="http://www.w3.org/1999/xlink" id="Layer_1" x="0px" y="0px" viewBox="0 0 60 60" style="enable-background:new 0 0 60 60;" xml:space="preserve"> <style type="text/css"> .st0{fill:#001641;} </style> <g> <path class="st0" d="M7.9,32.9c-0.9,0.3-1.7,0.5-2.6,0.5c-1-0.1-1.8-0.2-2.6-0.5v-9.6H0.1v10.9c1.6,1,3.4,1.4,5.3,1.4 s3.7-0.4,5.3-1.4V23.3H8.1L7.9,32.9L7.9,32.9z"></path> <path class="st0" d="M20.4,25.7v1.7H23v-3.1c-1.6-1-3.4-1.4-5.3-1.4c-1.8,0-3.7,0.4-5.3,1.4v9.9c1.6,0.9,3.4,1.4,5.3,1.3 c1.8,0,3.7-0.4,5.3-1.3v-3.7h-2.6v2.3c-0.9,0.3-1.7,0.4-2.6,0.4s-1.7-0.1-2.6-0.4v-7.2c0.9-0.3,1.7-0.4,2.6-0.4 C18.7,25.3,19.6,25.4,20.4,25.7z"></path> <path class="st0" d="M24.9,24.4v9.9c1.6,0.9,3.4,1.4,5.3,1.3c1.8,0,3.7-0.4,5.3-1.3v-9.9C32.3,22.5,28.3,22.5,24.9,24.4z M32.9,32.9c-1.7,0.5-3.5,0.5-5.3,0v-7.2c0.9-0.3,1.7-0.4,2.6-0.4s1.8,0.1,2.6,0.4L32.9,32.9L32.9,32.9z"></path> <polygon class="st0" points="45.4,31.8 45.4,31.8 40.1,23.3 37.3,23.3 37.3,35.1 39.7,35.1 39.7,26.7 39.8,26.7 44.9,35.1 47.7,35.1 47.7,23.3 45.4,23.3 "></polygon> <polygon class="st0" points="57.7,31.8 57.6,31.8 52.4,23.3 49.6,23.3 49.6,35.1 51.9,35.1 51.9,26.7 52,26.7 57.3,35.1 60.1,35.1 60.1,23.3 57.7,23.3 "></polygon> </g> </svg> 