<?xml version="1.0" encoding="UTF-8"?> <!-- Generator: Adobe Illustrator 24.0.2, SVG Export Plug-In . SVG Version: 6.00 Build 0) --> <svg xmlns="http://www.w3.org/2000/svg" xmlns:xlink="http://www.w3.org/1999/xlink" id="Layer_1" x="0px" y="0px" viewBox="0 0 489.6 80" style="enable-background:new 0 0 489.6 80;" xml:space="preserve"> <style type="text/css"> .st0{fill:#EDB21F;} .st1{fill-rule:evenodd;clip-rule:evenodd;fill:#EDB21F;} </style> <g> <g id="Layer_2_2_"> <g id="Layer_1-2_1_"> <path class="st0" d="M97.7,44.5c1.4,3.5,1.8,5,2.5,5c0.6,0,0.9-0.2,1.3-1.3l5.7-14.2c0.1-0.3,0.4-0.3,0.5-0.3s0.3,0.2,0.4,0.5 l5.6,13.4c0.7,1.6,0.9,2,1.4,2c0.8,0,1.2-1,1.5-1.7L129.6,17c1.7-4,3-2.6,3-3.8c0-0.6-0.3-0.6-0.6-0.6c-1.2,0-2.7,0.2-4.2,0.2 c-1.2,0-2.4-0.2-3.6-0.2c-0.3,0-0.6,0.3-0.6,0.8c0,1,3.3,0.7,3.3,2.9c0,0.6-0.1,1.2-0.4,1.7l-9.3,22.9c-0.5,1.1-0.8,1.9-1.1,1.9 c-0.4,0-0.6-0.4-1.1-1.6l-4.3-10.6c-0.3-0.8-0.6-1.6-0.7-2.4c0-0.7,0.2-1.3,0.5-1.9l3.6-8.4c2.3-5.4,3.5-3.4,3.5-4.8 c0-0.1-0.2-0.3-0.4-0.3c-0.9,0-1.5,0.2-3.7,0.2c-1.1,0-2.2-0.2-3.3-0.2c-0.3,0-1,0-1,0.4c0,1.1,3,0.8,3,3 c-0.1,0.6-0.2,1.3-0.5,1.8l-2.5,6c-0.3,0.7-0.6,1.3-0.7,1.3s-0.2-0.4-0.7-1.3l-2.7-6.7c-0.2-0.5-0.4-1-0.4-1.5 c0-1.7,2.1-1.5,2.1-2.4c0-0.3-0.1-0.6-0.3-0.6c-1.1,0-2.5,0.2-5,0.2c-0.7,0-3.4-0.2-5.2-0.2c-0.5,0-0.8,0-0.8,0.6 c0,1.7,3.6-0.1,5,3.3l5,12.2c0.2,0.5,0.4,1,0.5,1.6c-0.1,0.7-0.3,1.4-0.6,2.1l-3.8,9c-0.2,0.6-0.5,0.9-0.7,0.9s-0.7-0.8-0.9-1.3 l-9.7-24c-0.2-0.4-0.3-0.8-0.3-1.3c0-1.7,2.2-1.7,2.2-2.5c0-0.4-0.1-0.6-0.4-0.6c-1.2,0-2.4,0.2-3.7,0.2c-1.5,0-3-0.2-4.5-0.2 c-0.5,0-1.2,0.2-1.2,0.8c0,1,2.4,0.4,3.7,3.4L97.7,44.5z"></path> <path class="st1" d="M127.8,34.2c0-2.8,2.2-6.4,5.4-6.4c2.8,0,5.7,2.6,5.7,5.4c0,0.8-0.3,1-1,1L127.8,34.2z M141.4,35.6 c1.2,0,1.7,0.1,1.7-0.9c0-2-2.7-8.1-9-8.1c-6.3,0-10,5.5-10,12c0,3.4,2.6,10.5,10.3,10.5c4.6,0,9-3.7,9-4.8c0-0.2,0-0.4-0.2-0.4 c-1.1,0-2.8,2.7-7.2,2.7c-3.1,0-8.2-2.5-8.2-11L141.4,35.6z"></path> <path class="st0" d="M151.7,39c2,1,4.6,1.8,4.6,4.5c0,2.7-2,4.2-4.5,4.2c-5.5,0-5-6.7-6.1-6.7c-0.8,0-0.6,1.6-0.6,2.5 c0,4,0,4.1,1.1,4.1s2.1,1.5,5.7,1.5c3.8,0,6.9-3.2,6.9-7c0-3.3-1.3-4.8-4.2-6.1c-5.4-2.1-6.7-3.2-6.7-4.9c0-1.8,1.4-3.3,3.2-3.3 c0.1,0,0.2,0,0.4,0c4.7,0,5.1,4.4,5.6,4.4c0.8,0,0.6-0.6,0.6-2c0.1-0.8,0-1.7-0.2-2.5c-0.6-0.8-4.1-1.2-5-1.2 c-3.7,0-6.9,2-6.9,6.1C145.6,36.3,149,37.7,151.7,39L151.7,39z"></path> <path class="st1" d="M162.3,43.1c0,5.3,3.4,5.9,5.7,5.9c3.6,0,6.3-1.7,6.3-2.5c0-0.4-0.2-0.5-0.4-0.5c-0.9,0-1.6,1.2-4.3,1.2 c-2,0-3.5-1-3.6-3.1V29.3h6.6l0.7-1.9c0.1-0.3-0.4-0.2-1.7-0.2h-5.6c0-3.7,0-4.7-0.7-4.7c-0.4,0-0.8-0.3-1,1.3 c-0.4,3.4-3.2,4.7-3.2,5.1c0.3-0.3-1,0.5,1.2,0.4L162.3,43.1L162.3,43.1z"></path> <path class="st0" d="M187.8,46.3c0.5,1.1,1.1,3.2,1.9,3.2s1.1-1.7,1.7-3l12.8-30c1.4-3.4,2.9-2.1,2.9-3.3c0-0.5-0.3-0.7-0.9-0.7 c-0.7,0-1.5,0.2-3.9,0.2c-1.1,0-2.2-0.2-3.4-0.2c-0.5,0-0.8,0.1-0.8,0.7c0,1.2,3.3,0.2,3.3,2.5c0,1.2-0.2,2.4-0.7,3.5l-8.9,21.9 c-0.2,0.6-0.4,1.4-0.9,1.4c-0.5,0-0.9-1.2-2-3.9l-9-21c-0.3-0.6-0.4-1.3-0.5-2c0-1.8,2.2-1.9,2.1-2.6c0-0.3-0.4-0.5-0.7-0.5 c-0.7,0-2.7,0.2-4,0.2c-1.5,0-3.1-0.2-4.7-0.2c-0.3,0-0.7,0.2-0.7,0.5c0,0.1,0,0.1,0,0.2c0,1.1,2.6,0.1,3.9,3.2L187.8,46.3z"></path> <path class="st0" d="M246.4,19.2c-0.6,0-2.1,2.2-2.1,2.7s1.5,2.7,2.1,2.7c0.6,0,2.2-2,2.2-2.7S247.1,19.2,246.4,19.2z"></path> <path class="st0" d="M281.3,18.9c-0.6,0-2.1,2.1-2.1,2.7s1.5,2.7,2.1,2.7c0.6,0,2.1-2,2.1-2.7S282,18.9,281.3,18.9z"></path> <path class="st1" d="M300.1,36.3c-12,2-12.8,5.2-12.8,8c0,3.6,2.2,4.8,5.5,4.8c2.9,0,5.6-1.1,7.8-3c0.6,1.7,2.2,2.7,4,2.6 c0.7,0,3-0.2,3-1.3c0-0.4-0.4-0.4-0.7-0.4c-0.2,0-0.7,0.1-0.9,0.1c-2.6,0-2.2-3-2.2-4.7V31.9c0-4.3-4.9-5.2-8.1-5.2 c-5.7-0.2-8.5,3.4-8.6,5.8c0,0.9,1.5,1.7,2.4,1.7c0.9,0,1.1-0.4,1.1-1s-0.3-1.3-0.3-2.1c0-2.8,2-3.1,4.4-3.1 c3.2,0,5.3,1.8,5.3,4.4L300.1,36.3L300.1,36.3z M300.1,43.4c0,2.7-3.5,4.1-5.3,4.1c-2.7,0-4.2-1.1-4.2-4c0-4.5,6.2-5.3,9.5-6 V43.4L300.1,43.4z"></path> <path class="st1" d="M210.5,47.5c-0.4,0-3.8,0-3.8-2.2V27c0-0.5-0.3-0.8-0.6-0.8c-1.2,0-2.2,1.6-5.5,2.5c-0.3,0-0.5,0.3-0.5,0.6 c0,1.1,2.8-0.2,2.8,2.8v12c0,4.7-2.2,2.7-2.2,4c0,0.5,0.4,0.6,0.8,0.6c0.6,0,1.9-0.2,3.5-0.2c2.1,0,3.7,0.2,4.8,0.2 c0.2,0,0.4,0,0.6,0c0.1,0,0.2,0,0.3,0c1.6-0.2,3.1-0.2,4.7-0.2c2.9,0,4.1,0.2,4.8,0.2c0.6,0,0.8-0.1,0.8-0.6 c0-1.6-4.6,0.8-4.6-3.9V32.8c0-0.7,4.1-7.8,10.3-7.5c1.8,0.1,1.5,0.2,2.7-1.7c0.5-0.8-1.9-0.8-2.9-0.7c-6.9,0.5-8.4,5.2-10.1,7.7 v-0.1V27c0-0.5-0.3-0.8-0.6-0.8c-1.2,0-2.2,1.6-6.1,2.5c-0.3,0-0.7,0.3-0.7,0.6c0,1.1,3.7-0.2,3.7,2.8v13.2 C212.7,46.5,211.7,47.4,210.5,47.5L210.5,47.5z"></path> <path class="st0" d="M277.3,47.5c-0.5,0-3.8,0.2-3.8-2.9v-8.4c0-3.9-1.5-9.5-8.3-9.5c-5,0-7.5,4.4-7.4,3.8V27 c0-0.5-0.3-0.8-0.6-0.8c-1.2,0-2.2,1.6-6.4,2.5c-0.3,0-0.5,0.3-0.5,0.6c0,1.1,3.8-0.2,3.8,2.8v12.7c0.2,1.3-0.7,2.5-2,2.6 c-0.2,0-0.3,0-0.5,0c-0.3-0.1-3.5-0.1-3.5-2.1V27c0-0.5-0.3-0.8-0.6-0.8c-1.2,0-2.2,1.6-5.5,2.5c-0.3,0-0.9,1.8-0.6,1.7 c1.7-0.2,2.9-1.4,2.9,1.6v12c0,4.7-2.2,2.7-2.2,4c0,0.5,0.4,0.6,0.8,0.6c0.6,0,1.9-0.2,3.5-0.2c2.1,0,3.7,0.2,4.8,0.2 c0.2,0,0.3,0,0.5,0h0.4c0.6,0,1.6-0.2,4.3-0.2c3,0,4,0.2,4.8,0.2c0.9,0,1.1-0.1,1.1-0.7c0-1.4-4.5,0.1-4.5-3.4V32.9 c-0.1-0.8,1.7-4,6-4s6,3.8,6,6.4v9.6c0,3.3-2.2,2.3-2.2,3.3c0,0.5,0.3,0.6,0.9,0.6c0.7,0,1.7-0.2,3.7-0.2c2.5,0,3.8,0.2,4.4,0.2 h1.2c0.6,0,1.9-0.2,3.5-0.2c2.1,0,3.7,0.2,4.7,0.2c0.7,0,1-0.1,1-0.6c0-1.3-4-0.2-4-2.8V27c0-0.5-0.3-0.8-0.6-0.8 c-1.2,0-2.2,1.6-5.5,2.5c-0.3,0-0.5,0.3-0.5,0.6c0,1.1,2.8-0.2,2.8,2.8v12C279.3,47.6,278,47.4,277.3,47.5L277.3,47.5z"></path> <path class="st0" d="M231.4,41.1c-3.6,0-4.8-3.5-4.8-6.5c0-2.7,0.8-5.9,4.7-5.9c3.6,0,4.9,3.6,4.9,6.7 C236,37.1,235.6,41.1,231.4,41.1L231.4,41.1z M244.2,28.7c-0.2-0.3-0.6-0.4-0.9-0.4h-0.1c-1.3,0.5-2.7,0.8-4.1,0.8 c-0.5,0-1-0.1-1.5-0.3c-0.4-0.2-0.8-0.4-1.1-0.6c-1.2-0.7-2.2-1.4-5.5-1.4c-4.6-0.2-8.4,3.4-8.6,8c0,0.1,0,0.2,0,0.4 c-0.1,2.5,1.1,4.8,3.1,6.3c-0.8,0.7-2.4,2.4-2.4,4.2c0,2.2,0.8,3.8,2.1,4.3c1.1,0.6,3.4,1,6.8,1.1c5.5,0.2,6.7,0.4,6.7,2.1 c0,0.8-0.4,4.7-8.1,4.7c-2,0-6.5-0.4-6.5-3.8c-0.1-0.8,0.1-1.5,0.7-2.1c0.2-0.2,0.2-0.5,0.1-0.8c-0.2-0.3-0.5-0.5-0.9-0.5 c-0.1,0-0.2,0-0.3,0c-1.5,0.3-2.6,1.7-2.4,3.2c0,4.6,5.9,5.8,9,5.8c8.5,0,11.6-4.2,11.6-7.8c0-4.9-5.3-4.9-8.1-4.9h-2.2 c-3.5,0-4.9-0.6-5.4-1.1c-0.3-0.3-0.4-0.6-0.3-1c0-1,1.1-2.5,2.1-2.5c0.2,0,0.4,0,0.5,0.1c1,0.2,2,0.3,3,0.3 c5.1,0,8.8-3.4,8.8-8.2c0-1-0.1-1.9-0.4-2.8c-0.1-0.2-0.2-0.4-0.3-0.5c-0.1-0.2-0.1-0.3-0.2-0.4c1.7-0.2,4.7-0.9,4.8-1.5 C244.3,29.3,244.3,28.9,244.2,28.7L244.2,28.7z"></path> <path class="st1" d="M418.7,47.5c-0.3,0.1-0.5,0.5-0.3,0.8c0.1,0.2,0.2,0.3,0.3,0.3c0.2,0.1-0.1,0,0.1,0h0.3 c1.6-0.2,3.1-0.2,4.7-0.2c2.9,0,4.1,0.2,4.8,0.2c0.6,0,0.8-0.1,0.8-0.6c0-1.6-4.5,0.8-4.5-4V32.7c0-0.7,4.1-7.8,10.3-7.5 c1.8,0.1,1.5,0.2,2.7-1.7c0.5-0.8-1.9-0.8-2.9-0.7c-6.9,0.5-8.4,5.2-10.1,7.7v-0.1v-3.4c0-0.5-0.3-0.8-0.6-0.8 c-1.2,0-2.2,1.6-6.1,2.5c-0.3,0.1-0.7,0.3-0.7,0.6c0,1.1,3.7-0.3,3.7,2.8v13.2C421.2,46.8,419.3,47.3,418.7,47.5L418.7,47.5z"></path> <path class="st1" d="M485.4,30.6c1-3.1,2.8-1.8,2.8-3c0-0.4-0.4-0.6-1-0.6c-0.6,0-1.4,0.2-2.6,0.2c-1.4,0-2.2-0.2-2.9-0.2 c-0.9,0-1.5,0-1.5,0.6c0,1.1,3.3,0.4,3.3,3.1c0,0.9-0.2,1.8-0.6,2.6c-3.5,11-3.9,11.5-3.9,11.5L473.5,31l0.1-0.1 c0.1,0.5-0.4-0.3-0.4-1.1c0-2,2.9-1,2.9-2.1c0-0.6-0.3-0.7-1.1-0.7s-2,0.2-3.8,0.2c-1.4,0-2.5-0.1-3.6-0.1c-0.7,0-0.8,0.1-1,0.5 c-1.3,2.6,1.9,0.8,2.4,1.9l6.7,16.5c0.6,1.1,0.9,2.2,1,3.4c0,4-4.8,12.8-12.6,11.7c-0.3,0-0.9-0.2-1.1,0.1 c0.2,0.1-0.7-0.2,0.9,2.1c0.6,0.5,1.7,0.7,3.5,0.3c5.2-1.2,8.8-6.4,8.9-6.6C479,53.1,485.4,30.6,485.4,30.6L485.4,30.6z"></path> <path class="st0" d="M315,16.7c0-3.7,3.4-2.3,3.4-3.7c0-0.6-1.4-0.5-1.6-0.5c-1.6,0-3.2,0.2-4.8,0.2c-1.4,0-2.6-0.2-4-0.2 c-0.3,0-1.1,0.2-1.1,0.5c0,1.6,4.1,0.4,4.1,3.4v17.2c0,7.9,2.6,15.4,15.9,15.4c14.8,0,14.2-12.6,14.2-15.1V18c0-4.7,3-3.6,3-5 c0-0.3-0.4-0.6-0.7-0.6c-0.9,0-1.8,0.2-2.8,0.2c-2,0-4-0.2-6-0.2c-0.3,0.1-0.5,0.3-0.5,0.5c0,1.9,4.7-0.2,4.7,5v16.5 c0,6-2.2,12.3-11.8,12.3c-6.9,0-12.2-3.7-12.2-11.9L315,16.7L315,16.7z"></path> <path class="st1" d="M402.2,34.1c0-2.8,2.3-6.4,5.4-6.4c2.8,0,5.7,2.5,5.7,5.4c0,0.8-0.3,1-1,1L402.2,34.1z M415.8,35.5 c1.2,0,1.7,0,1.7-0.9c0-2.1-2.7-8.1-9-8.1c-6.3,0-10,5.5-10,12c0,3.4,2.7,10.5,10.3,10.5c4.6,0,9-3.7,9-4.8c0-0.2,0-0.4-0.2-0.4 c-1.1,0-2.8,2.6-7.2,2.6c-3.1,0-8.2-2.5-8.2-11L415.8,35.5z"></path> <path class="st0" d="M438.4,39c2,1,4.6,1.8,4.6,4.5c0,2.7-2,4.2-4.5,4.2c-5.5,0-5-6.7-6.1-6.7c-0.8,0-0.6,1.6-0.6,2.5 c0,4,0,4.1,1.1,4.1c1.1,0,2.1,1.5,5.7,1.5c3.8,0,6.9-3.2,6.9-7c0-3.3-1.3-4.8-4.2-6.1c-5.4-2.2-6.7-3.2-6.7-4.9 c0-2.1,1.6-3.3,3.6-3.3c4.6,0,5.1,4.4,5.6,4.4c0.8,0,0.6-0.6,0.6-2c0.1-0.8,0-1.7-0.3-2.5c-0.6-0.8-4.1-1.2-5-1.2 c-3.7,0-6.9,2-6.9,6.1C432.2,36.3,435.6,37.6,438.4,39L438.4,39z"></path> <path class="st1" d="M458.6,43.1c0,5.3,3.4,5.9,5.7,5.9c3.6,0,6.3-1.7,6.3-2.5c0-0.4-0.2-0.5-0.4-0.5c-0.9,0-1.6,1.2-4.3,1.2 c-2,0-3.5-1-3.6-3.1V29.3h6.6l0.7-1.9c0.1-0.2-0.4-0.2-1.7-0.2h-5.6c0-3.7,0-4.7-0.7-4.7c-0.4,0-0.8-0.3-1,1.3 c-0.4,3.4-3.2,4.7-3.2,5.1c0.3-0.3-0.9,0.5,1.2,0.4L458.6,43.1L458.6,43.1z"></path> <path class="st0" d="M385.5,31.9c-0.4-0.8-0.6-1.6-0.8-2.5c0-1.5,2.9-0.9,2.9-1.9c0-0.6-0.4-0.6-1.2-0.6s-1.3,0.2-3.1,0.2 c-3.3,0-3.3-0.2-4.3-0.2c-0.9,0-1.1,0.2-1.1,0.6c0,0.9,1.8,0.1,2.8,2.4l7.6,17.4c0.1,0.3,0.4,1.2,1,1.2s0.8-0.6,1.7-2.7l7.7-16.3 c0.7-1.5,2.5-1.2,2.5-1.9c0-0.6-0.9-0.8-1.4-0.8c-0.9,0-1.8,0.2-2.6,0.2c-1.1,0-2.1-0.2-3.1-0.2c-0.7,0-1.2,0-1.2,0.6 c0,1.3,3.1-0.1,3.1,2.7c0,2.3-1.3,4.4-2.2,6.4l-3.4,7.3L385.5,31.9L385.5,31.9z"></path> <path class="st0" d="M370.3,48.6c0.2,0,0.2,0,0.5,0c0.6,0,1.9-0.2,3.5-0.2c2.1,0,3.7,0.2,4.8,0.2c0.7,0,1-0.1,1-0.6 c0-1.3-4-0.2-4-2.8V26.9c0-0.5-0.3-0.8-0.6-0.8c-1.2,0-2.2,1.6-5.5,2.5c-0.3,0-0.5,0.3-0.5,0.6c0,1.1,2.8-0.2,2.8,2.8V44 c0,3.5-1.3,3.3-1.9,3.3c-0.2,0-3.9,0.2-3.9-2.9v-8.4c0-3.9-1.5-9.5-8.3-9.5c-5,0-7.5,4.4-7.4,3.8v-3.4c0-0.5-0.3-0.8-0.6-0.8 c-1.2,0-2.2,1.6-6.4,2.5c-0.3,0-0.5,0.3-0.5,0.6c0,1.1,3.8-0.2,3.8,2.8v12.7c0,3.3-3,2.3-3,3.3c0,0.5,0.2,0.6,0.9,0.6 c0.7,0,1.6-0.2,4.3-0.2c3,0,4,0.2,4.8,0.2c0.9,0,1.1-0.1,1.1-0.7c0-1.4-4.5,0.1-4.5-3.4V32.7c0-0.8,1.7-4,6-4s6,3.8,6,6.4v9.5 c0,3.3-2.2,2.3-2.2,3.3c0,0.5,0.3,0.6,0.9,0.6s1.7-0.2,3.7-0.2c2.5,0,3.8,0.2,4.4,0.2L370.3,48.6L370.3,48.6z"></path> <path class="st0" d="M374.5,19.3c-0.6,0-2.1,2.2-2.1,2.7s1.5,2.6,2.1,2.6c0.6,0,2.1-2,2.1-2.6S375.1,19.3,374.5,19.3z"></path> <path class="st0" d="M449.4,43.9c0,4.6-2.3,2.7-2.3,4c0,0.5,0.4,0.6,0.8,0.6c0.4,0,1.9-0.2,3.5-0.2c2.1,0,3.7,0.2,4.7,0.2 c0.7,0,1-0.2,1-0.6c0-1.3-4-0.2-4-2.8V26.7c0-0.5-0.3-0.8-0.6-0.8c-1.2,0-2.2,1.6-5.5,2.5c-0.3,0-0.5,0.3-0.5,0.6 c0,1.1,2.8-0.2,2.8,2.8L449.4,43.9L449.4,43.9z"></path> <path class="st0" d="M451.5,19.3c-0.6,0-2.1,2.2-2.1,2.7s1.5,2.6,2.1,2.6c0.6,0,2.1-2,2.1-2.6S452.1,19.3,451.5,19.3z"></path> <path class="st0" d="M485.5,46.3v-1.2h0.8c0.4,0,0.9,0.1,0.9,0.6s-0.5,0.7-1,0.7H485.5z M485.5,46.8h0.7l1.1,1.7h0.7l-1.1-1.8 c0.6,0,1.1-0.5,1-1.1c0,0,0,0,0,0c0-0.8-0.5-1.1-1.4-1.1h-1.5v4h0.6L485.5,46.8L485.5,46.8z M483.4,46.5c0-1.6,1.4-2.8,2.9-2.7 c1.6,0,2.8,1.4,2.7,2.9c0,1.5-1.3,2.7-2.8,2.7c-1.6,0-2.8-1.2-2.8-2.8C483.4,46.6,483.4,46.6,483.4,46.5z M486.2,50 c1.9,0,3.5-1.6,3.4-3.5c0-1.9-1.6-3.5-3.5-3.4c-1.9,0-3.4,1.6-3.4,3.5C482.7,48.5,484.2,50,486.2,50C486.2,50,486.2,50,486.2,50z "></path> <path class="st0" d="M77,0H63.3c-2.4,0-3.2,0.8-4,2L49.2,16.9L39.6,2.3l-0.3-0.5c-0.2-0.3-0.4-0.4-0.7-0.4l0,0 c-0.3,0-0.6,0.2-0.7,0.4l-0.3,0.5l-9.4,14.7L17.6,2c-0.7-1.1-1.6-2-4-2H0v12.2h7.6c1.6,0,2.3,0.1,3.4,1.4l0.5,0.7l15.3,24 c0.3,0.5,0.8,0.7,1.3,0.8c0.6,0,1.1-0.3,1.4-0.8l9-13.4l0,0l9.3,13.4c0.3,0.4,0.8,0.7,1.3,0.8c0.5,0,1-0.3,1.3-0.8l15.1-24 l0.4-0.7c0.8-1.2,1.8-1.4,3.4-1.3h7.6L77,0z"></path> <path class="st0" d="M57.6,34.3l-8.3,13.1L38.7,32L30.5,44l17.3,27.1c0.6,1,1.1,1.2,1.3,1.2c0.5,0,0.8-0.3,1.4-1.2L64,46.4 c0.6-1.2,1.8-2,3.2-2.1H77V32H61.7C60.1,32.1,58.5,32.9,57.6,34.3L57.6,34.3z"></path> <path class="st0" d="M93.7,66.8h9.2v1.9h-7v3.4h6.5V74H96v3.7h7.1v2h-9.3V66.8z"></path> <path class="st0" d="M103.9,66.8h2.7l2.9,4.5l3-4.5h2.5l-4.2,6.2l4.6,6.7h-2.7l-3.2-4.9l-3.2,4.9h-2.6l4.5-6.6L103.9,66.8z"></path> <path class="st0" d="M115.4,66.8h10.4v1.9h-4.1v10.9h-2.2V68.8h-4.1L115.4,66.8z"></path> <path class="st0" d="M127.3,66.8h9.2v1.9h-7v3.4h6.5V74h-6.5v3.7h7.1v2h-9.3L127.3,66.8z"></path> <path class="st0" d="M138.4,66.8h2.4l5.8,9.4l0,0v-9.4h2.1v12.8h-2.4l-5.8-9.4h0v9.4h-2.1V66.8z"></path> <path class="st0" d="M153,75.4c0,0.4,0.1,0.9,0.2,1.3c0.2,0.3,0.4,0.6,0.7,0.8c0.3,0.2,0.6,0.4,1,0.5c0.4,0.1,0.8,0.2,1.3,0.1 c0.4,0,0.8,0,1.3-0.2c0.3-0.1,0.6-0.2,0.8-0.4c0.2-0.2,0.4-0.4,0.5-0.6c0.1-0.2,0.1-0.5,0.1-0.7c0-0.4-0.1-0.8-0.3-1.1 c-0.2-0.2-0.4-0.4-0.7-0.5c-0.5-0.2-1-0.4-1.6-0.5l-2.2-0.6c-0.5-0.1-1-0.3-1.4-0.6c-0.3-0.2-0.6-0.5-0.9-0.8 c-0.2-0.3-0.4-0.6-0.5-0.9c-0.1-0.3-0.1-0.7-0.1-1c0-0.6,0.1-1.2,0.4-1.7c0.3-0.5,0.6-0.9,1.1-1.2c0.5-0.3,1-0.5,1.5-0.7 c0.6-0.1,1.1-0.2,1.7-0.2c0.6,0,1.3,0.1,1.9,0.3c0.6,0.2,1.1,0.4,1.6,0.8c0.4,0.3,0.8,0.8,1.1,1.3c0.3,0.5,0.4,1.2,0.4,1.8h-2.2 c0-0.7-0.3-1.3-0.8-1.7c-0.6-0.4-1.2-0.5-1.9-0.5c-0.3,0-0.5,0-0.8,0.1c-0.3,0-0.5,0.1-0.7,0.3c-0.2,0.1-0.4,0.3-0.6,0.5 c-0.2,0.2-0.2,0.5-0.2,0.8c0,0.4,0.1,0.8,0.4,1.1c0.3,0.3,0.7,0.5,1.1,0.6l0.6,0.1l1.1,0.3l1.2,0.3l0.8,0.2 c0.4,0.1,0.8,0.3,1.1,0.5c0.3,0.2,0.6,0.5,0.8,0.8c0.2,0.3,0.4,0.6,0.5,0.9c0.1,0.3,0.1,0.7,0.1,1c0,0.6-0.1,1.3-0.4,1.8 c-0.3,0.5-0.7,0.9-1.2,1.2c-0.5,0.3-1.1,0.6-1.6,0.7c-1.3,0.3-2.6,0.3-3.9,0c-0.6-0.2-1.2-0.4-1.7-0.8c-0.5-0.4-0.9-0.9-1.1-1.4 c-0.3-0.6-0.5-1.3-0.4-2.1L153,75.4z"></path> <path class="st0" d="M163.1,66.8h2.2v12.8h-2.2L163.1,66.8z"></path> <path class="st0" d="M173.5,66.5c0.9,0,1.8,0.2,2.6,0.5c0.7,0.3,1.4,0.8,1.9,1.5c0.5,0.6,1,1.4,1.2,2.2c0.6,1.7,0.6,3.5,0,5.2 c-0.3,0.8-0.7,1.5-1.2,2.1c-0.5,0.6-1.2,1.1-1.9,1.4c-0.8,0.4-1.7,0.6-2.6,0.5c-0.9,0-1.8-0.2-2.6-0.5c-0.7-0.3-1.4-0.8-1.9-1.4 c-0.5-0.6-0.9-1.4-1.2-2.1c-0.6-1.7-0.6-3.5,0-5.2c0.3-0.8,0.7-1.5,1.2-2.1c0.5-0.6,1.2-1.1,1.9-1.5 C171.8,66.7,172.6,66.5,173.5,66.5z M173.5,68.4c-0.6,0-1.2,0.1-1.8,0.4c-0.5,0.3-0.9,0.6-1.2,1.1c-0.3,0.5-0.5,1-0.7,1.6 c-0.1,0.6-0.2,1.2-0.2,1.8c0,0.6,0.1,1.2,0.2,1.8c0.1,0.6,0.4,1.1,0.7,1.6c0.3,0.4,0.7,0.8,1.2,1.1c0.5,0.3,1.2,0.4,1.8,0.4 c0.6,0,1.2-0.1,1.7-0.4c0.5-0.3,0.9-0.6,1.2-1.1c0.3-0.5,0.6-1,0.7-1.6c0.2-0.6,0.2-1.2,0.2-1.8c0-0.6-0.1-1.2-0.2-1.8 c-0.1-0.6-0.4-1.1-0.7-1.6c-0.3-0.4-0.7-0.8-1.2-1.1C174.7,68.5,174.1,68.4,173.5,68.4z"></path> <path class="st0" d="M181.6,66.8h2.4l5.8,9.4l0,0v-9.4h2.1v12.8h-2.4l-5.8-9.4h-0.1v9.4h-2.1L181.6,66.8z"></path> <path class="st0" d="M201.1,75.4c0,0.4,0.1,0.9,0.2,1.3c0.2,0.3,0.4,0.6,0.7,0.8c0.3,0.2,0.6,0.4,1,0.5c0.4,0.1,0.8,0.2,1.3,0.1 c0.4,0,0.8,0,1.3-0.2c0.3-0.1,0.6-0.2,0.8-0.4c0.2-0.2,0.4-0.4,0.5-0.6c0.1-0.2,0.1-0.5,0.1-0.7c0-0.4-0.1-0.8-0.3-1.1 c-0.2-0.2-0.4-0.4-0.7-0.5c-0.5-0.2-1-0.3-1.6-0.5c-0.6-0.1-1.4-0.3-2.2-0.6c-0.5-0.1-1-0.3-1.4-0.6c-0.3-0.2-0.6-0.5-0.9-0.8 c-0.2-0.3-0.4-0.6-0.5-0.9c-0.1-0.3-0.1-0.7-0.1-1c0-0.6,0.1-1.2,0.4-1.7c0.3-0.5,0.6-0.9,1.1-1.2c0.5-0.3,1-0.5,1.5-0.7 c0.6-0.2,1.1-0.2,1.7-0.2c0.6,0,1.3,0.1,1.9,0.3c0.6,0.2,1.1,0.4,1.6,0.8c0.9,0.7,1.5,1.8,1.5,3h-2.2c0-0.7-0.3-1.3-0.8-1.7 c-0.6-0.4-1.2-0.5-1.9-0.5c-0.3,0-0.5,0-0.8,0.1c-0.3,0-0.5,0.1-0.8,0.3c-0.2,0.1-0.4,0.3-0.6,0.5c-0.2,0.2-0.2,0.5-0.2,0.8 c0,0.4,0.1,0.8,0.4,1.1c0.3,0.3,0.7,0.5,1.2,0.7l0.6,0.1l1.1,0.3l1.2,0.3l0.8,0.2c0.4,0.1,0.8,0.3,1.1,0.5 c0.3,0.2,0.6,0.5,0.8,0.8c0.2,0.3,0.4,0.6,0.5,0.9c0.1,0.3,0.1,0.7,0.1,1c0,1.2-0.6,2.4-1.6,3.1c-0.5,0.3-1.1,0.6-1.6,0.7 c-1.3,0.3-2.7,0.3-4-0.1c-0.6-0.2-1.2-0.4-1.7-0.8c-0.5-0.4-0.9-0.9-1.1-1.4c-0.3-0.6-0.5-1.3-0.4-2.1L201.1,75.4z"></path> <path class="st0" d="M211.2,66.8h9.2v1.9h-7v3.4h6.5V74h-6.5v3.7h7.1v2h-9.3L211.2,66.8z"></path> <path class="st0" d="M222.5,66.8h6.1c1.1-0.1,2.3,0.2,3.2,0.9c0.7,0.6,1.1,1.6,1.1,2.5c0,0.5-0.1,1-0.3,1.5 c-0.1,0.4-0.4,0.7-0.6,1c-0.2,0.2-0.4,0.4-0.7,0.5c-0.2,0.1-0.4,0.2-0.5,0.2l0,0c0.2,0,0.4,0.1,0.6,0.2c0.2,0.1,0.4,0.3,0.6,0.5 c0.2,0.2,0.4,0.5,0.5,0.8c0.1,0.4,0.2,0.8,0.2,1.3c0,0.7,0.1,1.4,0.2,2.1c0.1,0.5,0.2,0.9,0.5,1.3H231c-0.2-0.3-0.3-0.6-0.3-0.9 c0-0.3,0-0.7,0-1c0-0.5,0-1-0.1-1.5c-0.1-0.4-0.2-0.7-0.4-1.1c-0.2-0.3-0.5-0.5-0.8-0.6c-0.4-0.1-0.8-0.2-1.3-0.2h-3.3v5.3h-2.2 L222.5,66.8z M224.8,72.7h3.7c0.6,0,1.2-0.1,1.6-0.5c0.4-0.4,0.6-1,0.6-1.5c0-0.3,0-0.7-0.2-1c-0.1-0.2-0.3-0.5-0.5-0.6 c-0.2-0.1-0.5-0.2-0.7-0.3c-0.3-0.1-0.5-0.1-0.8-0.1h-3.6V72.7z"></path> <path class="st0" d="M233.4,66.8h2.3l3.2,10.1l0,0l3.3-10.1h2.3l-4.3,12.8h-2.5L233.4,66.8z"></path> <path class="st0" d="M245.8,66.8h2.2v12.8h-2.2V66.8z"></path> <path class="st0" d="M259.4,70.9c-0.1-0.3-0.2-0.7-0.4-1c-0.2-0.3-0.4-0.6-0.6-0.8c-0.3-0.2-0.6-0.4-0.9-0.5 c-0.4-0.1-0.8-0.2-1.2-0.2c-0.6,0-1.2,0.1-1.8,0.4c-0.5,0.3-0.9,0.6-1.2,1.1c-0.3,0.5-0.6,1-0.7,1.6c-0.1,0.6-0.2,1.2-0.2,1.8 c0,0.6,0.1,1.2,0.2,1.8c0.1,0.6,0.4,1.1,0.7,1.6c0.3,0.4,0.7,0.8,1.2,1.1c0.5,0.3,1.2,0.4,1.8,0.4c0.5,0,0.9-0.1,1.3-0.3 c0.4-0.2,0.7-0.4,1-0.7c0.3-0.3,0.5-0.7,0.6-1.1c0.2-0.4,0.3-0.9,0.3-1.3h2.2c0,0.7-0.2,1.4-0.5,2.1c-0.5,1.2-1.5,2.2-2.8,2.7 c-0.7,0.3-1.4,0.4-2.1,0.4c-0.9,0-1.8-0.2-2.6-0.5c-0.7-0.3-1.4-0.8-1.9-1.4c-0.5-0.6-1-1.4-1.2-2.1c-0.6-1.7-0.6-3.5,0-5.2 c0.3-0.8,0.7-1.5,1.2-2.1c0.5-0.6,1.2-1.1,1.9-1.5c0.8-0.4,1.7-0.6,2.6-0.5c0.7,0,1.3,0.1,2,0.3c0.6,0.2,1.2,0.5,1.7,0.9 c0.5,0.4,0.9,0.8,1.2,1.4c0.3,0.6,0.5,1.2,0.6,1.8L259.4,70.9z"></path> <path class="st0" d="M263.7,66.8h9.2v1.9h-7v3.4h6.5V74H266v3.7h7.1v2h-9.3V66.8z"></path> </g> </g> </g> </svg> 