<?xml version="1.0" encoding="UTF-8"?> <!-- Generator: Adobe Illustrator 24.0.2, SVG Export Plug-In . SVG Version: 6.00 Build 0) --> <svg xmlns="http://www.w3.org/2000/svg" xmlns:xlink="http://www.w3.org/1999/xlink" id="Layer_1" x="0px" y="0px" viewBox="0 0 300 80" style="enable-background:new 0 0 300 80;" xml:space="preserve"> <style type="text/css"> .st0{fill:#8B2533;} .st1{fill:#104C97;} .st2{fill:#789A3D;} </style> <g> <g id="Layer_1_2_"> <path class="st0" d="M108.3,3.1h3.2v19.5c0,1.5,0.1,3,0.3,4.5c0.2,0.9,0.5,1.7,0.9,2.4c0.6,1,1.5,1.8,2.5,2.4 c1.1,0.6,2.2,0.9,3.4,0.9c1.2,0,2.4-0.3,3.5-0.9c1-0.6,1.9-1.4,2.5-2.4c0.5-0.8,0.8-1.6,0.9-2.4c0.2-1.5,0.3-3,0.3-4.5V3.1h3.2 v20.6c0.2,3.3-0.6,6.6-2.5,9.4c-1.9,2.2-4.7,3.3-7.6,3.1c-3,0.3-5.9-0.9-8-3c-1.7-2-2.6-5.2-2.6-9.5L108.3,3.1z"></path> <path class="st0" d="M135.2,3.1h4.7l11.2,28.2l11.2-28.2h4.7v32.4h-3.1V6.9l-11.4,28.6h-2.8L138.3,6.9v28.6h-3.1V3.1z"></path> <path class="st0" d="M192.8,16l-0.3-4.8h3.2v24.4h-3.2l0.3-4.7c-0.9,1.7-2.3,3.1-3.9,4c-1.7,0.9-3.7,1.4-5.7,1.4 c-3.4,0.1-6.6-1.2-9-3.7c-2.4-2.4-3.7-5.7-3.6-9.1c-0.1-3.4,1.2-6.8,3.7-9.2c2.4-2.4,5.7-3.8,9.2-3.7c1.9,0,3.7,0.5,5.4,1.4 C190.5,12.9,191.8,14.3,192.8,16z M183.3,13.4c-2.5,0-5,1-6.7,2.9c-1.9,1.9-2.9,4.5-2.8,7.2c-0.1,2.6,0.9,5.1,2.8,6.9 c1.7,1.8,4.1,2.8,6.6,2.8c2.5,0,4.9-1.1,6.5-3c1.8-1.9,2.8-4.5,2.8-7.1c0-2.5-1-5-2.8-6.8C188.1,14.5,185.8,13.5,183.3,13.4 L183.3,13.4z"></path> <path class="st0" d="M214.4,17.2H211c0-1-0.4-2-1.1-2.7c-0.7-0.7-1.7-1-2.7-0.9c-0.9,0-1.8,0.4-2.5,1c-0.7,0.7-1,1.7-1,2.7 c0,0.6,0.1,1.2,0.4,1.8c0.3,0.5,0.8,1,1.3,1.3c0.8,0.5,1.7,0.8,2.6,1.1c0.8,0.2,1.6,0.5,2.3,0.8c1.4,0.5,2.5,1.4,3.4,2.6 c0.8,1.2,1.1,2.7,1.1,4.1c0,2-0.8,3.9-2.2,5.2c-1.5,1.4-3.5,2.1-5.6,2.1c-2.1,0.1-4.2-0.7-5.7-2.2c-1.5-1.7-2.3-3.9-2.2-6.1h3.3 v0.1c-0.1,1.4,0.4,2.7,1.3,3.8c0.8,1,2,1.5,3.2,1.5c1.1,0,2.3-0.4,3.1-1.2c0.8-0.8,1.2-1.8,1.2-2.9c0.1-1-0.3-2-0.9-2.8 c-1-0.9-2.2-1.6-3.5-2c-2-0.6-3.8-1.6-5.4-3c-0.9-1.1-1.3-2.5-1.2-3.9c0-1.9,0.7-3.7,2.1-4.9c2.8-2.6,7.1-2.7,10-0.2 C213.8,13.5,214.5,15.3,214.4,17.2z"></path> <path class="st0" d="M232.6,17.2h-3.4c0-1-0.4-2-1.1-2.7c-0.7-0.7-1.7-1-2.7-0.9c-1,0-1.9,0.4-2.6,1c-0.7,0.7-1,1.7-1,2.7 c0,0.6,0.1,1.2,0.4,1.8c0.3,0.5,0.8,1,1.3,1.3c0.8,0.5,1.7,0.8,2.6,1.1c0.8,0.2,1.6,0.5,2.3,0.8c1.4,0.5,2.5,1.4,3.4,2.6 c0.8,1.2,1.1,2.7,1.1,4.1c0,2-0.8,3.9-2.2,5.2c-1.5,1.4-3.5,2.1-5.6,2.1c-2.1,0.1-4.1-0.7-5.6-2.2c-1.5-1.7-2.3-3.9-2.2-6.1h3.3 v0.1c-0.1,1.4,0.4,2.7,1.3,3.8c0.8,1,2,1.5,3.2,1.5c1.1,0,2.3-0.4,3.1-1.2c0.8-0.8,1.3-1.8,1.2-2.9c0-1-0.3-2-1-2.8 c-1-0.9-2.2-1.6-3.5-2c-2-0.6-3.8-1.6-5.3-3c-0.9-1.1-1.3-2.5-1.2-3.9c0-1.9,0.7-3.7,2.1-4.9c2.8-2.6,7.1-2.7,10-0.2 C231.9,13.5,232.6,15.3,232.6,17.2z"></path> <path class="st0" d="M107.5,44.9h16.9V48h-13.7v11.5h13.6v3.1h-13.6v11.6h13.6v3.1h-16.8V44.9z"></path> <path class="st0" d="M128.6,52.9h3.5l5.7,9.3l6.1-9.3h3.6l-7.9,11.7l7.9,12.7h-3.6l-6.2-10.2l-6.5,10.2h-3.5l8.3-12.7L128.6,52.9z "></path> <path class="st0" d="M153.9,44.9h3.2v8h4.7v3.2H157v21.2h-3.2V56h-4.6v-3.1h4.6V44.9z"></path> <path class="st0" d="M188.9,66h-22.1c0.1,2.4,1.1,4.8,2.9,6.5c1.8,1.7,4.1,2.6,6.5,2.5c1.8,0,3.5-0.5,5-1.4c1.5-1,2.7-2.4,3.4-4 h3.6c-1,2.5-2.6,4.6-4.7,6.2c-2.1,1.5-4.5,2.2-7.1,2.2c-3.4,0.1-6.8-1.3-9.1-3.8c-2.4-2.5-3.7-5.8-3.6-9.2 c-0.1-3.4,1.2-6.8,3.6-9.2c2.4-2.4,5.7-3.8,9.1-3.7c3.5-0.1,6.8,1.3,9.2,3.8c2.4,2.8,3.7,6.4,3.5,10L188.9,66z M185.4,63.4 c-0.4-2.4-1.5-4.5-3.3-6.2c-1.8-1.4-4-2.2-6.2-2.1c-2.2,0-4.4,0.8-6,2.3c-1.7,1.6-2.8,3.7-3.1,6H185.4z"></path> <path class="st0" d="M213.3,63.2v14h-3.1V63.6c0.2-2.2-0.4-4.5-1.6-6.3c-1.4-1.4-3.3-2.1-5.3-1.9c-1.3,0-2.6,0.3-3.8,0.9 c-1,0.5-1.9,1.4-2.5,2.4c-0.4,0.7-0.6,1.4-0.8,2.2c-0.2,1.3-0.3,2.5-0.2,3.8v12.6h-3.1V52.9h3v2.8c0.9-1.1,2-1.9,3.3-2.5 c1.4-0.6,2.9-0.8,4.4-0.8c2.7-0.2,5.3,0.9,7.2,2.8C212.6,57.5,213.5,60.4,213.3,63.2z"></path> <path class="st0" d="M232.1,58.9h-3.4c0-1-0.4-2-1.1-2.7c-0.7-0.7-1.7-1-2.7-0.9c-1,0-1.9,0.4-2.6,1c-0.7,0.7-1,1.7-1,2.7 c0,0.6,0.1,1.2,0.4,1.8c0.3,0.5,0.8,1,1.3,1.3c0.8,0.5,1.7,0.8,2.6,1.1c0.8,0.2,1.6,0.5,2.3,0.8c2.8,1,4.7,3.7,4.4,6.7 c0,2-0.8,3.9-2.2,5.2c-1.5,1.4-3.5,2.1-5.6,2.1c-2.1,0.1-4.1-0.7-5.6-2.2c-1.5-1.7-2.3-3.9-2.2-6.1h3.3v0.1 c-0.1,1.4,0.4,2.7,1.3,3.8c0.8,1,2,1.5,3.2,1.5c1.1,0,2.3-0.4,3.1-1.2c0.8-0.8,1.2-1.8,1.2-2.9c0-1-0.3-2-1-2.8 c-1-0.9-2.2-1.6-3.5-2c-2-0.6-3.8-1.6-5.4-3c-0.9-1.1-1.3-2.5-1.2-3.9c0-1.9,0.7-3.6,2.1-4.9c2.5-2.8,6.9-3.1,9.7-0.6 C231.3,55,232.2,56.9,232.1,58.9L232.1,58.9z"></path> <path class="st0" d="M237,44.9h3.2v5H237V44.9z M237,52.9h3.2v24.4H237V52.9z"></path> <path class="st0" d="M257.1,52c7,0,12.7,5.7,12.7,12.7c0.1,3.5-1.2,6.8-3.6,9.3c-2.3,2.5-5.5,3.9-8.9,3.8c-3.4,0.1-6.7-1.3-9-3.8 c-2.5-2.4-3.8-5.7-3.8-9.1c0-3.5,1.3-6.8,3.8-9.2C250.6,53.3,253.8,52,257.1,52z M257,55.1c-2.4,0-4.8,1-6.4,2.8 c-3.6,4.1-3.6,10.1,0,14.2c1.7,1.9,4.2,2.9,6.7,2.8c2.5,0.1,5-1,6.7-2.9c1.8-2,2.7-4.6,2.6-7.3c0.1-2.6-0.9-5.1-2.8-6.9 C262.1,56,259.6,55,257,55.1z"></path> <path class="st0" d="M294.5,63.2v14h-3.1V63.6c0.2-2.2-0.4-4.5-1.7-6.3c-1.4-1.4-3.3-2.1-5.3-1.9c-1.3,0-2.6,0.3-3.8,0.9 c-1,0.5-1.9,1.4-2.5,2.4c-0.4,0.7-0.6,1.4-0.8,2.2c-0.2,1.3-0.3,2.5-0.2,3.8v12.6h-3.1V52.9h3v2.8c0.9-1.1,2.1-1.9,3.3-2.5 c1.4-0.6,2.9-0.8,4.4-0.8c2.7-0.2,5.4,0.8,7.3,2.7C293.9,57.4,294.7,60.3,294.5,63.2z"></path> </g> </g> <g> <g id="new_leaf_1_"> <path class="st0" d="M18,63.5c3.1,1.7,6.3,2.8,9.7,3.4c14.9,2.8,26.1-7.5,35.2-17.7c6-6.6,14.6-13.7,24-14.1 c-0.3-10.9-4.8-21.2-12.4-28.9c0,0.3,0.2,0.6,0.2,0.8c0.6,3.2,0.6,6.6,0,10c-1.1,4.8-2.9,9.4-5.5,13.5 c-8.1,13.8-24.4,22-40.3,21.5c-2.8-0.2-5.5-0.8-8-1.8c-8.5-3.8-11.7-14.4-11.7-23C9.2,17.4,12.9,8.2,19.5,1 C9.2,8.2,0.8,21.4,1,34.5c0,4.3,0.9,8.8,2.6,12.8C6.6,54,11.6,59.7,18,63.5z"></path> <path class="st1" d="M54,62.8c-7.2,7.1-17.4,10.1-27.4,8.5c-4-0.6-7.8-1.7-11.7-3.1c17.5,16,44.7,14.9,60.7-2.6 c6-6.5,9.8-14.8,10.9-23.5C73.2,38.6,62.6,54.3,54,62.8z"></path> <path class="st2" d="M15.4,39.7C2.8,7.7,33.8-3.3,67.8,0.8c-16.1,13.4-6.6,50.6-45.6,44.4c0,0,6-28.4,30-36.9l-0.3-0.2 C17.5,18.8,19.1,44,19.1,44C17.4,42.9,16,41.6,15.4,39.7z"></path> </g> </g> </svg> 