<?xml version="1.0" encoding="UTF-8"?> <!-- Generator: Adobe Illustrator 24.0.2, SVG Export Plug-In . SVG Version: 6.00 Build 0) --> <svg xmlns="http://www.w3.org/2000/svg" xmlns:xlink="http://www.w3.org/1999/xlink" id="Layer_1" x="0px" y="0px" viewBox="0 0 60 60" style="enable-background:new 0 0 60 60;" xml:space="preserve"> <style type="text/css"> .st0{fill:#FBF4F1;stroke:#231F20;stroke-miterlimit:10;} .st1{fill:#EDE6E6;stroke:#8C9295;stroke-miterlimit:10;} .st2{clip-path:url(#SVGID_2_);fill:none;stroke:#373430;stroke-miterlimit:10;} .st3{fill:#D00329;} .st4{fill:#782D1D;} .st5{fill:#2F5B2E;} .st6{fill:#EDDCE0;} .st7{fill:#AFA98E;} </style> <g> <ellipse class="st0" cx="29.6" cy="29.8" rx="25.3" ry="30"></ellipse> <ellipse class="st1" cx="29.5" cy="30" rx="18.5" ry="23.2"></ellipse> <g> <g> <g> <defs> <ellipse id="SVGID_1_" cx="29.6" cy="30.9" rx="18.7" ry="23.4"></ellipse> </defs> <clipPath id="SVGID_2_"> <use xlink:href="#SVGID_1_" style="overflow:visible;"></use> </clipPath> <path class="st2" d="M15.9,14.7h8.8v-2.5l1.7,0.2l0.3,1.1l0.5,1.7L27,16l1.7,0.3l2.1,1l1.3-0.2l1.3-0.3l1.3,0.5l0.5,0.8l1.7,0.5 l1.1,0.8l1.3,0.2l0.8,0.5l1.5-0.3h1.3l1.3,0.3l1-0.2h2.2l1.5,0.2L46.1,22l-1.9,0.9l-2.8,2.3l-3.8,3.2l-0.8,2.3 c0,0-0.5,2.3-0.5,2.8c0,0.5,0.2,3,0.2,3l0.2,2.8l1,2.8l1.3,1l1.9,3l1,1v1.1L19,47.9l-0.2-12.4L18,29.8l-1.4-5.5v-3.9l-0.3-3 L15.9,14.7z"></path> </g> </g> </g> <g> <path class="st3" d="M33.9,42.2c1-0.5,1.5,1.3,3.7,0.2c2.1-1.1,2.5-4.4,2.8-5.7c0.3-1.3,0-6.7-1-9.4s-4.4-4.2-5.5-4.4 c-1.1-0.2-3.2,0.3-4.4,1.1c-1.1,0.8-2.3,3-3.2,3.2c-1,0.2-2.8,0.3-4,0.8c-1.1,0.3-1.1,0-2.7,1c-1.5,1-1.7,1.5-1.9,2.5 c-0.2,1-0.3,2.3,0,4c0.3,1.7,1.9,3,3,4.4c1.1,1.3,3.7,2.8,5,3.8c1.3,1,4,1.3,5.9,1C33.6,44.3,32.9,42.7,33.9,42.2z"></path> <path class="st4" d="M26.4,26c0,0-0.3-3.5-0.2-4.4c0.2-1,1-1.9,1-1.9l-1.1-1c0,0-0.8,1.3-0.8,3.5S26.4,26,26.4,26z"></path> <polygon class="st5" points="25.3,26.3 23,25.3 21.6,22.6 19.9,21.2 19.5,22.1 16.3,20.8 15.9,21.6 15.1,22.1 13.4,21.9 10.7,22.4 12.4,24.6 13.6,25.8 13.7,26.8 15.6,27.2 16.3,28 17.4,27.5 19.7,28 21.8,27 22.4,26 "></polygon> </g> <g> <path class="st6" d="M45.1,47.9c0,0-1.2-0.4-2.3,0c-1,0.4-1,1.6-1,1.6S41.4,51.4,42,52c0.5,0.6,2.6,0.3,2.6,0.3l1.5-0.5 c0,0-0.5,1.3-0.1,1.9c0.4,0.5,1.6,0.6,2.5,0.6s1.5-0.2,2.2-1c0.5-0.8-0.2-2.5-0.2-2.5s2.5,0.1,3.1,0.1c0.6,0,1.5,0.1,2.1-0.8 c0.4-0.9-0.2-1.6-0.5-2.5c-0.3-0.9-2.2-0.8-2.2-0.8s0.5-0.8,0.8-1.3s0.2-1.6-0.3-2.6c-0.5-0.9-1.6-1.7-2.5-1.5 c-0.8,0.2-1.7,1.1-2.2,1.4c-0.4,0.3-0.3,1.8-0.3,1.8s-0.3-1.1-1.1-1.3s-1.4-0.4-2.3-0.2c-0.8,0.2-1.6,1-1.5,1.7 C43.6,46,45.1,47.9,45.1,47.9z"></path> <ellipse transform="matrix(0.9811 -0.1936 0.1936 0.9811 -8.4703 10.2779)" class="st7" cx="48.4" cy="48.5" rx="1.5" ry="1.2"></ellipse> </g> <g> <path class="st6" d="M10.8,45.1l-1.1-2.7c0,0-2.2-0.2-3,0.5c-1,0.8-1.2,1.4-1,1.9c0.2,0.5,1.9,1.5,1.9,1.5s-2.2,0.3-2.8,1 C4.2,48,4.3,49,4.5,49.4c0.1,0.4,1,1.7,1.7,1.7s2.1-0.8,2.1-0.8s0.5,1.8,1.1,2.1c0.5,0.2,1.4,0.1,2.1-0.2c0.6-0.3,1-1,1.1-1.3 c0.1-0.3-0.2-1.3-0.2-1.3l1.9,0.2c0,0,1.3,0.1,1.9,0c0.6-0.1,1-0.3,1.1-1.3s-0.2-1.9-0.8-2.1c-0.5-0.2-2.1-0.2-2.1-0.2 s1.5-1.2,1.5-2.1c0-0.9-0.9-2.1-1.3-2.7c-0.4-0.5-2.2-1.3-3-0.5C10.8,41.7,10.8,45.1,10.8,45.1z"></path> <ellipse transform="matrix(0.9811 -0.1936 0.1936 0.9811 -8.8938 2.8924)" class="st7" cx="10.4" cy="47" rx="1.5" ry="1.2"></ellipse> </g> </g> </svg> 