<?xml version="1.0" encoding="UTF-8"?> <!-- Generator: Adobe Illustrator 24.0.2, SVG Export Plug-In . SVG Version: 6.00 Build 0) --> <svg xmlns="http://www.w3.org/2000/svg" xmlns:xlink="http://www.w3.org/1999/xlink" id="Layer_1" x="0px" y="0px" viewBox="0 0 300 80" style="enable-background:new 0 0 300 80;" xml:space="preserve"> <style type="text/css"> .st0{fill:#1559A5;} .st1{fill:#0258A4;} .st2{fill:#FFFFFF;} </style> <g> <path class="st0" d="M98.9,13.2c0,4.5-2.8,7.1-7.7,7.1c-2.4,0-4.3-0.6-5.6-1.9c-1.2-1.2-1.9-2.9-1.9-4.7V4.4h-2V1.9H90v2.5h-2.5 v9.3c0,1.4,0.2,2.1,0.8,2.8c0.8,0.9,2,1.4,3.2,1.3c1.2,0.1,2.3-0.4,3.1-1.4c0.7-0.8,1-1.8,1-3.4V4.4h-2.4V1.9h7.8v2.5h-2V13.2z"></path> <path class="st0" d="M106.8,9.7c0.5-1.9,2.2-3.1,4.6-3.1c2.9,0,4.6,1.5,4.6,4.2v6.7h1.8V20h-7.2v-2.4h1.7v-5.7 c0-1.9-0.8-2.8-2.4-2.8c-1.7,0-2.8,1.3-2.8,3.4v5.1h1.7V20h-7.4v-2.4h1.9V9.5h-1.9V7.1h5.4V9.7z"></path> <path class="st0" d="M124.2,17.6h1.7V20h-7.2v-2.4h1.8V9.5h-1.8V7.1h5.5L124.2,17.6z M124.3,1.6V5h-3.9V1.6H124.3z"></path> <path class="st0" d="M132.7,13.4c0.9,2.5,1.2,3.3,1.3,4.4c0.3-1.4,0.8-2.8,1.3-4.2l1.5-4.1H135V7.1h6.4v2.4h-1.1L136.1,20h-4.4 l-4.3-10.5h-1.2V7.1h6.9v2.4h-1.8L132.7,13.4z"></path> <path class="st0" d="M155.4,16.1c-0.2,0.9-0.6,1.7-1.2,2.4c-1.1,1.2-2.8,1.9-5.1,1.9c-4.2,0-6.8-2.6-6.8-6.8s2.5-6.8,6.7-6.8 c4.4,0,6.6,2.4,6.6,7.2v0.6h-9.7c0.1,2.2,1.3,3.4,3.3,3.4c1.5,0,2.5-0.6,2.8-1.8H155.4z M151.9,12.3c-0.1-2.1-1.1-3.2-2.9-3.2 c-1.8,0-2.9,1.1-3.1,3.2H151.9z"></path> <path class="st0" d="M162.3,10.1c0.3-2,2-3.4,3.9-3.5c0.4,0,0.9,0.1,1.2,0.5v3.2c-0.4-0.1-0.8-0.2-1.2-0.2c-0.9,0-1.8,0.3-2.5,0.8 c-0.8,0.7-1.2,1.6-1.2,3.1v3.5h2.3V20h-8v-2.4h1.9V9.5h-1.9V7.1h5.4L162.3,10.1z"></path> <path class="st0" d="M177.4,7.1h2.7v4.3h-2.9v-0.2c0-1.3-1.1-2.1-2.7-2.1c-1.4,0-2.2,0.5-2.2,1.4c0,0.8,0.5,1.1,2.1,1.4l1.5,0.3 c2.9,0.5,4.3,1.8,4.3,3.9c0,2.5-1.9,4.1-4.9,4.1c-2,0-3.2-0.6-3.9-2V20h-2.7v-4.5h2.9c0.1,1.5,1.1,2.4,2.8,2.4 c1.4,0,2.4-0.6,2.4-1.5c0-0.4-0.3-0.9-0.6-1.1c-0.3-0.2-0.7-0.3-1.9-0.5l-1.6-0.3c-2.7-0.5-3.9-1.7-3.9-3.8c0-2.4,2-4.1,4.8-4.1 c1.8,0,2.8,0.6,3.7,2L177.4,7.1z"></path> <path class="st0" d="M187.4,17.6h1.7V20h-7.2v-2.4h1.8V9.5h-1.8V7.1h5.5L187.4,17.6z M187.4,1.6V5h-3.8V1.6H187.4z"></path> <path class="st0" d="M195.4,16.2c0,0.8,0,1,0.2,1.2c0.2,0.2,0.5,0.4,0.8,0.4c0.5,0,0.9-0.3,1-0.7c0.1-0.5,0.2-1,0.1-1.5h2.2 c0,1.4,0,1.7-0.2,2.4c-0.4,1.5-1.7,2.3-3.8,2.3c-2.8,0-4.1-1.4-4.1-4.3V9.5h-2.1V7.1h2.1V4.5l3.7-1.3v3.9h3.7v2.4h-3.7V16.2z"></path> <path class="st0" d="M201.7,9.5h-1.2V7.1h6.9v2.4h-1.9l2.2,5.2c0.3,0.7,0.6,1.5,0.7,2.3c0.1-0.4,0.2-0.7,0.2-0.8 c0.1-0.2,0.3-0.9,0.7-1.8l1.9-4.9h-1.9V7.1h6.4v2.4h-1.1l-5.3,11.9c-0.9,2.1-1.5,2.8-2.4,3.2c-0.7,0.3-1.5,0.4-2.2,0.4 c-0.6,0-1.3,0-1.9-0.2v-2.5c0.5,0.1,0.9,0.2,1.4,0.2c1.1,0,1.4-0.2,1.9-1.4l0.4-0.9L201.7,9.5z"></path> <path class="st0" d="M238.3,13.5c0,4.1-2.8,6.8-7.1,6.8c-4.4,0-7.2-2.7-7.2-7c0-4,2.8-6.7,7.1-6.7C235.5,6.7,238.3,9.3,238.3,13.5z M227.8,13.4c0,2.8,1.3,4.4,3.3,4.4c2.1,0,3.4-1.6,3.4-4.5c0-2.7-1.2-4.3-3.3-4.3C229.1,9.1,227.8,10.8,227.8,13.4L227.8,13.4z"></path> <path class="st0" d="M245.3,17.6h2.4V20h-8.1v-2.4h2V9.5h-2.1V7.1h2.1V5.9c0-3,1.8-4.6,5.1-4.6c0.8,0,1.7,0.1,2.5,0.3v2.4 c-0.5-0.1-1-0.1-1.6-0.2c-1.6,0-2.3,0.7-2.3,2.2v1.2h2.7v2.4h-2.7L245.3,17.6z"></path> <path class="st0" d="M88.8,34.3c-0.7-1.3-1.3-2.6-1.8-4c0.2,6,0.2,6.8,0.3,12.8h2.3v2.5h-7.8v-2.5h2.3V30h-2.3v-2.5h7.5l5.9,10.6 c0.7,1.3,1.1,2.2,1.7,4.2c-0.2-5.8-0.3-6.7-0.3-12.3h-2.4v-2.5h7.7v2.5h-2.1v15.6h-4.8L88.8,34.3z"></path> <path class="st0" d="M116.1,41.8c-0.2,0.9-0.6,1.7-1.2,2.4c-1.1,1.2-2.8,1.9-5.1,1.9c-4.2,0-6.8-2.6-6.8-6.8s2.5-6.8,6.7-6.8 c4.4,0,6.6,2.4,6.6,7.2v0.6h-9.7c0.1,2.2,1.3,3.4,3.3,3.4c1.5,0,2.5-0.6,2.8-1.8H116.1z M112.7,37.9c-0.1-2.1-1.1-3.2-2.9-3.2 c-1.8,0-2.9,1.1-3.1,3.2H112.7z"></path> <path class="st0" d="M123.6,39.6c0.4,1.2,0.7,2.5,0.8,3.8c0.1-0.2,0.1-0.4,0.1-0.4c0.1-0.4,0.2-0.9,0.2-1.3 c0.1-0.6,0.3-1.4,0.6-2.3l2-6.6h4.4l2.1,6.9c0.4,1.2,0.7,2.5,0.8,3.8l0.1-0.4c0.2-1.3,0.4-2.6,0.9-3.8l1.2-4H135v-2.4h6.5v2.4h-1.4 l-3.4,10.5h-4.6l-2.1-6.9c-0.4-1.1-0.6-2.3-0.7-3.4c-0.1,1.1-0.3,2.3-0.7,3.4l-2.1,7H122l-3.4-10.5h-1.4v-2.4h6.9v2.4h-1.9 L123.6,39.6z"></path> <path class="st0" d="M163.7,35.3V30h-2.4v-2.5h8.5V30h-2.3v13.1h2.3v2.5h-8.5v-2.5h2.4v-5.4h-7.9v5.4h2.4v2.5h-8.5v-2.5h2.3V30 h-2.3v-2.5h8.5V30h-2.4v5.2H163.7z"></path> <path class="st0" d="M172,36.7c0.1-2.8,2.2-4.4,6-4.4c4.2,0,6.1,1.5,6.1,5.1v5.9h1.9v2.4h-5.1v-2.4c-1,1.9-2.3,2.7-4.7,2.7 c-3,0-4.8-1.5-4.8-4c0-1.6,0.9-3,2.4-3.6c1-0.5,2.5-0.7,4.7-0.7c0.6,0,1,0,2.1,0.1c0-1.4-0.1-1.7-0.4-2.1c-0.4-0.6-1.1-0.8-2.2-0.8 c-1.6,0-2.4,0.6-2.5,1.9L172,36.7z M179.6,39.7c-1,0-2,0.1-3,0.3c-1,0.3-1.5,0.9-1.5,1.8c0,1.1,0.8,1.8,2.2,1.8 c2.2,0,3.3-1.2,3.5-3.8C180.2,39.7,180,39.7,179.6,39.7L179.6,39.7z"></path> <path class="st0" d="M192.1,35.4c0.2-0.9,0.7-1.6,1.5-2.1c0.9-0.7,2-1,3.1-1c2.2,0,3.5,0.9,4.1,2.8c0.6-1.8,2.2-2.8,4.3-2.8 c2.8,0,4.5,1.7,4.5,4.5v6.5h1.8v2.4h-7.2v-2.4h1.7v-5.6c0-1.9-0.8-2.9-2.2-2.9c-1.7,0-2.6,1.3-2.6,3.6v4.9h1.7v2.4h-7.1v-2.4h1.7 v-5.8c0-1.7-0.8-2.7-2.1-2.7c-1.7,0-2.7,1.5-2.7,3.7v4.8h1.7v2.4h-7.3v-2.4h1.9v-8.1h-1.9v-2.4h5.4V35.4z"></path> <path class="st0" d="M217,35.6c0.1-0.9,0.6-1.6,1.3-2.1c0.9-0.8,2-1.1,3.5-1.1c3.8,0,5.9,2.5,5.9,6.8c0,4.4-2.2,6.9-6,6.9 c-2.2,0-3.8-0.9-4.5-2.7V48h2.1v2.4h-7.7V48h1.9V35.1h-1.9v-2.4h5.4V35.6z M217.1,39.1c0,2.8,1.2,4.4,3.4,4.4s3.3-1.5,3.3-4.4 s-1.2-4.4-3.2-4.4C218.5,34.8,217.1,36.4,217.1,39.1z"></path> <path class="st0" d="M238,32.8h2.7v4.3h-2.9v-0.2c0-1.3-1.1-2.1-2.7-2.1c-1.4,0-2.2,0.5-2.2,1.4c0,0.8,0.5,1.1,2.1,1.4l1.5,0.3 c2.9,0.5,4.3,1.8,4.3,3.9c0,2.5-1.9,4.1-4.9,4.1c-2,0-3.2-0.6-3.9-2v1.6h-2.7v-4.5h2.9c0.1,1.5,1.1,2.4,2.8,2.4 c1.4,0,2.4-0.6,2.4-1.5c0-0.4-0.2-0.9-0.6-1.1c-0.3-0.2-0.7-0.3-1.9-0.5l-1.6-0.3c-2.7-0.5-3.9-1.7-3.9-3.8c0-2.4,2-4.1,4.8-4.1 c1.8,0,2.8,0.6,3.7,2L238,32.8z"></path> <path class="st0" d="M247.9,35c0.5-1.7,2.1-2.7,4.3-2.7c2.8,0,4.6,1.5,4.6,4v7h1.9v2.4h-7.4v-2.4h1.8v-5.6c0-2-0.7-2.9-2.3-2.9 c-1.9,0-2.9,1.3-2.9,3.8v4.7h1.8v2.4h-7.4v-2.4h1.9V29.6h-1.9v-2.4h5.6L247.9,35z"></path> <path class="st0" d="M265,43.3h1.7v2.4h-7.2v-2.4h1.8v-8.1h-1.8v-2.4h5.5L265,43.3z M265.1,27.2v3.4h-3.8v-3.4H265.1z"></path> <path class="st0" d="M273.2,35.8c0.3-2,2-3.4,3.9-3.5c0.4,0,0.9,0.1,1.2,0.5v3.2c-0.4-0.1-0.8-0.2-1.2-0.2c-0.9,0-1.8,0.3-2.5,0.8 c-0.8,0.7-1.2,1.6-1.2,3.1v3.5h2.3v2.4h-8v-2.4h1.9v-8.1h-1.9v-2.4h5.4V35.8z"></path> <path class="st0" d="M292.6,41.8c-0.2,0.9-0.6,1.7-1.2,2.4c-1.1,1.2-2.8,1.9-5.1,1.9c-4.2,0-6.8-2.6-6.8-6.8s2.5-6.8,6.7-6.8 c4.4,0,6.6,2.4,6.6,7.2v0.6H283c0.1,2.2,1.3,3.4,3.3,3.4c1.5,0,2.5-0.6,2.8-1.8H292.6z M289.1,37.9c-0.1-2.1-1.1-3.2-2.9-3.2 c-1.8,0-2.9,1.1-3.1,3.2H289.1z"></path> <g> <g> <path class="st1" d="M7.3,0.4h65.3v43.7c0,0-1.8,14-11.2,22.9S40.4,79.6,40.4,79.6S29.1,77,19,67.9S7.3,44.1,7.3,44.1V0.4z"></path> <path class="st2" d="M14.9,8h25v9.3h6.8v12.7h4.8V17.4h7.4V50H52l-0.6-12.7h-4.7V50h-6.8v21.6c0,0-8.8-1.8-16.8-10.3 s-8.2-17.3-8.2-17.3V8z"></path> <polygon class="st1" points="33.3,31.7 33.3,17.4 39.9,17.4 39.9,50 33.3,50 27.9,33.6 27.9,50 21.3,50 21.3,17.4 28.2,17.4 "></polygon> </g> </g> </g> </svg> 