<?xml version="1.0" encoding="UTF-8"?> <!-- Generator: Adobe Illustrator 24.0.2, SVG Export Plug-In . SVG Version: 6.00 Build 0) --> <svg xmlns="http://www.w3.org/2000/svg" xmlns:xlink="http://www.w3.org/1999/xlink" id="Layer_1" x="0px" y="0px" viewBox="0 0 60 60" style="enable-background:new 0 0 60 60;" xml:space="preserve"> <style type="text/css"> .st0{fill:#18453B;} </style> <g id="Layer_2_1_"> <g id="Layer_1-2"> <path class="st0" d="M52.7,4.2c0,0-3.1,6.6-4.7,10.1c-7.8-3.6-18-4.2-26.6,0.9c-5.7,3.4-10.3,9.6-10.7,16.4 c-0.1,4.4,1.7,9.3,1.2,13.7c-0.1,2.4-0.8,4.7-1.8,6.8c-1.4,2.4-3.1,4.4-6,4.6c0.6-0.8,5-3,3.3-13c-0.6-4-6.1-13.7-0.9-26.1 C11.3,6.4,32-6.9,52.7,4.2"></path> <path class="st0" d="M28.9,23.8c2.8-1,5.7-1,8.6-0.3c5.4,1,9.4,4.2,11.4,9c2,5,3.5,9.1,7.1,13.4c0.1,0.1-5.5-0.9-5.5-1 c1.4-10.1-8-10.4-10.7-6.6c2,2.1,5,3.2,7.9,2.8c-0.5,10,2.1,19,2,19c-2.3-0.3-12.5-6.3-15.7-9c-4.4,0.8-7.9,2.5-13.1,3.1 c-0.1,0,1-3.8,0.8-5.7c0-5.3-4-10.1-1.2-16.5C22.4,28,25,25.2,28.9,23.8"></path> <path class="st0" d="M32.7,20.8c0.3,0,0.8,0.1,0.8,0c0.3-1.8,1.2-3.4,2.5-4.6c2.4-2,5.5-1.8,5.4-1.8c-2.7-0.8-5.6-1.1-8.5-0.9 L32.7,20.8z"></path> <path class="st0" d="M13.1,29.8c-0.4,3-0.4,5.7-0.2,7.2c0,0,0.4-2.6,1.9-4c1-1,2.1-1.4,3.4-1.5c0.1-0.3,0.2-0.6,0.2-1L13.1,29.8z"></path> <path class="st0" d="M19.1,29.2c0.2-0.4,0.3-0.9,0.5-1.2l-5.5-2.1c-0.3,0.8-0.5,1.5-0.8,2.3L19.1,29.2z"></path> <path class="st0" d="M20.4,27.1l0.9-1.1l-5-3.8c-0.5,0.6-1,1.4-1.3,2.1L20.4,27.1z"></path> <path class="st0" d="M22.2,25.1l1.1-1l-4.4-4.9c-0.6,0.6-1.3,1.3-1.8,1.9L22.2,25.1z"></path> <path class="st0" d="M24.5,23.4c0.4-0.2,0.9-0.4,1.3-0.8l-3.2-5.9c-0.9,0.4-1.7,1-2.4,1.5L24.5,23.4z"></path> <path class="st0" d="M26.9,22.1c1.5-0.5,1.5-0.5,1.5-0.5L26.6,15c-1,0.3-1.8,0.6-2.7,1.1L26.9,22.1z"></path> <path class="st0" d="M29.6,21.2l1.4-0.3l0.2-7.2c0,0-1.7,0.3-3,0.6L29.6,21.2z"></path> </g> </g> </svg> 