<?xml version="1.0" encoding="UTF-8"?> <!-- Generator: Adobe Illustrator 24.0.2, SVG Export Plug-In . SVG Version: 6.00 Build 0) --> <svg xmlns="http://www.w3.org/2000/svg" xmlns:xlink="http://www.w3.org/1999/xlink" id="Layer_1" x="0px" y="0px" viewBox="0 0 394.2 80" style="enable-background:new 0 0 394.2 80;" xml:space="preserve"> <style type="text/css"> .st0{fill:#436D62;} </style> <g> <path class="st0" d="M373.5,75.8c2.7,2.6,6.2,4.1,9.9,4.1c4.9,0,9.3-3.4,9.3-8.2c0-9.3-12.7-7.9-12.7-12.4c0-2.1,2.2-3,4.2-3 c1.7,0,3.4,0.6,4.8,1.8l2.7-3.9c-2.3-1.7-5.1-2.7-8-2.6c-4.6,0-9.1,2.8-9.1,7.7c0,2.7,1.5,5.1,3.9,6.3c3.7,2.2,8.8,2.6,8.8,6.1 c0,2-1.5,3.5-3.5,3.6c-0.2,0-0.3,0-0.5,0c-2.5-0.1-4.8-1.2-6.5-3L373.5,75.8z M366.3,56.8v-4.7h-16.5v27.5h16.8v-4.7H355v-7.7h8.4 v-4.7H355v-5.7H366.3z M329.9,56.4c2.5,0,4.9,1,6.7,2.8l3.4-3.5c-2.7-2.6-6.3-4-10-3.9c-7.8,0-14.1,6.3-14.1,14.1 S322.1,80,329.9,80c4.5,0.1,8.7-1.8,11.5-5.3l-3.7-3.3c-1.8,2.4-4.7,3.8-7.8,3.8c-5.2-0.1-9.3-4.5-9.2-9.7 C321,60.6,324.9,56.7,329.9,56.4 M282.5,79.6h5.3V61.6L303,79.6h3.7V52.1h-5.3V70l-15.3-17.9h-3.7L282.5,79.6z M273,56.8v-4.7 h-16.5v27.5h16.9v-4.7h-11.6v-7.7h8.4v-4.7h-8.4v-5.7H273z M240.6,79.6h5.3V52.1h-5.3V79.6z M220.8,56.4c2.5,0,4.9,1,6.7,2.8 l3.4-3.5c-2.7-2.6-6.3-4-10-3.9c-7.8,0-14.1,6.3-14.1,14.1S213,80,220.8,80c4.5,0.1,8.7-1.8,11.5-5.3l-3.5-3.3 c-1.8,2.4-4.7,3.8-7.8,3.8c-5.2-0.2-9.3-4.5-9.1-9.7C212.1,60.6,216,56.6,220.8,56.4 M179.9,75.8c2.7,2.6,6.2,4.1,9.9,4.1 c5,0,9.3-3.4,9.3-8.2c0-9.3-12.7-7.9-12.7-12.4c0-2.1,2.2-3,4.2-3c1.7,0,3.4,0.6,4.8,1.8l2.8-3.9c-2.3-1.7-5.1-2.7-8-2.6 c-4.6,0-9.1,2.8-9.1,7.7c0,2.7,1.5,5.1,3.9,6.3c3.7,2.2,8.8,2.6,8.8,6.1c0,2-1.5,3.5-3.5,3.6c-0.2,0-0.3,0-0.5,0 c-2.5-0.1-4.8-1.2-6.5-3L179.9,75.8z M159.4,56.8v-4.7h-16.5v27.5h16.9v-4.7h-11.6v-7.7h8.4v-4.7h-8.4v-5.7H159.4z M134.7,56.8 v-4.7h-16.5v27.5h5.3V67.2h8.4v-4.7h-8.4v-5.7H134.7z M102.3,79.6h5.3V52.1h-5.3V79.6z M77,79.6h16.9v-4.7H82.3V52.1H77V79.6z"></path> <path class="st0" d="M380.7,25.8c-0.1,1-0.7,1.8-1.5,2.3c-0.7-0.6-1.1-1.4-1.2-2.3c-0.1-0.8,0.5-1.5,1.3-1.5c0,0,0,0,0,0 C380.1,24.3,380.8,25,380.7,25.8C380.7,25.8,380.7,25.8,380.7,25.8 M375.6,37.4c0.1-1.7,1.1-3.2,2.7-3.9l6,6.8 c-1.1,0.7-2.4,1-3.7,1c-3,0-4.9-1.8-4.9-3.8 M386.6,30.2c0.4,1.3,0.6,2.6,0.6,3.9c0,0.9-0.1,1.8-0.4,2.6l-4.7-5.4 c1.9-1.2,3.1-3.2,3.2-5.5c-0.1-3.3-2.9-5.9-6.1-5.8c-3,0.1-5.4,2.4-5.7,5.3c0.1,1.7,0.8,3.4,1.9,4.7c-2.6,1.5-4.3,4.2-4.4,7.2 c0,4.9,4.6,8.1,9.3,8.1c2.4,0.1,4.8-0.5,6.9-1.8l1.3,1.5h5.7l-4.1-4.7c1.1-1.9,1.6-4.1,1.5-6.3c0-1.7-0.3-3.3-0.7-4.9L386.6,30.2z M352.3,24.6v-4.2h-14.8v24.7h15.2v-4.2h-10.4V34h7.6v-4.2h-7.6v-5.1H352.3z M314.7,29.9v-5.3h4c0.9-0.1,1.8,0.2,2.4,0.8 c0.9,1.1,0.9,2.7,0,3.8c-0.6,0.6-1.5,0.9-2.4,0.7H314.7z M316.4,34.2l8.8,10.9h5.9l-9.3-11.3c0.9-0.3,1.8-0.8,2.5-1.4 c2.8-2.6,2.9-7,0.3-9.8c-0.1-0.1-0.2-0.2-0.3-0.3c-1.5-1.3-3.4-1.9-5.4-1.8h-9v24.7h4.8V34.2L316.4,34.2z M289.9,45.5 c2.7,0.1,5.3-0.8,7.4-2.5c2.2-2.1,3.4-5.1,3.2-8.2V20.5h-4.8v14.7c0.2,1.7-0.4,3.4-1.6,4.6c-2.4,2.1-6,2.1-8.4,0 c-1.2-1.2-1.8-2.9-1.6-4.6V20.5h-4.8v14.3c-0.2,3.1,0.9,6.1,3.2,8.2C284.6,44.7,287.3,45.6,289.9,45.5 M254.1,20.5v4.2h6.5v20.5 h4.8V24.6h6.5v-4.2L254.1,20.5z M235.7,45.2h15.2v-4.2h-10.4V20.4h-4.8L235.7,45.2z M215.8,45.5c2.7,0.1,5.3-0.8,7.4-2.5 c2.2-2.1,3.4-5.1,3.2-8.2V20.5h-4.8v14.7c0.2,1.7-0.4,3.4-1.6,4.6c-2.4,2.1-6,2.1-8.4,0c-1.2-1.2-1.8-2.9-1.6-4.6V20.5h-4.8v14.3 c-0.2,3.1,0.9,6.1,3.2,8.2C210.5,44.7,213.1,45.6,215.8,45.5 M187.8,24.3c2.3,0,4.4,0.9,6,2.5l3.1-3.2c-2.4-2.3-5.7-3.6-9-3.5 c-7,0-12.7,5.7-12.7,12.7s5.7,12.7,12.7,12.7c4,0.1,7.8-1.6,10.4-4.7l-3.3-2.9c-1.7,2.2-4.3,3.5-7.1,3.4c-4.7,0.1-8.5-3.7-8.6-8.4 s3.7-8.5,8.4-8.6 M162.3,45.1h4.8V20.4h-4.8V45.1z M139.5,29.9v-5.3h4c0.9-0.1,1.8,0.2,2.4,0.8c0.9,1.1,0.9,2.7,0,3.8 c-0.6,0.6-1.5,0.9-2.4,0.7H139.5z M141.3,34.2l8.8,10.9h5.9l-9.3-11.3c0.9-0.3,1.8-0.8,2.5-1.4c2.8-2.6,2.9-7,0.3-9.8 c-0.1-0.1-0.2-0.2-0.3-0.3c-1.5-1.3-3.4-1.9-5.4-1.8h-9.1v24.7h4.8V34.2L141.3,34.2z M115.4,24.3c2.3,0,4.4,0.9,6,2.5l3.1-3.2 c-2.4-2.3-5.7-3.6-9-3.5c-7,0-12.7,5.7-12.7,12.7s5.7,12.7,12.7,12.7c4,0.1,7.8-1.6,10.4-4.7v-11h-11.1V34h6.4v5.3 c-1.6,1.3-3.5,1.9-5.5,1.9c-4.7,0.1-8.5-3.7-8.6-8.4C107,28.1,110.7,24.3,115.4,24.3 M86.1,28.1l3.1,7.3h-6.3L86.1,28.1z M78.8,45.1l2.3-5.5h10l2.3,5.5h4.9L87.8,20.4h-3.4L73.8,45.1H78.8z"></path> <path class="st0" d="M384.5,2.1h3.5v11.2h1.8V2.1h3.5V0.3h-8.8V2.1z M378.8,13.3h1.3v-13h-1.8v9.5l-7.8-9.5h-1.3v13h1.9V3.8 L378.8,13.3z M353.3,6.8c-0.2-2.6,1.8-4.8,4.3-4.9c2.6-0.2,4.8,1.8,4.9,4.3c0,0.2,0,0.4,0,0.6c0.2,2.6-1.8,4.8-4.3,4.9 c-2.6,0.2-4.8-1.8-4.9-4.3C353.2,7.2,353.2,7,353.3,6.8 M351.5,6.8c-0.2,3.6,2.6,6.6,6.2,6.8c3.6,0.2,6.6-2.6,6.8-6.2 c0-0.2,0-0.5,0-0.7c0.2-3.6-2.6-6.6-6.2-6.8c-3.6-0.2-6.6,2.6-6.8,6.2C351.5,6.4,351.5,6.6,351.5,6.8 M344.9,4.6v8.8h1.8V0.4h-1.2 l-5.1,7.9l-5-7.9H334v13h1.9V4.5l3.8,6h1.3L344.9,4.6z M321.6,5.4V2.1h2.6c0.6-0.1,1.1,0.1,1.6,0.5c0.3,0.3,0.5,0.7,0.5,1.2 c0,0.4-0.2,0.9-0.5,1.2c-0.4,0.4-1,0.5-1.6,0.5H321.6z M323.1,7.2l4.6,6.1h2.2l-4.7-6.2c0.6-0.1,1.1-0.3,1.5-0.7 c1.5-1.2,1.7-3.3,0.5-4.8c-0.1-0.2-0.3-0.4-0.5-0.5c-0.7-0.6-1.6-0.8-2.5-0.8h-4.6v13h1.9V7.2H323.1z M309.2,5.4V2.1h5.6V0.3h-7.4 v13h7.6v-1.8h-5.7V7.2h4.3V5.4H309.2z M303,0.4h-1.9l-3.8,9.8l-3.8-9.8h-1.9l5.1,13h1.3L303,0.4z M276.5,5.4V2.1h5.6V0.3h-7.3v13 h1.8V7.2h4.3V5.4H276.5z M258.9,6.8c-0.2-2.6,1.8-4.8,4.3-4.9c2.6-0.2,4.8,1.8,4.9,4.3c0,0.2,0,0.4,0,0.6c0.2,2.6-1.8,4.8-4.3,4.9 c-2.6,0.2-4.8-1.8-4.9-4.3C258.9,7.2,258.9,7,258.9,6.8 M257,6.8c-0.2,3.6,2.6,6.6,6.2,6.8c3.6,0.2,6.6-2.6,6.8-6.2 c0-0.2,0-0.5,0-0.7c0.2-3.6-2.6-6.6-6.2-6.8s-6.6,2.6-6.8,6.2C257,6.4,257,6.6,257,6.8 M247,0.4H245l-3.3,5.2l-3.3-5.2h-2.1 l4.4,7.1v5.9h1.8v-6L247,0.4z M223.9,2.1h3.5v11.2h1.8V2.1h3.5V0.3h-8.8V2.1z M217.7,13.4h1.8v-13h-1.8V13.4z M204.1,11.3 c1.1,1.4,2.8,2.2,4.6,2.2c2.1,0.1,3.9-1.4,4-3.5c0-0.1,0-0.2,0-0.3c0-1.2-0.7-2.4-1.8-3c-1.7-1.1-4.4-1.5-4.4-3.1 c0.1-1.1,1-1.9,2.1-1.8c0,0,0.1,0,0.1,0c0.9,0,1.7,0.3,2.3,0.9l1.1-1.3c-1-0.9-2.2-1.3-3.5-1.3c-2-0.1-3.8,1.4-3.9,3.4 c0,0,0,0,0,0.1c0,1.2,0.6,2.3,1.6,2.9c1.8,1.1,4.5,1.4,4.5,3.3c-0.1,1.1-1.1,2-2.2,1.9c0,0,0,0,0,0c-1.3,0-2.4-0.7-3.2-1.7 L204.1,11.3z M192.9,5.4V2.1h2.6c0.6-0.1,1.1,0.1,1.6,0.5c0.3,0.3,0.5,0.7,0.5,1.2c0,0.4-0.2,0.9-0.5,1.2c-0.4,0.4-1,0.5-1.6,0.5 H192.9z M194.3,7.2l4.6,6.1h2.2l-4.6-6.2c0.6-0.1,1.1-0.3,1.5-0.7c1.5-1.2,1.7-3.4,0.5-4.8c-0.1-0.2-0.3-0.3-0.5-0.5 c-0.7-0.6-1.6-0.8-2.5-0.8h-4.5v13h1.8V7.2H194.3z M180.4,5.4V2.1h5.6V0.3h-7.4v13h7.6v-1.8h-5.7V7.2h4.3V5.4H180.4z M174.3,0.4 h-1.9l-3.8,9.8l-3.8-9.8h-1.9l5.1,13h1.3L174.3,0.4z M156.6,13.3h1.8v-13h-1.8V13.3z M149.5,13.3h1.3v-13h-1.8v9.5l-7.8-9.5H140v13 h1.8V3.8L149.5,13.3z M128.9,13.6c1.5,0,3-0.6,4-1.8c0.9-1.1,1.4-2.5,1.4-3.9V0.3h-1.8V8c0.1,0.9-0.2,1.9-0.8,2.6 c-1.4,1.5-3.8,1.5-5.3,0.1c0,0-0.1-0.1-0.1-0.1c-0.6-0.7-0.9-1.6-0.8-2.6V0.4h-1.9v7.6c-0.1,1.4,0.4,2.8,1.3,3.8 C126,12.9,127.4,13.6,128.9,13.6 M105.9,5.4V2.1h5.6V0.3H104v13h7.6v-1.8h-5.7V7.2h4.3V5.4H105.9z M96.4,13.3h1.8v-13h-1.8v5.1 h-7.3V0.4h-1.8v13h1.8V7.2h7.3V13.3z M74,2.1h3.5v11.2h1.8V2.1h3.5V0.3H74V2.1z"></path> <polygon class="st0" points="38.2,30.8 36.4,30.8 33.3,13.1 35.1,30.8 33,30.8 33,10.5 "></polygon> <polygon class="st0" points="40.4,34.7 40.4,33.7 39.1,32.3 26.9,32.3 25.6,33.7 25.6,34.7 "></polygon> <path class="st0" d="M32.4,45.2h-2.5v-6.3c0.1-0.7,0.7-1.2,1.4-1.1c0.6,0.1,1,0.5,1.1,1.1V45.2z"></path> <path class="st0" d="M28.8,45.2h-2.5v-6.3c0-0.7,0.6-1.3,1.3-1.3c0.7,0,1.3,0.6,1.3,1.3V45.2z"></path> <path class="st0" d="M39.7,45.2h-2.5v-6.3c0-0.7,0.6-1.3,1.3-1.3c0.7,0,1.3,0.6,1.3,1.3L39.7,45.2z"></path> <path class="st0" d="M36.1,45.2h-2.5v-6.3c0.1-0.7,0.7-1.2,1.4-1.1c0.6,0.1,1,0.5,1.1,1.1V45.2z"></path> <polygon class="st0" points="41.2,47.8 40.3,46.1 25.7,46.1 24.8,47.8 "></polygon> <path class="st0" d="M29.9,65.1h-2.7v-3.9c0.1-0.8,0.8-1.3,1.6-1.1c0.6,0.1,1,0.6,1.1,1.1V65.1z"></path> <path class="st0" d="M38.9,65.1h-2.7v-3.9c0.1-0.8,0.8-1.3,1.6-1.1c0.6,0.1,1,0.6,1.1,1.1V65.1z"></path> <path class="st0" d="M34.7,65.1h-3.4v-6.9c0,0,0-1.4,1.8-1.4c1.8,0,1.8,1.4,1.8,1.4L34.7,65.1z"></path> <polygon class="st0" points="21.1,65.1 23.1,65.1 33,51.6 42.9,65.1 44.9,65.1 33,49.1 "></polygon> <polygon class="st0" points="14.8,67.9 51.2,67.9 52.1,66.6 13.9,66.6 "></polygon> <path class="st0" d="M32.3,74.1h-4.5v-3.6c1.4-0.7,3-1,4.5-1.1V74.1z"></path> <path class="st0" d="M33.7,74.1h4.5v-3.6c-1.4-0.7-3-1-4.5-1.1L33.7,74.1z"></path> <rect x="27.8" y="75.5" class="st0" width="4.5" height="3.5"></rect> <rect x="33.7" y="75.5" class="st0" width="4.5" height="3.5"></rect> <path class="st0" d="M26.4,74.1H23c1-1.1,2.1-2.1,3.4-2.9"></path> <path class="st0" d="M26.4,78.9v-3.5h-4.5c-0.8,1.1-1.5,2.3-2,3.5H26.4"></path> <path class="st0" d="M39.6,74.1H43c-1-1.1-2.1-2.1-3.4-2.9"></path> <path class="st0" d="M39.6,78.9v-3.5h4.5c0.8,1.1,1.5,2.3,2,3.5H39.6"></path> <path class="st0" d="M0,0.3v78.9h66V0.3H0z M13.4,74.1V71l-0.9-0.8v-3.3l-1.4-0.9v-0.9h8.3l3.6-4.9l1.8-10.6l-1.4-1.8l1.4-2.6V37 L23.1,36v-1.5l2.9-3.4l0.4-0.4L31.7,11L31,10.4l1.7-2.9c-0.4-0.2-0.7-0.6-0.7-1c-0.1-0.6,0.3-1.1,0.9-1.2c0.6-0.1,1.1,0.3,1.2,0.9 c0,0.1,0,0.2,0,0.3c0,0.5-0.3,0.9-0.7,1l1.7,2.9L34.2,11l5.5,19.8l0.4,0.4l2.9,3.4V36L41.2,37v8.2l1.4,2.6l-1.4,1.8L43,60.1 l3.6,4.9h8.3V66l-1.4,0.9v3.3l-0.9,0.8V74l-1.4,0.8v3.7H14.8v-3.6L13.4,74.1z"></path> </g> </svg> 