<?xml version="1.0" encoding="UTF-8"?> <!-- Generator: Adobe Illustrator 24.0.2, SVG Export Plug-In . SVG Version: 6.00 Build 0) --> <svg xmlns="http://www.w3.org/2000/svg" xmlns:xlink="http://www.w3.org/1999/xlink" id="Layer_1" x="0px" y="0px" viewBox="0 0 374.1 80" style="enable-background:new 0 0 374.1 80;" xml:space="preserve"> <style type="text/css"> .st0{fill:#424143;} .st1{fill:#55575B;} .st2{fill:#AF1F2C;} </style> <g> <g> <g> <g> <path class="st0" d="M12.1,66L11,66.9c-1-1.4-2.4-2.2-4.2-2.2c-2.9,0-5.1,2.2-5.1,5.2c0,3,2.2,5.2,5.1,5.2 c1.8,0,3.2-0.9,4.2-2.2l1.1,0.9c-1,1.7-3,2.8-5.3,2.8c-3.8,0-6.6-2.9-6.6-6.6c0-3.8,3-6.6,6.6-6.6C9.1,63.3,11.1,64.4,12.1,66z"></path> <path class="st0" d="M24.2,71.6c0,2.8-2.2,5-5,5s-5-2.1-5-5s2.2-5,5-5S24.2,68.8,24.2,71.6z M15.7,71.6c0,2,1.4,3.5,3.4,3.5 s3.4-1.6,3.4-3.5c0-2-1.4-3.5-3.4-3.5C17.2,68,15.7,69.6,15.7,71.6z"></path> <path class="st0" d="M28.6,76.3H27V61.7h1.6V76.3z"></path> <path class="st0" d="M33.8,76.3h-1.6V61.7h1.6V76.3z"></path> <path class="st0" d="M46,72h-7.5c0.2,1.9,1.7,3.1,3.4,3.1c1.2,0,2.1-0.6,2.9-1.3l0.9,1c-1,1-2.2,1.7-3.8,1.7c-2.9,0-5-2.1-5-5 c0-2.8,2.1-5,4.9-5c2.4,0,4.3,1.8,4.3,4.3C46.1,71.4,46,71.8,46,72z M38.6,70.7h6c0-1.8-1.3-2.8-2.8-2.8 C40.1,68,38.9,69,38.6,70.7z"></path> <path class="st0" d="M58.2,66.8v8.5c0,2.9-1.9,4.7-4.7,4.7c-2,0-3.5-0.9-4.4-1.8l0.9-1c0.9,0.8,2,1.6,3.5,1.6 c1.9,0,3.1-1.1,3.1-3.2v-0.9c-0.8,1-2.1,1.6-3.5,1.6c-2.7,0-4.7-2-4.7-4.8c0-2.8,2-4.8,4.7-4.8c1.6,0,2.9,0.7,3.5,1.8v-1.6h1.6 V66.8z M56.7,71.5c0-2.3-1.7-3.4-3.3-3.4c-1.9,0-3.3,1.4-3.3,3.4c0,2,1.4,3.4,3.3,3.4C55.1,74.8,56.7,73.8,56.7,71.5z"></path> <path class="st0" d="M70.2,72h-7.5c0.2,1.9,1.7,3.1,3.4,3.1c1.2,0,2.1-0.6,2.9-1.3l0.9,1c-1,1-2.2,1.7-3.8,1.7c-2.9,0-5-2.1-5-5 c0-2.8,2.1-5,4.9-5c2.4,0,4.3,1.8,4.3,4.3C70.4,71.4,70.2,71.8,70.2,72z M62.8,70.7h6c0-1.8-1.3-2.8-2.8-2.8 C64.4,68,63.2,69,62.8,70.7z"></path> <path class="st0" d="M88.6,71.6c0,2.8-2.2,5-5,5c-2.8,0-5-2.1-5-5s2.2-5,5-5C86.4,66.6,88.6,68.8,88.6,71.6z M80.2,71.6 c0,2,1.4,3.5,3.4,3.5c2,0,3.4-1.6,3.4-3.5c0-2-1.4-3.5-3.4-3.5C81.7,68,80.2,69.6,80.2,71.6z"></path> <path class="st0" d="M93.4,64.7v2.1h2.3v1.3h-2.3v8.1h-1.6v-8.1h-1.3v-1.3h1.3v-2.2c0-2.1,1.3-3.1,3.1-3.1 c0.4,0,0.9,0.1,1.2,0.1v1.3c-0.3,0-0.6-0.1-0.9-0.1C94.3,62.8,93.4,63.3,93.4,64.7z"></path> <path class="st0" d="M110.4,73.7H104l-1.1,2.7h-1.6l5.5-13.1h0.6l5.5,13.1h-1.6L110.4,73.7z M107.3,66l-2.5,6.3h5.1L107.3,66z"></path> <path class="st0" d="M124.4,66.8v8.5c0,2.9-1.9,4.7-4.7,4.7c-2,0-3.5-0.9-4.4-1.8l0.9-1c0.9,0.8,2,1.6,3.5,1.6 c1.9,0,3.1-1.1,3.1-3.2v-0.9c-0.8,1-2.1,1.6-3.5,1.6c-2.7,0-4.7-2-4.7-4.8c0-2.8,2-4.8,4.7-4.8c1.6,0,2.9,0.7,3.5,1.8v-1.6h1.6 V66.8z M123,71.5c0-2.3-1.7-3.4-3.3-3.4c-1.9,0-3.3,1.4-3.3,3.4c0,2,1.4,3.4,3.3,3.4C121.3,74.8,123,73.8,123,71.5z"></path> <path class="st0" d="M133.3,66.8v1.3h-0.6c-1.6,0-3,1-3,2.8v5.3h-1.6v-9.4h1.4v1.3c0.7-0.9,1.8-1.4,2.9-1.4 C133,66.7,133.2,66.8,133.3,66.8z"></path> <path class="st0" d="M137.8,63.3c0,0.7-0.6,1.1-1.1,1.1c-0.7,0-1.1-0.4-1.1-1.1c0-0.6,0.6-1.1,1.1-1.1 C137.4,62.2,137.8,62.6,137.8,63.3z M137.5,76.3H136v-9.4h1.6V76.3z"></path> <path class="st0" d="M149.5,68.7l-1.1,0.9c-0.7-0.9-1.6-1.6-2.8-1.6c-2,0-3.4,1.6-3.4,3.5c0,2,1.4,3.5,3.4,3.5 c1.2,0,2.1-0.6,2.8-1.6l1.1,0.9c-0.9,1.2-2.2,2.1-3.9,2.1c-2.8,0-5-2.2-5-5s2.2-5,5-5C147.3,66.6,148.6,67.5,149.5,68.7z"></path> <path class="st0" d="M159.9,72.6c0,2.4-1.8,4-3.9,4c-2.2,0-3.9-1.6-3.9-4v-5.7h1.4v5.8c0,1.6,1.1,2.5,2.4,2.5s2.4-1,2.4-2.5 v-5.8h1.6v5.7H159.9z"></path> <path class="st0" d="M165.1,76.3h-1.6V61.7h1.6V76.3z"></path> <path class="st0" d="M174.2,75v1.2c-0.4,0.1-1,0.2-1.6,0.2c-1.9,0-3.2-0.9-3.2-3.1V68h-1.6v-1.3h1.6v-2.5h1.6v2.5h3V68h-3v5.2 c0,1.4,0.8,1.8,2,1.8C173.3,75.1,173.7,75.1,174.2,75z"></path> <path class="st0" d="M184.6,72.6c0,2.4-1.8,4-3.9,4c-2.2,0-3.9-1.6-3.9-4v-5.7h1.4v5.8c0,1.6,1.1,2.5,2.4,2.5 c1.3,0,2.4-1,2.4-2.5v-5.8h1.6v5.7H184.6z"></path> <path class="st0" d="M193,66.8v1.3h-0.6c-1.6,0-3,1-3,2.8v5.3h-1.6v-9.4h1.4v1.3c0.7-0.9,1.8-1.4,2.9-1.4 C192.7,66.7,192.8,66.8,193,66.8z"></path> <path class="st0" d="M203.5,72H196c0.2,1.9,1.7,3.1,3.4,3.1c1.2,0,2.1-0.6,2.9-1.3l0.9,1c-1,1-2.2,1.7-3.8,1.7c-2.9,0-5-2.1-5-5 c0-2.8,2.1-5,4.9-5c2.4,0,4.3,1.8,4.3,4.3C203.7,71.4,203.7,71.8,203.5,72z M196.1,70.7h6c0-1.8-1.3-2.8-2.8-2.8 C197.8,68,196.5,69,196.1,70.7z"></path> <path class="st0" d="M221.7,66.8v9.4h-1.6v-1.3c-0.8,1-2.1,1.6-3.5,1.6c-2.7,0-4.7-2.1-4.7-5c0-2.8,2-5,4.7-5 c1.4,0,2.9,0.7,3.5,1.8v-1.6h1.6V66.8z M220.3,71.6c0-2.4-1.7-3.5-3.3-3.5c-2,0-3.3,1.6-3.3,3.5c0,2.1,1.4,3.5,3.3,3.5 C218.6,75.1,220.3,74,220.3,71.6z"></path> <path class="st0" d="M233.1,70.4v6h-1.6v-5.8c0-1.6-0.9-2.5-2.3-2.5s-2.4,1-2.4,2.5v5.8h-1.6v-9.4h1.4v1 c0.7-0.8,1.7-1.2,2.9-1.2C231.8,66.6,233.1,68.1,233.1,70.4z"></path> <path class="st0" d="M245.5,61.7v14.6h-1.4v-1.6c-0.8,1.1-2.1,1.7-3.5,1.7c-2.7,0-4.7-2.1-4.7-5c0-2.8,2-5,4.7-5 c1.4,0,2.8,0.6,3.5,1.7v-6.5h1.4V61.7z M244,71.6c0-2.4-1.7-3.5-3.3-3.5c-1.9,0-3.3,1.6-3.3,3.5c0,2.1,1.4,3.5,3.3,3.5 C242.3,75.1,244,74,244,71.6z"></path> <path class="st0" d="M256.8,74.9h6.1v1.3h-7.6V63.5h1.6V74.9z"></path> <path class="st0" d="M267.4,63.3c0,0.7-0.6,1.1-1.1,1.1c-0.7,0-1.1-0.4-1.1-1.1c0-0.6,0.6-1.1,1.1-1.1 C266.9,62.2,267.4,62.6,267.4,63.3z M267,76.3h-1.6v-9.4h1.6V76.3z"></path> <path class="st0" d="M272.9,64.7v2.1h2.3v1.3h-2.3v8.1h-1.6v-8.1H270v-1.3h1.3v-2.2c0-2.1,1.3-3.1,3.1-3.1 c0.4,0,0.9,0.1,1.2,0.1v1.3c-0.3,0-0.6-0.1-0.9-0.1C273.7,62.8,272.9,63.3,272.9,64.7z"></path> <path class="st0" d="M285.9,72h-7.5c0.2,1.9,1.7,3.1,3.4,3.1c1.2,0,2.1-0.6,2.9-1.3l0.9,1c-1,1-2.2,1.7-3.8,1.7 c-2.9,0-5-2.1-5-5c0-2.8,2.1-5,4.9-5c2.4,0,4.3,1.8,4.3,4.3C286,71.4,286,71.8,285.9,72z M278.4,70.7h6c0-1.8-1.3-2.8-2.8-2.8 C280.1,68,278.8,69,278.4,70.7z"></path> <path class="st0" d="M302.9,65.5l-1.1,0.9c-0.7-1-1.8-1.7-3-1.7s-2.3,0.6-2.3,1.9c0,1.2,0.9,1.6,2.1,2.1l1.4,0.7 c1.9,0.9,3,1.9,3,3.5c0,2.1-1.8,3.5-4.1,3.5c-2,0-3.8-1.1-4.8-2.8l1.1-0.9c0.8,1.2,1.9,2.2,3.5,2.2c1.6,0,2.5-0.9,2.5-2.1 s-0.9-1.7-2.1-2.2l-1.4-0.7c-1.6-0.7-2.9-1.7-2.9-3.4c0-2,1.8-3.3,3.9-3.3C300.6,63.3,302.2,64.2,302.9,65.5z"></path> <path class="st0" d="M314.1,68.7l-1.1,0.9c-0.7-0.9-1.6-1.6-2.8-1.6c-2,0-3.4,1.6-3.4,3.5c0,2,1.4,3.5,3.4,3.5 c1.2,0,2.1-0.6,2.8-1.6l1.1,0.9c-0.9,1.2-2.2,2.1-3.9,2.1c-2.8,0-5-2.2-5-5s2.2-5,5-5C312,66.6,313.4,67.5,314.1,68.7z"></path> <path class="st0" d="M319,63.3c0,0.7-0.6,1.1-1.1,1.1c-0.7,0-1.1-0.4-1.1-1.1c0-0.6,0.6-1.1,1.1-1.1 C318.6,62.2,319,62.6,319,63.3z M318.7,76.3h-1.6v-9.4h1.6V76.3z"></path> <path class="st0" d="M330.9,72h-7.5c0.2,1.9,1.7,3.1,3.4,3.1c1.2,0,2.1-0.6,2.9-1.3l0.9,1c-1,1-2.2,1.7-3.8,1.7 c-2.9,0-5-2.1-5-5c0-2.8,2.1-5,4.9-5c2.4,0,4.3,1.8,4.3,4.3C331,71.4,330.9,71.8,330.9,72z M323.4,70.7h6c0-1.8-1.3-2.8-2.8-2.8 C325,68,323.8,69,323.4,70.7z"></path> <path class="st0" d="M341.8,70.4v6h-1.6v-5.8c0-1.6-0.9-2.5-2.3-2.5s-2.4,1-2.4,2.5v5.8H334v-9.4h1.4v1c0.7-0.8,1.7-1.2,2.9-1.2 C340.6,66.6,341.8,68.1,341.8,70.4z"></path> <path class="st0" d="M353.5,68.7l-1.1,0.9c-0.7-0.9-1.6-1.6-2.8-1.6c-2,0-3.4,1.6-3.4,3.5c0,2,1.4,3.5,3.4,3.5 c1.2,0,2.1-0.6,2.8-1.6l1.1,0.9c-0.9,1.2-2.2,2.1-3.9,2.1c-2.8,0-5-2.2-5-5s2.2-5,5-5C351.2,66.6,352.6,67.5,353.5,68.7z"></path> <path class="st0" d="M364.5,72H357c0.2,1.9,1.7,3.1,3.4,3.1c1.2,0,2.1-0.6,2.9-1.3l0.9,1c-1,1-2.2,1.7-3.8,1.7c-2.9,0-5-2.1-5-5 c0-2.8,2.1-5,4.9-5c2.4,0,4.3,1.8,4.3,4.3C364.7,71.4,364.5,71.8,364.5,72z M357.1,70.7h6c0-1.8-1.3-2.8-2.8-2.8 C358.7,68,357.5,69,357.1,70.7z"></path> <path class="st0" d="M373.7,68.1l-0.9,0.9c-0.7-0.7-1.4-1-2.3-1c-0.9,0-1.6,0.4-1.6,1.2c0,0.7,0.4,1,1.6,1.3l0.9,0.3 c1.7,0.7,2.5,1.4,2.5,2.8c0,1.9-1.6,2.8-3.3,2.8c-1.7,0-2.9-0.9-3.7-1.9l1-1c0.8,0.8,1.6,1.4,2.8,1.4c1,0,1.8-0.4,1.8-1.3 c0-0.8-0.7-1.1-1.7-1.6l-0.9-0.4c-1.4-0.6-2.3-1.2-2.3-2.7c0-1.7,1.4-2.7,3.2-2.7C372,66.6,373,67.1,373.7,68.1z"></path> </g> <g> <g> <path class="st1" d="M250.9,12l-8.8,5.9c-2.7-4.5-6.2-7.2-11.4-7.2c-7,0-12,4.9-12,12.3s5,12.2,12,12.2c5.2,0,8.8-2.7,11.4-7.2 l8.8,5.9c-4,7.4-11.3,11.7-20.2,11.7c-13.2,0-23.7-9.8-23.7-22.7c0-12.9,10.4-22.7,23.7-22.7C239.6,0.2,246.9,4.5,250.9,12z"></path> <path class="st1" d="M317.9,34.6h18.2v10.3h-29.6V1h11.4V34.6z"></path> <path class="st1" d="M372.7,9.1l-7.6,5.9c-2-2.9-3.9-4.7-7.2-4.7c-2.2,0-3.9,0.8-3.9,2.8c0,1.7,1.1,2.4,3.8,3.5l5.1,2.1 c7.3,3.1,11.2,6.8,11.2,13.2c0,8.6-7.1,13.7-16.1,13.7c-8.1,0-14.4-3.9-17.5-9.9l7.8-5.9c2.1,2.9,4.9,5.7,9.8,5.7 c3.1,0,4.5-1.1,4.5-3.2c0-2.1-1.4-2.8-4.4-4.1l-4.5-2c-7-3.1-11.1-7.1-11.1-13.2c0-7.9,6.4-13,15.4-13 C365.3,0.2,370.2,4,372.7,9.1z"></path> <g> <path class="st1" d="M284.7,34.9h-16.1l8.1-14L284.7,34.9z M276.7,1l-25.4,43.9h50.6L276.7,1z"></path> </g> </g> <g> <path class="st2" d="M22.4,43.2c-11.4,0-19.8-9-19.8-20.5S11.1,2.3,22.4,2.3c6.6,0,12.1,3,15.6,7.8l0.1,0.1l1.8-1.4l-0.1-0.1 C35.8,3.3,29.6,0,22.3,0l0,0l0,0C16.1,0,10.4,2.4,6.4,6.5S0,16.4,0,22.8l0,0C0,29.3,2.4,34.9,6.4,39s9.6,6.5,15.8,6.5l0,0l0,0 l0,0l0,0c7.2,0,13.5-3.3,17.5-8.6l0.1-0.1l-1.8-1.4L38,35.5l-0.1-0.1l0.1,0.1C34.5,40.2,29,43.2,22.4,43.2z"></path> <path class="st2" d="M78.8,28.8c0-4.8-1.9-8.9-4.9-12c-3-3-7.1-4.9-11.7-4.9l0,0c-4.7,0-8.8,1.8-11.7,4.9c-3,3-4.8,7.2-4.8,12 c0,4.7,1.8,8.9,4.8,11.9s7.1,4.9,11.6,4.9l0,0c4.7,0,8.8-1.9,11.7-4.9C77,37.7,78.8,33.5,78.8,28.8z M62.2,43.3v-0.1V43.3 c-8,0-14.1-6.3-14.1-14.5s6.1-14.5,14.1-14.5c8.1,0,14.2,6.4,14.2,14.5C76.5,36.9,70.2,43.3,62.2,43.3z"></path> <path class="st2" d="M101.2,14.6v-1.9h-0.1c-0.6-0.1-1.1-0.1-1.9-0.1l0,0l0,0l0,0c-4.2,0-8.2,1.8-10.6,5.5l-0.2,0.4v-5.8h-2.2 V45h2.2V25.5c0-3.4,1.4-6.2,3.7-8c2.1-1.9,5-2.8,7.5-2.8l0,0l0,0h1.7V14.6z"></path> <path class="st2" d="M120.6,12.1L120.6,12.1c-4.4,0-8,1.9-10.1,5.1l-0.2,0.3v-4.8H108v32.1h2.2V24.5c0-5.9,4.2-10.2,10.2-10.2 c3,0,5.3,1.1,7,2.9c1.7,1.8,2.5,4.3,2.5,7.3v20.4h2.2V24.5l0,0c0-3.5-1.1-6.6-3.1-8.9C127.2,13.3,124.3,12.1,120.6,12.1 L120.6,12.1L120.6,12.1L120.6,12.1z"></path> <path class="st2" d="M144.6,17c-2.9,3-4.7,7.2-4.7,11.9s1.8,8.9,4.8,11.9s7.1,4.9,11.6,4.9l0,0c5.3,0,10-2.4,13-6.3l0.1-0.1 l-1.7-1.3l-0.1,0.1c-2.7,3.4-6.5,5.5-11.3,5.5c-7.8,0-13.9-6.1-14-14.1v-0.1h27.7v-0.1c0,0,0.2-1.2,0.2-2.8l0,0 c0-4.4-1.7-8-4.3-10.4c-2.7-2.4-6.2-3.8-10-3.8l0,0C151.6,12.1,147.5,14,144.6,17z M168,26.1c0,0.2,0,0.4,0,0.8V27h-25.4h-0.1 v-0.1c0.9-7.2,6.4-12.6,13.4-12.6C162.3,14.3,168,18.7,168,26.1z"></path> <polygon class="st2" points="181.9,44.8 181.9,1 179.7,1 179.7,44.9 181.9,44.9 "></polygon> <polygon class="st2" points="195.6,44.8 195.6,1 193.2,1 193.2,44.9 195.6,44.9 "></polygon> </g> </g> </g> </g> </g> </svg> 