<?xml version="1.0" encoding="UTF-8"?> <!-- Generator: Adobe Illustrator 24.0.2, SVG Export Plug-In . SVG Version: 6.00 Build 0) --> <svg xmlns="http://www.w3.org/2000/svg" xmlns:xlink="http://www.w3.org/1999/xlink" id="Layer_1" x="0px" y="0px" viewBox="0 0 300 80" style="enable-background:new 0 0 300 80;" xml:space="preserve"> <style type="text/css"> .st0{fill:#1E417C;} .st1{fill:#20417C;} .st2{fill:#97BEE5;} .st3{fill:#FFFFFF;} </style> <g> <path class="st0" d="M117.7,19c2.9,0,5.2,0.7,6.8,2.2c1.7,1.5,2.6,3.6,2.5,5.9c0,2.4-0.8,4.4-2.5,5.8c-1.7,1.5-4,2.2-6.8,2.2h-4.3 v5.6l2.7,0.5v3h-10.5v-3l2.7-0.5V22.5l-2.7-0.5V19H117.7L117.7,19z M113.4,31.2h4.3c1.4,0,2.5-0.4,3.2-1.2c0.7-0.8,1.1-1.8,1.1-2.9 c0-1.1-0.4-2.2-1.1-3c-0.7-0.8-1.8-1.2-3.2-1.2h-4.3V31.2z"></path> <path class="st0" d="M137.6,44.6c-2.7,0-4.9-0.9-6.5-2.6c-1.6-1.7-2.4-3.9-2.4-6.6v-0.7c0-2.8,0.8-5.1,2.3-6.9 c1.5-1.8,3.6-2.7,6.2-2.7c2.5,0,4.5,0.8,5.9,2.3c1.4,1.5,2.1,3.6,2.1,6.2v2.8h-11.2l0,0.1c0.1,1.1,0.5,2.2,1.3,3.1 c0.8,0.8,1.9,1.3,3,1.2c0.9,0,1.9-0.1,2.8-0.3c0.8-0.3,1.7-0.6,2.4-1.1l1.4,3.1c-0.9,0.7-1.9,1.2-3,1.5 C140.4,44.4,139,44.6,137.6,44.6z M137.1,29c-0.9,0-1.7,0.4-2.2,1.1c-0.6,0.8-0.9,1.8-1,2.8l0.1,0.1h6.2v-0.5 c0-0.9-0.2-1.8-0.8-2.6C138.8,29.3,138,29,137.1,29L137.1,29z"></path> <path class="st0" d="M147.2,41.2l2.4-0.5V29l-2.7-0.5v-3.1h7.4l0.2,2.7c0.6-0.9,1.4-1.7,2.3-2.2c0.9-0.5,2-0.8,3.1-0.8 c1.9,0,3.4,0.6,4.4,1.8s1.6,3.1,1.6,5.6v8.2l2.4,0.5v3h-9.7v-3l2.2-0.5v-8.2c0-1.3-0.3-2.2-0.8-2.7c-0.5-0.5-1.3-0.8-2.3-0.8 c-0.6,0-1.2,0.1-1.8,0.4c-0.5,0.3-1,0.7-1.3,1.2v10.1l2,0.5v3h-9.6V41.2z"></path> <path class="st0" d="M169.8,41.2l2.4-0.5V29l-2.7-0.5v-3.1h7.4l0.2,2.7c0.6-0.9,1.4-1.7,2.3-2.2c0.9-0.5,2-0.8,3.1-0.8 c1.9,0,3.4,0.6,4.4,1.8s1.6,3.1,1.6,5.6v8.2l2.4,0.5v3h-9.7v-3l2.2-0.5v-8.2c0-1.3-0.3-2.2-0.8-2.7s-1.3-0.8-2.3-0.8 c-0.6,0-1.2,0.1-1.8,0.4c-0.5,0.3-1,0.7-1.3,1.2v10.1l2,0.5v3h-9.6V41.2z"></path> <path class="st0" d="M211.7,27h-3.8l-0.7-3.5c-0.6-0.3-1.3-0.6-1.9-0.7c-0.9-0.2-1.8-0.3-2.7-0.3c-1.4,0-2.5,0.3-3.2,0.9 c-0.7,0.5-1.2,1.4-1.1,2.3c0,0.9,0.5,1.6,1.2,2.1c0.8,0.6,2.2,1.1,4.1,1.7c2.8,0.8,4.9,1.8,6.3,3.1c1.4,1.3,2.2,3.1,2.2,5 c0.1,2-0.9,4-2.6,5.1c-1.7,1.3-4,1.9-6.8,1.9c-1.9,0-3.7-0.3-5.4-1c-1.5-0.6-2.9-1.5-4-2.6v-5.3h3.9l0.5,3.6c0.6,0.5,1.3,0.8,2.1,1 c0.9,0.3,1.9,0.4,2.9,0.4c1.4,0,2.5-0.3,3.2-0.8c0.7-0.5,1.1-1.4,1.1-2.3c0-0.9-0.3-1.8-1-2.3c-0.7-0.6-1.9-1.1-3.6-1.7 c-3-0.9-5.3-1.9-6.8-3.1c-1.5-1.2-2.4-3-2.3-4.9c0-2,1-3.9,2.6-5c1.7-1.3,3.9-2,6.5-2c1.8,0,3.6,0.3,5.3,0.9c1.5,0.5,2.8,1.3,4,2.4 L211.7,27z"></path> <path class="st0" d="M221.7,20.9v4.6h3.3V29h-3.3v9.6c-0.1,0.6,0.1,1.1,0.5,1.6c0.3,0.3,0.8,0.5,1.2,0.5c0.3,0,0.6,0,0.9,0 c0.3,0,0.6-0.1,0.9-0.1l0.4,3.7c-1.1,0.4-2.3,0.5-3.5,0.5c-1.7,0-3.1-0.5-4-1.4c-0.9-1-1.4-2.5-1.4-4.6V29h-2.8v-3.6h2.8v-4.6 H221.7z"></path> <path class="st0" d="M239.5,44.2c-0.1-0.3-0.3-0.6-0.4-1c-0.1-0.3-0.2-0.7-0.2-1c-0.6,0.7-1.4,1.3-2.2,1.7c-0.9,0.4-1.9,0.7-3,0.6 c-1.8,0-3.3-0.5-4.4-1.5c-1.1-1-1.6-2.4-1.6-4.1c-0.1-1.6,0.7-3.2,2.1-4.1c1.4-1,3.5-1.4,6.2-1.4h2.6v-1.8c0-0.8-0.2-1.5-0.8-2.1 c-0.6-0.5-1.5-0.8-2.3-0.7c-0.5,0-1,0.1-1.5,0.2c-0.4,0.1-0.8,0.3-1.1,0.5l-0.3,2h-3.8v-4.2c1-0.7,2.1-1.2,3.2-1.6 c1.3-0.4,2.6-0.7,3.9-0.6c2.3,0,4.2,0.6,5.7,1.7c1.5,1.1,2.2,2.8,2.2,4.9v7.8c0,0.3,0,0.6,0,0.8c0,0.2,0,0.5,0.1,0.7l1.5,0.2v3 L239.5,44.2z M235.1,40.9c0.7,0,1.4-0.2,2.1-0.5c0.6-0.3,1.1-0.7,1.5-1.3v-2.9H236c-0.9-0.1-1.8,0.2-2.5,0.8 c-0.5,0.5-0.8,1.1-0.8,1.8c0,0.6,0.2,1.1,0.6,1.5C233.8,40.7,234.4,40.9,235.1,40.9z"></path> <path class="st0" d="M253.1,20.9v4.6h3.3V29h-3.3v9.6c-0.1,0.6,0.1,1.1,0.5,1.6c0.3,0.3,0.8,0.5,1.2,0.5c0.3,0,0.6,0,0.9,0 c0.3,0,0.6-0.1,0.9-0.1l0.4,3.7c-0.5,0.2-1.1,0.3-1.7,0.4c-0.6,0.1-1.2,0.1-1.8,0.1c-1.7,0-3.1-0.5-4-1.4c-0.9-1-1.4-2.5-1.4-4.6 V29h-2.8v-3.6h2.8v-4.6H253.1z"></path> <path class="st0" d="M267.9,44.6c-2.7,0-4.9-0.9-6.5-2.6c-1.6-1.7-2.4-3.9-2.4-6.6v-0.7c0-2.8,0.8-5.1,2.3-6.9 c1.5-1.8,3.6-2.7,6.2-2.7c2.5,0,4.5,0.8,5.9,2.3s2.1,3.6,2.1,6.2v2.8h-11.2l0,0.1c0.1,1.1,0.5,2.2,1.3,3.1c0.8,0.8,1.9,1.3,3,1.2 c0.9,0,1.9-0.1,2.8-0.3c0.8-0.3,1.7-0.6,2.4-1.1l1.4,3.1c-0.9,0.7-1.9,1.2-3,1.5C270.7,44.4,269.3,44.6,267.9,44.6z M267.4,29 c-0.9,0-1.7,0.4-2.2,1.1c-0.6,0.8-0.9,1.8-1,2.8l0.1,0.1h6.2v-0.5c0-0.9-0.2-1.8-0.8-2.6C269.2,29.3,268.3,29,267.4,29z"></path> <g> <g> <path class="st1" d="M46.4,40.9l2.5,4.7l8,2.7l1.4-3.7l0.8,3.7l4.1,4.7h6.1l3.8-1l1.7-2.3l1.7,2.3l2.7,1l3.5-4.7 c0,0,0.1-3.5,0-3.9c-0.1-0.4-1-1.8-1-1.8s1.6-6.2,1.7-6.6c0-0.4-1.7-3.1-1.7-3.1l-1.3-0.8c0,0,0-1.7-0.1-2 c-0.1-0.3-1.4-1.3-1.7-1.4c-0.3-0.1-1.4-0.1-1.8,0s-0.4,1.7-0.4,1.7l1,1.7l2,1.4c0,0-2,0.4-2.4,0.1c-0.4-0.3-2.3-3.8-2.4-4.2 c-0.1-0.4,1-2.4,1-2.4s2-0.8,2.5-0.8c0.6,0,2.7,1.6,2.8,1.8c0.3,0.3,0.6,2.4,0.6,2.4s1.7-1.6,1.6-2.1C83,27.5,80.6,25,80.6,25 s1.6-2.7,1.8-3.2c0.1-0.6,0-2.7-0.3-3.7s-1.8-2.8-1.8-2.8s-2.1-0.3-3.2,0c-1.1,0.3-3.8,2-4.2,2.4c-0.4,0.4,0.3,1.1,0.3,1.1 l-3.2-1.1c0,0-3.7-1-5.6-1.1c-2-0.1-10.2,0-10.2,0l-4.2-5.1h-1.3l-2.8,1.7c0,0-1.4,1.3-2,2.8c-0.4,1.4,1.1,8.5,1.1,8.5L43.8,24 l-1-0.7l-4.4,6.5l-2.1,4.4l-1,3.5l0.6,3.4l0.3,3.2l-0.8,2.8L33.5,50v3.1c0,0-3.1-6.5-3.9-8.6c-0.8-2.1-1.4-8-1.4-8V7.2 c0,0,5.6-2.1,16.2-4.2s19.2-2,19.2-2S75.8,1.4,83,2.8c7.2,1.3,15.7,4.1,15.7,4.1v30.2c0,0-0.6,6.5-4.4,14.5 c-3.8,8-9.2,12.3-9.2,12.3l-5.2,4.9l-3.5,2.7l-2.8-1.7l-1-1.7L72,65.6l-0.6-1.3L66,70.7l-2.4,3.4l-0.1,4.8V80l-10.6-6.9l-6.2-4.7 l-3.5-3.5l-1.8-3.7l0.1-6.6l1.7-3.5l2.3-3l1-3.4V40.9z"></path> <polygon class="st1" points="49,25 50.7,23 52.6,21.7 50.8,17.2 49,14 47.7,14 46.4,15.3 46,17.5 46,20.2 47,22.6 47.7,24.4 "></polygon> <polygon class="st1" points="76.3,21.3 78.3,18.5 79.9,17.4 80.6,18.5 80.6,20.1 80.6,21.9 79.3,23.6 "></polygon> <polygon class="st1" points="62.2,33 60.1,31.6 59.5,30.5 61,28.7 62.2,28.1 65,28.8 66,29.9 65,32.3 66.6,32 67.7,30.5 67.7,28.5 66.2,26.1 64.2,25 60.5,25.7 58.3,26.8 56.6,29.1 55.2,30.9 55.9,32.2 57.3,32 58.4,31.5 59.5,33 61,33.6 "></polygon> <path class="st1" d="M71,43.5l1-1.6l2-1c0,0,5.6-0.3,5.9,0s1.1,2.5,1.1,2.5l-1.1,0.7h-1.6l-0.8,1.1l-0.7,2l-1.6,0.8l0.8-2.4 l-1.1-1.1l-2-0.6L71,43.5z"></path> <polygon class="st2" points="67.7,28.5 69.7,30.9 71.3,34.6 72.9,38.7 73.2,40.6 72.9,41.5 72,41.9 71,43.5 70.4,41.4 69.1,37 67.4,32.9 66.6,32 67.7,30.5 "></polygon> <polygon class="st2" points="82,42.5 83.5,35.9 82.7,33.7 82.4,35.6 81.3,36.3 80,37.3 79.7,38.1 80.1,39.1 "></polygon> <path class="st2" d="M63.5,52.9l0.3-3.1l1-2.7l0.4-2l-1.3-3.2l-1.3-2.8L60.3,38c0,0-2.5-0.4-2.8-0.4S53.2,37,53.2,37l-3.1-0.3 L48,34.6L46.9,32l-0.7-1.8l-1-0.8l-0.7,1.3c0,0,0.3,1.6,0.4,2C45,33,45,37,45,37l-0.1,3.2L44,41.9l-2,2.8l-2,2.5v2.8v3l1.1,3.5 l0.3-2l1.7-3.5l2.3-3l1-3.4l0.1-3.8l0.7,1.1l1.8,3.4l8,2.7l1.4-3.7l0.8,3.7L63.5,52.9z"></path> <polygon class="st2" points="72,65.6 71.4,64.3 66,70.7 63.6,74.1 63.5,80 67.6,77.6 72.1,74.6 71.4,71.3 71.3,68.6 "></polygon> <polygon class="st3" points="65.5,55.9 68.9,54.3 71.7,53.8 74.4,53.8 76.8,53.9 77.9,54.8 77.2,56 75.3,57.9 72.4,58.1 68,58 65.9,57 "></polygon> </g> </g> </g> </svg> 