<?xml version="1.0" encoding="UTF-8"?> <!-- Generator: Adobe Illustrator 24.0.2, SVG Export Plug-In . SVG Version: 6.00 Build 0) --> <svg xmlns="http://www.w3.org/2000/svg" xmlns:xlink="http://www.w3.org/1999/xlink" id="Layer_1" x="0px" y="0px" viewBox="0 0 60 60" style="enable-background:new 0 0 60 60;" xml:space="preserve"> <style type="text/css"> .st0{fill:#8A2432;} .st1{fill:#004A98;} .st2{fill:#789904;} </style> <g id="new_leaf"> <path class="st0" d="M11.9,46.6c2.1,1.2,4.4,1.9,6.8,2.4c10.4,1.9,18.2-5.3,24.6-12.3c4.2-4.6,10.2-9.6,16.7-9.9 c-0.2-7.6-3.3-14.8-8.7-20.2c0,0.2,0.1,0.4,0.1,0.5c0.4,2.3,0.4,4.6,0,7c-0.8,3.3-2,6.5-3.9,9.4c-5.7,9.7-17.1,15.3-28.1,15 c-1.9-0.1-3.9-0.5-5.6-1.3c-5.9-2.7-8.2-10.1-8.2-16.1C5.7,14.4,8.3,8,12.9,3C5.7,8-0.2,17.2,0,26.4c0,3,0.6,6.1,1.8,8.9 C3.9,40,7.4,44,11.9,46.6z"></path> <path class="st1" d="M37,46.1c-5,4.9-12.1,7.1-19.1,5.9c-2.8-0.4-5.5-1.2-8.2-2.1C22,61,41,60.3,52.1,48c4.2-4.5,6.9-10.3,7.6-16.4 C50.4,29.2,43,40.2,37,46.1z"></path> <path class="st2" d="M10,30C1.2,7.7,22.9-0.1,46.6,2.8c-11.3,9.3-4.6,35.3-31.9,31c0,0,4.2-19.9,20.9-25.8L35.5,8 c-23.9,7.4-22.9,25-22.9,25C11.4,32.3,10.5,31.3,10,30z"></path> </g> </svg> 